<?xml version="1.0" encoding="UTF-8"?>
<!DOCTYPE svg PUBLIC "-//W3C//DTD SVG 1.1//EN" "http://www.w3.org/Graphics/SVG/1.1/DTD/svg11.dtd">
<!-- Creator: CorelDRAW X6 -->
<svg xmlns="http://www.w3.org/2000/svg" xml:space="preserve" width="1.42092in" height="1.42092in" version="1.1" style="shape-rendering:geometricPrecision; text-rendering:geometricPrecision; image-rendering:optimizeQuality; fill-rule:evenodd; clip-rule:evenodd"
viewBox="0 0 587 587"
 xmlns:xlink="http://www.w3.org/1999/xlink">
 <defs>
  <style type="text/css">
   <![CDATA[
    .fil0 {fill:#333333;fill-rule:nonzero}
   ]]>
  </style>
 </defs>
 <g id="Layer_x0020_1">
  <metadata id="CorelCorpID_0Corel-Layer"/>
  <path class="fil0" d="M293 0c162,0 293,131 293,293 0,162 -131,293 -293,293 -162,0 -293,-131 -293,-293 0,-162 131,-293 293,-293zm-10 528l0 26c0,5 4,10 10,10 5,0 10,-4 10,-10l0 -26c122,-5 220,-103 225,-225l26 0c5,0 10,-4 10,-10 0,-5 -4,-10 -10,-10l-26 0c-5,-122 -103,-219 -225,-224l0 -26c0,-5 -4,-10 -10,-10 -5,0 -10,4 -10,10l0 26c-122,5 -219,103 -225,224l-26 0c-5,0 -10,4 -10,10 0,5 4,10 10,10l26 0c5,122 103,220 225,225z"/>
  <path class="fil0" d="M293 70c123,0 223,100 223,223 0,123 -100,223 -223,223 -123,0 -223,-100 -223,-223 0,-123 100,-223 223,-223zm158 65l-38 28c-32,-29 -74,-47 -120,-47 -97,0 -177,79 -177,177 0,46 18,88 47,120l-28 38 38 -28c32,29 74,47 120,47 97,0 177,-79 177,-177 0,-46 -18,-88 -47,-120l28 -38z"/>
  <path class="fil0" d="M419 157l-124 91c-12,-1 -25,4 -34,13l6 58 58 6c9,-9 14,-22 13,-34l91 -124 -10 -10 -1 -1zm-126 123c7,0 13,6 13,13 0,7 -6,13 -13,13 -7,0 -13,-6 -13,-13 0,-7 6,-13 13,-13z"/>
  <path class="fil0" d="M261 261c-9,9 -14,22 -13,34l-91 124 11 11 124 -91c12,1 25,-4 34,-13l-23 -23c-2,2 -6,4 -9,4 -7,0 -13,-6 -13,-13 0,-4 1,-7 4,-9l-23 -23z"/>
 </g>
</svg>
