<?xml version="1.0" encoding="UTF-8"?>
<!DOCTYPE svg PUBLIC "-//W3C//DTD SVG 1.1//EN" "http://www.w3.org/Graphics/SVG/1.1/DTD/svg11.dtd">
<!-- Creator: CorelDRAW X6 -->
<svg xmlns="http://www.w3.org/2000/svg" xml:space="preserve" width="0.626492in" height="0.810047in" version="1.1" style="shape-rendering:geometricPrecision; text-rendering:geometricPrecision; image-rendering:optimizeQuality; fill-rule:evenodd; clip-rule:evenodd"
viewBox="0 0 123 158"
 xmlns:xlink="http://www.w3.org/1999/xlink">
 <defs>
  <style type="text/css">
   <![CDATA[
    .fil0 {fill:#00AB98}
   ]]>
  </style>
 </defs>
 <g id="Layer_x0020_1">
  <metadata id="CorelCorpID_0Corel-Layer"/>
  <path class="fil0" d="M56 59c1,-4 10,-4 11,0 12,36 14,41 30,93 0,0 0,1 0,1 0,1 0,3 -2,4l0 0c-2,2 -5,1 -6,-1l-28 -33 -29 34c-2,2 -4,2 -6,0l0 0c-2,-1 -2,-4 -1,-5 10,-31 20,-62 30,-93zm6 11l-9 27 10 12 9 -10 -10 -29zm13 39l-6 7 14 17 -8 -24zm-33 25l16 -18 -7 -9 -9 27z"/>
  <circle class="fil0" cx="62" cy="43" r="9"/>
  <path class="fil0" d="M38 24c1,-2 2,-2 2,-3 1,-1 1,-1 2,-1 1,0 1,0 1,1 0,1 0,1 0,2 0,1 -1,2 -2,3 -1,1 -2,3 -3,6 -1,3 -2,7 -2,11 0,4 1,8 2,11 1,3 3,6 4,7 1,1 1,2 1,2 0,1 0,2 -1,2 0,1 -1,1 -2,1 -1,0 -1,0 -2,-1 -1,-1 -2,-2 -3,-4 -1,-2 -2,-4 -3,-6 -1,-2 -1,-5 -2,-8 0,-3 0,-6 0,-10 0,-3 1,-6 2,-8 1,-2 2,-5 3,-6z"/>
  <path class="fil0" d="M25 15c1,-2 2,-3 3,-4 1,-1 2,-1 3,-1 1,0 2,1 2,1 0,1 1,2 0,3 0,1 -2,2 -3,4 -1,2 -3,4 -4,8 -1,4 -3,9 -3,15 0,6 1,11 3,16 2,4 4,8 5,10 1,2 2,2 2,3 0,1 0,2 -1,3 -1,1 -2,1 -2,1 -1,0 -2,0 -3,-2 -1,-1 -2,-3 -4,-5 -1,-2 -3,-6 -4,-9 -1,-3 -2,-6 -2,-10 0,-4 0,-9 0,-13 0,-4 1,-8 3,-11 1,-3 3,-7 5,-9z"/>
  <path class="fil0" d="M10 6c2,-3 3,-4 4,-5 1,-1 3,-1 4,-1 1,0 2,1 3,2 1,1 1,2 0,4 -1,2 -2,3 -4,5 -2,2 -3,5 -5,10 -2,5 -3,12 -3,19 0,7 2,14 4,20 2,6 5,10 7,12 2,2 2,3 2,4 0,1 0,3 -1,4 -1,1 -2,2 -3,1 -1,0 -2,-1 -4,-2 -1,-1 -3,-3 -5,-6 -2,-3 -4,-7 -5,-11 -2,-4 -3,-8 -3,-13 0,-5 0,-12 0,-17 1,-5 2,-10 3,-14 2,-4 4,-9 6,-11z"/>
  <path class="fil0" d="M84 24c-1,-2 -2,-2 -2,-3 -1,-1 -1,-1 -2,-1 -1,0 -1,0 -2,1 0,1 0,1 0,2 0,1 1,2 2,3 1,1 2,3 3,6 1,3 2,7 2,11 0,4 -1,8 -2,11 -1,3 -3,6 -4,7 -1,1 -1,2 -1,2 0,1 0,2 1,2 0,1 1,1 2,1 1,0 1,0 2,-1 1,-1 2,-2 3,-4 1,-2 2,-4 3,-6 1,-2 1,-5 2,-8 0,-3 0,-6 0,-10 0,-3 -1,-6 -2,-8 -1,-2 -2,-5 -3,-6z"/>
  <path class="fil0" d="M98 15c-1,-2 -2,-3 -3,-4 -1,-1 -2,-1 -3,-1 -1,0 -2,1 -2,1 0,1 -1,2 0,3 0,1 2,2 3,4 1,2 3,4 4,8 1,4 3,9 3,15 0,6 -1,11 -3,16 -2,4 -4,8 -5,10 -1,2 -2,2 -2,3 0,1 0,2 1,3 1,1 2,1 2,1 1,0 2,0 3,-2 1,-1 2,-3 4,-5 1,-2 3,-6 4,-9 1,-3 2,-6 2,-10 0,-4 0,-9 0,-13 0,-4 -1,-8 -3,-11 -1,-3 -3,-7 -5,-9z"/>
  <path class="fil0" d="M113 6c-2,-3 -3,-4 -4,-5 -1,-1 -3,-1 -4,-1 -1,0 -2,1 -3,2 -1,1 -1,2 0,4 1,2 2,3 4,5 2,2 3,5 5,10 2,5 3,12 3,19 0,7 -2,14 -4,20 -2,6 -5,10 -7,12 -2,2 -2,3 -2,4 0,1 0,3 1,4 1,1 2,2 3,1 1,0 2,-1 4,-2 1,-1 3,-3 5,-6 2,-3 4,-7 5,-11 2,-4 3,-8 3,-13 0,-5 0,-12 0,-17 -1,-5 -2,-10 -3,-14 -2,-4 -4,-9 -6,-11z"/>
 </g>
</svg>
