<?xml version="1.0" encoding="UTF-8"?>
<!DOCTYPE svg PUBLIC "-//W3C//DTD SVG 1.1//EN" "http://www.w3.org/Graphics/SVG/1.1/DTD/svg11.dtd">
<!-- Creator: CorelDRAW X6 -->
<svg xmlns="http://www.w3.org/2000/svg" xml:space="preserve" width="0.529866in" height="0.530638in" version="1.1" style="shape-rendering:geometricPrecision; text-rendering:geometricPrecision; image-rendering:optimizeQuality; fill-rule:evenodd; clip-rule:evenodd"
viewBox="0 0 717 718"
 xmlns:xlink="http://www.w3.org/1999/xlink">
 <defs>
  <style type="text/css">
   <![CDATA[
    .fil0 {fill:#00AB98}
   ]]>
  </style>
 </defs>
 <g id="Layer_x0020_1">
  <metadata id="CorelCorpID_0Corel-Layer"/>
  <path class="fil0" d="M159 587c0,15 -13,28 -28,28 -15,0 -28,-13 -28,-28 0,-15 13,-28 28,-28 15,0 28,13 28,28zm281 -184c-57,-23 -103,-69 -126,-126l-298 298c-10,10 -17,25 -17,40 0,15 6,29 17,39l46 47c10,10 25,16 40,16 15,0 29,-6 39,-16l298 -298zm277 -190c0,-9 -5,-15 -14,-15 -9,0 -110,64 -125,72l-84 -47 0 -98 128 -74c4,-3 7,-7 7,-12 0,-5 -3,-9 -7,-12 -27,-18 -68,-28 -100,-28 -108,0 -196,88 -196,196 0,108 88,196 196,196 83,0 157,-54 185,-131 5,-14 10,-32 10,-46z"/>
 </g>
</svg>
