<?xml version="1.0" encoding="UTF-8"?>
<!DOCTYPE svg PUBLIC "-//W3C//DTD SVG 1.1//EN" "http://www.w3.org/Graphics/SVG/1.1/DTD/svg11.dtd">
<!-- Creator: CorelDRAW X6 -->
<svg xmlns="http://www.w3.org/2000/svg" xml:space="preserve" width="0.624in" height="0.714701in" version="1.1" style="shape-rendering:geometricPrecision; text-rendering:geometricPrecision; image-rendering:optimizeQuality; fill-rule:evenodd; clip-rule:evenodd"
viewBox="0 0 52 60"
 xmlns:xlink="http://www.w3.org/1999/xlink">
 <defs>
  <style type="text/css">
   <![CDATA[
    .fil0 {fill:#00AB98}
   ]]>
  </style>
 </defs>
 <g id="Layer_x0020_1">
  <metadata id="CorelCorpID_0Corel-Layer"/>
  <path class="fil0" d="M32 8c12,3 20,13 20,25 0,14 -12,26 -26,26 -14,0 -26,-12 -26,-26 0,-12 8,-22 19,-25 -1,1 -2,3 -2,3 -1,2 -2,3 -2,5 0,0 0,1 0,1 -2,2 -5,4 -6,6l9 0c2,2 4,3 7,3 3,0 5,-1 7,-3l10 0c-2,-3 -4,-5 -7,-7 0,0 0,0 0,0 0,-2 -1,-4 -2,-5 0,-1 -1,-2 -2,-3zm10 37l-13 0 0 8c5,-1 10,-4 13,-8zm-19 0l-12 0c3,4 7,7 12,8l0 -8zm-15 -7l15 0 0 -7 -15 0c0,1 0,2 0,3 0,2 0,3 1,5zm22 0l16 0c0,-1 1,-3 1,-5 0,-1 0,-2 0,-3l-16 0 0 7z"/>
  <path class="fil0" d="M26 19c0,1 -1,2 -2,2 -1,0 -2,-1 -2,-2 0,0 0,-1 0,-1 0,0 1,-2 1,-3 0,0 0,0 0,0 0,0 0,0 0,0 0,1 1,2 1,3 0,0 0,1 0,1l0 0zm9 -2c0,-2 -1,-3 -1,-5 -1,-1 -5,-6 -6,-11 0,-1 -1,-1 -1,-1 -1,0 -1,0 -1,1 -1,5 -5,9 -6,11 -1,1 -1,3 -1,5 0,5 4,9 9,9 5,0 9,-4 9,-9z"/>
 </g>
</svg>
