<?xml version="1.0" encoding="UTF-8"?>
<!DOCTYPE svg PUBLIC "-//W3C//DTD SVG 1.1//EN" "http://www.w3.org/Graphics/SVG/1.1/DTD/svg11.dtd">
<!-- Creator: CorelDRAW X6 -->
<svg xmlns="http://www.w3.org/2000/svg" xml:space="preserve" width="0.674386in" height="0.674386in" version="1.1" style="shape-rendering:geometricPrecision; text-rendering:geometricPrecision; image-rendering:optimizeQuality; fill-rule:evenodd; clip-rule:evenodd"
viewBox="0 0 84 84"
 xmlns:xlink="http://www.w3.org/1999/xlink">
 <defs>
  <style type="text/css">
   <![CDATA[
    .fil0 {fill:#00AB98}
   ]]>
  </style>
 </defs>
 <g id="Layer_x0020_1">
  <metadata id="CorelCorpID_0Corel-Layer"/>
  <path class="fil0" d="M82 21c-2,-2 -6,-2 -8,0l-19 19 -11 -11 19 -19c2,-2 2,-6 0,-8 -2,-2 -6,-2 -8,0l-19 19 -7 -7 -7 7c-10,10 -12,26 -4,38l-17 17 0 8 8 0 17 -17c12,8 27,6 38,-4l7 -7 -7 -7 19 -19c2,-2 2,-6 0,-8z"/>
 </g>
</svg>
