<?xml version="1.0" encoding="UTF-8"?>
<!DOCTYPE svg PUBLIC "-//W3C//DTD SVG 1.1//EN" "http://www.w3.org/Graphics/SVG/1.1/DTD/svg11.dtd">
<!-- Creator: CorelDRAW X6 -->
<svg xmlns="http://www.w3.org/2000/svg" xml:space="preserve" width="0.862933in" height="0.450248in" version="1.1" style="shape-rendering:geometricPrecision; text-rendering:geometricPrecision; image-rendering:optimizeQuality; fill-rule:evenodd; clip-rule:evenodd"
viewBox="0 0 139 73"
 xmlns:xlink="http://www.w3.org/1999/xlink">
 <defs>
  <style type="text/css">
   <![CDATA[
    .fil0 {fill:#00AB98}
   ]]>
  </style>
 </defs>
 <g id="Layer_x0020_1">
  <metadata id="CorelCorpID_0Corel-Layer"/>
  <path class="fil0" d="M60 0l56 0c13,0 23,10 23,23l0 24c0,13 -10,23 -23,23l-59 0 7 -2c0,0 1,0 1,0 3,-1 7,-2 10,-4 3,-2 6,-4 8,-7 2,-3 4,-6 6,-10 1,-3 2,-7 2,-11 0,-4 0,-7 -1,-11 -1,-4 -2,-7 -5,-10 -2,-3 -5,-6 -9,-9 -3,-2 -7,-4 -11,-5 -1,0 -1,0 -2,0l-4 -1z"/>
  <path class="fil0" d="M49 3c2,0 5,-1 7,-1 2,0 5,0 8,1 3,1 7,3 10,5 3,2 6,5 8,8 2,3 3,6 4,10 1,3 1,7 1,10 0,3 -1,7 -2,10 -1,3 -3,7 -5,9 -2,3 -5,5 -8,7 -3,2 -6,3 -9,4 -3,1 -5,1 -7,1 -2,0 -5,0 -7,-1 4,-1 7,-3 10,-5 3,-2 6,-5 8,-9 2,-3 4,-7 5,-11 1,-4 1,-8 1,-11 0,-3 -1,-6 -2,-9 -1,-3 -3,-6 -5,-8 -2,-3 -5,-5 -7,-6 -3,-2 -6,-3 -9,-4z"/>
  <path class="fil0" d="M50 8c-2,2 -5,5 -7,9 -2,4 -4,9 -5,15 -1,5 -1,11 -1,14 0,3 0,5 1,7 -2,1 -4,3 -6,4 -1,-2 -1,-4 -2,-7 0,-3 -1,-6 -1,-9 0,-3 0,-6 1,-9 1,-3 1,-6 3,-9 1,-3 4,-6 6,-8 2,-2 4,-4 6,-5 2,-1 3,-2 4,-2 1,1 2,1 3,2z"/>
  <path class="fil0" d="M65 44c-1,0 -3,2 -5,2 -2,1 -5,0 -7,1 -3,1 -6,2 -9,4 -1,1 -3,2 -4,3 2,0 3,0 5,0 2,0 5,0 7,1 2,1 5,3 7,4 1,1 1,1 2,2 2,-2 4,-4 5,-6 1,-2 2,-5 3,-7 1,-2 1,-3 0,-3 0,-1 -1,-1 -3,0zm-31 13c-1,1 -2,1 -3,1 -2,0 -3,-2 -5,-3 -1,-1 -2,-3 -3,-3 -1,0 -2,1 -3,2 -1,1 -1,3 0,4 0,1 1,2 1,3l0 0c1,1 4,2 7,4 3,1 7,2 11,2 3,0 6,0 8,0 1,0 3,0 3,0 1,0 1,-1 2,-1 2,-1 4,-2 6,-4l0 0c-1,0 -1,-1 -3,-2 -2,-1 -4,-2 -7,-2 -3,0 -6,-1 -9,0 -3,0 -5,1 -7,1zm-15 5c-1,0 -3,0 -4,-1 -2,-1 -3,-2 -4,-1 -1,0 -2,2 -3,2 -1,1 -2,0 -3,-1 -1,-1 -2,-3 -3,-3 -1,0 -2,2 -2,4 0,2 2,5 6,7 4,2 9,3 15,3 6,0 12,0 16,-1 4,-1 8,-3 10,-4l0 0c-2,0 -3,1 -6,0 -3,0 -8,-1 -11,-1 -4,-1 -7,-2 -8,-3 -1,0 -2,-1 -2,-1z"/>
  <path class="fil0" d="M16 47c-1,-1 -2,-2 -3,-4 -1,-2 -1,-4 -3,-5 -1,-1 -3,0 -4,1 -1,1 0,4 1,6 2,2 4,3 6,4 2,1 3,1 3,1 0,0 0,-1 -1,-2z"/>
  <path class="fil0" d="M22 46c0,-1 0,-3 0,-4 0,-1 0,-3 0,-4 -1,-1 -2,0 -3,1 -1,1 -1,3 0,5 1,2 2,3 3,4 1,0 0,-1 0,-2z"/>
  <path class="fil0" d="M14 51c-1,-1 -3,-1 -5,-1 -2,0 -3,1 -4,2 -1,1 0,2 0,3 1,1 2,0 3,-1 1,-1 2,-1 3,-2 1,0 3,0 3,0 0,0 0,-1 -2,-2z"/>
 </g>
</svg>
