<?xml version="1.0" encoding="UTF-8"?>
<!DOCTYPE svg PUBLIC "-//W3C//DTD SVG 1.1//EN" "http://www.w3.org/Graphics/SVG/1.1/DTD/svg11.dtd">
<!-- Creator: CorelDRAW X6 -->
<svg xmlns="http://www.w3.org/2000/svg" xml:space="preserve" width="0.923106in" height="1.13365in" version="1.1" style="shape-rendering:geometricPrecision; text-rendering:geometricPrecision; image-rendering:optimizeQuality; fill-rule:evenodd; clip-rule:evenodd"
viewBox="0 0 347 426"
 xmlns:xlink="http://www.w3.org/1999/xlink">
 <defs>
  <style type="text/css">
   <![CDATA[
    .str0 {stroke:#00AB98;stroke-width:2.61271}
    .fil0 {fill:#00AB98}
    .fil1 {fill:white}
   ]]>
  </style>
 </defs>
 <g id="Layer_x0020_1">
  <metadata id="CorelCorpID_0Corel-Layer"/>
  <rect class="fil0" x="163" width="23" height="43" rx="12" ry="12"/>
  <rect class="fil0" transform="matrix(1.11013 0.692795 -0.692795 1.11013 219.502 13.3571)" width="18" height="33" rx="12" ry="12"/>
  <rect class="fil0" transform="matrix(1.15431 -0.616375 0.616375 1.15431 110.15 23.7574)" width="18" height="33" rx="12" ry="12"/>
  <path class="fil0 str0" d="M232 111c2,-1 4,-1 5,-2 1,-1 1,-3 1,-7 0,-5 -1,-13 -2,-17 -1,-4 -1,-5 -2,-6 -1,0 -2,-1 -13,1 -10,2 -30,5 -40,7 -10,2 -10,4 -10,8 0,4 1,12 2,16 1,5 1,6 3,7 2,1 5,0 7,1 2,1 3,2 5,11 2,9 4,26 5,40 1,14 2,24 2,30 0,6 -2,7 -5,10 -3,3 -7,8 -10,13 -3,5 -4,11 -4,18 0,7 1,15 7,40 6,25 18,66 26,92 8,26 12,36 14,42 3,6 4,7 6,8 2,1 5,1 13,-1 8,-2 22,-6 38,-11 16,-6 36,-13 46,-18 11,-5 12,-6 14,-9 2,-2 3,-6 3,-10 0,-4 -1,-9 -10,-38 -9,-28 -24,-80 -34,-108 -10,-27 -13,-30 -17,-33 -4,-3 -9,-5 -13,-6 -4,-1 -8,-1 -10,-2 -2,-1 -3,-4 -7,-16 -4,-12 -12,-34 -15,-46 -4,-11 -4,-12 -5,-13 -1,0 -2,0 -3,1 -1,1 -1,3 3,17 4,14 12,39 16,52 5,13 6,15 7,15 1,1 3,0 5,0 2,0 6,1 9,2 4,2 7,4 13,16 6,11 13,32 22,57 9,26 18,57 23,74 5,18 6,22 6,25 0,3 -1,6 -3,7 -2,2 -3,2 -19,8 -16,6 -45,16 -61,21 -16,5 -18,5 -20,3 -2,-2 -2,-5 -10,-30 -8,-25 -22,-73 -29,-101 -7,-28 -8,-36 -7,-42 0,-6 2,-9 5,-14 3,-5 9,-10 12,-15 3,-5 3,-11 3,-18 -1,-7 -3,-16 -5,-29 -2,-13 -5,-31 -7,-40 -2,-9 -3,-10 -4,-11 -1,-1 -2,-1 -4,-1 -1,0 -3,0 -4,-3 -1,-3 -2,-9 -1,-12 1,-3 4,-3 12,-5 8,-1 21,-4 28,-5 7,-1 8,0 8,2 1,2 1,5 1,7 0,3 0,5 -1,7 -1,2 -2,3 -4,4 -2,1 -5,2 -7,3 -2,1 -1,3 0,3 1,1 3,0 6,-1 3,-1 6,-2 8,-3z"/>
  <path class="fil0" d="M201 149c4,0 11,4 17,8 6,3 10,5 14,6 4,1 8,1 11,2 3,1 5,3 7,9 3,6 6,15 11,20 5,5 11,5 18,9 7,4 14,12 22,35 8,23 18,61 25,86 8,24 13,35 16,43 2,8 2,13 -10,21 -12,7 -34,17 -52,23 -18,7 -32,10 -40,10 -9,0 -12,-3 -19,-27 -7,-24 -17,-68 -25,-97 -8,-29 -14,-42 -15,-53 -2,-11 1,-19 6,-26 5,-7 12,-12 14,-22 2,-10 -2,-26 -4,-35 -1,-10 0,-14 4,-13z"/>
  <ellipse class="fil1" cx="257" cy="293" rx="29" ry="31"/>
  <path class="fil0 str0" d="M115 111c-2,-1 -4,-1 -5,-2 -1,-1 -1,-3 -1,-7 0,-5 1,-13 2,-17 1,-4 1,-5 2,-6 1,0 2,-1 12,1 10,2 30,5 40,7 10,2 10,4 10,8 0,4 -1,12 -2,16 -1,5 -1,6 -3,7 -2,1 -5,0 -7,1 -2,1 -3,2 -5,11 -2,9 -4,26 -5,40 -1,14 -2,24 -2,30 0,6 2,7 5,10 3,3 7,8 10,13 3,5 4,11 4,18 0,7 -1,15 -7,40 -6,25 -18,66 -26,92 -8,26 -12,36 -14,42 -3,6 -4,7 -6,8 -2,1 -5,1 -13,-1 -8,-2 -22,-6 -38,-11 -16,-6 -36,-13 -46,-18 -11,-5 -12,-6 -14,-9 -2,-2 -3,-6 -3,-10 0,-4 1,-9 10,-38 9,-28 24,-80 34,-108 10,-27 13,-30 17,-33 4,-3 9,-5 13,-6 4,-1 8,-1 10,-2 2,-1 3,-4 7,-16 4,-12 12,-34 15,-46 4,-11 4,-12 5,-13 1,0 2,0 3,1 1,1 1,3 -3,17 -4,14 -12,39 -16,52 -4,13 -6,15 -7,15 -1,1 -3,0 -5,0 -2,0 -6,1 -9,2 -4,2 -7,4 -13,16 -6,11 -13,32 -22,57 -9,26 -18,57 -23,74 -5,18 -6,22 -6,25 0,3 1,6 3,7 2,2 3,2 19,8 16,6 45,16 61,21 16,5 18,5 20,3 2,-2 2,-5 10,-30 8,-25 22,-73 29,-101 7,-28 8,-36 7,-42 0,-6 -2,-9 -5,-14 -3,-5 -9,-10 -12,-15 -3,-5 -3,-11 -3,-18 1,-7 3,-16 5,-29 2,-13 5,-31 7,-40 2,-9 3,-10 4,-11 1,-1 2,-1 4,-1 1,0 3,0 4,-3 1,-3 2,-9 1,-12 -1,-3 -4,-3 -12,-5 -8,-1 -21,-4 -28,-5 -7,-1 -8,0 -8,2 -1,2 -1,5 -1,7 0,3 0,5 1,7 1,2 2,3 4,4 2,1 5,2 7,3 2,1 1,3 0,3 -1,1 -3,0 -6,-1 -3,-1 -6,-2 -8,-3z"/>
  <path class="fil0" d="M146 149c-4,0 -11,4 -17,8 -6,3 -10,5 -14,6 -4,1 -8,1 -11,2 -3,1 -5,3 -7,9 -3,6 -6,15 -11,20 -5,5 -11,5 -18,9 -7,4 -14,12 -22,35 -8,23 -18,61 -25,86 -8,24 -13,35 -16,43 -2,8 -2,13 10,21 12,7 34,17 52,23 18,7 32,10 40,10 9,0 12,-3 19,-27 7,-24 17,-68 25,-97 8,-29 14,-42 15,-53 2,-11 -1,-19 -6,-26 -5,-7 -12,-12 -14,-22 -2,-10 2,-26 4,-35 1,-10 0,-14 -4,-13z"/>
  <ellipse class="fil1" cx="90" cy="293" rx="29" ry="31"/>
  <rect class="fil0" transform="matrix(0.719337 -1.09311 1.09311 0.719337 79.9226 71.9956)" width="18" height="33" rx="12" ry="12"/>
  <rect class="fil0" transform="matrix(0.817093 1.02211 -1.02211 0.817093 248.976 48.8983)" width="18" height="33" rx="12" ry="12"/>
 </g>
</svg>
