<?xml version="1.0" encoding="UTF-8"?>
<!DOCTYPE svg PUBLIC "-//W3C//DTD SVG 1.1//EN" "http://www.w3.org/Graphics/SVG/1.1/DTD/svg11.dtd">
<!-- Creator: CorelDRAW X6 -->
<svg xmlns="http://www.w3.org/2000/svg" xml:space="preserve" width="0.790122in" height="0.685685in" version="1.1" style="shape-rendering:geometricPrecision; text-rendering:geometricPrecision; image-rendering:optimizeQuality; fill-rule:evenodd; clip-rule:evenodd"
viewBox="0 0 315 273"
 xmlns:xlink="http://www.w3.org/1999/xlink">
 <defs>
  <style type="text/css">
   <![CDATA[
    .fil0 {fill:#00AB98}
   ]]>
  </style>
 </defs>
 <g id="Layer_x0020_1">
  <metadata id="CorelCorpID_0Corel-Layer"/>
  <g id="_519523912">
   <path class="fil0" d="M250 197c-22,0 -27,-38 0,-38 16,0 25,38 0,38zm-230 -51l0 2c43,0 86,31 118,56 30,23 51,22 86,13 8,-2 18,-5 27,-7 35,-9 33,-3 31,-34 -2,-32 -28,-74 -65,-74 -38,0 -65,13 -106,22 -15,3 -82,23 -91,23z"/>
   <polygon class="fil0" points="177,31 232,31 232,49 263,49 263,31 315,31 315,0 177,0 "/>
   <path class="fil0" d="M51 194c0,8 3,21 4,28 7,29 44,70 71,38 2,-2 4,-4 5,-6 5,-7 8,-26 8,-37 -4,-2 -4,-3 -9,-4 -1,36 -47,32 -47,-16 0,-8 2,-10 4,-16l-29 -15c-3,5 -7,20 -7,27z"/>
   <path class="fil0" d="M219 63l0 27c18,1 33,10 45,20 6,5 4,7 11,12l0 -53c0,-17 4,-13 -51,-13 -4,0 -5,1 -5,5z"/>
   <path class="fil0" d="M0 177c0,25 32,48 45,51 -1,-18 -4,-6 -4,-43 0,-10 5,-14 5,-24 -5,0 -47,-9 -47,16z"/>
   <path class="fil0" d="M130 273c13,-1 66,-15 75,-22 6,-4 12,-14 13,-21 -15,0 -35,8 -58,0 -26,-10 -2,-7 -19,27 -3,7 -8,11 -12,17z"/>
   <path class="fil0" d="M223 250c33,-8 34,-11 45,-33 -6,0 -27,5 -31,7 -7,3 -5,5 -8,12 -2,6 -4,7 -6,14z"/>
   <path class="fil0" d="M94 197c0,16 2,23 16,31 11,-6 9,-7 9,-25 -4,-2 -7,-5 -11,-7 -5,-3 -6,-6 -13,-7 -1,4 -2,4 -2,9z"/>
  </g>
 </g>
</svg>
