<?xml version="1.0" encoding="UTF-8"?>
<!DOCTYPE svg PUBLIC "-//W3C//DTD SVG 1.1//EN" "http://www.w3.org/Graphics/SVG/1.1/DTD/svg11.dtd">
<!-- Creator: CorelDRAW X6 -->
<svg xmlns="http://www.w3.org/2000/svg" xml:space="preserve" width="0.59722in" height="0.696756in" version="1.1" style="shape-rendering:geometricPrecision; text-rendering:geometricPrecision; image-rendering:optimizeQuality; fill-rule:evenodd; clip-rule:evenodd"
viewBox="0 0 47 54"
 xmlns:xlink="http://www.w3.org/1999/xlink">
 <defs>
  <style type="text/css">
   <![CDATA[
    .fil0 {fill:#00AB98}
   ]]>
  </style>
 </defs>
 <g id="Layer_x0020_1">
  <metadata id="CorelCorpID_0Corel-Layer"/>
  <path class="fil0" d="M12 37c0,2 -2,4 -4,4 -2,0 -4,-2 -4,-4 0,-2 2,-4 4,-4 2,0 4,2 4,4zm31 0c0,2 -2,4 -4,4 -2,0 -4,-2 -4,-4 0,-2 2,-4 4,-4 2,0 4,2 4,4zm-1 -12c0,1 -1,2 -2,2l-32 0c-1,0 -2,-1 -2,-2l2 -12c0,-1 1,-2 2,-2l28 0c1,0 2,1 2,2l2 12 0 0zm-7 -19c0,1 -1,1 -1,1l-19 0c-1,0 -1,-1 -1,-1 0,-1 1,-1 1,-1l19 0c1,0 1,1 1,1l0 0zm12 22c0,-2 0,-4 -1,-7l-3 -14c-1,-5 -9,-8 -19,-8 -10,0 -19,3 -19,8l-3 14c-1,2 -1,4 -1,7l0 18 4 0 0 4c0,2 2,4 4,4 2,0 4,-2 4,-4l0 -4 23 0 0 4c0,2 2,4 4,4 2,0 4,-2 4,-4l0 -4 4 0 0 -18z"/>
 </g>
</svg>
