<?xml version="1.0" encoding="UTF-8"?>
<!DOCTYPE svg PUBLIC "-//W3C//DTD SVG 1.1//EN" "http://www.w3.org/Graphics/SVG/1.1/DTD/svg11.dtd">
<!-- Creator: CorelDRAW X6 -->
<svg xmlns="http://www.w3.org/2000/svg" xml:space="preserve" width="0.551197in" height="0.601634in" version="1.1" style="shape-rendering:geometricPrecision; text-rendering:geometricPrecision; image-rendering:optimizeQuality; fill-rule:evenodd; clip-rule:evenodd"
viewBox="0 0 233 254"
 xmlns:xlink="http://www.w3.org/1999/xlink">
 <defs>
  <style type="text/css">
   <![CDATA[
    .fil0 {fill:#00AB98}
   ]]>
  </style>
 </defs>
 <g id="Layer_x0020_1">
  <metadata id="CorelCorpID_0Corel-Layer"/>
  <path class="fil0" d="M63 201c0,-6 -5,-11 -11,-11 -6,0 -11,5 -11,11 0,6 5,11 11,11 6,0 11,-5 11,-11zm169 10c0,-33 -7,-85 -46,-93 5,11 4,24 4,36 13,7 21,22 21,37l0 15c3,3 5,7 5,12 0,9 -7,16 -16,16 -9,0 -16,-7 -16,-16 0,-4 2,-9 5,-12l0 -15c0,-12 -10,-21 -21,-21 -12,0 -21,10 -21,21l0 15c3,3 5,7 5,12 0,9 -7,16 -16,16 -9,0 -16,-7 -16,-16 0,-4 2,-9 5,-12l0 -15c0,-23 19,-42 42,-42l0 -11c0,-5 0,-11 -4,-15 -14,11 -31,17 -49,17 -18,0 -35,-6 -49,-17 -4,4 -4,10 -4,15l0 34c13,4 21,16 21,30 0,18 -14,32 -32,32 -18,0 -32,-14 -32,-32 0,-13 8,-25 21,-30l0 -34c0,-7 1,-14 4,-20 -39,9 -46,61 -46,93 0,27 18,43 44,43l144 0c26,0 44,-16 44,-43zm-53 -147c0,-35 -28,-63 -63,-63 -35,0 -63,28 -63,63 0,35 28,63 63,63 35,0 63,-28 63,-63z"/>
 </g>
</svg>
