<?xml version="1.0" encoding="UTF-8"?>
<!DOCTYPE svg PUBLIC "-//W3C//DTD SVG 1.1//EN" "http://www.w3.org/Graphics/SVG/1.1/DTD/svg11.dtd">
<!-- Creator: CorelDRAW X6 -->
<svg xmlns="http://www.w3.org/2000/svg" xml:space="preserve" width="1.32896in" height="2.1198in" version="1.1" style="shape-rendering:geometricPrecision; text-rendering:geometricPrecision; image-rendering:optimizeQuality; fill-rule:evenodd; clip-rule:evenodd"
viewBox="0 0 238 380"
 xmlns:xlink="http://www.w3.org/1999/xlink">
 <g id="Layer_x0020_1">
  <metadata id="CorelCorpID_0Corel-Layer"/>
  <path class="fill-navy-blue svg-intro" d="M46 252c3,-5 5,-12 6,-18 1,-6 0,-13 -2,-22 -2,-9 -7,-20 -12,-32 -6,-12 -13,-24 -18,-33 -6,-9 -10,-15 -13,-21 -3,-5 -4,-10 -6,-15 4,-2 7,-3 13,-3 6,0 14,1 22,4 8,3 14,9 21,14 7,5 13,9 17,8 4,-1 7,-6 13,-19 6,-12 16,-32 24,-47 8,-15 14,-27 20,-37 6,-11 13,-20 19,-30 5,6 10,11 12,21 2,10 0,23 -4,38 -4,15 -10,31 -14,41 -4,10 -5,15 -6,19 6,-2 11,-3 18,-2 6,1 13,6 17,10 4,4 6,8 8,12 4,1 8,1 12,3 4,2 9,5 12,9 3,4 5,9 7,13 5,2 10,4 14,8 4,3 8,7 10,13 2,6 2,14 0,22 -2,8 -6,16 -12,24 -5,8 -12,15 -19,22 -7,7 -14,14 -21,22 -7,8 -13,16 -22,33 -9,17 -20,43 -32,69 -7,-3 -14,-7 -31,-15 -17,-8 -45,-22 -62,-31 -17,-9 -25,-13 -32,-17 4,-11 9,-21 12,-29 4,-8 7,-13 11,-18 20,-1 40,-2 60,-1 20,1 40,5 55,5 15,0 25,-4 35,-11 10,-8 19,-19 26,-30 7,-10 12,-19 15,-26 3,-7 4,-12 2,-17 -2,-5 -7,-9 -12,-11 -5,-1 -9,1 -14,3 2,-4 3,-8 3,-11 0,-4 -2,-8 -6,-12 -4,-4 -9,-8 -14,-8 -5,0 -9,2 -14,5 1,-6 2,-11 0,-16 -2,-5 -6,-8 -11,-10 -5,-2 -10,-2 -15,-1 -5,1 -10,3 -15,5 0,-6 -1,-12 1,-21 2,-9 6,-20 9,-29 3,-9 6,-16 9,-24 2,-8 4,-16 3,-22 0,-6 -3,-10 -6,-14 -2,5 -5,10 -9,19 -4,9 -11,21 -18,37 -8,15 -17,34 -23,46 -7,13 -11,19 -18,20 -7,1 -15,-5 -23,-10 -7,-5 -13,-10 -20,-13 -6,-3 -14,-4 -21,-5 2,4 5,8 9,13 4,5 9,11 17,22 8,11 18,27 24,41 6,14 6,26 5,37 -2,11 -6,20 -12,26 -6,6 -14,8 -21,9 4,-5 9,-9 12,-15zm81 66c7,0 13,6 13,13 0,7 -6,13 -13,13 -7,0 -13,-6 -13,-13 0,-7 6,-13 13,-13z"/>
 </g>
</svg>
