<?xml version="1.0" encoding="UTF-8"?>
<!DOCTYPE svg PUBLIC "-//W3C//DTD SVG 1.1//EN" "http://www.w3.org/Graphics/SVG/1.1/DTD/svg11.dtd">
<!-- Creator: CorelDRAW X6 -->
<svg xmlns="http://www.w3.org/2000/svg" xml:space="preserve" width="1.11912in" height="1.08331in" version="1.1" style="shape-rendering:geometricPrecision; text-rendering:geometricPrecision; image-rendering:optimizeQuality; fill-rule:evenodd; clip-rule:evenodd"
viewBox="0 0 275 266"
 xmlns:xlink="http://www.w3.org/1999/xlink">
 <defs>
  <style type="text/css">
   <![CDATA[
    .fil0 {fill:#333333;fill-rule:nonzero}
   ]]>
  </style>
 </defs>
 <g id="Layer_x0020_1">
  <metadata id="CorelCorpID_0Corel-Layer"/>
  <g id="_002-location.eps">
   <path class="fil0" d="M0 39l0 219c0,2 1,3 2,4 1,1 2,1 3,1 1,0 1,0 2,0l85 -28 0 -71c-1,0 -3,0 -4,1 0,0 -1,0 -1,0 -2,0 -4,-2 -5,-4 -1,-3 1,-6 4,-6 2,-1 4,-1 6,-1l0 -148 -88 29c-2,1 -3,3 -3,5zm46 161c-5,10 -6,18 -6,18 0,3 -3,4 -5,4 0,0 0,0 -1,0 -3,0 -5,-3 -4,-6 0,0 1,-10 7,-21 1,-3 4,-4 7,-3 3,1 4,4 2,7zm-4 -76c-2,-2 -2,-5 0,-7 2,-2 5,-2 7,0l7 7 7 -7c2,-2 5,-2 7,0 2,2 2,5 0,7l-7 7 7 7c2,2 2,5 0,7 -1,1 -2,1 -4,1 -1,0 -3,0 -4,-1l-7 -7 -7 7c-1,1 -2,1 -4,1 -1,0 -3,0 -4,-1 -2,-2 -2,-5 0,-7l7 -7 -7 -7zm28 48c-5,3 -10,7 -14,12 -1,1 -2,2 -4,2 -1,0 -2,0 -3,-1 -2,-2 -2,-5 -1,-7 5,-6 10,-11 16,-14 2,-1 6,-1 7,2 1,2 1,6 -2,7zm-15 -128c14,0 25,11 25,25 0,12 -9,23 -20,25l0 11c0,3 -2,5 -5,5 -3,0 -5,-2 -5,-5l0 -11c-12,-2 -20,-13 -20,-25 0,-14 11,-25 25,-25z"/>
   <path class="fil0" d="M71 69c0,8 -7,15 -15,15 -8,0 -15,-7 -15,-15 0,-8 7,-15 15,-15 8,0 15,7 15,15z"/>
   <path class="fil0" d="M149 158c-2,-1 -4,-2 -4,-2 0,0 -1,0 -1,0 -6,-1 -11,-3 -16,-3 -3,0 -5,1 -6,4 0,3 1,5 4,6 5,1 10,2 15,3 1,0 2,1 4,2 1,0 1,0 2,0 2,0 4,-1 5,-3 1,-3 0,-6 -3,-7z"/>
   <path class="fil0" d="M230 139c1,0 1,0 2,0 2,0 4,-1 5,-3 2,-6 4,-13 6,-21 1,-3 -1,-5 -4,-6 -3,0 -5,1 -6,4 -1,7 -3,13 -5,19 -1,3 0,6 3,7z"/>
   <path class="fil0" d="M206 170c1,0 2,0 2,-1 7,-3 12,-8 17,-14 2,-2 1,-5 -1,-7 -2,-2 -5,-1 -7,1 -4,5 -9,9 -14,11 -3,1 -4,4 -2,7 1,2 3,3 5,3z"/>
   <path class="fil0" d="M239 99c0,0 0,0 0,0 3,0 5,-2 5,-5 0,-5 0,-10 0,-15 0,-2 0,-4 0,-5 0,-3 -2,-5 -5,-5 -3,0 -5,2 -5,5 0,2 0,4 0,5 0,5 0,10 0,15 0,3 2,5 5,5z"/>
   <path class="fil0" d="M102 235l76 31 0 -221 -76 -40 0 230zm10 -213l56 30 0 199 -56 -23 0 -206z"/>
   <path class="fil0" d="M188 46l0 221 87 -37 0 -230 -87 46zm76 177l-66 28 0 -199 66 -35 0 206z"/>
  </g>
 </g>
</svg>
