<?xml version="1.0" encoding="utf-8"?>
<!-- Generator: Adobe Illustrator 17.0.0, SVG Export Plug-In . SVG Version: 6.00 Build 0)  -->
<!DOCTYPE svg PUBLIC "-//W3C//DTD SVG 1.1//EN" "http://www.w3.org/Graphics/SVG/1.1/DTD/svg11.dtd">
<svg version="1.1" xmlns="http://www.w3.org/2000/svg" xmlns:xlink="http://www.w3.org/1999/xlink" x="0px" y="0px" width="800px"
	 height="458.977px" viewBox="0 0 800 458.977" enable-background="new 0 0 800 458.977" xml:space="preserve">
<g id="Background">
</g>
<g id="Objects">
	<g>
		<g>
			<path fill="#FFA033" d="M434.232,146.357c4.238,0,8.092,1.604,11.025,4.22c4.402-8.163,13.031-13.714,22.959-13.714
				c5.457,0,10.514,1.682,14.703,4.548c7.287-12.026,20.498-20.064,35.588-20.064c13.439,0,25.383,6.38,32.984,16.272
				c1.969-0.479,4.018-0.756,6.129-0.756c14.4,0,26.074,11.674,26.074,26.072H417.654
				C417.654,153.78,425.078,146.357,434.232,146.357z"/>
			<path fill="#FCD07A" d="M584.25,165.21c-2.287,0-4.367,0.866-5.951,2.278c-2.377-4.406-7.031-7.401-12.389-7.401
				c-2.943,0-5.674,0.907-7.936,2.453c-3.934-6.49-11.063-10.827-19.205-10.827c-7.252,0-13.697,3.443-17.801,8.781
				c-1.063-0.257-2.166-0.407-3.307-0.407c-7.772,0-14.072,6.3-14.072,14.069h89.606C593.195,169.216,589.19,165.21,584.25,165.21z"
				/>
			<path fill="#FFA033" d="M403.324,128.167c-4.238,0-8.092,1.604-11.024,4.219c-4.405-8.162-13.032-13.714-22.96-13.714
				c-5.456,0-10.515,1.681-14.702,4.548c-7.29-12.026-20.5-20.064-35.59-20.064c-13.438,0-25.381,6.381-32.984,16.272
				c-1.969-0.479-4.017-0.756-6.129-0.756c-14.4,0-26.073,11.675-26.073,26.072h166.042
				C419.904,135.589,412.48,128.167,403.324,128.167z"/>
			<path fill="#FCD07A" d="M287.462,144.415c-2.287,0-4.367,0.865-5.948,2.277c-2.376-4.406-7.033-7.401-12.39-7.401
				c-2.945,0-5.675,0.907-7.935,2.454c-3.933-6.489-11.064-10.828-19.206-10.828c-7.253,0-13.697,3.444-17.801,8.781
				c-1.061-0.258-2.165-0.407-3.307-0.407c-7.77,0-14.071,6.3-14.071,14.071h89.606C296.41,148.421,292.404,144.415,287.462,144.415
				z"/>
			<path fill="#FCD07A" d="M335.617,164.259c4.238,0,8.093,1.603,11.025,4.219c4.404-8.162,13.031-13.714,22.959-13.714
				c5.457,0,10.516,1.681,14.703,4.548c7.289-12.027,20.5-20.064,35.59-20.064c13.438,0,25.381,6.38,32.983,16.271
				c1.971-0.477,4.017-0.755,6.131-0.755c14.398,0,26.072,11.675,26.072,26.072H319.039
				C319.039,171.681,326.462,164.259,335.617,164.259z"/>
		</g>
		<g>
			<rect x="624.805" y="294.965" fill="#FCD07A" width="67.514" height="114.176"/>
			<rect x="637.443" y="223.864" fill="#69E2DE" width="42.236" height="59.425"/>
			<rect x="655.398" y="200.728" fill="#69E2DE" width="6.328" height="59.425"/>
			<polygon fill="#69E2DE" points="664.693,271.337 664.693,260.153 692.318,260.153 692.318,249.509 624.805,249.509 
				624.805,260.153 652.432,260.153 652.432,271.337 624.805,271.337 624.805,286.116 652.432,286.116 652.432,297.302 
				624.805,297.302 624.805,312.079 652.432,312.079 652.432,323.266 624.805,323.266 624.805,338.043 652.432,338.043 
				652.432,349.23 624.805,349.23 624.805,364.007 652.432,364.007 652.432,375.193 624.805,375.193 624.805,389.971 
				652.432,389.971 652.432,401.156 624.805,401.156 624.805,409.141 692.318,409.141 692.318,401.156 664.693,401.156 
				664.693,389.971 692.318,389.971 692.318,375.193 664.693,375.193 664.693,364.007 692.318,364.007 692.318,349.23 
				664.693,349.23 664.693,338.043 692.318,338.043 692.318,323.266 664.693,323.266 664.693,312.079 692.318,312.079 
				692.318,297.302 664.693,297.302 664.693,286.116 692.318,286.116 692.318,271.337 			"/>
			<rect x="624.805" y="260.153" fill="#00BEC5" width="27.627" height="11.185"/>
			<rect x="664.693" y="260.153" fill="#00BEC5" width="27.625" height="11.185"/>
			<rect x="624.805" y="286.116" fill="#00BEC5" width="27.627" height="11.186"/>
			<rect x="664.693" y="286.116" fill="#00BEC5" width="27.625" height="11.186"/>
			<rect x="624.805" y="312.079" fill="#FCD07A" width="27.627" height="11.186"/>
			<rect x="664.693" y="312.079" fill="#00BEC5" width="27.625" height="11.186"/>
			<rect x="624.805" y="338.043" fill="#FCD07A" width="27.627" height="11.187"/>
			<rect x="664.693" y="338.043" fill="#00BEC5" width="27.625" height="11.187"/>
			<rect x="624.805" y="364.007" fill="#FCD07A" width="27.627" height="11.186"/>
			<rect x="664.693" y="364.007" fill="#00BEC5" width="27.625" height="11.186"/>
			<rect x="624.805" y="388.599" fill="#FCD07A" width="29.25" height="14.579"/>
			<rect x="661.922" y="386.923" fill="#00BEC5" width="30.396" height="17.765"/>
		</g>
		<rect x="536.447" y="152.067" fill="#EDEDED" width="70.129" height="262.446"/>
		<rect x="545.422" y="178.009" fill="#EDEDED" width="50.414" height="8.337"/>
		<rect x="545.422" y="206.144" fill="#EDEDED" width="50.414" height="8.337"/>
		<rect x="545.422" y="234.279" fill="#EDEDED" width="50.414" height="8.337"/>
		<rect x="545.422" y="262.413" fill="#EDEDED" width="50.414" height="8.337"/>
		<rect x="545.422" y="290.548" fill="#EDEDED" width="50.414" height="8.337"/>
		<rect x="545.422" y="318.683" fill="#EDEDED" width="50.414" height="8.337"/>
		<rect x="545.422" y="346.818" fill="#EDEDED" width="50.414" height="8.337"/>
		<rect x="545.422" y="374.952" fill="#EDEDED" width="50.414" height="8.337"/>
		<rect x="536.447" y="152.067" fill="#EDEDED" width="70.129" height="262.446"/>
		<rect x="545.422" y="178.009" fill="#C6C6C6" width="50.414" height="8.337"/>
		<rect x="545.422" y="206.144" fill="#C6C6C6" width="50.414" height="8.337"/>
		<rect x="545.422" y="234.279" fill="#C6C6C6" width="50.414" height="8.337"/>
		<rect x="545.422" y="262.413" fill="#C6C6C6" width="50.414" height="8.337"/>
		<rect x="545.422" y="290.548" fill="#C6C6C6" width="50.414" height="8.337"/>
		<rect x="545.422" y="318.683" fill="#EDEDED" width="50.414" height="8.337"/>
		<rect x="545.422" y="346.818" fill="#EDEDED" width="50.414" height="8.337"/>
		<rect x="545.422" y="374.952" fill="#DCDCDC" width="50.414" height="8.337"/>
		<g>
			<polygon fill="#FCD07A" points="540.777,199.598 489.26,242.947 489.26,414.073 540.777,414.073 			"/>
			<polygon fill="#FFA033" points="540.777,199.598 489.26,242.947 489.26,414.073 540.777,414.073 			"/>
			<circle fill="#FCD07A" cx="503.396" cy="262.413" r="8.481"/>
			<circle fill="#FCD07A" cx="526.642" cy="262.413" r="8.481"/>
			<circle fill="#FCD07A" cx="503.396" cy="286.116" r="8.481"/>
			<circle fill="#FCD07A" cx="526.642" cy="286.116" r="8.481"/>
			<circle fill="#FCD07A" cx="503.396" cy="309.819" r="8.481"/>
			<circle fill="#FCD07A" cx="526.642" cy="309.819" r="8.481"/>
			<circle fill="#FCD07A" cx="503.396" cy="333.522" r="8.481"/>
			<circle fill="#FCD07A" cx="526.642" cy="333.522" r="8.481"/>
			<circle fill="#FCD07A" cx="503.396" cy="357.225" r="8.481"/>
			<circle fill="#FCD07A" cx="526.642" cy="357.225" r="8.481"/>
			<circle fill="#FCD07A" cx="503.396" cy="380.928" r="8.481"/>
			<circle fill="#FCD07A" cx="526.642" cy="380.928" r="8.481"/>
		</g>
		<g>
			<polygon fill="#004860" points="437.74,199.598 386.222,242.947 386.222,414.073 437.74,414.073 			"/>
			<circle fill="#002738" cx="400.359" cy="259.79" r="8.481"/>
			<circle fill="#002738" cx="423.605" cy="259.79" r="8.48"/>
			<circle fill="#002738" cx="400.359" cy="283.493" r="8.481"/>
			<circle fill="#002738" cx="423.605" cy="283.493" r="8.48"/>
			<circle fill="#002738" cx="400.359" cy="307.197" r="8.481"/>
			<circle fill="#DCDCDC" cx="423.605" cy="307.197" r="8.48"/>
			<circle fill="#DCDCDC" cx="400.359" cy="330.899" r="8.481"/>
			<circle fill="#DCDCDC" cx="423.605" cy="330.899" r="8.48"/>
			<circle fill="#DCDCDC" cx="400.359" cy="354.602" r="8.481"/>
			<circle fill="#DCDCDC" cx="423.605" cy="354.602" r="8.48"/>
			<circle fill="#DCDCDC" cx="400.359" cy="378.305" r="8.481"/>
			<circle fill="#DCDCDC" cx="423.605" cy="378.305" r="8.48"/>
		</g>
		<g>
			<polygon fill="#69E2DE" points="489.26,199.598 437.74,242.947 437.74,414.073 489.26,414.073 			"/>
			<rect x="440.477" y="258.946" fill="#69E2DE" width="6.412" height="15.271"/>
			<rect x="450.387" y="258.946" fill="#00BEC5" width="6.41" height="15.271"/>
			<rect x="460.295" y="258.946" fill="#69E2DE" width="6.41" height="15.271"/>
			<rect x="470.203" y="258.946" fill="#00BEC5" width="6.412" height="15.271"/>
			<rect x="480.111" y="258.946" fill="#69E2DE" width="6.412" height="15.271"/>
			<rect x="440.477" y="278.48" fill="#69E2DE" width="6.412" height="15.272"/>
			<rect x="450.387" y="278.48" fill="#00BEC5" width="6.41" height="15.272"/>
			<rect x="460.295" y="278.48" fill="#69E2DE" width="6.41" height="15.272"/>
			<rect x="470.203" y="278.48" fill="#00BEC5" width="6.412" height="15.272"/>
			<rect x="480.111" y="278.48" fill="#69E2DE" width="6.412" height="15.272"/>
			<rect x="440.477" y="298.015" fill="#FCD07A" width="6.412" height="15.271"/>
			<rect x="450.387" y="298.015" fill="#00BEC5" width="6.41" height="15.271"/>
			<rect x="460.295" y="298.015" fill="#69E2DE" width="6.41" height="15.271"/>
			<rect x="470.203" y="298.015" fill="#FCD07A" width="6.412" height="15.271"/>
			<rect x="480.111" y="298.015" fill="#FCD07A" width="6.412" height="15.271"/>
			<rect x="440.477" y="317.549" fill="#FCD07A" width="6.412" height="15.271"/>
			<rect x="450.387" y="317.549" fill="#FCD07A" width="6.41" height="15.271"/>
			<rect x="460.295" y="317.549" fill="#FCD07A" width="6.41" height="15.271"/>
			<rect x="470.203" y="317.549" fill="#FCD07A" width="6.412" height="15.271"/>
			<rect x="480.111" y="317.549" fill="#FCD07A" width="6.412" height="15.271"/>
			<rect x="440.477" y="337.083" fill="#FCD07A" width="6.412" height="15.271"/>
			<rect x="450.387" y="337.083" fill="#FCD07A" width="6.41" height="15.271"/>
			<rect x="460.295" y="337.083" fill="#FCD07A" width="6.41" height="15.271"/>
			<rect x="470.203" y="337.083" fill="#FCD07A" width="6.412" height="15.271"/>
			<rect x="480.111" y="337.083" fill="#FCD07A" width="6.412" height="15.271"/>
			<rect x="440.477" y="356.617" fill="#FCD07A" width="6.412" height="15.272"/>
			<rect x="450.387" y="356.617" fill="#FCD07A" width="6.41" height="15.272"/>
			<rect x="460.295" y="356.617" fill="#FCD07A" width="6.41" height="15.272"/>
			<rect x="470.203" y="356.617" fill="#FCD07A" width="6.412" height="15.272"/>
			<rect x="480.111" y="356.617" fill="#FCD07A" width="6.412" height="15.272"/>
			<rect x="440.477" y="376.153" fill="#FCD07A" width="6.412" height="15.271"/>
			<rect x="450.387" y="376.153" fill="#FCD07A" width="6.41" height="15.271"/>
			<rect x="460.295" y="376.153" fill="#FCD07A" width="6.41" height="15.271"/>
			<rect x="470.203" y="376.153" fill="#FCD07A" width="6.412" height="15.271"/>
			<rect x="480.111" y="376.153" fill="#FCD07A" width="6.412" height="15.271"/>
		</g>
		<g>
			<rect x="234.352" y="92.509" fill="#69E2DE" width="70.128" height="322.004"/>
			<rect x="241.44" y="101.542" fill="#00BEC5" width="55.952" height="3.497"/>
			<rect x="241.44" y="113.862" fill="#00BEC5" width="55.952" height="3.497"/>
			<rect x="241.44" y="126.181" fill="#00BEC5" width="55.952" height="3.496"/>
			<rect x="241.44" y="138.499" fill="#00BEC5" width="55.952" height="3.497"/>
			<rect x="241.44" y="150.818" fill="#00BEC5" width="55.952" height="3.498"/>
			<rect x="241.44" y="163.137" fill="#00BEC5" width="55.952" height="3.497"/>
			<rect x="241.44" y="175.456" fill="#00BEC5" width="55.952" height="3.496"/>
			<rect x="241.44" y="187.775" fill="#00BEC5" width="55.952" height="3.497"/>
			<rect x="241.44" y="200.094" fill="#00BEC5" width="55.952" height="3.497"/>
			<rect x="241.44" y="212.412" fill="#00BEC5" width="55.952" height="3.497"/>
			<rect x="241.44" y="224.732" fill="#00BEC5" width="55.952" height="3.497"/>
			<rect x="241.44" y="237.05" fill="#00BEC5" width="55.952" height="3.497"/>
			<rect x="241.44" y="249.369" fill="#00BEC5" width="55.952" height="3.497"/>
			<rect x="241.44" y="261.689" fill="#00BEC5" width="55.952" height="3.496"/>
			<rect x="241.44" y="274.007" fill="#00BEC5" width="55.952" height="3.497"/>
			<rect x="241.44" y="286.325" fill="#FCD07A" width="55.952" height="3.498"/>
			<rect x="241.44" y="298.645" fill="#FCD07A" width="55.952" height="3.497"/>
			<rect x="241.44" y="310.964" fill="#FCD07A" width="55.952" height="3.496"/>
			<rect x="241.44" y="323.282" fill="#FCD07A" width="55.952" height="3.497"/>
			<rect x="241.44" y="335.602" fill="#FCD07A" width="55.952" height="3.497"/>
			<rect x="241.44" y="347.92" fill="#FCD07A" width="55.952" height="3.497"/>
			<rect x="241.44" y="360.239" fill="#FCD07A" width="55.952" height="3.497"/>
			<rect x="241.44" y="372.558" fill="#FCD07A" width="55.952" height="3.497"/>
			<rect x="241.44" y="384.877" fill="#FCD07A" width="55.952" height="3.497"/>
		</g>
		<rect x="295.549" y="195.854" fill="#EDEDED" width="70.128" height="218.659"/>
		<polygon fill="#EDEDED" points="350.067,226.154 311.159,226.154 311.159,182.75 330.613,165.553 350.067,182.75 		"/>
		<rect x="320.528" y="183.177" fill="#DCDCDC" width="6.994" height="16.421"/>
		<rect x="333.704" y="183.177" fill="#DCDCDC" width="6.994" height="16.421"/>
		<rect x="307.462" y="209.733" fill="#DCDCDC" width="6.994" height="16.421"/>
		<rect x="320.638" y="209.733" fill="#DCDCDC" width="6.994" height="16.421"/>
		<rect x="333.595" y="209.733" fill="#DCDCDC" width="6.994" height="16.421"/>
		<rect x="346.771" y="209.733" fill="#DCDCDC" width="6.993" height="16.421"/>
		<rect x="307.462" y="232.338" fill="#DCDCDC" width="6.994" height="16.421"/>
		<rect x="320.638" y="232.338" fill="#DCDCDC" width="6.994" height="16.421"/>
		<rect x="333.595" y="232.338" fill="#DCDCDC" width="6.994" height="16.421"/>
		<rect x="346.771" y="232.338" fill="#DCDCDC" width="6.993" height="16.421"/>
		<rect x="307.462" y="254.944" fill="#DCDCDC" width="6.994" height="16.421"/>
		<rect x="320.638" y="254.944" fill="#DCDCDC" width="6.994" height="16.421"/>
		<rect x="333.595" y="254.944" fill="#DCDCDC" width="6.994" height="16.421"/>
		<rect x="346.771" y="254.944" fill="#DCDCDC" width="6.993" height="16.421"/>
		<rect x="307.462" y="277.549" fill="#DCDCDC" width="6.994" height="16.421"/>
		<rect x="320.638" y="277.549" fill="#DCDCDC" width="6.994" height="16.421"/>
		<rect x="333.595" y="277.549" fill="#DCDCDC" width="6.994" height="16.421"/>
		<rect x="346.771" y="277.549" fill="#DCDCDC" width="6.993" height="16.421"/>
		<rect x="307.462" y="300.155" fill="#DCDCDC" width="6.994" height="16.421"/>
		<rect x="320.638" y="300.155" fill="#DCDCDC" width="6.994" height="16.421"/>
		<rect x="333.595" y="300.155" fill="#DCDCDC" width="6.994" height="16.421"/>
		<rect x="346.771" y="300.155" fill="#DCDCDC" width="6.993" height="16.421"/>
		<rect x="307.462" y="322.76" fill="#DCDCDC" width="6.994" height="16.421"/>
		<rect x="320.638" y="322.76" fill="#DCDCDC" width="6.994" height="16.421"/>
		<rect x="333.595" y="322.76" fill="#DCDCDC" width="6.994" height="16.421"/>
		<rect x="346.771" y="322.76" fill="#DCDCDC" width="6.993" height="16.421"/>
		<rect x="307.462" y="345.365" fill="#DCDCDC" width="6.994" height="16.421"/>
		<rect x="320.638" y="345.365" fill="#DCDCDC" width="6.994" height="16.421"/>
		<rect x="333.595" y="345.365" fill="#DCDCDC" width="6.994" height="16.421"/>
		<rect x="346.771" y="345.365" fill="#DCDCDC" width="6.993" height="16.421"/>
		<rect x="307.462" y="367.971" fill="#DCDCDC" width="6.994" height="16.421"/>
		<rect x="320.638" y="367.971" fill="#DCDCDC" width="6.994" height="16.421"/>
		<rect x="333.595" y="367.971" fill="#DCDCDC" width="6.994" height="16.421"/>
		<rect x="346.771" y="367.971" fill="#DCDCDC" width="6.993" height="16.421"/>
		<g>
			<rect x="117.234" y="200.08" fill="#AFC01D" width="76.06" height="222.795"/>
			<rect x="124.229" y="183.177" fill="#AFC01D" width="60.323" height="25.354"/>
			<rect x="131.223" y="167.055" fill="#AFC01D" width="46.335" height="19.474"/>
			<rect x="127.746" y="212.412" fill="#7EA800" width="9.39" height="20.756"/>
			<rect x="142.379" y="212.412" fill="#7EA800" width="9.39" height="20.756"/>
			<rect x="157.012" y="212.412" fill="#7EA800" width="9.39" height="20.756"/>
			<rect x="171.645" y="212.412" fill="#7EA800" width="9.39" height="20.756"/>
			<rect x="127.746" y="240.74" fill="#7EA800" width="9.39" height="20.756"/>
			<rect x="142.379" y="240.74" fill="#7EA800" width="9.39" height="20.756"/>
			<rect x="157.012" y="240.74" fill="#7EA800" width="9.39" height="20.756"/>
			<rect x="171.645" y="240.74" fill="#7EA800" width="9.39" height="20.756"/>
			<rect x="127.746" y="269.068" fill="#7EA800" width="9.39" height="20.756"/>
			<rect x="142.379" y="269.068" fill="#7EA800" width="9.39" height="20.756"/>
			<rect x="157.012" y="269.068" fill="#7EA800" width="9.39" height="20.756"/>
			<rect x="171.645" y="269.068" fill="#7EA800" width="9.39" height="20.756"/>
			<rect x="127.746" y="297.396" fill="#7EA800" width="9.39" height="20.756"/>
			<rect x="142.379" y="297.396" fill="#7EA800" width="9.39" height="20.756"/>
			<rect x="157.012" y="297.396" fill="#7EA800" width="9.39" height="20.756"/>
			<rect x="171.645" y="297.396" fill="#7EA800" width="9.39" height="20.756"/>
		</g>
		<g>
			<polygon fill="#004860" points="249.284,419.466 178.926,419.466 178.926,279.497 193.294,253.666 234.352,253.666 
				249.284,279.497 			"/>
			<rect x="194.776" y="280.17" fill="#002738" width="9.39" height="20.756"/>
			<rect x="209.41" y="280.17" fill="#002738" width="9.39" height="20.756"/>
			<rect x="224.044" y="280.17" fill="#002738" width="9.39" height="20.756"/>
			<rect x="194.776" y="306.197" fill="#002738" width="9.39" height="20.755"/>
			<rect x="209.41" y="306.197" fill="#002738" width="9.39" height="20.755"/>
			<rect x="224.044" y="306.197" fill="#002738" width="9.39" height="20.755"/>
			<rect x="194.776" y="332.224" fill="#002738" width="9.39" height="20.756"/>
			<rect x="209.41" y="332.224" fill="#002738" width="9.39" height="20.756"/>
			<rect x="224.044" y="332.224" fill="#002738" width="9.39" height="20.756"/>
		</g>
		<g>
			<polygon fill="#FFA033" points="460.357,419.466 390,419.466 390,317.549 425.18,269.978 460.357,317.549 			"/>
			<rect x="399.599" y="364.859" fill="#FFFFFF" width="51.159" height="26.758"/>
			<path fill="#FCD07A" d="M456.666,366.204l-3.631-15.194h-20.951h-13.016h-21.746l-3.633,15.194
				c-0.095,0.261-0.154,0.537-0.154,0.831c0,1.344,1.09,2.434,2.435,2.434s2.434-1.09,2.434-2.434c0,1.344,1.09,2.434,2.434,2.434
				c1.344,0,2.434-1.09,2.434-2.434c0,1.344,1.09,2.434,2.436,2.434c1.344,0,2.434-1.09,2.434-2.434c0,1.344,1.09,2.434,2.434,2.434
				c1.344,0,2.434-1.09,2.434-2.434c0,1.344,1.09,2.434,2.436,2.434c1.344,0,2.434-1.09,2.434-2.434c0,1.344,1.09,2.434,2.433,2.434
				c1.344,0,2.434-1.09,2.434-2.434c0,1.344,1.09,2.434,2.436,2.434c1.344,0,2.434-1.09,2.434-2.434c0,1.344,1.09,2.434,2.434,2.434
				c1.344,0,2.434-1.09,2.434-2.434c0,1.344,1.09,2.434,2.435,2.434c1.344,0,2.434-1.09,2.434-2.434c0,1.344,1.09,2.434,2.434,2.434
				c1.344,0,2.434-1.09,2.434-2.434c0,1.344,1.09,2.434,2.434,2.434c1.346,0,2.435-1.09,2.435-2.434
				c0,1.344,1.088,2.434,2.434,2.434c1.344,0,2.434-1.09,2.434-2.434c0,1.344,1.09,2.434,2.434,2.434
				c1.344,0,2.436-1.09,2.436-2.434C456.822,366.741,456.762,366.465,456.666,366.204z"/>
			<rect x="399.929" y="321.677" fill="#FCD07A" width="8.116" height="18.586"/>
			<rect x="413.008" y="321.677" fill="#FCD07A" width="8.115" height="18.586"/>
			<rect x="426.086" y="321.677" fill="#FCD07A" width="8.115" height="18.586"/>
			<rect x="439.164" y="321.677" fill="#FCD07A" width="8.115" height="18.586"/>
		</g>
		<g>
			<polygon fill="#AFC01D" points="389.999,404.068 319.642,404.068 319.642,318.205 354.822,270.634 389.999,318.205 			"/>
			<path fill="#7EA800" d="M338.906,329.412c0.002-0.042,0.008-0.083,0.008-0.126c0-2.848-2.31-5.156-5.157-5.156
				c-2.849,0-5.157,2.309-5.157,5.156c0,0.043,0.006,0.084,0.006,0.126h-0.009v16.391h10.32v-16.391H338.906z"/>
			<path fill="#7EA800" d="M352.95,329.412c0.001-0.042,0.007-0.083,0.007-0.126c0-2.848-2.309-5.156-5.157-5.156
				c-2.848,0-5.157,2.309-5.157,5.156c0,0.043,0.006,0.084,0.008,0.126h-0.011v16.391h10.32v-16.391H352.95z"/>
			<path fill="#7EA800" d="M366.994,329.412c0-0.042,0.006-0.083,0.006-0.126c0-2.848-2.31-5.156-5.156-5.156
				c-2.848,0-5.158,2.309-5.158,5.156c0,0.043,0.005,0.084,0.007,0.126h-0.009v16.391h10.32v-16.391H366.994z"/>
			<path fill="#7EA800" d="M381.037,329.412c0.001-0.042,0.006-0.083,0.006-0.126c0-2.848-2.309-5.156-5.156-5.156
				c-2.848,0-5.156,2.309-5.156,5.156c0,0.043,0.004,0.084,0.004,0.126h-0.008v16.391h10.32v-16.391H381.037z"/>
			<path fill="#7EA800" d="M338.906,356.084c0.002-0.043,0.008-0.084,0.008-0.126c0-2.849-2.31-5.157-5.157-5.157
				c-2.849,0-5.157,2.309-5.157,5.157c0,0.042,0.006,0.083,0.006,0.126h-0.009v16.391h10.32v-16.391H338.906z"/>
			<path fill="#7EA800" d="M352.95,356.084c0.001-0.043,0.007-0.084,0.007-0.126c0-2.849-2.309-5.157-5.157-5.157
				c-2.848,0-5.157,2.309-5.157,5.157c0,0.042,0.006,0.083,0.008,0.126h-0.011v16.391h10.32v-16.391H352.95z"/>
			<path fill="#7EA800" d="M366.994,356.084c0-0.043,0.006-0.084,0.006-0.126c0-2.849-2.31-5.157-5.156-5.157
				c-2.848,0-5.158,2.309-5.158,5.157c0,0.042,0.005,0.083,0.007,0.126h-0.009v16.391h10.32v-16.391H366.994z"/>
			<path fill="#7EA800" d="M381.037,356.084c0.001-0.043,0.006-0.084,0.006-0.126c0-2.849-2.309-5.157-5.156-5.157
				c-2.848,0-5.156,2.309-5.156,5.157c0,0.042,0.004,0.083,0.004,0.126h-0.008v16.391h10.32v-16.391H381.037z"/>
		</g>
		<g>
			<polygon fill="#69E2DE" points="601.074,424.173 530.717,424.173 530.717,321.027 545.084,301.991 586.141,301.991 
				601.074,321.027 			"/>
			<rect x="546.814" y="326.666" fill="#00BEC5" width="38.16" height="17.485"/>
			<rect x="546.814" y="353.337" fill="#00BEC5" width="38.16" height="17.485"/>
		</g>
		<g>
			<rect x="249.285" y="286.325" fill="#FFA033" width="70.357" height="133.141"/>
			<rect x="260.803" y="302.142" fill="#FCD07A" width="14.101" height="6.994"/>
			<rect x="277.414" y="302.142" fill="#FCD07A" width="14.101" height="6.994"/>
			<rect x="294.024" y="302.142" fill="#FCD07A" width="14.101" height="6.994"/>
			<rect x="260.803" y="314.802" fill="#FCD07A" width="14.101" height="6.994"/>
			<rect x="277.414" y="314.802" fill="#FCD07A" width="14.101" height="6.994"/>
			<rect x="294.024" y="314.802" fill="#FCD07A" width="14.101" height="6.994"/>
			<rect x="260.803" y="327.462" fill="#FCD07A" width="14.101" height="6.994"/>
			<rect x="277.414" y="327.462" fill="#FCD07A" width="14.101" height="6.994"/>
			<rect x="294.024" y="327.462" fill="#FCD07A" width="14.101" height="6.994"/>
			<rect x="260.803" y="340.122" fill="#FCD07A" width="14.101" height="6.994"/>
			<rect x="277.414" y="340.122" fill="#FCD07A" width="14.101" height="6.994"/>
			<rect x="294.024" y="340.122" fill="#FCD07A" width="14.101" height="6.994"/>
			<rect x="260.803" y="352.781" fill="#FCD07A" width="14.101" height="6.994"/>
			<rect x="277.414" y="352.781" fill="#FCD07A" width="14.101" height="6.994"/>
			<rect x="294.024" y="352.781" fill="#FCD07A" width="14.101" height="6.994"/>
			<rect x="260.803" y="365.443" fill="#FCD07A" width="14.101" height="6.993"/>
			<rect x="277.414" y="365.443" fill="#FCD07A" width="14.101" height="6.993"/>
			<rect x="294.024" y="365.443" fill="#FCD07A" width="14.101" height="6.993"/>
		</g>
		<g>
			<polygon fill="#FFFFFF" points="178.926,419.466 108.569,419.466 108.569,333.605 143.747,286.033 178.926,333.605 			"/>
			<rect x="130.367" y="321.847" fill="#DCDCDC" width="9.39" height="20.755"/>
			<rect x="145.001" y="321.847" fill="#DCDCDC" width="9.39" height="20.755"/>
			<rect x="130.367" y="349.398" fill="#DCDCDC" width="9.39" height="20.756"/>
			<rect x="145.001" y="349.398" fill="#DCDCDC" width="9.39" height="20.756"/>
		</g>
		<g>
			<rect x="460.357" y="309.819" fill="#FFFFFF" width="70.357" height="109.647"/>
			<rect x="466.705" y="295.751" fill="#FFFFFF" width="53.768" height="28.135"/>
			<rect x="473.271" y="283.493" fill="#FFFFFF" width="40.994" height="21.45"/>
			<rect x="472.385" y="317.929" fill="#DCDCDC" width="6.994" height="16.42"/>
			<rect x="485.56" y="317.929" fill="#DCDCDC" width="6.994" height="16.42"/>
			<rect x="498.518" y="317.929" fill="#DCDCDC" width="6.994" height="16.42"/>
			<rect x="511.693" y="317.929" fill="#DCDCDC" width="6.994" height="16.42"/>
			<rect x="472.385" y="340.533" fill="#DCDCDC" width="6.994" height="16.421"/>
			<rect x="485.56" y="340.533" fill="#DCDCDC" width="6.994" height="16.421"/>
			<rect x="498.518" y="340.533" fill="#DCDCDC" width="6.994" height="16.421"/>
			<rect x="511.693" y="340.533" fill="#DCDCDC" width="6.994" height="16.421"/>
			<rect x="472.385" y="363.14" fill="#DCDCDC" width="6.994" height="16.42"/>
			<rect x="485.56" y="363.14" fill="#DCDCDC" width="6.994" height="16.42"/>
			<rect x="498.518" y="363.14" fill="#DCDCDC" width="6.994" height="16.42"/>
			<rect x="511.693" y="363.14" fill="#DCDCDC" width="6.994" height="16.42"/>
		</g>
		<g>
			<polygon fill="#004860" points="671.432,406.097 601.074,406.097 601.074,320.234 636.254,272.662 671.432,320.234 			"/>
			<circle fill="#002738" cx="623.834" cy="326.666" r="8.481"/>
			<circle fill="#002738" cx="648.672" cy="326.666" r="8.48"/>
			<circle fill="#002738" cx="623.834" cy="350.801" r="8.481"/>
			<circle fill="#002738" cx="648.672" cy="350.801" r="8.48"/>
			<circle fill="#002738" cx="623.834" cy="374.935" r="8.481"/>
			<circle fill="#002738" cx="648.672" cy="374.935" r="8.48"/>
		</g>
		<rect x="81.325" y="403.732" fill="#69E2DE" width="637.351" height="24.027"/>
		<g>
			<g>
				<rect x="176.789" y="388.799" fill="#004860" width="4.274" height="25.014"/>
				<g>
					<path fill="#AFC01D" d="M160.22,378.773c0,10.331,8.375,18.706,18.706,18.706v-62.906
						C178.926,334.572,160.22,368.442,160.22,378.773z"/>
					<path fill="#7EA800" d="M197.633,378.773c0-10.331-18.706-44.2-18.706-44.2v62.906
						C189.258,397.479,197.633,389.104,197.633,378.773z"/>
				</g>
			</g>
			<g>
				<rect x="106.432" y="388.799" fill="#004860" width="4.274" height="25.014"/>
				<g>
					<path fill="#AFC01D" d="M89.863,378.773c0,10.331,8.375,18.706,18.706,18.706v-62.906
						C108.569,334.572,89.863,368.442,89.863,378.773z"/>
					<path fill="#7EA800" d="M127.275,378.773c0-10.331-18.707-44.2-18.707-44.2v62.906
						C118.9,397.479,127.275,389.104,127.275,378.773z"/>
				</g>
			</g>
			<g>
				<rect x="221.906" y="388.799" fill="#004860" width="4.274" height="25.014"/>
				<g>
					<path fill="#AFC01D" d="M205.337,378.773c0,10.331,8.375,18.706,18.706,18.706v-62.906
						C224.043,334.572,205.337,368.442,205.337,378.773z"/>
					<path fill="#7EA800" d="M242.75,378.773c0-10.331-18.707-44.2-18.707-44.2v62.906
						C234.375,397.479,242.75,389.104,242.75,378.773z"/>
				</g>
			</g>
			<g>
				<rect x="458.221" y="388.799" fill="#004860" width="4.273" height="25.014"/>
				<g>
					<path fill="#AFC01D" d="M441.65,378.773c0,10.331,8.375,18.706,18.707,18.706v-62.906
						C460.357,334.572,441.65,368.442,441.65,378.773z"/>
					<path fill="#7EA800" d="M479.064,378.773c0-10.331-18.707-44.2-18.707-44.2v62.906
						C470.689,397.479,479.064,389.104,479.064,378.773z"/>
				</g>
			</g>
			<g>
				<rect x="503.374" y="388.799" fill="#004860" width="4.275" height="25.014"/>
				<g>
					<path fill="#AFC01D" d="M486.806,378.773c0,10.331,8.375,18.706,18.707,18.706v-62.906
						C505.513,334.572,486.806,368.442,486.806,378.773z"/>
					<path fill="#7EA800" d="M524.218,378.773c0-10.331-18.705-44.2-18.705-44.2v62.906
						C515.843,397.479,524.218,389.104,524.218,378.773z"/>
				</g>
			</g>
			<g>
				<rect x="668.535" y="388.799" fill="#004860" width="4.273" height="25.014"/>
				<g>
					<path fill="#AFC01D" d="M651.965,378.773c0,10.331,8.375,18.706,18.707,18.706v-62.906
						C670.672,334.572,651.965,368.442,651.965,378.773z"/>
					<path fill="#7EA800" d="M689.379,378.773c0-10.331-18.707-44.2-18.707-44.2v62.906
						C681.004,397.479,689.379,389.104,689.379,378.773z"/>
				</g>
			</g>
		</g>
	</g>
</g>
</svg>
