<?xml version="1.0" encoding="UTF-8"?>
<!DOCTYPE svg PUBLIC "-//W3C//DTD SVG 1.1//EN" "http://www.w3.org/Graphics/SVG/1.1/DTD/svg11.dtd">
<!-- Creator: CorelDRAW X6 -->
<svg xmlns="http://www.w3.org/2000/svg" xml:space="preserve" width="1.00076in" height="1.1248in" version="1.1" style="shape-rendering:geometricPrecision; text-rendering:geometricPrecision; image-rendering:optimizeQuality; fill-rule:evenodd; clip-rule:evenodd"
viewBox="0 0 149 167"
 xmlns:xlink="http://www.w3.org/1999/xlink">
 <defs>
  <style type="text/css">
   <![CDATA[
    .fil0 {fill:#00AB98;fill-rule:nonzero}
   ]]>
  </style>
 </defs>
 <g id="Layer_x0020_1">
  <metadata id="CorelCorpID_0Corel-Layer"/>
  <g id="_517728720">
   <path class="fil0" d="M130 64l-21 0c-1,-21 -14,-39 -31,-41 -1,-13 -3,-23 -3,-23 0,0 -3,10 -3,23 -17,2 -30,19 -31,41l-21 0 0 8 110 0 0 -8z"/>
   <polygon class="fil0" points="24,109 32,109 32,74 24,74 "/>
   <polygon class="fil0" points="46,109 55,109 55,74 46,74 "/>
   <polygon class="fil0" points="93,109 102,109 102,74 93,74 "/>
   <polygon class="fil0" points="116,109 125,109 125,74 116,74 "/>
   <polygon class="fil0" points="71,109 79,109 79,74 71,74 "/>
   <polygon class="fil0" points="2,157 11,157 11,122 2,122 "/>
   <polygon class="fil0" points="25,157 33,157 33,122 25,122 "/>
   <polygon class="fil0" points="72,157 80,157 80,122 72,122 "/>
   <polygon class="fil0" points="130,112 0,112 0,120 149,120 149,112 "/>
   <polygon class="fil0" points="0,167 149,167 149,159 0,159 "/>
   <polygon class="fil0" points="95,157 103,157 103,122 95,122 "/>
   <polygon class="fil0" points="115,157 124,157 124,122 115,122 "/>
   <polygon class="fil0" points="138,157 147,157 147,122 138,122 "/>
   <polygon class="fil0" points="49,157 57,157 57,122 49,122 "/>
  </g>
 </g>
</svg>
