<?xml version="1.0" encoding="UTF-8"?>
<!DOCTYPE svg PUBLIC "-//W3C//DTD SVG 1.1//EN" "http://www.w3.org/Graphics/SVG/1.1/DTD/svg11.dtd">
<!-- Creator: CorelDRAW X6 -->
<svg xmlns="http://www.w3.org/2000/svg" xml:space="preserve" width="0.864551in" height="0.980091in" version="1.1" style="shape-rendering:geometricPrecision; text-rendering:geometricPrecision; image-rendering:optimizeQuality; fill-rule:evenodd; clip-rule:evenodd"
viewBox="0 0 158 179"
 xmlns:xlink="http://www.w3.org/1999/xlink">
 <defs>
  <style type="text/css">
   <![CDATA[
    .fil0 {fill:#00AB98}
    .fil1 {fill:white}
   ]]>
  </style>
 </defs>
 <g id="Layer_x0020_1">
  <metadata id="CorelCorpID_0Corel-Layer"/>
  <rect class="fil0" y="33" width="94" height="146"/>
  <polygon class="fil0" points="90,81 158,107 158,179 90,179 "/>
  <rect class="fil1" x="46" y="148" width="23" height="27"/>
  <rect class="fil1" x="19" y="148" width="23" height="27"/>
  <rect class="fil1" x="34" y="121" width="23" height="19"/>
  <rect class="fil1" x="8" y="121" width="23" height="19"/>
  <rect class="fil1" x="59" y="95" width="23" height="19"/>
  <rect class="fil1" x="34" y="95" width="23" height="19"/>
  <rect class="fil1" x="59" y="70" width="23" height="19"/>
  <rect class="fil1" x="8" y="70" width="23" height="19"/>
  <rect class="fil1" x="59" y="42" width="23" height="19"/>
  <rect class="fil1" x="8" y="42" width="23" height="19"/>
  <rect class="fil1" x="125" y="120" width="23" height="19"/>
  <rect class="fil1" x="99" y="120" width="23" height="19"/>
  <rect class="fil1" x="125" y="142" width="23" height="19"/>
  <rect class="fil1" x="99" y="142" width="23" height="19"/>
  <path class="fil0" d="M56 7c0,0 0,0 -1,-1l-6 -1 -3 -5c0,0 0,0 -1,0 0,0 0,0 -1,1l-2 6 -6 1c0,0 -1,0 -1,1 0,0 0,0 0,1l5 4 -1 6c0,0 0,0 0,0 0,0 0,1 1,1 0,0 0,0 0,0l5 -3 6 3c0,0 0,0 0,0 0,0 0,0 0,-1 0,0 0,0 0,0l-1 -6 4 -5c0,0 0,0 0,-1z"/>
  <path class="fil0" d="M70 16c0,0 0,0 0,0l-4 -2 -1 -4c0,0 0,0 0,0 0,0 0,0 0,0l-3 3 -4 0c0,0 0,0 -1,0 0,0 0,0 0,0l2 4 -2 4c0,0 0,0 0,0 0,0 0,0 0,0 0,0 0,0 0,0l4 -1 3 3c0,0 0,0 0,0 0,0 0,0 0,0 0,0 0,0 0,0l0 -4 4 -2c0,0 0,0 0,0z"/>
  <path class="fil0" d="M81 26c0,0 0,0 0,0l-4 -1 -2 -4c0,0 0,0 0,0 0,0 0,0 0,0l-2 4 -4 1c0,0 0,0 0,0 0,0 0,0 0,0l3 3 -1 4c0,0 0,0 0,0 0,0 0,0 0,0 0,0 0,0 0,0l4 -2 4 2c0,0 0,0 0,0 0,0 0,0 0,0 0,0 0,0 0,0l-1 -4 3 -3c0,0 0,0 0,0z"/>
  <path class="fil0" d="M36 14c0,0 0,0 -1,0l-4 0 -2 -3c0,0 0,0 0,0 0,0 0,0 0,0l-1 4 -4 1c0,0 0,0 0,0 0,0 0,0 0,0l3 2 0 4c0,0 0,0 0,0 0,0 0,0 0,0 0,0 0,0 0,0l3 -3 4 1c0,0 0,0 0,0 0,0 0,0 0,0 0,0 0,0 0,0l-1 -4 2 -3c0,0 0,0 0,0z"/>
  <path class="fil0" d="M26 25c0,0 0,0 0,0l-4 -1 -2 -4c0,0 0,0 0,0 0,0 0,0 0,0l-2 4 -4 1c0,0 0,0 0,0 0,0 0,0 0,0l3 3 -1 4c0,0 0,0 0,0 0,0 0,0 0,0 0,0 0,0 0,0l4 -2 4 2c0,0 0,0 0,0 0,0 0,0 0,0 0,0 0,0 0,0l-1 -4 3 -3c0,0 0,0 0,0z"/>
 </g>
</svg>
