<?xml version="1.0" encoding="UTF-8"?>
<!DOCTYPE svg PUBLIC "-//W3C//DTD SVG 1.1//EN" "http://www.w3.org/Graphics/SVG/1.1/DTD/svg11.dtd">
<!-- Creator: CorelDRAW X6 -->
<svg xmlns="http://www.w3.org/2000/svg" xml:space="preserve" width="0.501551in" height="0.629272in" version="1.1" style="shape-rendering:geometricPrecision; text-rendering:geometricPrecision; image-rendering:optimizeQuality; fill-rule:evenodd; clip-rule:evenodd"
viewBox="0 0 114 143"
 xmlns:xlink="http://www.w3.org/1999/xlink">
 <defs>
  <style type="text/css">
   <![CDATA[
    .fil0 {fill:#00AB98}
   ]]>
  </style>
 </defs>
 <g id="Layer_x0020_1">
  <metadata id="CorelCorpID_0Corel-Layer"/>
  <path class="fil0" d="M30 49l8 0 0 -5c0,-4 4,-8 8,-8l2 0 0 -10c0,-3 2,-6 4,-7l0 -10 -2 0c-1,1 -2,2 -4,2l-20 0c-2,0 -4,-2 -4,-4l0 0c0,-2 2,-4 4,-4l20 0c2,0 3,1 4,3l2 0 0 -4c0,-2 1,-3 3,-3l0 0c2,0 3,1 3,3l0 4 2 0c1,-2 2,-3 4,-3l20 0c2,0 4,2 4,4l0 0c0,2 -2,4 -4,4l-20 0c-2,0 -3,-1 -4,-2l-2 0 0 10c3,1 5,4 5,8l0 10 2 0c4,0 8,4 8,8l0 5 1 0 5 0 10 0c8,0 15,7 15,15l0 24 3 0c3,0 6,3 6,6l0 6 -46 0 0 -6c0,-3 3,-6 6,-6l2 0 0 -14 -55 0 -1 0 -19 0c1,0 2,0 3,-1 14,-6 15,-24 27,-24z"/>
  <path class="fil0" d="M90 130c0,2 -2,4 -4,4 -2,0 -4,-2 -4,-4 0,-1 0,-2 1,-2 0,-1 2,-3 3,-5 0,0 0,-1 1,-1 0,0 1,0 1,1 1,2 2,4 3,5 0,1 1,1 1,2l0 0zm17 -4c0,-3 -1,-6 -3,-9 -2,-3 -9,-11 -11,-20 0,-1 -2,-2 -3,-2 -1,0 -2,1 -3,2 -3,9 -10,18 -11,20 -2,3 -3,6 -3,9 0,9 7,17 17,17 9,0 17,-7 17,-17z"/>
 </g>
</svg>
