<?xml version="1.0" encoding="UTF-8"?>
<!DOCTYPE svg PUBLIC "-//W3C//DTD SVG 1.1//EN" "http://www.w3.org/Graphics/SVG/1.1/DTD/svg11.dtd">
<!-- Creator: CorelDRAW X6 -->
<svg xmlns="http://www.w3.org/2000/svg" xml:space="preserve" width="0.507933in" height="0.743906in" version="1.1" style="shape-rendering:geometricPrecision; text-rendering:geometricPrecision; image-rendering:optimizeQuality; fill-rule:evenodd; clip-rule:evenodd"
viewBox="0 0 7380 10808"
 xmlns:xlink="http://www.w3.org/1999/xlink">
 <defs>
  <style type="text/css">
   <![CDATA[
    .fil0 {fill:#00AB98}
   ]]>
  </style>
 </defs>
 <g id="Layer_x0020_1">
  <metadata id="CorelCorpID_0Corel-Layer"/>
  <path class="fil0" d="M2149 0l3064 0c297,0 540,243 540,540l0 453 1623 0c7,83 14,167 -64,349 -78,182 -242,463 -480,758 -237,295 -549,604 -762,807 -137,130 -234,215 -317,285l0 1147 1623 0c7,83 14,167 -64,349 -78,182 -242,463 -480,758 -237,295 -549,604 -762,807 -137,130 -234,215 -317,285l0 1147 1623 0c7,83 14,167 -64,349 -78,182 -242,463 -480,758 -237,295 -549,604 -762,807 -137,130 -234,215 -317,285l0 386c0,297 -243,540 -540,540l-3064 0c-297,0 -540,-243 -540,-540l0 -403c-78,-67 -171,-149 -297,-268 -214,-202 -526,-512 -764,-807 -238,-295 -402,-576 -481,-758 -79,-182 -71,-265 -64,-349l1605 0 0 -1165c-78,-67 -171,-149 -297,-268 -214,-202 -526,-512 -764,-807 -238,-295 -402,-576 -481,-758 -79,-182 -71,-265 -64,-349l1605 0 0 -1165c-78,-67 -171,-149 -297,-268 -214,-202 -526,-512 -764,-807 -238,-295 -402,-576 -481,-758 -79,-182 -71,-265 -64,-349l1605 0 0 -453c0,-297 243,-540 540,-540zm1567 7556c627,0 1135,508 1135,1135 0,627 -508,1135 -1135,1135 -627,0 -1135,-508 -1135,-1135 0,-627 508,-1135 1135,-1135zm0 -3226c627,0 1135,508 1135,1135 0,627 -508,1135 -1135,1135 -627,0 -1135,-508 -1135,-1135 0,-627 508,-1135 1135,-1135zm0 -3346c627,0 1135,508 1135,1135 0,627 -508,1135 -1135,1135 -627,0 -1135,-508 -1135,-1135 0,-627 508,-1135 1135,-1135zm-35 -623l0 0c967,0 1758,791 1758,1758l0 6571c0,967 -791,1758 -1758,1758l0 0c-967,0 -1758,-791 -1758,-1758l0 -6571c0,-967 791,-1758 1758,-1758z"/>
 </g>
</svg>
