<?xml version="1.0" encoding="UTF-8"?>
<!DOCTYPE svg PUBLIC "-//W3C//DTD SVG 1.1//EN" "http://www.w3.org/Graphics/SVG/1.1/DTD/svg11.dtd">
<!-- Creator: CorelDRAW X6 -->
<svg xmlns="http://www.w3.org/2000/svg" xml:space="preserve" width="0.788374in" height="0.65213in" version="1.1" style="shape-rendering:geometricPrecision; text-rendering:geometricPrecision; image-rendering:optimizeQuality; fill-rule:evenodd; clip-rule:evenodd"
viewBox="0 0 212 175"
 xmlns:xlink="http://www.w3.org/1999/xlink">
 <defs>
  <style type="text/css">
   <![CDATA[
    .fil0 {fill:#00AB98}
   ]]>
  </style>
 </defs>
 <g id="Layer_x0020_1">
  <metadata id="CorelCorpID_0Corel-Layer"/>
  <path class="fil0" d="M66 146c0,8 -6,15 -15,15 -8,0 -15,-7 -15,-15 0,-8 7,-15 15,-15 8,0 15,6 15,15zm-44 -58l0 -3c0,-1 1,-2 1,-2l22 -22c1,0 2,-1 2,-1l18 0 0 29 -44 0zm146 58c0,8 -7,15 -15,15 -8,0 -15,-7 -15,-15 0,-8 7,-15 15,-15 8,0 15,6 15,15zm15 -77c0,2 -2,4 -4,4l-26 0 0 26c0,2 -2,4 -4,4l-22 0c-2,0 -4,-2 -4,-4l0 -26 -26 0c-2,0 -4,-2 -4,-4l0 -22c0,-2 2,-4 4,-4l26 0 0 -26c0,-2 2,-4 4,-4l22 0c2,0 4,2 4,4l0 26 26 0c2,0 4,2 4,4l0 22zm29 -62c0,-4 -3,-7 -7,-7l-132 0c-4,0 -7,3 -7,7l0 37 -18 0c-4,0 -10,2 -12,5l-23 23c-3,3 -5,8 -5,12l0 48c-4,0 -7,3 -7,7 0,4 3,7 7,7l15 0c0,16 13,29 29,29 16,0 29,-13 29,-29l44 0c0,16 13,29 29,29 16,0 29,-13 29,-29l22 0c4,0 7,-3 7,-7l0 -132z"/>
 </g>
</svg>
