<?xml version="1.0" encoding="UTF-8"?>
<!DOCTYPE svg PUBLIC "-//W3C//DTD SVG 1.1//EN" "http://www.w3.org/Graphics/SVG/1.1/DTD/svg11.dtd">
<!-- Creator: CorelDRAW X6 -->
<svg xmlns="http://www.w3.org/2000/svg" xml:space="preserve" width="0.419083in" height="0.773543in" version="1.1" style="shape-rendering:geometricPrecision; text-rendering:geometricPrecision; image-rendering:optimizeQuality; fill-rule:evenodd; clip-rule:evenodd"
viewBox="0 0 38 70"
 xmlns:xlink="http://www.w3.org/1999/xlink">
 <defs>
  <style type="text/css">
   <![CDATA[
    .fil0 {fill:#00AB98}
   ]]>
  </style>
 </defs>
 <g id="Layer_x0020_1">
  <metadata id="CorelCorpID_0Corel-Layer"/>
  <g id="_299983424">
   <path class="fil0" d="M10 46c1,-1 4,-1 6,-1 0,-1 1,-4 2,-5 1,1 1,1 1,2 0,1 1,2 1,3 2,0 5,0 6,1 0,1 -4,3 -5,4 0,2 2,5 1,6 -1,0 -4,-3 -5,-3 -1,0 -3,2 -6,2 0,-2 1,-4 1,-6 -1,0 -4,-3 -5,-4zm-10 -11c0,2 3,1 3,6 0,4 -10,17 3,24 2,1 4,1 6,2 1,0 2,1 3,1 3,2 1,2 5,0 1,-1 2,-1 3,-1 2,-1 5,-1 7,-2 13,-7 3,-20 3,-24 0,-6 6,-4 1,-8l-7 -5c-1,3 -5,7 -9,7l-2 0c-4,0 -8,-4 -9,-7 -1,1 -8,6 -8,7z"/>
   <path class="fil0" d="M6 18c0,5 2,5 3,8 1,2 3,8 10,8 6,0 8,-6 11,-10 3,-5 1,-7 1,-10 -2,0 -8,4 -19,1l-5 -1c-1,3 -1,3 -1,5z"/>
   <path class="fil0" d="M19 6c-5,0 -3,-6 -1,-6 4,0 4,6 1,6zm-15 3c0,1 0,0 0,1 4,-1 5,-3 15,-3 7,0 10,2 13,3 1,-4 -1,-6 -4,-8 -11,-8 -24,0 -24,6z"/>
   <path class="fil0" d="M6 11l0 1c4,1 6,3 13,3 4,0 7,-1 10,-2 1,0 2,-1 3,-1l0 -1c-4,-1 -5,-3 -13,-3 -4,0 -7,1 -10,2 -1,0 -2,1 -3,1z"/>
  </g>
 </g>
</svg>
