<?xml version="1.0" encoding="UTF-8"?>
<!DOCTYPE svg PUBLIC "-//W3C//DTD SVG 1.1//EN" "http://www.w3.org/Graphics/SVG/1.1/DTD/svg11.dtd">
<!-- Creator: CorelDRAW X6 -->
<svg xmlns="http://www.w3.org/2000/svg" xml:space="preserve" width="0.940126in" height="1.02066in" version="1.1" style="shape-rendering:geometricPrecision; text-rendering:geometricPrecision; image-rendering:optimizeQuality; fill-rule:evenodd; clip-rule:evenodd"
viewBox="0 0 155 169"
 xmlns:xlink="http://www.w3.org/1999/xlink">
 <defs>
  <style type="text/css">
   <![CDATA[
    .fil0 {fill:#00AB98;fill-rule:nonzero}
   ]]>
  </style>
 </defs>
 <g id="Layer_x0020_1">
  <metadata id="CorelCorpID_0Corel-Layer"/>
  <g id="_303891064">
   <path class="fil0" d="M66 21l0 0c1,0 1,0 2,-1 2,3 5,4 8,4 4,0 7,-2 8,-4 0,0 1,1 2,1l0 0c2,0 3,-1 3,-3l0 -8c0,-1 -1,-3 -3,-3 -1,-4 -6,-8 -11,-8 -5,0 -9,3 -11,8 -1,0 -3,1 -3,3l0 8c0,2 1,3 3,3zm10 -19c4,0 8,3 9,6 0,0 0,0 -1,0 -2,-3 -5,-4 -8,-4 -3,0 -6,2 -8,4 0,0 0,0 -1,0 1,-4 5,-6 9,-6z"/>
   <path class="fil0" d="M100 7c-1,9 -5,17 -11,24 -4,-2 -16,-7 -30,3 -2,1 -3,1 -4,0 -1,0 -1,-4 -1,-5 0,-7 3,-14 6,-21 3,-6 -6,-12 -9,-6 -4,9 -9,21 -8,31 1,10 10,12 18,10l1 4 0 8 0 38 0 30c0,3 2,6 6,6 3,0 6,-3 6,-6l0 -43 5 0 0 44c0,7 11,7 11,0l0 -31 0 -38c0,-4 0,-7 0,-9l0 -2c11,-9 18,-21 20,-35 1,-7 -10,-10 -11,-3z"/>
  </g>
  <g id="_303892648">
   <path class="fil0" d="M55 130l-10 -12 -4 14 4 5 9 23c1,3 5,5 8,4 0,0 0,0 0,0 3,-1 5,-5 4,-8l-9 -24c0,-1 -1,-1 -1,-2z"/>
   <path class="fil0" d="M21 57c2,6 -1,12 -7,14 -6,2 -12,-1 -14,-7 -2,-6 1,-12 7,-14 6,-2 12,1 14,7z"/>
   <path class="fil0" d="M44 44c-3,-1 -6,1 -7,3l-7 22 -5 3c-1,0 -2,0 -4,0l-12 4c-4,1 -6,6 -4,9l2 5c2,-3 3,-5 5,-9l-7 21c-1,2 0,4 1,5l14 16c2,2 5,3 7,1 2,-2 3,-5 1,-7l-12 -14 6 -19 0 2c0,3 0,12 -1,15 8,10 7,9 10,12 4,4 3,11 -1,14 -2,2 -5,3 -7,2l-2 5 -19 20c-2,2 -2,6 0,9 2,2 6,2 9,0l20 -21c1,-1 1,-2 2,-3l9 -30c1,-2 0,-3 -1,-5l-9 -26 5 -3c1,-1 2,-2 2,-3l8 -23c1,-3 -1,-6 -3,-7z"/>
  </g>
  <g id="_303893800">
   <path class="fil0" d="M132 133c-1,2 -1,3 -1,5l3 25c0,3 4,6 7,5 3,0 6,-4 5,-7l-3 -24 3 -15 -15 11z"/>
   <path class="fil0" d="M145 55c0,6 -5,11 -11,11 -6,0 -11,-5 -11,-11 0,-6 5,-11 11,-11 6,0 11,5 11,11z"/>
   <path class="fil0" d="M155 106c0,0 0,0 0,0l-5 -31c-1,-4 -4,-7 -8,-6l-13 2 -12 -8 -6 -22c-1,-3 -4,-4 -6,-4 -3,1 -4,4 -4,6l6 24c0,1 1,2 2,3l12 8c14,-4 12,-3 16,-5l-17 10 -16 -8c-2,-1 -5,0 -7,2 -2,3 -1,6 2,7 21,10 19,9 20,10 1,1 3,0 4,0l18 -11 -16 16 2 11 9 -1 -20 15c-1,1 -1,1 -2,2l-13 26c-2,3 0,7 3,8 3,2 7,0 8,-3l12 -25c21,-15 16,-12 28,-20 2,-1 3,-4 3,-6z"/>
  </g>
 </g>
</svg>
