<?xml version="1.0" encoding="UTF-8"?>
<!DOCTYPE svg PUBLIC "-//W3C//DTD SVG 1.1//EN" "http://www.w3.org/Graphics/SVG/1.1/DTD/svg11.dtd">
<!-- Creator: CorelDRAW X6 -->
<svg xmlns="http://www.w3.org/2000/svg" xml:space="preserve" width="6.46514in" height="6.79786in" version="1.1" style="shape-rendering:geometricPrecision; text-rendering:geometricPrecision; image-rendering:optimizeQuality; fill-rule:evenodd; clip-rule:evenodd"
viewBox="0 0 7035 7397"
 xmlns:xlink="http://www.w3.org/1999/xlink">
 <defs>
  <style type="text/css">
   <![CDATA[
    .str2 {stroke:#666666;stroke-width:22.6707}
    .str9 {stroke:#921328;stroke-width:22.6707}
    .str1 {stroke:#BE955F;stroke-width:22.6707}
    .str0 {stroke:#DFDABA;stroke-width:22.6707}
    .str4 {stroke:#0C85FD;stroke-width:30.2276}
    .str3 {stroke:#13B78A;stroke-width:30.2276}
    .str8 {stroke:#333333;stroke-width:30.2276}
    .str5 {stroke:#523E2A;stroke-width:70.2276}
    .str7 {stroke:#AA55FE;stroke-width:30.2276}
    .str6 {stroke:#FE602A;stroke-width:30.2276}
    .fil10 {fill:none}
    .fil1 {fill:#333333}
    .fil6 {fill:#0C85FD;fill-rule:nonzero}
    .fil7 {fill:#13B78A;fill-rule:nonzero}
    .fil4 {fill:#1A1A1A;fill-rule:nonzero}
    .fil8 {fill:#523E2A;fill-rule:nonzero}
    .fil5 {fill:#AA55FE;fill-rule:nonzero}
    .fil0 {fill:#333333;fill-rule:nonzero}
    .fil2 {fill:#FD9903;fill-rule:nonzero}
    .fil9 {fill:#FE602A;fill-rule:nonzero}
   ]]>
  </style>
 </defs>
 <g id="Layer_x0020_1" class="map">
  <metadata id="CorelCorpID_0Corel-Layer"/>
  <g class="static">
    <path class="fil10 str0" d="M4131 3579c0,38 0,75 -2,102 -2,27 -6,44 -29,83 -22,40 -63,102 -119,193 -56,91 -128,210 -178,293 -50,83 -79,130 -99,163 -19,33 -29,51 -35,66 -6,14 -7,25 -4,55 2,30 9,79 11,117 2,38 1,65 -11,112 -12,48 -33,116 -50,171 -17,54 -29,94 -37,125 -8,30 -12,51 -12,82 0,31 2,72 6,114 4,42 9,85 7,119 -2,34 -11,59 -30,97 -19,38 -48,88 -64,122 -16,34 -18,50 -16,88 3,38 10,96 27,177 17,82 44,186 60,256 15,69 19,104 19,142 0,38 -5,80 -12,142 -6,62 -14,145 -21,225 -7,80 -12,156 -14,234 -2,77 -1,155 0,219 1,64 2,115 3,165"/>
    <path class="fil10 str0" d="M2890 33c-12,38 -24,75 -36,107 -12,32 -24,58 -39,78 -15,20 -34,34 -60,88 -26,54 -59,149 -96,245 -37,96 -78,193 -124,284 -46,92 -98,179 -147,247 -49,68 -95,118 -128,154 -33,35 -53,56 -63,71 -10,14 -11,22 -9,43 2,20 8,53 10,78 2,24 0,40 -18,58 -18,18 -52,38 -93,59 -41,21 -90,44 -131,74 -41,30 -74,67 -100,99 -26,32 -45,59 -52,81 -7,22 -3,40 8,94 11,54 30,144 46,205 15,61 27,93 66,133 39,40 105,89 187,144 82,54 180,114 262,158 82,44 149,72 228,98 79,26 170,51 253,95 83,43 159,105 252,170 93,64 204,131 300,186 96,54 177,96 231,130 54,34 82,60 110,92 27,32 54,71 77,99 22,27 40,43 66,56 26,12 60,21 92,32 32,11 62,24 97,33 35,9 75,14 117,16 42,2 87,1 127,8 40,7 75,22 126,47 51,25 118,61 169,90 51,29 87,51 123,73"/>
    <path class="fil10 str0" d="M4746 3831c-62,-40 -124,-80 -187,-113 -63,-33 -127,-59 -190,-79 -63,-20 -126,-35 -182,-47 -55,-12 -103,-21 -156,-32 -53,-11 -111,-25 -151,-48 -40,-23 -63,-55 -105,-98 -41,-43 -101,-97 -161,-142 -60,-45 -120,-82 -201,-128 -81,-46 -183,-101 -282,-156 -100,-55 -198,-111 -276,-159 -79,-48 -139,-88 -214,-126 -75,-38 -166,-74 -254,-116 -88,-42 -174,-90 -259,-138 -85,-48 -169,-97 -220,-146 -52,-49 -72,-98 -92,-157 -20,-59 -40,-128 -54,-170 -14,-42 -22,-58 -27,-70 -5,-11 -8,-18 -9,-21 -1,-2 0,-1 -23,14 -23,14 -70,41 -117,71 -47,30 -95,63 -125,82 -29,19 -40,24 -46,27 -6,3 -7,4 -1,77 6,73 19,217 33,301 14,84 30,107 49,130 19,23 41,47 61,69 20,22 39,42 60,78 21,36 44,88 65,141 21,53 41,107 56,145 15,38 25,61 30,73 5,11 5,11 -27,81 -32,70 -96,210 -128,279 -32,70 -33,70 -28,96 5,26 17,79 39,137 21,57 52,120 70,159 19,40 26,57 28,85 2,28 -1,66 -3,112 -2,46 -3,99 -3,127 0,27 0,29 14,50 15,21 44,62 76,99 32,37 68,69 105,90 38,22 78,33 113,43 35,10 65,20 92,31 27,11 51,24 64,30 12,6 12,6 11,96 -1,90 -3,270 -3,397 1,127 4,203 6,314 2,111 3,258 21,382 18,124 51,225 78,325 27,100 47,199 59,295 13,96 18,189 19,267 1,77 -3,139 -11,191 -8,53 -22,97 -27,152 -5,55 -2,120 2,168 4,49 10,81 16,113"/>
    <path class="fil10 str0" d="M2281 7208c-4,-93 -8,-187 -6,-269 1,-83 8,-155 15,-222 7,-66 15,-127 16,-192 1,-65 -3,-135 -31,-261 -28,-126 -79,-308 -109,-450 -31,-143 -41,-246 -46,-432 -5,-186 -4,-455 -5,-609 -1,-154 -4,-194 -6,-214 -2,-20 -3,-21 -26,-27 -24,-6 -70,-16 -102,-24 -33,-8 -51,-12 -81,-31 -29,-19 -69,-52 -110,-92 -41,-41 -85,-89 -108,-159 -23,-71 -26,-164 -30,-226 -4,-62 -8,-93 -26,-149 -18,-56 -49,-137 -66,-203 -17,-66 -20,-117 -16,-158 4,-41 14,-72 41,-129 26,-57 69,-140 88,-199 19,-59 14,-95 6,-134 -8,-39 -21,-80 -42,-130 -21,-50 -51,-108 -85,-153 -33,-44 -70,-74 -96,-102 -25,-28 -40,-53 -51,-114 -11,-60 -20,-155 -26,-222 -6,-66 -10,-104 -12,-123 -2,-19 -3,-20 -127,248 -124,269 -371,807 -495,1075 -124,268 -126,266 -138,430 -12,163 -33,492 -51,790 -18,297 -32,563 -42,779 -10,216 -16,382 -28,589 -13,208 -33,457 -43,649 -10,191 -11,324 -12,424 0,99 0,165 0,231"/>
    <path class="fil10 str0" d="M367 7383c9,-290 19,-580 30,-823 11,-243 23,-438 36,-666 13,-228 27,-490 40,-750 13,-260 24,-517 30,-723 6,-206 7,-362 11,-457 4,-95 10,-129 41,-205 31,-76 85,-195 162,-357 76,-162 174,-367 228,-484 54,-116 63,-144 66,-156 3,-13 0,-11 -132,-36 -133,-25 -396,-77 -563,-114 -167,-37 -239,-60 -311,-82"/>
    <path class="fil10 str0" d="M4 2447c205,57 409,115 562,155 153,41 254,64 327,79 73,15 118,20 140,24 22,3 21,4 61,-87 40,-91 121,-274 167,-382 46,-108 57,-141 65,-175 8,-34 11,-69 21,-104 10,-35 26,-70 45,-103 19,-33 42,-65 54,-91 12,-25 14,-44 10,-64 -4,-20 -13,-41 -23,-62"/>
    <path class="fil10 str0" d="M1518 1605c10,32 20,64 33,80 13,16 29,16 50,14 21,-2 48,-6 66,-2 18,4 29,15 41,33 12,17 26,41 34,53 8,12 10,12 21,-20 11,-32 31,-95 53,-135 23,-40 48,-57 91,-79 43,-22 105,-48 145,-67 41,-19 60,-30 71,-46 10,-16 11,-37 7,-60 -5,-23 -15,-49 -16,-65 0,-16 9,-24 44,-62 35,-38 95,-106 148,-173 53,-67 99,-134 149,-224 50,-90 104,-202 151,-310 47,-108 88,-213 115,-272 28,-59 43,-72 56,-87 13,-15 24,-32 34,-57 9,-25 17,-59 24,-93"/>
    <path class="fil10 str0" d="M1413 2040c9,-10 22,-27 48,-46 25,-19 62,-40 94,-58 31,-18 57,-34 76,-47 20,-13 33,-24 42,-37 8,-13 11,-28 13,-41 1,-14 0,-26 -5,-32 -5,-6 -14,-6 -30,-6 -17,0 -41,0 -62,1 -21,1 -38,4 -52,9 -14,5 -25,11 -38,24 -13,13 -27,32 -43,56 -15,24 -32,53 -41,78 -9,25 -12,47 -14,66 -2,18 -3,33 -2,39 1,6 5,3 14,-7z"/>
    <path class="fil10 str1" d="M4641 33c99,175 198,350 270,476 72,126 115,202 141,257 26,56 33,91 37,238 4,147 5,406 6,660 1,254 3,502 7,716 4,214 12,395 18,572 6,178 9,353 11,473 2,120 2,185 1,224 -1,39 -3,53 -4,59 -1,7 -1,7 -19,10 -18,3 -53,10 -88,17"/>
    <path class="fil10 str2" d="M6201 33c-93,237 -186,474 -233,593 -48,119 -50,119 -52,191 -2,73 -5,218 -6,291 -1,73 -1,73 -44,172 -42,100 -127,299 -170,399 -43,100 -44,101 -46,128 -2,27 -4,80 -2,106 2,26 7,26 -17,76 -24,49 -78,148 -105,197 -27,49 -27,49 -33,121 -6,72 -17,215 -23,287 -6,72 -7,73 2,46 9,-27 29,-82 38,-109 9,-27 8,-26 9,30 1,56 3,166 3,221 1,55 -1,55 -13,62 -13,7 -37,22 -49,29 -12,7 -12,6 -22,37 -10,31 -29,94 -39,125 -10,31 -10,31 -1,44 9,13 27,38 37,50 9,13 9,13 2,81 -7,68 -22,204 -29,273 -7,68 -6,68 7,85 13,17 37,50 48,66 11,16 10,15 9,126 -1,111 -2,334 -3,448 -1,113 -1,117 -11,134 -11,17 -33,48 -44,65 -11,17 -11,21 -9,64 2,43 5,125 7,167 2,41 2,41 -2,55 -3,14 -10,41 -14,56 -3,14 -3,15 1,57 5,42 14,124 18,166 5,41 5,41 17,58 12,17 36,52 48,68 11,17 10,15 9,55 -1,40 -2,120 -3,160 -1,40 -2,40 8,41 10,1 32,3 42,4 10,1 7,-1 10,32 2,33 9,99 11,132 2,33 0,33 23,53 23,19 73,58 98,78 25,19 26,19 31,40 5,21 13,62 17,82 4,21 4,21 36,60 31,40 95,119 127,158 33,40 35,40 76,37 41,-3 120,-9 159,-12 40,-3 40,-5 59,8 19,13 58,39 78,52 19,13 19,13 -10,26 -29,13 -88,38 -117,50 -29,13 -29,13 -44,80 -15,67 -45,201 -58,268 -14,67 -11,67 -10,67 1,0 1,0 21,20 20,20 60,60 80,80 20,20 20,20 168,64 148,44 445,131 593,174 148,44 148,44 148,44"/>
    <path class="fil10 str0" d="M5166 4142c11,141 22,281 33,377 11,96 22,147 28,183 6,35 7,54 -5,81 -13,27 -39,63 -58,91 -19,27 -31,46 -39,89 -8,43 -11,111 -13,164 -2,53 -3,91 3,122 7,30 21,52 28,70 8,18 9,32 3,59 -5,27 -18,66 -22,100 -5,33 -3,61 37,171 39,111 116,304 167,428 51,124 76,177 111,222 34,45 78,81 117,111 38,30 71,54 93,75 21,21 31,38 51,76 20,38 51,96 78,140 27,44 50,73 73,103"/>
    <path class="fil10 str0" d="M5745 6804c-46,-92 -92,-184 -147,-255 -55,-71 -120,-122 -166,-160 -47,-38 -75,-65 -102,-126 -27,-61 -54,-158 -92,-253 -39,-95 -90,-189 -127,-265 -37,-76 -59,-132 -67,-171 -9,-39 -4,-60 5,-84 9,-25 24,-53 32,-78 9,-25 12,-45 7,-76 -5,-30 -20,-70 -28,-126 -8,-56 -10,-130 -3,-188 7,-59 24,-102 44,-144 20,-42 44,-81 57,-114 13,-33 15,-61 13,-117 -3,-56 -10,-140 -19,-215 -9,-75 -18,-140 -28,-206"/>
    <path class="fil10 str1" d="M4763 33c105,196 210,392 274,519 64,127 87,185 105,230 18,45 30,78 36,143 6,65 6,161 6,323 0,162 1,388 3,588 2,200 6,373 7,583 1,210 0,457 0,665 0,208 2,377 4,497 2,121 4,193 6,268 2,75 4,152 1,197 -4,45 -14,57 -28,79 -14,22 -32,54 -56,102 -23,48 -51,112 -86,184 -34,73 -75,154 -100,223 -25,69 -33,124 -38,193 -4,69 -5,152 2,257 7,105 22,233 40,360 17,126 37,251 55,355 18,104 34,186 50,276 16,90 33,188 52,309 19,122 39,267 59,384 20,117 38,206 54,262 15,57 27,81 38,104 11,23 23,45 28,55 5,11 5,10 -12,10 -17,0 -51,0 -68,0 -17,0 -18,0 -24,-34 -7,-34 -20,-102 -47,-263 -27,-161 -68,-416 -95,-585 -27,-169 -41,-253 -56,-343 -15,-90 -31,-186 -44,-259 -13,-73 -22,-122 -28,-154 -6,-32 -10,-47 -12,-55 -2,-8 -2,-8 -39,13 -37,21 -112,65 -176,112 -64,47 -118,99 -151,134 -33,35 -46,55 -52,64 -6,9 -5,9 -78,12 -73,3 -219,10 -307,15 -88,6 -116,10 -146,20 -30,10 -61,24 -89,40 -27,16 -51,34 -63,43 -12,9 -12,9 -22,-12 -10,-21 -30,-62 -39,-83 -10,-21 -10,-21 8,-25 18,-4 53,-13 101,-23 49,-10 111,-20 187,-27 76,-7 168,-9 233,-9 66,0 107,4 127,5 20,1 20,0 59,-33 39,-33 118,-99 183,-147 65,-48 115,-78 150,-98 35,-20 55,-29 65,-34 10,-5 10,-5 8,-23 -2,-18 -5,-53 -11,-111 -6,-57 -16,-137 -19,-232 -3,-95 0,-206 14,-308 14,-103 38,-197 69,-280 32,-83 72,-154 110,-227 38,-73 73,-147 93,-218 19,-72 22,-141 23,-184 1,-44 1,-62 1,-71 0,-9 0,-9 -19,-9 -19,0 -56,0 -94,0"/>
    <path class="fil10 str1" d="M2687 33c-44,157 -88,314 -116,410 -28,96 -39,131 -59,160 -20,29 -50,52 -85,83 -35,30 -77,68 -112,113 -35,46 -64,100 -92,148 -29,48 -57,88 -110,142 -53,53 -130,119 -187,168 -57,49 -94,81 -144,114 -50,33 -112,67 -186,105 -74,38 -158,80 -261,118 -103,37 -224,69 -371,107 -147,38 -320,81 -451,117 -131,36 -220,66 -298,94 -78,28 -143,55 -209,82"/>
    <path class="fil10 str1" d="M4 2076c90,-33 180,-66 314,-106 134,-40 311,-88 479,-136 167,-48 325,-97 450,-135 125,-39 216,-67 301,-107 85,-40 163,-91 247,-148 84,-58 174,-122 251,-192 77,-71 142,-148 222,-248 79,-100 173,-223 232,-313 60,-90 86,-148 118,-228 32,-79 70,-180 95,-255 25,-75 36,-125 47,-175"/>
    <g id="Filinvest">
        <g>
            <path class="fil2" d="M4775 3906c2,1 4,2 5,3 1,1 2,2 0,5 -2,3 -24,39 -24,93 0,1 -2,3 -2,3 -1,0 -3,0 -6,0 -2,0 -6,-2 -6,-5 0,-31 12,-72 25,-96 2,-3 5,-4 8,-3z"/>
            <path class="fil2" d="M4743 3890c2,1 10,4 13,6 3,2 2,6 1,9 -6,11 -26,55 -26,101 0,4 -2,6 -5,6 -1,0 -5,0 -6,0 -1,0 -2,-1 -2,-3 0,-55 17,-108 20,-116 1,-3 4,-4 6,-3z"/>
            <path class="fil2" d="M4833 3826c13,3 41,7 61,9 5,0 8,4 8,7 0,3 1,8 1,10 0,2 0,4 -3,5 -2,1 -5,2 -7,2 -2,0 -4,0 -5,-3 -1,-3 0,-2 -1,-3 -1,-1 -3,-4 -8,-5 -5,-1 -16,-2 -19,-2 -4,0 -12,0 -24,9 -19,14 -32,28 -45,43 -3,4 -4,4 -5,3 -2,-1 -3,-2 -4,-3 -3,-2 -4,-5 -2,-7 3,-3 17,-21 28,-31 11,-10 19,-26 20,-29 1,-3 4,-6 7,-5z"/>
            <path class="fil2" d="M4707 3786c38,13 99,34 103,35 5,2 6,5 4,8 -1,3 -8,15 -15,21 -7,7 -25,26 -29,33 -3,5 -7,5 -10,3 -3,-1 -16,-8 -29,-11 -7,-2 -21,-5 -33,-9l0 -76 7 -3 1 -2z"/>
            <path class="fil2" d="M4699 3875c13,3 26,7 28,8 2,1 5,3 5,6 -1,3 -21,65 -21,121 0,56 19,99 37,129 2,3 2,4 0,6 -2,1 -21,15 -23,16 -2,2 -12,10 -7,26 1,4 6,20 6,27 0,8 -2,14 -2,20 0,9 7,26 26,26 7,0 13,-3 17,-7 5,-4 16,-16 20,-19 6,-4 16,-7 21,-13 2,-3 5,-8 7,-12 1,-4 4,-11 4,-13 0,-1 2,-3 4,-2 2,0 10,1 14,0 4,-1 15,-4 19,-5 4,0 30,-2 32,-2 2,0 3,1 3,3 0,2 0,44 0,74l-111 0c0,0 -2,6 -2,6 0,1 -14,11 -16,11 -2,0 -8,1 -9,1 -1,-1 -10,-10 -17,-12 -7,-2 -11,1 -14,-1 -3,-3 -17,-5 -22,-5l0 -389z"/>
            <path class="fil2" d="M5059 3797c1,0 3,0 4,1 1,2 10,3 14,4 4,1 9,2 9,2l0 8c-2,4 -7,8 -14,8 -10,0 -117,2 -120,2 -3,0 -4,-2 -4,-4l0 -110c0,-8 -7,-29 -26,-29 -11,0 -12,0 -18,0 -6,0 -26,8 -26,32l0 7c0,1 0,4 -4,4 -3,0 -26,0 -31,0 -5,0 -14,3 -15,13 -1,10 -6,63 -7,68 -1,4 -2,7 -7,5 -4,-1 -65,-21 -104,-34l2 -5 -5 -6c0,0 -3,-6 2,-6 4,-1 9,0 11,-2 2,-1 5,-3 6,-4 1,-1 3,-5 5,-6 2,-2 2,-2 5,-1 3,1 12,0 14,-1 2,0 6,2 3,3 -2,1 -8,9 -3,14 5,5 12,12 15,13 2,1 9,0 11,-3 1,-3 3,-7 7,-7 4,0 6,-1 6,-2 0,-2 0,-9 0,-11 0,-2 2,-3 4,-4 2,-1 3,-2 3,-2 0,-1 0,-6 0,-8 0,-2 -8,-8 -9,-9 -1,-1 -2,-7 2,-7 4,0 10,0 11,0 1,-1 6,-3 5,-4 -1,-1 -7,-5 -7,-6 0,-1 0,-1 1,-3 1,-2 1,-4 5,-5 4,-1 7,-2 8,-4 1,-2 7,-11 10,-14 3,-4 6,-8 11,-6 3,-1 10,-5 13,-7 3,-1 3,-1 5,1 2,2 6,8 10,8 4,0 11,-1 12,-2 1,-1 3,-3 4,-6 0,-2 2,-3 7,-4 4,-1 9,-1 14,-4 4,-4 8,-16 11,-18 3,-1 8,-3 9,-2 1,0 12,-2 15,-3 3,0 9,0 15,-1 5,-1 9,-2 9,-2 1,-1 1,-7 6,-7 0,8 1,187 1,187 0,0 5,0 7,0 3,0 5,0 6,-2 1,-2 4,-6 5,-6 1,0 3,3 4,2 1,-1 4,-4 6,-4 2,-1 6,0 10,2 5,2 7,4 9,4 2,0 7,1 9,0 3,-1 7,-4 10,-5 3,-1 4,-1 5,-3 1,-2 4,-4 5,-3 2,0 3,1 6,0 3,-2 3,-1 5,1 2,2 4,4 6,0 1,-3 1,-5 2,-6z"/>
            <path class="fil2" d="M4789 3915c0,0 0,0 0,0 1,0 1,1 2,1 2,1 14,8 17,9 3,2 2,3 1,5 0,0 0,1 -1,1 0,0 0,0 0,0 -8,16 -20,54 -20,73 0,3 -2,3 -3,3 -2,0 -20,1 -21,1 -1,0 -3,-1 -3,-3 -2,-35 15,-73 22,-86 0,0 0,0 0,0l0 0c1,-1 1,-2 2,-3 1,-2 3,-2 5,-2z"/>
            <path class="fil2" d="M5062 3798c0,0 0,0 1,1 0,0 1,1 2,1l0 0c-1,0 -2,-1 -2,-1 0,0 0,0 -1,-1l0 0zm4 2c1,0 2,1 3,1l0 0c-1,0 -2,-1 -3,-1l0 0zm4 1c1,0 2,0 3,1l0 0c-1,0 -2,0 -3,-1l0 0zm4 1c1,0 2,0 3,1 0,0 0,0 0,0l0 0c0,0 0,0 0,0 -1,0 -2,0 -3,-1l0 0zm4 1c1,0 2,1 3,1l0 0c-1,0 -2,0 -3,-1l0 0zm4 1c1,0 3,0 3,0l0 0c-1,0 -2,0 -3,0l0 0zm3 1l0 3 0 0 0 -3 0 0zm0 4l0 3 0 1 0 0 0 -1 0 -3 0 0zm0 4l0 3 0 0 0 -3 0 0zm0 4l0 3 0 0 0 -3 0 0zm0 4l0 3 0 0 0 -3 0 0zm0 4l0 3 0 0 0 -3 0 0zm0 4l0 3 0 0 0 -3 0 0zm0 4l0 3 0 0 0 -3 0 0zm0 4l0 3 0 0 0 -3 0 0zm0 4l0 3 0 0 0 -3 0 0zm0 4l0 3 0 0 0 -3 0 0zm0 4l0 3 0 0 0 -3 0 0zm0 4l0 3 0 0 0 -3 0 0zm0 4l0 3 0 0 0 -3 0 0zm0 4l0 3 0 0 0 -3 0 0zm0 4l0 3 0 0 0 -3 0 0zm0 4l0 3 0 0 0 -3 0 0zm0 4l0 3 0 0 0 -3 0 0zm0 4l0 3 0 0 0 -3 0 0zm0 4l0 3 0 0 0 -3 0 0zm0 4l0 3 0 0 0 -3 0 0zm0 4l0 3 0 0 0 -3 0 0zm0 4l0 3 0 0 0 -3 0 0zm0 4l0 3 0 0 0 -3 0 0zm0 4l0 3 0 0 0 -3 0 0zm0 4l0 3 0 0 0 -3 0 0zm0 4l0 3 0 0 0 -3 0 0zm0 4l0 3 0 0 0 -3 0 0zm0 4l0 3 0 0 0 -3 0 0zm0 4l0 3 0 0 0 -3 0 0zm0 4l0 3 0 0 0 -3 0 0zm0 4l0 3 0 0 0 -3 0 0zm0 4l0 3 0 0 0 -3 0 0zm0 4l0 3 0 0 0 -3 0 0zm0 4l0 3 0 0 0 -3 0 0zm0 4l0 3 0 0 0 -3 0 0zm0 4l0 3 0 0 0 -3 0 0zm0 4l0 3 0 0 0 -3 0 0zm0 4l0 3 0 0 0 -3 0 0zm0 4l0 3 0 0 0 -3 0 0zm0 4l0 3 0 0 0 -3 0 0zm0 4l0 3 0 0 0 -3 0 0zm0 4l0 3 0 0 0 -3 0 0zm0 4l0 3 0 0 0 -3 0 0zm0 4l0 3 0 0 0 -3 0 0zm0 4l0 3 0 0 0 -3 0 0zm0 4l0 3 0 0 0 -3 0 0zm0 4l0 3 0 0 0 -3 0 0zm0 4l0 3 0 0 0 -3 0 0zm0 4l0 3 0 0 0 -3 0 0zm0 4l0 3 0 0 0 -3 0 0zm0 4l0 3 0 0 0 -3 0 0zm0 4l0 3 0 0 0 -3 0 0zm0 4l0 3 0 0 0 -3 0 0zm0 4l0 3 0 0 0 -3 0 0zm0 4l0 3 0 0 0 -3 0 0zm0 4l0 3 0 0 0 -3 0 0zm0 4l0 3 0 0 0 -3 0 0zm0 4l0 3 0 0 0 -3 0 0zm0 4l0 3 0 0 0 -3 0 0zm0 4l0 3 0 0 0 -3 0 0zm0 4l0 3 0 0 0 -3 0 0zm0 4l0 3 0 0 0 -3 0 0zm0 4l0 3 0 0 0 -3 0 0zm0 4l0 3 0 0 0 -3 0 0zm0 4l0 3 0 0 0 -3 0 0zm0 4l0 3 0 0 0 -3 0 0zm0 4l0 3 0 0 0 -3 0 0zm0 4l0 3 0 0 0 -3 0 0zm0 4l0 3 0 0 0 -3 0 0zm0 4l0 3 0 0 0 -3 0 0zm0 4l0 3 0 0 0 -3 0 0zm0 4l0 3 0 0 0 -3 0 0zm0 4l0 3 0 0 0 -3 0 0zm0 4l0 3 0 0 0 -3 0 0zm0 4l0 3 0 0 0 -3 0 0zm0 4l0 3 0 0 0 -3 0 0zm0 4l0 2 0 0 0 1 0 0 0 -1 0 0 0 -2 0 0zm0 4l0 3 0 0 0 -3 0 0zm0 4l0 3 0 0 0 -3 0 0zm0 4l0 3 0 0 0 -3 0 0zm0 4l0 3 0 0 0 -3 0 0zm0 4l0 3 0 0 0 -3 0 0zm0 4l0 3 0 0 0 -3 0 0zm0 4l0 3 0 0 0 -3 0 0zm0 4l0 3 0 0 0 -3 0 0zm0 4l0 3 0 0 0 -3 0 0zm0 4l0 3 0 0 0 -3 0 0zm0 4l0 3 0 0 0 -3 0 0zm0 4l0 3 0 0 0 -3 0 0zm0 4l0 3 0 0 0 -3 0 0zm0 4l0 3 0 0 0 -3 0 0zm0 4l0 3 0 0 0 -3 0 0zm0 4l0 3 0 0 0 -3 0 0zm0 4l0 3 0 0 0 -3 0 0zm0 4l0 3 0 0 0 -3 0 0zm0 4l0 3 0 0 0 0 1 0 0 -3 0 0zm-1 3l-3 2 0 0 3 -2 0 0zm-4 2l-1 1 0 2 0 0 0 -2 1 -1 0 0zm-1 4l0 1 -2 1 0 0 2 -1 0 -1 0 0zm-3 3l-3 2 0 0 3 -2 0 0zm-4 2l-3 2 0 0 3 -2 0 0zm-4 2l-3 2 0 0 3 -2 0 0zm-4 2c0,0 -1,1 -2,2l0 0c1,-1 2,-2 2,-2l0 0zm-3 3c-1,1 -1,2 -2,3l0 0c1,-1 1,-2 2,-3l0 0zm-3 3c-1,1 -1,2 -2,3l0 0c1,-1 1,-2 2,-3l0 0zm-2 4c0,1 -1,1 -1,2l0 0 0 0c0,0 -1,0 -1,0l0 0c0,0 1,0 1,0l0 0 0 0c0,-1 1,-1 1,-2l0 0zm-3 2c-1,0 -2,1 -3,1l0 0c1,0 2,-1 3,-1l0 0zm-4 1c-1,0 -2,0 -3,1l0 0c1,0 2,0 3,-1l0 0zm-4 1c-1,0 -1,0 -2,0 0,0 0,0 0,0 0,0 0,0 0,0l0 0 0 0 0 -1 0 0 0 1 0 0c0,0 1,0 2,0l0 0zm-2 -2l-1 -3 0 0 1 3 0 0zm-1 -4l0 -2 0 0c0,0 0,0 -1,0l0 0c0,0 1,0 1,0 0,0 0,0 0,0l0 0 0 0 0 0 0 0 0 2 0 0zm-3 -3c0,0 -1,0 -1,0 -1,0 -2,0 -2,0l0 0c1,0 2,0 2,0 0,0 1,0 1,0l0 0zm-4 0c-1,0 -2,1 -3,1l0 0c1,-1 2,-1 3,-1l0 0zm-4 2c-1,1 -2,1 -3,2l0 0c1,-1 2,-1 2,-2l0 0zm-3 3c-1,1 -1,2 -2,3l0 0c1,-1 1,-2 2,-2l0 0zm-3 3c0,0 -1,1 -1,1 0,0 -1,1 -1,1l0 0c0,0 1,-1 1,-1 0,0 1,-1 1,-1l0 0zm-2 4c-1,1 -1,2 -2,3l0 0c1,-1 1,-2 2,-3l0 0 0 0zm-2 4c-1,1 -1,2 -2,3l0 0c1,-1 1,-2 2,-3l0 0zm-2 4c-1,1 -1,2 -2,3l0 0c1,-1 1,-2 2,-3l0 0zm-2 4c-1,1 -1,2 -2,3l0 0c1,-1 1,-2 2,-3l0 0zm-2 4c-1,1 -1,2 -2,3l0 0c0,-1 1,-2 2,-3l0 0zm-2 4c-1,1 -1,2 -2,3l0 0c0,0 1,-1 2,-3l0 0zm-2 3l-3 0 0 0 3 0 0 0zm-4 0l-3 0 0 0 3 0 0 0zm-4 0l-3 0 0 0 3 0 0 0zm-4 0l-3 0 0 0 3 0 0 0zm-4 0l-3 0 0 0 3 0 0 0zm-4 0l-3 0 0 0 3 0 0 0zm-4 0l-3 0 0 0 3 0 0 0zm-4 0l-3 0 0 0 3 0 0 0zm-4 0l-3 0 0 0 3 0 0 0zm-4 0l-3 0 0 0 3 0 0 0zm-4 0l-3 0 0 0 3 0 0 0zm-4 0l-3 0 0 0 3 0 0 0zm-4 0l-3 0 0 0 3 0 0 0zm-4 0l-3 0 0 0 3 0 0 0zm-4 0l-3 0 0 0 3 0 0 0zm-4 0l-3 0 0 0 3 0 0 0zm-4 0l-3 0 0 0 3 0 0 0zm-4 0l-3 0 0 0 3 0 0 0zm-4 0l-3 0 0 0 3 0 0 0zm-4 0l-3 0 0 0 3 0 0 0zm-4 0l-3 0 0 0 3 0 0 0zm-4 0l-3 0 0 0 3 0 0 0zm-4 0l-3 0 0 0 3 0 0 0zm-4 0l-3 0 0 0 3 0 0 0zm-4 0l-3 0 0 0 3 0 0 0zm-4 0l-3 0 0 0 3 0 0 0zm-4 0l-3 0 0 0 3 0 0 0zm-4 0l-3 0 0 0 3 0 0 0zm-4 0l-3 0 0 0 3 0 0 0zm-4 0l-3 0 0 0 3 0 0 0zm-4 0l-3 0 0 0 3 0 0 0zm-4 0l-3 0 0 0 3 0 0 0zm-4 0l-3 0 0 0 3 0 0 0zm-4 0l-3 0 0 0 3 0 0 0zm-4 0l-3 0 0 0 3 0 0 0zm-4 0l-3 0 0 0 3 0 0 0zm-4 0l-3 0 0 0 3 0 0 0zm-4 0l-3 0 0 0 3 0 0 0zm-4 0l-3 0 0 0 3 0 0 0zm-4 0l-3 0 0 0 3 0 0 0zm-4 0l-3 0 0 0 3 0 0 0zm-4 0l-3 0 0 0 3 0 0 0zm-4 0l-3 0 0 0 3 0 0 0zm-4 0l-3 0 0 0 3 0 0 0zm-4 0l-3 0 0 0 3 0 0 0zm-4 0l-3 0 0 0 3 0 0 0zm-4 0l-3 0 0 0 3 0 0 0zm-4 0l-3 0 0 0 3 0 0 0zm-4 0l-3 0 0 0 3 0 0 0zm-4 0l-3 0 0 0 3 0 0 0zm-4 0l-3 0 0 0 3 0 0 0zm-4 0l0 0 0 0c0,0 -1,1 -1,3l0 0c0,-1 1,-1 1,-2 0,-1 0,-1 0,-1l0 0 0 0 0 0 0 0zm-2 4c0,1 0,1 0,1 0,0 0,1 0,1 0,0 0,0 0,0l0 0 0 0 0 0 0 0 0 0 0 0 0 0 0 0 0 0 0 0 0 0 0 0c0,0 0,0 0,0 0,0 0,0 0,0l0 0c0,0 0,0 0,0 0,0 0,0 0,0l0 0 0 0 0 0c0,0 0,0 0,0 0,0 0,-1 0,-1 0,0 0,-1 0,-1l0 0zm-2 4c-1,1 -1,1 -3,2l0 0c1,-1 2,-1 3,-2l0 0zm-3 3c-1,1 -2,1 -3,2l0 0c1,-1 2,-1 3,-2l0 0zm-3 2c-1,1 -2,1 -3,2l0 0c1,-1 2,-1 3,-2l0 0zm-3 2c-1,1 -2,1 -3,2l0 0c1,0 2,-1 3,-2l0 0zm-4 2c0,0 -1,0 -1,0 -1,0 -1,0 -2,0l0 0c1,0 2,0 2,0 0,0 1,0 1,0l0 0zm-4 1c-1,0 -2,0 -3,0l0 0c1,0 2,0 3,0l0 0zm-4 1c0,0 -1,0 -1,0 0,0 0,0 -1,0 0,0 0,0 0,0l0 0c0,0 0,0 -1,-1l0 0c0,0 1,1 1,1l0 0c0,0 0,0 0,0 0,0 0,0 1,0 0,0 1,0 1,0l0 0zm-4 -2c-1,-1 -1,-1 -2,-2l0 0c1,1 2,2 2,2l0 0zm-3 -3c-1,-1 -2,-1 -3,-2l0 0c1,1 2,1 3,2l0 0zm-3 -3c-1,-1 -2,-1 -3,-2l0 0c1,1 2,1 3,2l0 0zm-3 -2c-1,-1 -2,-1 -3,-2l0 0c1,0 2,1 3,2l0 0zm-4 -2c-1,0 -1,0 -2,-1 -1,0 -1,0 -1,0l0 0c0,0 1,0 1,0 1,0 1,0 2,1l0 0zm-4 -1c-1,0 -2,0 -3,0 0,0 0,0 -1,0l0 0c0,0 0,0 1,0 1,0 2,0 3,0l0 0zm-4 0c-1,0 -2,0 -3,0l0 0c1,0 2,0 3,0l0 0zm-4 0c-1,0 -2,0 -3,-1l0 0 0 0 0 0c1,1 2,1 3,1l0 0zm-4 -2c-1,0 -2,-1 -3,-1l0 0c1,0 2,1 3,1l0 0zm-4 -1c-1,0 -2,-1 -3,-1l0 0c1,0 2,0 3,1l0 0zm-4 -1c-1,0 -2,0 -3,-1l0 0c1,0 2,0 3,1l0 0zm-4 -1c-1,0 -2,0 -3,0l0 0c1,0 2,0 3,0l0 0zm-4 -1c-1,0 -2,0 -3,0l0 0c1,0 2,0 3,0l0 0zm-4 0c0,0 0,0 0,0l0 0 0 0 0 -3 0 0 0 3 0 0c0,0 0,0 0,0l0 0zm0 -4l0 -3 0 0 0 3 0 0zm0 -4l0 -3 0 0 0 3 0 0zm0 -4l0 -3 0 0 0 3 0 0zm0 -4l0 -3 0 0 0 3 0 0zm0 -4l0 -3 0 0 0 3 0 0zm0 -4l0 -3 0 0 0 3 0 0zm0 -4l0 -3 0 0 0 3 0 0zm0 -4l0 -3 0 0 0 3 0 0zm0 -4l0 -3 0 0 0 3 0 0zm0 -4l0 -3 0 0 0 3 0 0zm0 -4l0 -3 0 0 0 3 0 0zm0 -4l0 -3 0 0 0 3 0 0zm0 -4l0 -3 0 0 0 3 0 0zm0 -4l0 -3 0 0 0 3 0 0zm0 -4l0 -3 0 0 0 3 0 0zm0 -4l0 -3 0 0 0 3 0 0zm0 -4l0 -3 0 0 0 3 0 0zm0 -4l0 -3 0 0 0 3 0 0zm0 -4l0 -3 0 0 0 3 0 0zm0 -4l0 -3 0 0 0 3 0 0zm0 -4l0 -3 0 0 0 3 0 0zm0 -4l0 -3 0 0 0 3 0 0zm0 -4l0 -3 0 0 0 3 0 0zm0 -4l0 -3 0 0 0 3 0 0zm0 -4l0 -3 0 0 0 3 0 0zm0 -4l0 -3 0 0 0 3 0 0zm0 -4l0 -3 0 0 0 3 0 0zm0 -4l0 -3 0 0 0 3 0 0zm0 -4l0 -3 0 0 0 3 0 0zm0 -4l0 -3 0 0 0 3 0 0zm0 -4l0 -3 0 0 0 3 0 0zm0 -4l0 -3 0 0 0 3 0 0zm0 -4l0 -3 0 0 0 3 0 0zm0 -4l0 -3 0 0 0 3 0 0zm0 -4l0 -3 0 0 0 3 0 0zm0 -4l0 -3 0 0 0 3 0 0zm0 -4l0 -3 0 0 0 3 0 0zm0 -4l0 -3 0 0 0 3 0 0zm0 -4l0 -3 0 0 0 3 0 0zm0 -4l0 -3 0 0 0 3 0 0zm0 -4l0 -3 0 0 0 3 0 0zm0 -4l0 -3 0 0 0 3 0 0zm0 -4l0 -3 0 0 0 3 0 0zm0 -4l0 -3 0 0 0 3 0 0zm0 -4l0 -3 0 0 0 3 0 0zm0 -4l0 -3 0 0 0 3 0 0zm0 -4l0 -3 0 0 0 3 0 0zm0 -4l0 -3 0 0 0 3 0 0zm0 -4l0 -3 0 0 0 3 0 0zm0 -4l0 -3 0 0 0 3 0 0zm0 -4l0 -3 0 0 0 3 0 0zm0 -4l0 -3 0 0 0 3 0 0zm0 -4l0 -3 0 0 0 3 0 0zm0 -4l0 -3 0 0 0 3 0 0zm0 -4l0 -3 0 0 0 3 0 0zm0 -4l0 -3 0 0 0 3 0 0zm0 -4l0 -3 0 0 0 3 0 0zm0 -4l0 -3 0 0 0 3 0 0zm0 -4l0 -3 0 0 0 3 0 0zm0 -4l0 -3 0 0 0 3 0 0zm0 -4l0 -3 0 0 0 3 0 0zm0 -4l0 -3 0 0 0 3 0 0zm0 -4l0 -3 0 0 0 3 0 0zm0 -4l0 -3 0 0 0 3 0 0zm0 -4l0 -3 0 0 0 3 0 0zm0 -4l0 -3 0 0 0 3 0 0zm0 -4l0 -3 0 0 0 3 0 0zm0 -4l0 -3 0 0 0 3 0 0zm0 -4l0 -3 0 0 0 3 0 0zm0 -4l0 -3 0 0 0 3 0 0zm0 -4l0 -3 0 0 0 3 0 0zm0 -4l0 -3 0 0 0 3 0 0zm0 -4l0 -3 0 0 0 3 0 0zm0 -4l0 -3 0 0 0 3 0 0zm0 -4l0 -3 0 0 0 3 0 0zm0 -4l0 -3 0 0 0 3 0 0zm0 -4l0 -3 0 0 0 3 0 0zm0 -4l0 -3 0 0 0 3 0 0zm0 -4l0 -3 0 0 0 3 0 0zm0 -4l0 -3 0 0 0 3 0 0zm0 -4l0 -3 0 0 0 3 0 0zm0 -4l0 -3 0 0 0 3 0 0zm0 -4l0 -3 0 0 0 3 0 0zm0 -4l0 -3 0 0 0 3 0 0zm0 -4l0 -3 0 0 0 3 0 0zm0 -4l0 -3 0 0 0 3 0 0zm0 -4l0 -3 0 0 0 3 0 0zm0 -4l0 -3 0 0 0 3 0 0zm0 -4l0 -3 0 0 0 3 0 0zm0 -4l0 -3 0 0 0 3 0 0zm0 -4l0 -3 0 0 0 3 0 0zm0 -4l0 -3 0 0 0 3 0 0zm0 -4l0 -3 0 0 0 3 0 0zm0 -4l0 -3 0 0 0 3 0 0zm0 -4l0 -3 0 0 0 3 0 0zm0 -4l0 -3 0 0 0 3 0 0zm0 -4l0 -3 0 0 0 3 0 0zm0 -4l0 -3 0 0 0 3 0 0zm0 -4l0 -3 0 0 0 3 0 0zm0 -4l0 -3 0 0 0 3 0 0zm0 -4l0 -3 0 0 0 3 0 0zm0 -4l0 -3 0 0 0 3 0 0zm0 -4l0 -3 0 0 0 3 0 0zm0 -4l0 -3 0 0 0 3 0 0zm0 -4l0 -3 0 0 0 3 0 0zm0 -4l0 -3 0 0 0 3 0 0zm0 -4l0 -3 0 0 0 3 0 0zm0 -4l0 -3 0 0 0 3 0 0zm0 -4l0 -3 0 0 0 3 0 0zm0 -4l0 -3 0 0 0 3 0 0zm0 -4l0 -3 0 0 0 3 0 0zm0 -4l0 -3 0 0 0 3 0 0zm1 -4l3 -1 0 0 -3 1 0 0zm4 -2l3 -1 0 0 0 0 0 0 -3 1 0 0 0 0zm3 -2l0 -1 1 -2 0 0 -1 2 0 1 0 0zm1 -4l1 -3 0 0 -1 3 0 0zm1 -4l1 -3 0 0 -1 3 0 0zm1 -4l0 -1 1 -2 0 0 -1 2 0 1 0 0 0 0zm1 -4l1 -2 0 -1 0 0 0 1 -1 2 0 0zm0 -4l-2 -3 0 0 2 3 0 0zm-2 -3l-1 -2 0 0 0 0c0,0 0,0 0,0 0,0 0,-1 0,-1l0 0c0,1 0,1 0,1l0 0 1 2 0 0zm-2 -4c0,0 0,-1 0,-1 0,-1 0,-1 1,-2l0 0c0,1 -1,1 -1,2 0,0 0,1 0,1l0 0zm1 -4c0,0 1,0 1,0 1,0 1,0 2,0l0 0c-1,0 -1,0 -2,0 0,0 -1,0 -1,0l0 0zm4 -1c1,0 2,0 3,0l0 0c-1,0 -2,0 -3,0l0 0zm4 0c1,0 2,0 3,-1l0 0c-1,0 -2,0 -3,1l0 0zm4 -1c0,0 0,0 0,0 1,-1 2,-1 3,-2l0 0c-1,1 -2,1 -3,2 0,0 0,0 0,0l0 0zm4 -2c1,-1 2,-1 2,-1 0,0 0,0 0,0l0 0c0,0 0,0 0,0 -1,0 -1,1 -2,1l0 0zm3 -2c1,-1 1,-2 2,-3l0 0c-1,1 -1,2 -2,3l0 0zm2 -4c0,-1 1,-1 1,-2 0,0 0,0 1,-1l0 0c0,0 0,0 -1,1 0,1 -1,1 -1,2l0 0zm3 -3c0,0 1,0 1,0 0,0 1,0 2,0l0 0c-1,0 -1,0 -2,0 -1,0 -1,0 -2,0l0 0zm4 0c1,0 1,0 2,0 0,0 1,0 1,0l0 0c0,0 -1,0 -1,0 -1,0 -2,0 -2,0l0 0zm4 0c1,0 2,0 3,0l0 0c-1,0 -2,0 -3,0l0 0zm4 0c1,0 2,0 3,0l0 0c-1,0 -2,0 -3,0l0 0zm4 0c1,0 1,0 1,0 0,0 0,0 0,0 1,0 1,0 2,0l0 0c-1,0 -1,0 -2,0 0,0 0,0 0,0 0,0 -1,0 -1,0l0 0zm4 1c0,0 1,0 1,1 0,0 0,1 0,1 0,0 0,0 0,1l0 0c0,0 1,-1 1,-1 0,0 0,-1 0,-1 0,0 -1,-1 -1,-1l0 0zm0 3c-1,1 -1,1 -2,2l0 0c1,-1 2,-2 2,-2l0 0zm-3 3c-1,1 -1,2 -1,3l0 0c0,-1 1,-2 1,-3l0 0zm-2 4c0,1 0,1 0,2 0,1 0,1 0,2l0 0c0,-1 0,-1 0,-2 0,-1 0,-1 0,-2l0 0zm0 4c0,1 1,2 2,2 0,0 0,0 0,0l0 0c0,0 0,0 0,0 -1,-1 -1,-1 -2,-2l0 0zm3 3c1,1 2,1 2,2l0 0c-1,-1 -2,-1 -2,-2l0 0zm3 3c1,1 2,1 2,2l0 0c-1,-1 -2,-1 -2,-2l0 0zm3 3c1,1 2,1 2,2l0 0c-1,-1 -2,-1 -2,-2l0 0zm3 3c1,1 2,2 3,2l0 0c-1,-1 -2,-1 -2,-2l0 0zm3 3c0,0 1,1 1,1 0,0 1,0 2,0l0 0c-1,0 -1,0 -2,0 0,0 -1,0 -1,-1l0 0zm4 1c1,0 2,0 3,-1l0 0c-1,0 -2,0 -3,1l0 0zm4 -1c1,0 2,-1 3,-1l0 0c-1,1 -2,1 -3,1l0 0zm4 -2c0,0 0,0 0,0 0,-1 1,-2 1,-2l0 0c0,1 -1,2 -1,2 0,0 0,0 0,0l0 0zm2 -4c1,-1 1,-2 2,-2l0 0c-1,1 -1,2 -2,3l0 0zm3 -3c1,0 1,-1 2,-1 0,0 1,0 1,0l0 0c0,0 0,0 -1,0 -1,0 -2,0 -2,1l0 0zm4 -1c1,0 3,0 3,-1l0 0c-1,0 -2,1 -3,1l0 0zm4 -2c0,0 0,-1 0,-1 0,0 0,-1 0,-2l0 0c0,1 0,2 0,2 0,0 0,1 0,1l0 0zm0 -4c0,-1 0,-2 0,-3l0 0c0,1 0,2 0,3l0 0zm0 -4c0,-1 0,-2 0,-3l0 0c0,1 0,2 0,3l0 0zm0 -4c0,-1 0,-1 1,-1 0,0 1,-1 1,-1l0 0c-1,0 -1,1 -1,1 0,0 -1,1 -1,1l0 0zm3 -2c0,0 1,0 1,0 1,0 1,-1 2,-1l0 0c0,0 -1,1 -2,1 0,0 -1,0 -1,0l0 0zm4 -2c0,0 0,-1 1,-1 0,0 0,0 0,0 0,0 0,-1 0,-1 0,0 0,0 0,-1l0 0c0,0 0,1 0,1 0,0 0,1 0,1 0,0 0,0 0,0 0,0 0,0 0,0 0,0 0,0 -1,1l0 0zm1 -4c0,-1 0,-2 0,-3l0 0c0,1 0,2 0,3l0 0zm0 -4c0,0 0,0 0,0l0 0c0,0 0,-1 0,-1 0,0 -1,-1 -1,-1l0 0c0,0 1,1 1,1 0,0 0,1 0,1l0 0 0 0c0,0 0,0 0,1l0 0zm-2 -4c-1,-1 -2,-1 -2,-2l0 0c1,1 2,2 2,2l0 0zm-3 -3c-1,-1 -2,-2 -2,-2l0 0c1,1 2,1 2,2l0 0zm-3 -3c0,0 0,0 -1,-1 0,0 -1,-1 -1,-2l0 0c0,1 1,2 1,2 0,0 0,0 1,1l0 0zm-2 -4c0,0 0,0 0,-1 0,-1 0,-2 1,-2l0 0c-1,1 -1,2 -1,3 0,0 0,0 0,1l0 0zm2 -3c0,0 1,0 1,0 0,0 0,0 0,0 1,0 1,0 2,0l0 0c-1,0 -1,0 -2,0 0,0 0,0 0,0 0,0 -1,0 -1,0l0 0zm4 0c1,0 1,0 2,0 0,0 1,0 1,0l0 0c0,0 -1,0 -1,0 -1,0 -1,0 -2,0l0 0zm4 0c1,0 2,0 3,0l0 0c-1,0 -2,0 -3,0l0 0zm4 -1c1,0 2,-1 3,-1l0 0c-1,1 -2,1 -3,1l0 0zm4 -2c0,0 1,0 1,-1 0,0 0,0 0,-1 0,0 0,0 0,0l0 0c0,0 0,0 -1,-1l0 0c0,0 1,1 1,1l0 0c0,0 0,0 0,0 0,0 0,0 0,1 0,0 0,0 -1,1l0 0zm-1 -3c-1,-1 -2,-1 -3,-2l0 0c1,1 2,1 3,2l0 0zm-3 -2c-1,0 -1,-1 -2,-1 0,0 0,0 0,0 0,0 0,0 0,0 0,0 0,0 0,0l0 0c0,0 0,0 0,0 0,0 0,0 0,0 0,0 1,1 2,2l0 0zm-2 -3c0,0 0,-1 1,-2 0,0 0,0 0,-1l0 0c0,0 0,0 0,1 -1,1 -1,2 -1,2l0 0zm2 -4c0,-1 0,-1 1,-1 0,0 1,-1 1,-1l0 0c-1,0 -1,1 -1,1 0,0 -1,1 -1,1l0 0zm3 -3c0,0 1,0 1,0 1,0 1,0 2,-1l0 0c-1,0 -1,0 -2,1 0,0 -1,0 -1,0l0 0zm4 -1c1,0 2,-1 3,-1l0 0c-1,0 -2,1 -3,1l0 0zm4 -2c1,0 1,-1 1,-1 0,0 0,-1 1,-1l0 0c0,1 -1,1 -1,1 0,0 -1,1 -1,1l0 0zm3 -3c1,-1 1,-2 2,-3l0 0c-1,1 -1,2 -2,3l0 0zm2 -4c1,-1 1,-2 2,-3l0 0c-1,1 -1,2 -2,3l0 0zm2 -3c1,-1 1,-2 2,-3l0 0c-1,1 -1,2 -2,3l0 0zm2 -3c1,-1 1,-1 2,-2 0,0 0,0 0,-1l0 0c0,0 0,0 0,1 -1,1 -1,1 -2,2l0 0zm3 -3c1,-1 1,-2 2,-2l0 0c-1,1 -1,2 -2,2l0 0zm3 -3c1,-1 2,-1 3,-2l0 0c-1,0 -2,1 -3,2l0 0zm4 -2c0,0 1,0 1,0 1,0 1,0 2,0l0 0 0 0c0,0 0,0 0,0l0 0c0,0 0,0 0,0l0 0 0 0c-1,0 -1,0 -2,0 0,0 -1,0 -1,0l0 0zm4 0c1,0 2,-1 3,-1l0 0c-1,1 -2,1 -3,1l0 0zm4 -2c1,0 2,-1 3,-1l0 0c-1,0 -2,1 -3,1l0 0zm4 -2c1,-1 2,-1 3,-2l0 0c-1,0 -2,1 -3,2l0 0zm4 -2c0,0 1,0 1,0 1,-1 2,-1 2,-1 0,0 0,0 0,0l0 0c0,0 0,0 0,0 -1,0 -1,0 -2,1 0,0 0,0 -1,0l0 0zm4 -1c1,0 1,1 2,2 0,0 0,0 1,0l0 0c0,0 0,0 -1,0 -1,-1 -1,-1 -2,-2l0 0zm3 3c1,1 1,2 2,2l0 0c-1,-1 -1,-2 -2,-2l0 0zm3 3c1,1 2,2 2,2l0 0c-1,-1 -2,-1 -2,-2l0 0zm3 3c1,1 2,1 3,1 0,0 0,0 0,0 0,0 0,0 0,0l0 0c0,0 0,0 0,0 0,0 0,0 0,0 -1,0 -2,0 -3,-1l0 0 0 0zm4 1c1,0 2,0 3,0l0 0c-1,0 -2,0 -3,0l0 0zm4 0c1,0 2,0 3,-1l0 0c-1,0 -2,0 -3,1l0 0zm4 -1c1,0 1,0 2,0 1,0 1,0 1,0 0,0 0,0 0,0l0 0c0,0 0,0 0,0 0,0 -1,0 -1,0 -1,0 -1,0 -2,0l0 0zm4 -2c1,-1 1,-2 2,-3l0 0c-1,1 -1,2 -2,3l0 0zm2 -4c0,-1 0,-1 0,-2 0,-1 0,-1 1,-1l0 0c0,0 -1,1 -1,2 0,0 0,1 0,2l0 0zm2 -4c1,0 2,-1 3,-1l0 0c-1,0 -2,1 -3,1l0 0zm4 -1c0,0 1,0 1,0 1,0 1,0 2,0l0 0c-1,0 -1,0 -2,0 0,0 -1,0 -1,0l0 0zm4 -1c1,0 2,0 3,-1l0 0c-1,0 -2,0 -3,1l0 0zm4 -1c1,0 2,-1 3,-1l0 0c-1,0 -2,1 -3,1l0 0zm4 -2c1,0 2,-1 3,-2l0 0c-1,1 -2,1 -3,2l0 0zm3 -3c1,-1 1,-2 2,-3l0 0c-1,1 -1,2 -2,3l0 0zm2 -3c1,-1 1,-2 2,-3l0 0c-1,1 -1,2 -2,3l0 0zm2 -4c0,-1 1,-2 1,-3l0 0c0,1 -1,2 -1,3l0 0zm2 -4c1,-1 1,-2 2,-3l0 0c0,1 -1,2 -2,3l0 0zm2 -4c1,-1 1,-2 2,-2l0 0 0 0 0 0c-1,0 -1,1 -2,2l0 0zm3 -3c1,0 2,-1 3,-1l0 0c-1,0 -2,1 -3,1l0 0zm4 -1c1,0 2,-1 3,-1l0 0c-1,0 -2,0 -3,1l0 0zm4 -1l0 0c0,0 0,0 0,0 1,0 2,0 3,0l0 0c-1,0 -2,0 -3,0 0,0 0,0 0,0l0 0 0 0zm4 0c1,0 2,0 3,-1l0 0c-1,0 -2,0 -3,1l0 0zm4 -1c1,0 2,0 3,-1l0 0c-1,0 -2,0 -3,1l0 0zm4 -1c1,0 2,0 3,-1 0,0 0,0 0,0l0 0c0,0 0,0 0,0 -1,0 -2,0 -3,1l0 0zm4 -1c1,0 2,0 3,0l0 0c-1,0 -2,0 -3,0l0 0zm4 0c1,0 2,0 3,0l0 0c-1,0 -2,0 -3,0l0 0zm4 0c1,0 2,0 3,0l0 0c-1,0 -2,0 -3,0l0 0zm4 0c0,0 1,0 1,0 1,0 2,0 2,0l0 0c-1,0 -2,0 -2,0 0,0 -1,0 -1,0l0 0zm4 -1c1,0 2,0 3,-1l0 0c-1,0 -2,0 -3,1l0 0zm4 -1c0,0 1,0 1,0 0,0 0,0 1,0 0,0 0,0 0,0 0,0 0,0 0,-1l0 0c0,0 0,1 0,1 0,0 0,0 0,0 0,0 0,0 -1,0 0,0 -1,0 -1,0l0 0zm3 -3c0,-1 1,-2 1,-3l0 0c-1,1 -1,2 -1,3l0 0zm2 -4c1,-1 2,-1 3,-1l0 0 0 0 0 0 0 0 0 0 0 0c-1,0 -2,1 -3,1l0 0zm3 0c0,1 0,2 0,3l0 0c0,-1 0,-3 0,-3l0 0zm0 4c0,1 0,2 0,3l0 0c0,-1 0,-2 0,-3l0 0zm0 4c0,1 0,2 0,3l0 0c0,-1 0,-2 0,-3l0 0zm0 4c0,1 0,2 0,3l0 0c0,-1 0,-2 0,-3l0 0zm0 4c0,1 0,2 0,3l0 0c0,-1 0,-2 0,-3l0 0zm0 4c0,1 0,2 0,3l0 0c0,-1 0,-2 0,-3l0 0zm0 4c0,1 0,2 0,3l0 0c0,-1 0,-2 0,-3l0 0zm0 4c0,1 0,2 0,3l0 0c0,-1 0,-2 0,-3l0 0zm0 4c0,1 0,2 0,3l0 0c0,-1 0,-2 0,-3l0 0zm0 4c0,1 0,2 0,3l0 0c0,-1 0,-2 0,-3l0 0zm0 4c0,1 0,2 0,3l0 0c0,-1 0,-2 0,-3l0 0zm0 4c0,1 0,2 0,3l0 0c0,-1 0,-2 0,-3l0 0zm0 4c0,1 0,2 0,3l0 0c0,-1 0,-2 0,-3l0 0zm0 4c0,1 0,2 0,3l0 0c0,-1 0,-2 0,-3l0 0zm0 4c0,1 0,2 0,3l0 0c0,-1 0,-2 0,-3l0 0zm0 4c0,1 0,2 0,3l0 0c0,-1 0,-2 0,-3l0 0zm0 4c0,1 0,2 0,3l0 0c0,-1 0,-2 0,-3l0 0zm0 4c0,1 0,2 0,3l0 0c0,-1 0,-2 0,-3l0 0zm0 4c0,1 0,2 0,3l0 0c0,-1 0,-2 0,-3l0 0zm0 4c0,1 0,2 0,3l0 0c0,-1 0,-2 0,-3l0 0zm0 4c0,1 0,2 0,3l0 0c0,-1 0,-2 0,-3l0 0zm0 4c0,1 0,2 0,3l0 0c0,-1 0,-2 0,-3l0 0zm0 4c0,1 0,2 0,3l0 0c0,-1 0,-2 0,-3l0 0zm0 4c0,1 0,2 0,3l0 0c0,-1 0,-2 0,-3l0 0zm0 4c0,1 0,2 0,3l0 0c0,-1 0,-2 0,-3l0 0zm0 4c0,1 0,2 0,3l0 0c0,-1 0,-2 0,-3l0 0zm0 4c0,1 0,2 0,3l0 0c0,-1 0,-2 0,-3l0 0zm0 4c0,1 0,2 0,3l0 0c0,-1 0,-2 0,-3l0 0zm0 4c0,1 0,2 0,3l0 0c0,-1 0,-2 0,-3l0 0zm0 4c0,1 0,2 0,3l0 0c0,-1 0,-2 0,-3l0 0zm0 4c0,1 0,2 0,3l0 0c0,-1 0,-2 0,-3l0 0zm0 4c0,1 0,2 0,3l0 0c0,-1 0,-2 0,-3l0 0zm0 4c0,1 0,2 0,3l0 0c0,-1 0,-2 0,-3l0 0zm0 4c0,1 0,2 0,3l0 0c0,-1 0,-2 0,-3l0 0zm0 4c0,1 0,2 0,3l0 0c0,-1 0,-2 0,-3l0 0zm0 4c0,1 0,2 0,3l0 0c0,-1 0,-2 0,-3l0 0zm0 4c0,1 0,2 0,3l0 0c0,-1 0,-2 0,-3l0 0zm0 4c0,1 0,2 0,3l0 0c0,-1 0,-2 0,-3l0 0zm0 4c0,1 0,2 0,3l0 0c0,-1 0,-2 0,-3l0 0zm0 4c0,1 0,2 0,3l0 0c0,-1 0,-2 0,-3l0 0zm0 4c0,1 0,2 0,3l0 0c0,-1 0,-2 0,-3l0 0zm0 4c0,1 0,2 0,3l0 0c0,-1 0,-2 0,-3l0 0zm0 4c0,1 0,2 0,3l0 0c0,-1 0,-2 0,-3l0 0zm0 4c0,1 0,2 0,3l0 0c0,-1 0,-2 0,-3l0 0zm0 4c0,1 0,1 0,1l0 0 0 0c0,0 0,0 1,0 0,0 1,0 2,0l0 0c-1,0 -2,0 -2,0l0 0 0 0c0,0 0,0 0,-1l0 0zm3 1c1,0 2,0 3,0l0 0c-1,0 -2,0 -3,0l0 0zm4 1c1,0 2,0 3,0l0 0c-1,0 -2,0 -3,0l0 0zm4 -1c1,0 1,-1 2,-1 0,0 0,0 1,-1l0 0c0,0 0,1 -1,1 -1,1 -1,1 -2,1l0 0zm3 -3c1,-1 1,-2 2,-3l0 0c-1,1 -1,2 -2,3l0 0zm2 -3c0,0 1,-1 1,-1 0,0 1,0 1,0 0,0 1,0 1,1l0 0c0,0 -1,-1 -1,-1 0,0 -1,0 -1,0 0,0 -1,0 -1,1l0 0zm3 0c0,0 1,1 1,1 0,0 1,0 1,0 0,0 0,0 1,0 0,0 0,0 0,0l0 0c0,0 0,0 0,0 0,0 0,0 -1,0 0,0 -1,0 -1,0 0,0 -1,-1 -1,-1l0 0zm4 0c1,-1 2,-1 2,-2l0 0c-1,1 -2,2 -2,2l0 0zm3 -3c1,0 1,-1 2,-1 0,0 1,0 1,0l0 0c0,0 -1,0 -1,0 -1,0 -1,0 -2,1l0 0zm4 -1c1,0 2,0 3,0l0 0c-1,0 -2,0 -3,0l0 0zm4 1c1,0 2,1 3,1l0 0c-1,0 -2,-1 -3,-1l0 0zm4 1c1,0 2,1 3,1l0 0c-1,0 -2,-1 -3,-1l0 0zm4 2c1,1 2,1 3,2l0 0c-1,0 -2,-1 -3,-2l0 0zm4 2c0,0 1,0 1,0 1,0 1,0 2,0l0 0c-1,0 -2,0 -2,0 0,0 -1,0 -1,0l0 0zm4 1c1,0 2,0 2,0 0,0 1,0 1,0l0 0c0,0 -1,0 -1,0 -1,0 -2,0 -2,0l0 0zm4 0c1,0 2,0 2,0 0,0 1,0 1,0l0 0c0,0 -1,0 -1,0 -1,0 -1,0 -2,0l0 0zm4 -1c1,0 2,-1 3,-2l0 0c-1,1 -2,1 -3,2l0 0 0 0zm4 -2c1,-1 2,-1 3,-1l0 0c-1,0 -2,1 -3,1l0 0zm4 -2c0,0 0,0 1,0 1,0 2,-1 2,-1l0 0c-1,0 -1,0 -2,1 0,0 0,0 -1,0l0 0zm4 -2c1,0 1,-1 2,-2 0,0 0,0 0,0l0 0c0,0 0,0 0,0 -1,1 -1,1 -2,2l0 0zm3 -3c1,-1 2,-1 3,-2l0 0c-1,0 -2,1 -3,2l0 0zm3 -2c0,0 0,0 1,0 0,0 0,0 1,0 1,0 1,0 2,0l0 0c-1,0 -1,0 -2,0 0,0 0,0 -1,0 0,0 0,0 -1,0l0 0zm4 1c1,0 2,0 3,-1l0 0 0 0 0 0c-1,1 -2,1 -3,1l0 0zm4 -2c0,0 1,0 1,0 0,0 0,0 1,0 0,0 1,0 1,1l0 0c0,0 -1,-1 -1,-1 0,0 -1,0 -1,0 0,0 -1,0 -1,0l0 0zm4 1c0,0 0,0 0,0 1,1 2,1 2,2l0 0c-1,0 -1,-1 -2,-2 0,0 0,0 0,0l0 0zm4 2c0,0 0,0 0,0 0,0 1,0 1,0 0,0 1,-1 1,-1l0 0 0 0 0 0c0,1 -1,1 -1,1 0,0 -1,0 -1,0 0,0 0,0 0,0l0 0zm3 -3c0,-1 1,-2 1,-3l0 0c0,1 0,2 -1,3l0 0zm1 -4c0,0 0,-1 1,-1 0,0 1,0 1,0 1,0 1,0 2,1l0 0c-1,0 -1,-1 -2,-1 0,0 -1,0 -1,0 0,0 -1,0 -1,1l0 0z"/>
            <path class="fil2" d="M4733 3898l0 0 -1 0c0,0 0,0 0,0 0,0 0,-1 0,-1 0,0 0,0 -1,0 0,0 0,0 -1,0 0,0 0,0 0,1 0,0 0,1 0,1l3 0zm-3 0c0,0 0,0 0,0 0,0 0,-1 1,-1 0,0 1,0 1,1 0,0 0,0 0,0l-1 0zm2 -4c0,0 0,0 0,0 0,0 -1,0 -1,1 0,1 1,1 1,1 1,0 1,0 1,-1 0,0 0,-1 0,-1l0 0c0,0 0,0 0,1 0,0 0,1 -1,1l0 -2zm0 2c0,0 -1,0 -1,-1 0,0 0,-1 1,-1l0 1zm-1 -2l1 0 0 0 0 0 0 0 1 0c0,0 0,0 1,0 0,0 0,0 0,0 0,0 0,0 0,0l0 0c0,0 0,0 0,0 0,0 0,0 0,0l-1 0 0 -1 0 0 0 1 -1 0 0 0zm3 -2l0 0 -1 0c0,0 0,0 0,0 0,0 -1,0 -1,-1 0,0 0,0 0,0l0 0c0,0 0,0 0,0 0,0 0,1 0,1l0 0 0 0 0 0c0,0 0,0 1,0l2 0zm-2 -2c0,1 0,1 1,1 1,0 1,0 1,-1 0,-1 0,-1 -1,-1 -1,0 -1,0 -1,1zm0 0c0,0 0,-1 1,-1 0,0 1,0 1,1 0,0 0,1 -1,1 0,0 -1,0 -1,-1zm2 -2l0 0 -1 0c0,0 0,0 0,0 0,0 0,0 0,-1 0,0 0,-1 1,-1l1 0 0 0 -1 0c-1,0 -1,0 -1,1 0,0 0,1 0,1l0 0 0 0 0 0c0,0 0,0 1,0l2 0z"/>
        </g>
        <g>
            <path class="fil2" d="M4900 4187c3,0 25,0 30,0 11,0 31,6 40,14 5,5 5,11 3,14 -2,3 -13,25 -14,27 -1,2 -2,3 -5,3 -3,0 -51,0 -54,0 -2,0 -3,-1 -3,-3l0 -51c0,-2 1,-4 4,-4z"/>
            <path class="fil2" d="M4735 4165c2,2 12,14 22,17 11,3 27,-2 33,0 7,2 15,7 18,8 3,1 3,3 2,6 -1,3 -3,11 -5,14 -1,3 -4,9 -18,16 -9,4 -21,17 -29,24 -5,5 -14,6 -20,4 -5,-2 -13,-9 -12,-19 0,-6 3,-12 2,-24 -1,-10 -7,-22 -7,-31 0,-7 6,-12 8,-13 2,-2 4,-1 6,1z"/>
            <path class="fil2" d="M4755 4150c2,2 4,4 6,6 2,2 10,8 12,9 2,1 2,2 3,4 0,2 0,3 0,4 0,1 -1,2 -3,2 -2,0 -9,1 -14,0 -5,-2 -9,-4 -13,-8 -4,-4 -5,-6 -6,-7 -1,-1 -1,-3 1,-4 2,-1 8,-5 9,-6 1,-1 3,-2 5,0z"/>
            <path class="fil2" d="M4774 4142c3,3 25,28 65,28 9,0 36,-6 39,-6 3,-1 10,-1 10,6 0,7 0,6 0,8 0,2 -1,3 -4,3 -2,0 -19,1 -24,1 -5,0 -10,1 -14,2 -5,1 -13,3 -19,3 -6,0 -13,-1 -24,-7 -8,-4 -15,-5 -18,-5 -2,0 -3,-1 -4,-4 0,-4 0,-6 -5,-10 -4,-4 -11,-9 -14,-11 -3,-2 -3,-4 -1,-6 2,-2 3,-2 3,-2 2,-1 5,-2 8,0z"/>
            <path class="fil2" d="M4876 4070c2,2 8,11 11,26 1,3 -1,6 -1,10l0 20c0,4 -1,14 -4,20 -1,2 -2,3 -4,4 -2,0 -26,5 -32,6 -6,1 -37,4 -61,-22 -3,-4 -1,-6 0,-7 21,-15 78,-54 83,-58 5,-4 6,-2 8,0z"/>
            <path class="fil2" d="M4726 4021c2,0 4,3 4,5 4,47 15,72 31,100 2,4 1,6 0,7 -1,1 -4,3 -5,4 -1,1 -3,1 -4,0 -12,-17 -35,-66 -35,-111 0,-2 1,-3 3,-3 0,0 3,0 6,0z"/>
            <path class="fil2" d="M4753 4020c2,0 3,1 3,3 0,32 14,69 27,89 1,2 1,3 0,5 -1,1 -3,2 -5,3 -2,1 -4,1 -6,-2 -15,-18 -30,-62 -30,-92 0,-5 2,-6 4,-6 2,0 5,0 6,0z"/>
            <path class="fil2" d="M4783 4019c3,0 5,1 5,5 1,19 8,48 20,70 2,3 0,6 -1,7 -2,1 -13,9 -14,10 -2,1 -3,1 -4,0 -11,-16 -26,-53 -27,-86 0,-2 1,-4 4,-4 2,0 15,-1 18,-1z"/>
            <path class="fil2" d="M4823 4017c1,0 3,1 3,3 0,2 4,33 15,54 1,2 1,3 0,4 -1,1 -15,11 -16,11 -2,1 -4,1 -5,-1 -9,-15 -19,-44 -19,-65 0,-2 1,-4 3,-4 2,0 18,-1 20,-1z"/>
            <path class="fil2" d="M4858 4021c0,10 4,23 9,33 1,3 0,5 -1,6 -2,1 -14,10 -16,11 -1,1 -2,2 -4,0 -5,-8 -14,-32 -14,-51 0,-2 1,-3 3,-3 2,0 15,-1 18,-1 3,0 6,1 6,5z"/>
            <path class="fil2" d="M4852 3951c1,1 15,9 16,10 2,1 2,5 0,8 -6,10 -9,23 -10,33 0,3 -2,4 -5,4 -3,0 -17,1 -19,1 -2,0 -3,-1 -3,-4 1,-16 9,-41 16,-51 1,-2 3,-2 5,-1z"/>
            <path class="fil2" d="M5044 3938c1,1 33,39 36,42 2,3 11,12 9,36 -2,25 -5,58 -14,77 -10,19 -33,55 -41,66 -8,11 -13,12 -16,13 -3,1 -4,2 -6,3 -1,1 -6,3 -9,1 -3,-1 -5,-1 -6,-2 -2,-1 -20,-10 -31,-15 -11,-5 -28,-12 -45,-12 -17,0 -14,0 -16,0 -2,0 -5,-1 -5,-5l0 -26c0,-6 1,-8 6,-10 5,-1 14,-4 21,-4 7,0 16,2 27,10 10,6 23,8 27,8 12,0 34,-7 46,-27 13,-21 17,-38 17,-63 0,-10 -5,-43 -21,-71 -1,-2 -2,-3 0,-5 2,-2 17,-14 18,-15 1,-1 3,-1 4,0z"/>
            <path class="fil2" d="M5059 3937l18 0c3,0 13,5 13,18 0,13 0,9 0,13 0,4 -5,7 -8,3 -3,-3 -23,-26 -25,-28 -2,-2 -2,-7 2,-7z"/>
            <path class="fil2" d="M4980 3923c3,4 29,30 44,65 16,37 10,82 -14,107 -20,21 -43,12 -51,7 -9,-5 -19,-10 -30,-11 -11,0 -19,2 -22,3 -3,1 -7,1 -8,-3 -2,-4 -4,-14 -7,-20 -4,-5 -21,-23 -21,-60 0,-20 13,-57 41,-70 29,-13 45,-14 51,-16 6,-2 4,-2 7,-3 2,-1 8,-3 12,1z"/>
            <path class="fil2" d="M4789 3915c-2,0 -3,0 -5,2 1,-2 3,-2 5,-2z"/>
            <path class="fil2" d="M4896 3904c2,4 3,8 3,9 0,1 0,2 -1,3 -7,4 -15,10 -21,16 -1,1 -2,1 -4,0 0,0 -3,-2 -6,-5 -1,0 -1,-2 0,-3l0 0c9,-9 18,-16 27,-21 0,0 0,0 0,0 1,0 2,-1 3,1z"/>
            <path class="fil2" d="M5000 3901c2,2 31,25 33,27 2,2 3,4 0,7 -4,3 -12,10 -13,11 -1,1 -2,1 -4,-1 -5,-6 -18,-23 -25,-30 -3,-3 -2,-5 -1,-7 1,-1 4,-5 5,-6 1,-2 3,-3 6,-1z"/>
            <path class="fil2" d="M4908 3897c0,0 0,0 0,0 1,8 3,17 5,24 1,2 0,4 -3,5 -13,7 -22,14 -30,23 -2,2 -6,3 -9,2 -1,-1 -9,-5 -17,-10 -1,-1 -2,-2 -1,-4 2,-3 5,-6 7,-9l0 0c0,0 2,-1 3,0l0 0c4,3 7,5 8,6 1,1 3,1 4,0 7,-7 15,-13 23,-18 2,-1 2,-2 1,-4 0,-1 -2,-5 -4,-9 0,-1 -1,-3 1,-3 0,0 0,0 0,0 3,-1 5,-3 8,-3 1,0 2,0 2,1z"/>
            <path class="fil2" d="M4890 3890c0,0 1,3 3,7l0 0c1,1 0,3 -1,4 -10,6 -19,13 -27,22 0,0 0,0 0,0 -1,1 -2,2 -4,1 -3,-2 -6,-4 -6,-5 -1,-1 -3,-2 -1,-5 10,-12 25,-21 32,-24 2,-1 4,-1 5,1z"/>
            <path class="fil2" d="M4904 3870c0,2 2,10 3,21l0 0c0,1 -1,3 -2,3 -2,1 -5,2 -7,3 0,0 0,0 0,0 -1,0 -2,1 -3,-1 -2,-4 -3,-7 -3,-7 -1,-2 -3,-3 -5,-2 -11,5 -25,15 -35,27 -2,3 -1,4 1,5 1,1 4,3 8,6 1,1 1,2 0,2 -2,3 -5,6 -7,9 -2,2 -3,3 -5,2 -9,-5 -17,-10 -17,-10 -2,-1 -4,-3 -2,-7 9,-14 39,-44 69,-52 3,-1 5,-1 5,2z"/>
            <path class="fil2" d="M4920 3864c3,0 19,2 32,7 12,5 26,15 31,18 3,2 2,4 1,6 -3,5 -9,11 -25,17 -8,3 -13,3 -17,4 -4,1 -10,2 -12,2 -2,0 -5,0 -6,-3 -1,-2 -7,-33 -9,-48 0,-2 1,-5 4,-4z"/>
            <path class="fil2" d="M4862 3852c4,0 15,2 16,2 1,0 2,1 3,2 1,1 1,2 1,3 1,2 0,4 -2,5 -24,12 -43,27 -60,50 -2,3 -5,5 -9,2 -4,-3 -15,-8 -16,-9 -1,-1 -2,-3 -1,-4 3,-5 23,-30 47,-45 10,-7 15,-6 21,-6z"/>
            <path class="fil2" d="M4985 3834c3,0 4,1 4,4l0 34c0,2 -2,6 -6,3 -4,-2 -33,-23 -64,-23 -3,0 -4,-1 -4,-3 0,-2 0,-7 0,-8 0,-3 3,-6 6,-6 5,0 62,-1 65,-1z"/>
            <path class="fil2" d="M5072 3833c8,0 11,4 11,9 0,5 0,12 0,15 0,3 3,18 3,24l0 43c0,4 -2,9 -8,9 -6,0 -22,-1 -25,-1 -3,0 -4,-1 -5,-3 -1,-1 -27,-26 -45,-38 -2,-1 -3,-4 -3,-5l0 -48c0,-2 2,-3 4,-3 2,0 60,-1 68,-1z"/>
            <path class="fil2" d="M4835 3798l28 0c2,0 3,0 3,3l0 16c0,1 0,2 -2,2 -1,0 -15,-2 -26,-5 -4,-1 -8,-3 -8,-10 0,0 0,-4 1,-4 0,-1 1,-2 4,-2z"/>
            <path class="fil2" d="M4934 3774l5 0c1,0 2,1 2,2l0 27c0,2 -1,3 -3,3 -1,0 -3,0 -4,0 -2,0 -3,-2 -3,-4l0 -26c0,-2 1,-3 3,-3z"/>
            <path class="fil2" d="M4887 3760l12 0c1,0 2,0 2,2l0 52c0,3 -3,7 -8,7 -11,-1 -16,-2 -22,-2 -1,0 -2,-1 -2,-2 0,-1 0,-16 0,-17 0,-1 1,-2 3,-2l10 0c1,0 2,-1 2,-3 0,-2 0,-33 0,-34 0,-1 1,-1 2,-1z"/>
            <path class="fil2" d="M4918 3759l19 0c2,0 4,1 4,3l0 5c0,2 -1,4 -5,4 -4,0 -8,1 -8,7l0 25c0,5 3,7 6,7 4,0 2,0 4,0 1,0 4,0 4,2 0,2 0,6 0,6 0,2 -1,4 -4,4 -3,0 -16,0 -18,0 -2,0 -5,-2 -5,-5l0 -54c0,-3 2,-5 5,-5z"/>
            <path class="fil2" d="M4840 3749c1,0 40,0 42,0 2,0 2,2 2,3l0 0c0,18 0,40 0,41 0,1 -1,2 -3,2 -2,0 -44,-1 -45,-1 -1,0 -2,-1 -2,-2 0,0 4,-41 5,-42 0,-1 2,-2 3,-2z"/>
            <path class="fil2" d="M4856 3729c1,0 1,1 1,2l0 14c0,1 -1,2 -2,2l-16 0c-1,0 -2,0 -2,-1 0,0 0,0 0,0 0,-7 3,-16 15,-16 0,0 3,0 3,0z"/>
            <path class="fil2" d="M4882 3729c1,0 1,1 1,2 0,0 0,6 0,14l0 0c0,1 -1,2 -2,2l-19 0c0,0 -2,0 -2,-1l0 -14c0,-1 0,-2 1,-2 0,0 0,0 0,0 0,0 3,0 6,0 6,0 13,0 13,0z"/>
            <path class="fil2" d="M4897 3729c3,0 5,2 5,4l0 21c0,1 -1,1 -2,1l-13 0c-1,0 -2,0 -2,-1l0 -24c0,-1 1,-2 2,-2 2,0 4,0 6,0 0,0 1,0 1,0 1,0 2,0 3,0z"/>
            <path class="fil2" d="M4918 3729l19 0c2,0 4,1 4,3l0 16c0,2 -1,4 -4,4 -3,0 -16,0 -18,0 -2,0 -5,-2 -5,-5l0 -14c0,-3 2,-5 5,-5z"/>
            <path class="fil2" d="M4908 3686l10 0c14,0 23,12 23,22l0 9c0,3 -1,4 -4,4 -3,0 -45,0 -48,0 -3,0 -4,-2 -4,-4 0,-2 0,-7 0,-9 0,-15 14,-22 24,-22z"/>
            <path class="fil2" d="M4904 4161c5,0 30,0 41,6 5,2 5,2 7,2 4,0 7,1 10,2 3,1 17,8 26,16 9,8 13,26 8,37 -5,9 -15,29 -20,40l-83 0c0,-5 0,-9 0,-9 0,-2 1,-3 3,-3 2,0 55,0 58,0 3,0 8,-1 11,-5 3,-5 12,-23 15,-29 3,-6 2,-18 -7,-24 -9,-6 -23,-14 -40,-14 -16,0 -29,0 -32,0 -2,0 -4,-1 -4,-3l0 -8c0,-2 2,-7 7,-7z"/>
            <path class="fil2" d="M5070 4130l-4 80 -6 4 0 4 -14 8c0,0 -5,5 -8,12 -7,3 -12,3 -12,3l-1 -8c0,0 -9,-3 -17,9 -8,12 -14,23 -14,23l-2 0c6,-10 16,-26 18,-28 2,-3 6,-7 15,-6 8,1 15,3 21,-5 6,-8 1,-20 -5,-26 -4,-3 -6,-3 -6,-3 0,0 0,-3 1,-5 2,-3 13,-21 16,-27 3,-6 14,-25 18,-32 0,-1 1,-1 1,-2z"/>
            <path class="fil2" d="M4823 3934c0,0 0,0 0,0 0,0 0,0 0,0 0,0 1,0 1,1 1,1 15,9 17,10 1,1 1,2 0,4 0,0 0,1 -1,1 -6,11 -12,26 -15,41 0,1 0,1 0,2 -1,4 -1,7 -1,11 0,2 -1,2 -3,2 -1,0 -18,1 -20,1 -2,0 -3,-2 -3,-5 1,-23 11,-51 20,-67 1,-1 2,-2 3,-2z"/>
        </g>
    </g>
		<g>
				<path class="fil4" d="M3698 6065c2,3 4,7 6,12 2,5 5,10 7,16 3,6 5,11 7,17 2,6 5,11 7,16 2,-5 5,-11 7,-16 2,-6 5,-11 7,-17 3,-6 5,-11 7,-16 2,-5 4,-9 6,-12l21 0c1,7 2,14 3,23 1,8 2,17 2,26 1,9 1,18 2,27 1,9 1,18 1,26l-22 0c0,-10 -1,-21 -1,-32 0,-12 -1,-24 -2,-35 -2,4 -4,9 -6,14 -2,5 -4,10 -6,15 -2,5 -4,10 -6,14 -2,5 -4,8 -5,12l-16 0c-1,-3 -3,-7 -5,-12 -2,-5 -4,-9 -6,-14 -2,-5 -4,-10 -6,-15 -2,-5 -4,-10 -6,-14 -1,12 -2,24 -2,35 0,12 -1,23 -1,32l-22 0c0,-8 1,-17 1,-26 1,-9 1,-18 2,-27 1,-9 1,-18 2,-26 1,-8 2,-16 3,-23l22 0z"/>
				<path id="1" class="fil4" d="M3879 6170c-7,0 -13,-1 -19,-3 -5,-2 -10,-5 -13,-8 -3,-4 -6,-8 -8,-13 -2,-5 -2,-10 -2,-16l0 -64 23 0 0 62c0,4 0,8 1,11 1,3 2,5 4,7 2,2 4,3 6,4 2,1 5,1 8,1 6,0 10,-2 14,-5 3,-3 5,-9 5,-18l0 -62 23 0 0 64c0,6 -1,12 -3,17 -2,5 -4,9 -8,13 -3,4 -8,6 -13,8 -5,2 -12,3 -19,3z"/>
				<path id="2" class="fil4" d="M4047 6167c-7,-12 -14,-23 -21,-35 -8,-11 -16,-22 -25,-32l0 67 -23 0 0 -102 19 0c3,3 7,7 11,12 4,5 8,10 12,15 4,5 8,11 12,17 4,6 8,11 11,17l0 -60 23 0 0 102 -19 0z"/>
				<polygon id="3" class="fil4" points="4201,6065 4201,6085 4170,6085 4170,6167 4147,6167 4147,6085 4117,6085 4117,6065 "/>
				<polygon id="4" class="fil4" points="4252,6065 4275,6065 4275,6167 4252,6167 "/>
				<path id="5" class="fil4" d="M4402 6167c-7,-12 -14,-23 -21,-35 -8,-11 -16,-22 -25,-32l0 67 -23 0 0 -102 19 0c3,3 7,7 11,12 4,5 8,10 12,15 4,5 8,11 12,17 4,6 8,11 11,17l0 -60 23 0 0 102 -19 0z"/>
				<polygon id="6" class="fil4" points="4549,6148 4549,6167 4481,6167 4481,6065 4504,6065 4504,6148 "/>
				<path id="7" class="fil4" d="M4639 6170c-7,0 -13,-1 -19,-3 -5,-2 -10,-5 -13,-8 -3,-4 -6,-8 -8,-13 -2,-5 -2,-10 -2,-16l0 -64 23 0 0 62c0,4 0,8 1,11 1,3 2,5 4,7 2,2 4,3 6,4 2,1 5,1 8,1 6,0 10,-2 14,-5 3,-3 5,-9 5,-18l0 -62 23 0 0 64c0,6 -1,12 -3,17 -2,5 -4,9 -8,13 -3,4 -8,6 -13,8 -5,2 -12,3 -19,3z"/>
				<path id="8" class="fil4" d="M4770 6064c15,0 27,3 35,8 8,5 12,14 12,26 0,12 -4,21 -12,27 -8,5 -20,8 -35,8l-7 0 0 34 -23 0 0 -101c5,-1 10,-2 16,-2 6,0 11,-1 15,-1zm1 20c-2,0 -3,0 -5,0 -2,0 -3,0 -4,0l0 30 7 0c8,0 14,-1 18,-3 4,-2 6,-6 6,-12 0,-3 -1,-5 -2,-7 -1,-2 -3,-3 -4,-5 -2,-1 -4,-2 -7,-2 -3,0 -6,-1 -9,-1z"/>
				<path id="9" class="fil4" d="M4938 6167c-1,-4 -2,-7 -4,-11 -1,-4 -3,-7 -4,-11l-40 0c-1,4 -3,7 -4,11 -1,4 -2,7 -4,11l-24 0c4,-11 8,-21 11,-31 3,-9 7,-18 10,-26 3,-8 7,-16 10,-24 3,-7 7,-15 10,-22l22 0c3,7 7,14 10,22 3,7 7,15 10,24 3,8 7,17 10,26 3,9 7,20 11,31l-25 0zm-28 -79c-1,1 -1,4 -2,6 -1,3 -2,6 -3,9 -1,3 -3,7 -4,11 -2,4 -3,8 -5,13l29 0c-2,-4 -3,-9 -5,-13 -1,-4 -3,-8 -4,-11 -1,-3 -2,-6 -3,-9 -1,-3 -2,-5 -2,-6z"/>
		</g>
  </g>
  <g class="dynamic">
		<path id="arrow" class="fil1 landarea" d="M4246 3278c26,65 52,129 80,183 27,54 55,96 93,138 37,41 84,82 118,107 35,25 58,34 81,43 13,-34 26,-68 39,-103 12,69 24,138 36,207 -74,-12 -148,-23 -223,-35 34,-13 68,-25 102,-38 -30,-12 -60,-24 -95,-48 -35,-24 -75,-60 -108,-94 -33,-34 -59,-65 -78,-110 -18,-45 -29,-105 -35,-149 -6,-44 -8,-73 -10,-101z"/>
		<g class="road">
			<path id="AlabangZ_x0020_Curve" class="fil10 str3 major_roads" d="M1760 1852c30,103 59,205 82,273 22,67 37,100 74,138 37,38 95,83 184,139 89,56 210,123 325,179 115,56 225,101 321,147 96,46 179,92 292,159 112,67 254,155 364,222 110,67 187,112 236,146 50,34 71,58 107,99 36,41 86,99 130,129 44,30 81,32 134,41 53,9 122,26 179,38 57,12 102,18 157,34 55,16 120,41 187,75 67,34 136,78 205,122"/>
			<path id="MMSkyway_x0020_Curve" class="fil10 str4 major_roads" d="M4584 53c101,172 202,344 274,474 72,129 116,216 141,286 25,70 32,124 37,291 5,167 8,448 14,777 5,329 13,706 21,1009 8,303 15,531 19,649 3,117 2,123 -8,128 -10,4 -30,7 -49,10"/>
			<path id="DaangH_x0020_Curve" class="fil10 str5 major_roads" d="M4131 3566c0,42 0,84 -2,113 -2,29 -6,46 -29,86 -22,40 -63,102 -119,193 -56,91 -128,210 -178,293 -50,83 -79,130 -99,163 -19,33 -29,51 -35,66 -6,14 -7,25 -4,55 2,30 9,79 11,117 2,38 1,65 -11,112 -12,48 -33,116 -50,171 -17,54 -29,94 -37,125 -8,30 -12,51 -12,82 0,31 2,72 6,114 4,42 9,85 7,119 -2,34 -11,59 -30,97 -19,38 -48,88 -64,122 -16,34 -18,50 -16,88 3,38 10,96 27,177 17,82 44,186 60,256 15,69 19,104 19,142 0,38 -5,80 -12,142 -6,62 -14,145 -21,225 -7,80 -12,156 -14,234 -2,77 -1,155 0,219 1,64 2,115 3,165"/>
			<path id="NatlH_x0020_Curve" class="fil10 str6 major_roads" d="M5130 4209c23,168 46,336 57,430 11,94 9,114 -4,145 -13,31 -36,75 -56,112 -20,37 -36,69 -44,124 -8,54 -8,132 0,191 8,59 24,100 29,134 4,34 -3,62 -9,95 -7,34 -13,74 -12,116 1,43 9,87 32,144 24,56 63,124 107,223 43,99 91,229 126,307 35,78 58,105 92,136 34,31 80,66 115,97 36,31 61,59 102,122 40,64 95,164 151,264"/>
			<path id="SLEX_x0020_Curve" class="fil10 str7 major_roads" d="M4811 8c116,194 232,388 298,519 66,131 83,198 97,269 15,71 27,144 34,256 7,112 7,261 8,492 2,231 4,543 8,982 4,440 8,1008 6,1303 -3,295 -12,317 -45,377 -32,61 -87,160 -132,256 -45,96 -80,189 -102,275 -22,86 -29,164 -26,275 4,111 19,254 41,397 22,143 51,285 79,426 28,141 54,280 78,420 24,140 45,282 74,420 28,138 64,273 85,360 21,86 27,124 34,162"/>
			<path id="MCX_x0020_Curve" class="fil10 str8 major_roads" d="M3663 5948c71,-33 143,-67 219,-88 76,-21 157,-31 231,-34 74,-4 142,-1 194,-2 52,-1 87,-5 112,-13 25,-8 40,-18 65,-41 25,-23 59,-57 109,-97 50,-40 117,-87 166,-119 49,-33 79,-52 99,-63 20,-10 29,-12 39,-14"/>
		</g>
		<path id="Muntinlupa_x0020_Zone" class="fil10 str9 muntinlupa location landarea areanearby major_roads active" d="M4922 2808c-38,-51 -76,-102 -94,-133 -18,-32 -14,-44 33,-101 48,-57 141,-158 190,-215 49,-58 56,-72 67,-81 11,-8 27,-10 34,-23 7,-13 6,-37 4,-80 -2,-43 -5,-104 7,-167 12,-62 39,-126 55,-177 16,-51 20,-90 24,-114 4,-25 8,-36 21,-37 13,-1 35,10 65,22 30,12 67,25 93,35 25,9 39,15 69,17 30,2 75,1 106,1 30,-1 45,-1 54,8 9,9 14,27 14,56 1,29 -3,70 -11,105 -8,35 -22,64 -48,111 -26,47 -65,113 -87,157 -23,44 -30,66 -34,111 -4,45 -4,114 -7,173 -3,59 -9,108 -13,140 -4,32 -5,48 -5,56 -1,8 -1,8 9,-27 9,-35 28,-105 37,-139 9,-35 8,-35 11,23 3,58 10,175 11,236 1,61 -4,66 -12,73 -8,7 -20,15 -32,21 -12,6 -24,9 -38,37 -14,28 -28,81 -38,115 -10,34 -15,48 -14,59 2,10 10,17 18,28 8,11 17,28 18,72 1,44 -5,116 -10,185 -5,69 -9,134 -11,171 -2,36 -2,44 7,56 9,12 27,29 38,46 11,18 17,36 19,149 2,112 1,318 -1,428 -2,109 -4,122 -14,137 -10,16 -28,34 -39,52 -11,17 -15,33 -12,75 3,42 14,111 15,152 2,42 -6,56 -12,73 -6,17 -11,35 -11,71 0,36 5,89 7,131 2,42 -1,72 6,95 6,23 21,39 34,55 13,16 24,33 32,47 7,14 10,25 9,51 -1,25 -6,65 -8,101 -2,36 -1,70 6,88 7,19 21,23 33,24 12,2 24,1 31,24 7,23 9,71 11,153 2,82 4,197 4,260 -1,63 -4,73 -14,91 -10,17 -27,41 -42,65 -16,23 -30,46 -33,70 -3,23 5,47 8,70 3,22 -1,43 -10,61 -10,18 -27,32 -55,51 -29,19 -69,42 -99,54 -30,12 -50,13 -76,14 -26,1 -58,1 -81,-11 -23,-12 -36,-36 -54,-56 -17,-20 -38,-35 -68,-32 -30,3 -70,25 -113,50 -44,25 -92,55 -132,74 -41,19 -74,29 -116,34 -42,6 -92,8 -132,11 -40,4 -70,9 -92,20 -22,11 -35,28 -50,49 -15,22 -32,49 -42,73 -10,24 -13,45 -15,66 -2,21 -3,42 -11,60 -8,19 -24,35 -70,81 -46,46 -123,121 -168,166 -45,45 -57,61 -72,70 -15,9 -31,12 -48,14 -17,2 -33,2 -49,8 -16,6 -32,19 -49,34 -18,15 -37,33 -52,47 -15,14 -24,24 -28,34 -4,9 -3,18 1,29 4,11 10,24 15,35 5,10 9,18 6,28 -4,10 -15,24 -25,35 -10,11 -18,21 -33,20 -15,-1 -35,-12 -69,-29 -34,-16 -81,-37 -110,-51 -29,-14 -41,-21 -49,-34 -8,-12 -14,-30 -9,-139 5,-109 19,-310 32,-446 12,-136 23,-208 27,-252 4,-44 2,-59 -11,-103 -14,-43 -39,-114 -56,-183 -17,-69 -27,-137 -34,-190 -7,-53 -12,-92 -14,-116 -2,-24 1,-35 7,-50 7,-15 18,-35 34,-62 16,-28 37,-63 53,-89 16,-26 26,-43 27,-76 1,-33 -9,-83 -16,-129 -7,-45 -11,-86 -8,-123 3,-37 12,-70 29,-123 17,-53 41,-126 58,-177 17,-52 28,-82 31,-115 3,-33 -1,-70 -6,-106 -5,-36 -11,-71 -12,-95 -1,-23 3,-35 18,-61 15,-27 41,-68 75,-123 34,-55 75,-124 129,-212 53,-88 118,-197 160,-262 43,-66 63,-88 75,-114 12,-26 15,-55 15,-101 -1,-46 -5,-110 -2,-160 3,-50 12,-88 24,-140 12,-52 28,-119 37,-162 9,-44 12,-65 32,-90 19,-25 55,-54 103,-85 48,-31 108,-65 152,-86 44,-21 71,-31 93,-32 22,-2 39,5 66,19 27,14 65,36 84,50 19,15 20,22 51,-4 31,-26 91,-84 151,-142z"/>
		<g class="text areanearby">
			<g>
					<path class="fil3" d="M2806 1713c22,0 38,4 48,12 11,8 16,20 16,35 0,9 -2,16 -5,22 -3,6 -7,11 -13,15 -6,4 -13,6 -21,8 -8,2 -18,3 -28,3l-21 0 0 59 -15 0 0 -150c5,-1 11,-3 19,-3 7,-1 14,-1 20,-1zm1 13c-6,0 -10,0 -14,1 -4,0 -7,1 -10,1l0 67 19 0c8,0 15,0 22,-1 7,-1 12,-3 17,-5 5,-3 8,-6 11,-11 2,-5 4,-10 4,-17 0,-7 -1,-12 -4,-17 -3,-4 -6,-8 -11,-10 -4,-3 -10,-4 -15,-5 -6,-1 -12,-2 -18,-2z"/>
					<path id="1" class="fil3" d="M3051 1867c-3,-7 -6,-15 -8,-22 -2,-7 -5,-14 -7,-20l-74 0c-3,7 -5,13 -7,20 -2,7 -5,14 -8,22l-16 0c6,-16 11,-31 16,-44 5,-14 10,-27 15,-39 5,-12 10,-24 15,-35 5,-11 10,-23 15,-34l13 0c5,11 10,23 15,34 5,11 10,23 15,35 5,12 10,25 15,39 5,14 11,29 17,44l-16 0zm-52 -135c-6,13 -11,26 -16,39 -5,13 -11,27 -16,42l65 0c-6,-15 -11,-29 -16,-42 -5,-13 -11,-26 -16,-38z"/>
					<path id="2" class="fil3" d="M3241 1760c0,11 -3,20 -9,27 -6,7 -14,11 -24,14 2,3 5,7 9,12 4,5 8,10 12,16 4,6 8,12 12,19 4,6 7,13 10,18l-16 0c-3,-6 -6,-12 -10,-18 -4,-6 -7,-12 -11,-17 -4,-5 -7,-11 -11,-15 -4,-5 -7,-9 -9,-12 -5,0 -9,1 -14,1l-25 0 0 62 -15 0 0 -150c5,-1 11,-3 19,-3 7,-1 14,-1 20,-1 21,0 37,4 47,12 11,8 16,20 16,35zm-62 -34c-6,0 -10,0 -15,1 -4,0 -8,1 -10,1l0 65 21 0c7,0 13,0 20,-1 6,-1 12,-2 16,-4 5,-2 8,-6 11,-10 3,-4 4,-10 4,-17 0,-7 -1,-12 -4,-17 -3,-4 -6,-8 -10,-10 -4,-3 -9,-4 -15,-5 -6,-1 -11,-1 -17,-1z"/>
					<path id="3" class="fil3" d="M3428 1867c-3,-7 -6,-15 -8,-22 -2,-7 -5,-14 -7,-20l-74 0c-3,7 -5,13 -7,20 -2,7 -5,14 -8,22l-16 0c6,-16 11,-31 16,-44 5,-14 10,-27 15,-39 5,-12 10,-24 15,-35 5,-11 10,-23 15,-34l13 0c5,11 10,23 15,34 5,11 10,23 15,35 5,12 10,25 15,39 5,14 11,29 17,44l-16 0zm-52 -135c-6,13 -11,26 -16,39 -5,13 -11,27 -16,42l65 0c-6,-15 -11,-29 -16,-42 -5,-13 -11,-26 -16,-38z"/>
					<path id="4" class="fil3" d="M3620 1867c-3,-5 -6,-11 -11,-18 -4,-7 -9,-14 -14,-22 -5,-8 -11,-16 -16,-24 -6,-8 -11,-16 -17,-24 -6,-8 -11,-15 -17,-22 -5,-7 -10,-13 -14,-18l0 128 -15 0 0 -152 12 0c7,8 16,18 24,29 9,11 17,22 25,33 8,11 16,22 23,33 7,11 13,20 18,28l0 -124 15 0 0 152 -13 0zm-32 -173c-3,0 -6,-1 -9,-2 -3,-1 -5,-2 -8,-3 -3,-1 -5,-2 -7,-3 -2,-1 -3,-1 -5,-1 -3,0 -5,1 -7,3 -2,2 -3,4 -5,7l-8 -4c1,-2 2,-4 3,-6 1,-2 3,-4 4,-6 2,-2 4,-3 6,-4 2,-1 5,-2 8,-2 3,0 6,1 9,2 3,1 5,2 8,3 3,1 5,2 7,3 2,1 3,1 5,1 3,0 6,-1 7,-3 2,-2 3,-4 5,-7l8 4c-1,2 -2,4 -3,6 -1,2 -3,4 -4,6 -2,2 -4,3 -6,4 -2,1 -5,2 -8,2z"/>
					<path id="5" class="fil3" d="M3825 1867c-3,-7 -6,-15 -8,-22 -2,-7 -5,-14 -7,-20l-74 0c-3,7 -5,13 -7,20 -2,7 -5,14 -8,22l-16 0c6,-16 11,-31 16,-44 5,-14 10,-27 15,-39 5,-12 10,-24 15,-35 5,-11 10,-23 15,-34l13 0c5,11 10,23 15,34 5,11 10,23 15,35 5,12 10,25 15,39 5,14 11,29 17,44l-16 0zm-52 -135c-6,13 -11,26 -16,39 -5,13 -11,27 -16,42l65 0c-6,-15 -11,-29 -16,-42 -5,-13 -11,-26 -16,-38z"/>
					<path id="6" class="fil3" d="M4051 1791c0,12 -2,22 -5,31 -3,9 -7,17 -13,24 -5,7 -12,12 -19,16 -7,4 -15,7 -23,8 1,4 2,8 6,11 3,3 7,5 11,7 4,2 9,4 15,5 5,1 11,2 16,3l-3 13c-6,-1 -12,-2 -18,-4 -6,-2 -13,-4 -18,-6 -6,-3 -11,-6 -15,-11 -4,-4 -7,-10 -8,-16 -9,0 -18,-2 -27,-6 -8,-4 -16,-9 -22,-15 -6,-7 -11,-15 -15,-25 -4,-10 -6,-21 -6,-34 0,-13 2,-25 6,-34 4,-10 9,-18 16,-25 7,-7 14,-12 23,-15 9,-3 18,-5 27,-5 10,0 19,2 27,5 9,3 16,8 23,15 7,7 12,15 16,25 4,10 6,21 6,34zm-16 0c0,-10 -1,-19 -4,-28 -3,-8 -6,-15 -11,-21 -5,-6 -11,-10 -17,-13 -7,-3 -14,-5 -23,-5 -9,0 -16,2 -23,5 -7,3 -13,7 -17,13 -5,6 -9,13 -11,21 -3,8 -4,17 -4,28 0,10 1,19 4,28 3,8 6,15 11,21 5,6 11,10 17,13 7,3 14,5 23,5 9,0 16,-2 23,-5 7,-3 13,-7 17,-13 5,-6 9,-13 11,-21 3,-8 4,-17 4,-28z"/>
					<path id="7" class="fil3" d="M4189 1870c-10,0 -19,-2 -26,-5 -7,-3 -13,-7 -17,-13 -4,-5 -8,-12 -10,-19 -2,-7 -3,-15 -3,-23l0 -96 15 0 0 94c0,8 1,16 3,22 2,6 5,11 8,15 4,4 8,7 13,9 5,2 11,3 17,3 6,0 12,-1 17,-3 5,-2 9,-5 13,-9 4,-4 6,-9 8,-15 2,-6 3,-13 3,-22l0 -94 15 0 0 96c0,8 -1,16 -3,23 -2,7 -5,14 -10,19 -4,5 -10,10 -17,13 -7,3 -16,5 -26,5z"/>
					<polygon id="8" class="fil3" points="4334,1867 4334,1715 4422,1715 4422,1728 4349,1728 4349,1781 4414,1781 4414,1793 4349,1793 4349,1854 4428,1854 4428,1867 "/>
			</g>
			<g>
					<polygon class="fil3" points="2082,3919 2082,3932 1996,3932 1996,3780 2010,3780 2010,3919 "/>
					<path id="1" class="fil3" d="M2259 3932c-3,-7 -6,-15 -8,-22 -2,-7 -5,-14 -7,-20l-74 0c-3,7 -5,13 -7,20 -2,7 -5,14 -8,22l-16 0c6,-16 11,-31 16,-44 5,-14 10,-27 15,-39 5,-12 10,-24 15,-35 5,-11 10,-23 15,-34l13 0c5,11 10,23 15,34 5,11 10,23 15,35 5,12 10,25 15,39 5,14 11,29 17,44l-16 0zm-52 -135c-6,13 -11,26 -16,39 -5,13 -11,27 -16,42l65 0c-6,-15 -11,-29 -16,-42 -5,-13 -11,-26 -16,-38z"/>
					<path id="2" class="fil3" d="M2380 3923c12,0 21,-2 28,-6 7,-4 10,-11 10,-21 0,-6 -1,-10 -3,-14 -2,-4 -5,-7 -8,-9 -4,-3 -8,-5 -12,-7 -5,-2 -9,-4 -14,-6 -6,-2 -12,-5 -17,-8 -5,-3 -9,-6 -13,-9 -4,-3 -6,-7 -8,-11 -2,-4 -3,-9 -3,-15 0,-13 4,-23 13,-30 9,-7 21,-10 36,-10 4,0 8,0 12,1 4,1 8,1 11,2 3,1 7,2 9,3 3,1 5,2 7,4l-5 13c-4,-3 -9,-5 -16,-7 -6,-2 -13,-3 -20,-3 -5,0 -9,0 -13,1 -4,1 -8,2 -10,5 -3,2 -5,5 -7,8 -2,3 -3,7 -3,12 0,5 1,9 3,12 2,3 4,6 7,8 3,2 7,4 11,6 4,2 9,4 14,6 6,2 12,5 17,7 5,2 10,5 14,9 4,3 7,7 9,12 2,5 4,11 4,18 0,14 -5,24 -14,31 -10,7 -23,10 -39,10 -6,0 -11,0 -16,-1 -5,-1 -9,-2 -13,-3 -4,-1 -7,-2 -10,-3 -3,-1 -5,-2 -6,-3l5 -13c1,1 3,2 6,3 2,1 5,2 9,3 3,1 7,2 11,3 4,1 9,1 14,1z"/>
					<path id="3" class="fil3" d="M2650 3779c22,0 38,4 48,12 11,8 16,20 16,35 0,9 -2,16 -5,22 -3,6 -7,11 -13,15 -6,4 -13,6 -21,8 -8,2 -18,3 -28,3l-21 0 0 59 -15 0 0 -150c5,-1 11,-3 19,-3 7,-1 14,-1 20,-1zm1 13c-6,0 -10,0 -14,1 -4,0 -7,1 -10,1l0 67 19 0c8,0 15,0 22,-1 7,-1 12,-3 17,-5 5,-3 8,-6 11,-11 2,-5 4,-10 4,-17 0,-7 -1,-12 -4,-17 -3,-4 -6,-8 -11,-10 -4,-3 -10,-4 -15,-5 -6,-1 -12,-2 -18,-2z"/>
					<polygon id="4" class="fil3" points="2792,3780 2807,3780 2807,3932 2792,3932 "/>
					<path id="5" class="fil3" d="M3000 3932c-3,-5 -6,-11 -11,-18 -4,-7 -9,-14 -14,-22 -5,-8 -11,-16 -16,-24 -6,-8 -11,-16 -17,-24 -6,-8 -11,-15 -17,-22 -5,-7 -10,-13 -14,-18l0 128 -15 0 0 -152 12 0c7,8 16,18 24,29 9,11 17,22 25,33 8,11 16,22 23,33 7,11 13,20 18,28l0 -124 15 0 0 152 -13 0zm-32 -173c-3,0 -6,-1 -9,-2 -3,-1 -5,-2 -8,-3 -3,-1 -5,-2 -7,-3 -2,-1 -3,-1 -5,-1 -3,0 -5,1 -7,3 -2,2 -3,4 -5,7l-8 -4c1,-2 2,-4 3,-6 1,-2 3,-4 4,-6 2,-2 4,-3 6,-4 2,-1 5,-2 8,-2 3,0 6,1 9,2 3,1 5,2 8,3 3,1 5,2 7,3 2,1 3,1 5,1 3,0 6,-1 7,-3 2,-2 3,-4 5,-7l8 4c-1,2 -2,4 -3,6 -1,2 -3,4 -4,6 -2,2 -4,3 -6,4 -2,1 -5,2 -8,2z"/>
					<path id="6" class="fil3" d="M3205 3932c-3,-7 -6,-15 -8,-22 -2,-7 -5,-14 -7,-20l-74 0c-3,7 -5,13 -7,20 -2,7 -5,14 -8,22l-16 0c6,-16 11,-31 16,-44 5,-14 10,-27 15,-39 5,-12 10,-24 15,-35 5,-11 10,-23 15,-34l13 0c5,11 10,23 15,34 5,11 10,23 15,35 5,12 10,25 15,39 5,14 11,29 17,44l-16 0zm-52 -135c-6,13 -11,26 -16,39 -5,13 -11,27 -16,42l65 0c-6,-15 -11,-29 -16,-42 -5,-13 -11,-26 -16,-38z"/>
					<path id="7" class="fil3" d="M3326 3923c12,0 21,-2 28,-6 7,-4 10,-11 10,-21 0,-6 -1,-10 -3,-14 -2,-4 -5,-7 -8,-9 -4,-3 -8,-5 -12,-7 -5,-2 -9,-4 -14,-6 -6,-2 -12,-5 -17,-8 -5,-3 -9,-6 -13,-9 -4,-3 -6,-7 -8,-11 -2,-4 -3,-9 -3,-15 0,-13 4,-23 13,-30 9,-7 21,-10 36,-10 4,0 8,0 12,1 4,1 8,1 11,2 3,1 7,2 9,3 3,1 5,2 7,4l-5 13c-4,-3 -9,-5 -16,-7 -6,-2 -13,-3 -20,-3 -5,0 -9,0 -13,1 -4,1 -8,2 -10,5 -3,2 -5,5 -7,8 -2,3 -3,7 -3,12 0,5 1,9 3,12 2,3 4,6 7,8 3,2 7,4 11,6 4,2 9,4 14,6 6,2 12,5 17,7 5,2 10,5 14,9 4,3 7,7 9,12 2,5 4,11 4,18 0,14 -5,24 -14,31 -10,7 -23,10 -39,10 -6,0 -11,0 -16,-1 -5,-1 -9,-2 -13,-3 -4,-1 -7,-2 -10,-3 -3,-1 -5,-2 -6,-3l5 -13c1,1 3,2 6,3 2,1 5,2 9,3 3,1 7,2 11,3 4,1 9,1 14,1z"/>
			</g>
			<g>
					<path class="fil3" d="M877 5878c-10,0 -19,-2 -27,-5 -8,-4 -16,-9 -22,-15 -6,-7 -11,-15 -15,-25 -4,-10 -5,-21 -5,-34 0,-13 2,-24 6,-34 4,-10 9,-18 16,-25 6,-7 14,-12 22,-15 9,-3 17,-5 27,-5 6,0 11,0 16,1 5,1 9,2 12,3 4,1 7,2 9,3 2,1 4,2 6,3l-5 13c-4,-2 -8,-4 -14,-6 -6,-2 -13,-3 -21,-3 -10,0 -18,2 -25,5 -7,3 -13,8 -18,14 -5,6 -8,13 -11,21 -2,8 -4,17 -4,27 0,10 1,19 4,27 2,8 6,15 11,21 5,6 10,10 17,13 7,3 15,5 23,5 10,0 18,-1 24,-3 7,-2 11,-4 15,-6l4 13c-1,1 -3,2 -5,3 -2,1 -6,2 -9,3 -4,1 -8,2 -13,3 -5,1 -11,1 -17,1z"/>
					<path id="1" class="fil3" d="M1101 5874c-3,-7 -6,-15 -8,-22 -2,-7 -5,-14 -7,-20l-74 0c-3,7 -5,13 -7,20 -2,7 -5,14 -8,22l-16 0c6,-16 11,-31 16,-44 5,-14 10,-27 15,-39 5,-12 10,-24 15,-35 5,-11 10,-23 15,-34l13 0c5,11 10,23 15,34 5,11 10,23 15,35 5,12 10,25 15,39 5,14 11,29 17,44l-16 0zm-52 -135c-6,13 -11,26 -16,39 -5,13 -11,27 -16,42l65 0c-6,-15 -11,-29 -16,-42 -5,-13 -11,-26 -16,-38z"/>
					<path id="2" class="fil3" d="M1188 5722c4,13 9,25 13,37 4,12 8,23 12,34 4,11 8,22 12,32 4,10 9,21 13,32 5,-11 9,-21 13,-32 4,-11 8,-21 12,-32 4,-11 8,-22 12,-34 4,-12 8,-24 13,-37l16 0c-7,19 -13,36 -18,51 -5,14 -10,28 -15,39 -5,12 -9,23 -13,32 -4,10 -9,20 -13,30l-14 0c-4,-10 -9,-20 -13,-30 -4,-10 -9,-21 -13,-32 -5,-12 -10,-25 -15,-39 -5,-15 -11,-31 -18,-51l17 0z"/>
					<polygon id="3" class="fil3" points="1377,5722 1392,5722 1392,5874 1377,5874 "/>
					<polygon id="4" class="fil3" points="1578,5722 1578,5735 1529,5735 1529,5874 1514,5874 1514,5735 1466,5735 1466,5722 "/>
					<polygon id="5" class="fil3" points="1652,5874 1652,5722 1740,5722 1740,5735 1667,5735 1667,5788 1732,5788 1732,5801 1667,5801 1667,5861 1746,5861 1746,5874 "/>
			</g>
			<g>
					<polygon class="fil3" points="5958,4039 5958,4052 5872,4052 5872,3900 5887,3900 5887,4039 "/>
					<path id="1" class="fil3" d="M6091 4052c-3,-7 -6,-15 -8,-22 -2,-7 -5,-14 -7,-20l-74 0c-3,7 -5,13 -7,20 -2,7 -5,14 -8,22l-16 0c6,-16 11,-31 16,-44 5,-14 10,-27 15,-39 5,-12 10,-24 15,-35 5,-11 10,-23 15,-34l13 0c5,11 10,23 15,34 5,11 10,23 15,35 5,12 10,25 15,39 5,14 11,29 17,44l-16 0zm-52 -135c-6,13 -11,26 -16,39 -5,13 -11,27 -16,42l65 0c-6,-15 -11,-29 -16,-42 -5,-13 -11,-26 -16,-38z"/>
					<path id="2" class="fil3" d="M6274 3980l15 0 0 68c-3,1 -8,3 -16,5 -8,2 -18,3 -30,3 -10,0 -19,-2 -28,-5 -9,-4 -16,-9 -22,-15 -6,-7 -11,-15 -15,-25 -4,-10 -5,-21 -5,-34 0,-13 2,-24 6,-34 4,-10 9,-18 16,-25 7,-7 14,-12 23,-15 9,-4 18,-5 28,-5 11,0 21,1 28,4 7,2 13,5 16,7l-5 13c-4,-3 -10,-5 -17,-7 -7,-2 -15,-3 -23,-3 -8,0 -15,1 -22,4 -7,3 -13,7 -18,13 -5,6 -9,12 -12,21 -3,8 -4,18 -4,29 0,10 1,19 4,27 2,8 6,15 11,21 5,6 11,10 18,13 7,3 15,5 24,5 7,0 14,0 19,-1 5,-1 8,-2 10,-2l0 -59z"/>
					<path id="3" class="fil3" d="M6429 4055c-10,0 -19,-2 -26,-5 -7,-3 -13,-7 -17,-13 -4,-5 -8,-12 -10,-19 -2,-7 -3,-15 -3,-23l0 -96 15 0 0 94c0,8 1,16 3,22 2,6 5,11 8,15 4,4 8,7 13,9 5,2 11,3 17,3 6,0 12,-1 17,-3 5,-2 9,-5 13,-9 4,-4 6,-9 8,-15 2,-6 3,-13 3,-22l0 -94 15 0 0 96c0,8 -1,16 -3,23 -2,7 -5,14 -10,19 -4,5 -10,10 -17,13 -7,3 -16,5 -26,5z"/>
					<path id="4" class="fil3" d="M6678 4052c-3,-5 -6,-11 -11,-18 -4,-7 -9,-14 -14,-22 -5,-8 -11,-16 -16,-24 -6,-8 -11,-16 -17,-24 -6,-8 -11,-15 -17,-22 -5,-7 -10,-13 -14,-18l0 128 -15 0 0 -152 12 0c7,8 16,18 24,29 9,11 17,22 25,33 8,11 16,22 23,33 7,11 13,20 18,28l0 -124 15 0 0 152 -13 0z"/>
					<path id="5" class="fil3" d="M6883 4052c-3,-7 -6,-15 -8,-22 -2,-7 -5,-14 -7,-20l-74 0c-3,7 -5,13 -7,20 -2,7 -5,14 -8,22l-16 0c6,-16 11,-31 16,-44 5,-14 10,-27 15,-39 5,-12 10,-24 15,-35 5,-11 10,-23 15,-34l13 0c5,11 10,23 15,34 5,11 10,23 15,35 5,12 10,25 15,39 5,14 11,29 17,44l-16 0zm-52 -135c-6,13 -11,26 -16,39 -5,13 -11,27 -16,42l65 0c-6,-15 -11,-29 -16,-42 -5,-13 -11,-26 -16,-38z"/>
					<path id="6" class="fil3" d="M5993 4222c0,13 -2,24 -6,34 -4,10 -10,18 -17,24 -7,6 -16,11 -27,15 -10,3 -22,5 -34,5 -6,0 -13,0 -19,-1 -7,-1 -13,-2 -18,-3l0 -147c5,-1 11,-3 18,-3 7,-1 13,-1 19,-1 12,0 24,2 34,5 10,3 19,8 27,15 7,6 13,15 17,24 4,10 6,21 6,34zm-106 63c1,0 3,0 7,1 4,0 9,1 17,1 11,0 21,-2 29,-5 8,-3 15,-7 21,-13 6,-6 10,-12 13,-20 3,-8 4,-17 4,-27 0,-10 -1,-19 -4,-27 -3,-8 -7,-15 -13,-20 -6,-6 -12,-10 -21,-13 -8,-3 -18,-5 -29,-5 -8,0 -14,0 -17,1 -4,0 -6,1 -7,1l0 126z"/>
					<polygon id="7" class="fil3" points="6076,4299 6076,4146 6164,4146 6164,4159 6091,4159 6091,4212 6156,4212 6156,4225 6091,4225 6091,4286 6170,4286 6170,4299 "/>
					<path id="8" class="fil3" d="M6385 4300c-2,0 -5,0 -9,0 -3,0 -7,-1 -10,-1 -3,0 -7,-1 -10,-1 -3,-1 -6,-1 -8,-2l0 -147c3,-1 6,-1 9,-2 3,-1 7,-1 10,-1 3,0 7,-1 10,-1 3,0 6,0 9,0 8,0 16,1 23,2 7,1 14,4 19,7 6,3 10,7 13,12 3,5 5,11 5,19 0,8 -2,15 -6,21 -4,6 -10,10 -17,12 4,1 8,2 12,4 4,2 7,4 10,7 3,3 5,7 6,11 2,4 2,9 2,16 0,14 -6,25 -17,33 -11,8 -29,11 -53,11zm-22 -75l0 60c2,0 6,1 10,1 4,0 9,1 13,1 7,0 13,0 20,-1 6,-1 12,-2 17,-5 5,-2 9,-6 12,-10 3,-4 4,-9 4,-16 0,-6 -1,-11 -3,-15 -2,-4 -5,-7 -9,-9 -4,-2 -8,-4 -14,-5 -5,-1 -12,-1 -18,-1l-32 0zm0 -13l29 0c5,0 11,0 15,-1 5,-1 9,-2 13,-4 4,-2 6,-5 8,-9 2,-4 3,-8 3,-14 0,-5 -1,-9 -3,-13 -2,-3 -5,-6 -9,-8 -4,-2 -9,-4 -14,-5 -6,-1 -12,-1 -18,-1 -5,0 -10,0 -14,0 -4,0 -7,1 -9,1l0 53z"/>
					<path id="9" class="fil3" d="M6640 4299c-3,-7 -6,-15 -8,-22 -2,-7 -5,-14 -7,-20l-74 0c-3,7 -5,13 -7,20 -2,7 -5,14 -8,22l-16 0c6,-16 11,-31 16,-44 5,-14 10,-27 15,-39 5,-12 10,-24 15,-35 5,-11 10,-23 15,-34l13 0c5,11 10,23 15,34 5,11 10,23 15,35 5,12 10,25 15,39 5,14 11,29 17,44l-16 0zm-52 -135c-6,13 -11,26 -16,39 -5,13 -11,27 -16,42l65 0c-6,-15 -11,-29 -16,-42 -5,-13 -11,-26 -16,-38z"/>
					<path id="10" class="fil3" d="M6764 4299l0 -63c-10,-16 -20,-31 -29,-46 -9,-15 -17,-29 -24,-43l17 0c6,13 13,26 20,39 7,13 15,26 23,38 8,-12 15,-25 23,-38 7,-13 14,-26 21,-39l16 0c-8,14 -16,28 -25,43 -9,15 -18,30 -28,46l0 63 -15 0z"/>
			</g>
			
			<g>
					<path class="fil4" d="M4022 5536c-1,-4 -3,-8 -6,-13 -2,-5 -5,-11 -8,-18 -3,-6 -6,-13 -9,-19 -3,-7 -6,-13 -9,-19 -3,-6 -5,-11 -8,-16 -2,-5 -4,-8 -6,-11 -2,17 -3,36 -4,56 -1,20 -2,41 -3,61l-21 0c1,-13 1,-27 2,-40 1,-13 2,-27 3,-40 1,-13 2,-26 3,-38 1,-12 2,-24 4,-35l19 0c4,6 8,14 13,23 5,9 9,18 14,28 5,10 9,19 13,29 4,10 8,18 12,26 4,-8 7,-17 12,-26 4,-10 9,-19 13,-29 5,-10 9,-19 14,-28 5,-9 9,-16 13,-23l19 0c5,49 9,100 11,152l-21 0c-1,-21 -2,-41 -3,-61 -1,-20 -2,-39 -4,-56 -1,2 -3,6 -6,11 -2,5 -5,10 -8,16 -3,6 -6,12 -9,19 -3,7 -6,13 -9,19 -3,6 -5,12 -8,18 -2,5 -4,10 -6,13l-17 0z"/>
					<path id="1" class="fil4" d="M4210 5561c-11,0 -20,-2 -29,-5 -9,-4 -16,-9 -23,-15 -6,-7 -11,-15 -15,-25 -3,-10 -5,-21 -5,-34 0,-13 2,-24 6,-34 4,-10 9,-18 16,-25 7,-7 14,-12 23,-15 9,-4 18,-5 28,-5 6,0 12,0 17,1 5,1 9,2 13,3 4,1 7,2 9,4 2,1 4,2 5,3l-6 18c-1,-1 -3,-2 -6,-3 -2,-1 -5,-2 -8,-3 -3,-1 -7,-2 -10,-3 -4,-1 -8,-1 -11,-1 -8,0 -15,1 -22,4 -6,3 -12,7 -16,12 -5,5 -8,12 -10,19 -2,8 -4,16 -4,25 0,9 1,17 3,25 2,7 5,14 10,19 4,5 10,9 16,12 6,3 14,4 22,4 10,0 18,-1 24,-3 6,-2 11,-4 15,-5l6 18c-1,1 -3,2 -6,3 -3,1 -6,2 -10,3 -4,1 -9,2 -14,3 -5,1 -11,1 -17,1z"/>
					<path id="2" class="fil4" d="M4376 5557c-2,-4 -5,-9 -8,-15 -3,-5 -6,-11 -10,-17 -4,-6 -7,-12 -11,-17 -4,-6 -8,-11 -11,-16 -4,5 -7,11 -11,16 -4,6 -8,12 -11,17 -4,6 -7,11 -10,17 -3,5 -6,10 -8,15l-24 0c7,-13 14,-26 23,-39 9,-13 18,-27 28,-41l-49 -72 25 0 38 57 37 -57 24 0 -48 71c10,14 19,28 28,42 9,13 17,27 23,40l-24 0z"/>
			</g>
		</g>
		<g class="text major_roads">
			<g>
					<path class="fil5" d="M5291 429c22,0 33,-8 33,-23 0,-5 -1,-9 -3,-12 -2,-3 -5,-6 -8,-9 -3,-2 -7,-5 -12,-6 -4,-2 -9,-4 -14,-5 -6,-2 -11,-4 -16,-6 -5,-2 -9,-5 -13,-9 -4,-3 -7,-7 -9,-12 -2,-5 -3,-10 -3,-16 0,-13 5,-24 14,-31 9,-7 22,-11 38,-11 9,0 18,1 25,3 8,2 13,4 17,6l-7 17c-3,-2 -8,-4 -14,-6 -6,-2 -13,-3 -21,-3 -4,0 -8,0 -11,1 -4,1 -7,2 -9,4 -3,2 -5,4 -6,7 -2,3 -2,6 -2,10 0,4 1,8 2,10 2,3 4,5 7,7 3,2 6,4 10,6 4,2 8,4 13,5 7,3 13,5 18,8 5,3 10,6 14,9 4,4 7,8 9,13 2,5 3,11 3,18 0,13 -5,24 -15,31 -10,7 -23,11 -41,11 -6,0 -12,0 -17,-1 -5,-1 -10,-2 -14,-3 -4,-1 -7,-2 -10,-4 -3,-1 -5,-2 -7,-3l6 -18c3,2 9,4 15,6 7,2 15,4 25,4z"/>
					<polygon id="1" class="fil5" points="5515,425 5515,444 5423,444 5423,292 5445,292 5445,425 "/>
					<polygon id="2" class="fil5" points="5588,444 5588,292 5681,292 5681,310 5610,310 5610,355 5673,355 5673,373 5610,373 5610,426 5687,426 5687,444 "/>
					<path id="3" class="fil5" d="M5856 444c-2,-4 -5,-9 -8,-15 -3,-5 -6,-11 -10,-17 -4,-6 -7,-12 -11,-17 -4,-6 -8,-11 -11,-16 -4,5 -7,11 -11,16 -4,6 -8,12 -11,17 -4,6 -7,11 -10,17 -3,5 -6,10 -8,15l-24 0c7,-13 14,-26 23,-39 9,-13 18,-27 28,-41l-49 -72 25 0 38 57 37 -57 24 0 -48 71c10,14 19,28 28,42 9,13 17,27 23,40l-24 0z"/>
			</g>
			<g>
					<path class="fil6" d="M4154 964c-1,-4 -3,-8 -6,-13 -2,-5 -5,-11 -8,-18 -3,-6 -6,-13 -9,-19 -3,-7 -6,-13 -9,-19 -3,-6 -5,-11 -8,-16 -2,-5 -4,-8 -6,-11 -2,17 -3,36 -4,56 -1,20 -2,41 -3,61l-21 0c1,-13 1,-27 2,-40 1,-13 2,-27 3,-40 1,-13 2,-26 3,-38 1,-12 2,-24 4,-35l19 0c4,6 8,14 13,23 5,9 9,18 14,28 5,10 9,19 13,29 4,10 8,18 12,26 4,-8 7,-17 12,-26 4,-10 9,-19 13,-29 5,-10 9,-19 14,-28 5,-9 9,-16 13,-23l19 0c5,49 9,100 11,152l-21 0c-1,-21 -2,-41 -3,-61 -1,-20 -2,-39 -4,-56 -1,2 -3,6 -6,11 -2,5 -5,10 -8,16 -3,6 -6,12 -9,19 -3,7 -6,13 -9,19 -3,6 -5,12 -8,18 -2,5 -4,10 -6,13l-17 0z"/>
					<path id="1" class="fil6" d="M4269 928c0,-10 1,-19 4,-27 3,-8 7,-14 12,-19 5,-5 10,-9 17,-11 6,-2 13,-4 19,-4 15,0 27,5 35,14 8,10 12,24 12,44 0,1 0,2 0,3 0,1 0,3 0,4l-78 0c1,12 4,21 10,27 6,6 15,9 28,9 7,0 13,-1 18,-2 5,-1 9,-2 11,-4l3 17c-2,1 -7,3 -13,4 -6,1 -13,2 -21,2 -10,0 -19,-2 -26,-5 -7,-3 -13,-7 -18,-12 -5,-5 -8,-12 -10,-19 -2,-7 -3,-15 -3,-24zm79 -11c0,-9 -2,-17 -7,-23 -5,-6 -11,-9 -20,-9 -5,0 -9,1 -12,3 -4,2 -7,4 -9,7 -2,3 -4,6 -6,10 -1,4 -2,8 -3,12l57 0z"/>
					<path id="2" class="fil6" d="M4418 870l43 0 0 17 -43 0 0 53c0,6 0,10 1,14 1,4 2,7 4,9 2,2 4,4 7,5 3,1 6,1 9,1 6,0 11,-1 15,-2 4,-1 6,-2 8,-3l4 17c-2,1 -6,2 -11,4 -5,2 -11,2 -18,2 -8,0 -14,-1 -19,-3 -5,-2 -9,-5 -12,-9 -3,-4 -5,-9 -6,-15 -1,-6 -2,-13 -2,-20l0 -102 20 -4 0 35z"/>
					<path id="3" class="fil6" d="M4529 868c2,0 4,0 6,0 2,0 5,1 7,1 2,0 4,1 6,1 2,0 3,1 4,1l-4 18c-2,-1 -4,-1 -8,-2 -4,-1 -9,-1 -14,-1 -4,0 -8,0 -11,1 -4,1 -6,1 -7,2l0 96 -20 0 0 -110c5,-2 11,-3 18,-5 7,-2 15,-2 24,-2z"/>
					<path id="4" class="fil6" d="M4673 928c0,9 -1,17 -4,25 -3,7 -6,14 -11,19 -5,5 -10,9 -17,12 -7,3 -14,4 -22,4 -8,0 -15,-1 -22,-4 -7,-3 -12,-7 -17,-12 -5,-5 -8,-12 -11,-19 -3,-7 -4,-16 -4,-25 0,-9 1,-17 4,-25 3,-7 6,-14 11,-19 5,-5 10,-9 17,-12 7,-3 14,-4 22,-4 8,0 15,1 22,4 7,3 12,7 17,12 5,5 8,12 11,19 3,7 4,16 4,25zm-21 0c0,-13 -3,-23 -9,-31 -6,-8 -14,-11 -24,-11 -10,0 -18,4 -24,11 -6,8 -9,18 -9,31 0,13 3,23 9,31 6,8 14,11 24,11 10,0 18,-4 24,-11 6,-8 9,-18 9,-31z"/>
					<path id="5" class="fil6" d="M4154 1210c-1,-4 -3,-8 -6,-13 -2,-5 -5,-11 -8,-18 -3,-6 -6,-13 -9,-19 -3,-7 -6,-13 -9,-19 -3,-6 -5,-11 -8,-16 -2,-5 -4,-8 -6,-11 -2,17 -3,36 -4,56 -1,20 -2,41 -3,61l-21 0c1,-13 1,-27 2,-40 1,-13 2,-27 3,-40 1,-13 2,-26 3,-38 1,-12 2,-24 4,-35l19 0c4,6 8,14 13,23 5,9 9,18 14,28 5,10 9,19 13,29 4,10 8,18 12,26 4,-8 7,-17 12,-26 4,-10 9,-19 13,-29 5,-10 9,-19 14,-28 5,-9 9,-16 13,-23l19 0c5,49 9,100 11,152l-21 0c-1,-21 -2,-41 -3,-61 -1,-20 -2,-39 -4,-56 -1,2 -3,6 -6,11 -2,5 -5,10 -8,16 -3,6 -6,12 -9,19 -3,7 -6,13 -9,19 -3,6 -5,12 -8,18 -2,5 -4,10 -6,13l-17 0z"/>
					<path id="6" class="fil6" d="M4314 1217c5,0 9,0 13,0 4,0 7,-1 9,-1l0 -34c-1,-1 -4,-1 -7,-2 -3,-1 -7,-1 -12,-1 -3,0 -6,0 -10,1 -3,0 -7,1 -9,3 -3,1 -5,3 -7,6 -2,2 -3,6 -3,10 0,7 2,12 7,15 5,3 11,4 19,4zm-2 -102c8,0 15,1 21,3 6,2 10,5 14,9 3,4 6,9 7,14 1,5 2,11 2,18l0 71c-2,0 -4,1 -7,1 -3,1 -7,1 -11,1 -4,0 -8,1 -13,1 -5,0 -9,1 -14,1 -6,0 -12,-1 -18,-2 -5,-1 -10,-3 -14,-6 -4,-3 -7,-7 -9,-11 -2,-5 -3,-10 -3,-17 0,-6 1,-12 4,-16 3,-5 6,-8 10,-11 4,-3 10,-5 15,-6 6,-1 12,-2 18,-2 2,0 4,0 6,0 2,0 4,1 6,1 2,0 4,1 5,1 1,0 2,1 3,1l0 -6c0,-3 0,-7 -1,-10 -1,-3 -2,-6 -4,-9 -2,-3 -5,-5 -8,-6 -3,-2 -8,-2 -13,-2 -7,0 -13,0 -18,1 -5,1 -9,2 -11,3l-2 -17c3,-1 7,-2 13,-3 6,-1 13,-2 20,-2z"/>
					<path id="7" class="fil6" d="M4391 1120c5,-1 11,-2 19,-4 8,-1 17,-2 27,-2 9,0 17,1 23,4 6,3 11,6 14,11 4,5 6,10 8,17 1,6 2,14 2,21l0 64 -20 0 0 -60c0,-7 0,-13 -1,-18 -1,-5 -3,-9 -5,-12 -2,-3 -5,-5 -9,-7 -4,-1 -8,-2 -14,-2 -2,0 -4,0 -7,0 -2,0 -5,0 -7,1 -2,0 -4,0 -6,1 -2,0 -3,1 -4,1l0 97 -20 0 0 -111z"/>
					<path id="8" class="fil6" d="M4537 1231l-20 0 0 -114 20 0 0 114zm-10 -135c-4,0 -7,-1 -9,-4 -3,-2 -4,-6 -4,-10 0,-4 1,-7 4,-10 3,-2 6,-4 9,-4 4,0 7,1 9,4 3,2 4,6 4,10 0,4 -1,7 -4,10 -3,2 -6,4 -9,4z"/>
					<path id="9" class="fil6" d="M4607 1234c-13,0 -22,-3 -27,-8 -5,-5 -8,-13 -8,-24l0 -137 20 -4 0 137c0,3 0,6 1,8 1,2 2,4 3,5 1,1 3,2 5,3 2,1 5,1 8,2l-3 17z"/>
					<path id="10" class="fil6" d="M4671 1217c5,0 9,0 13,0 4,0 7,-1 9,-1l0 -34c-1,-1 -4,-1 -7,-2 -3,-1 -7,-1 -12,-1 -3,0 -6,0 -10,1 -3,0 -7,1 -9,3 -3,1 -5,3 -7,6 -2,2 -3,6 -3,10 0,7 2,12 7,15 5,3 11,4 19,4zm-2 -102c8,0 15,1 21,3 6,2 10,5 14,9 3,4 6,9 7,14 1,5 2,11 2,18l0 71c-2,0 -4,1 -7,1 -3,1 -7,1 -11,1 -4,0 -8,1 -13,1 -5,0 -9,1 -14,1 -6,0 -12,-1 -18,-2 -5,-1 -10,-3 -14,-6 -4,-3 -7,-7 -9,-11 -2,-5 -3,-10 -3,-17 0,-6 1,-12 4,-16 3,-5 6,-8 10,-11 4,-3 10,-5 15,-6 6,-1 12,-2 18,-2 2,0 4,0 6,0 2,0 4,1 6,1 2,0 4,1 5,1 1,0 2,1 3,1l0 -6c0,-3 0,-7 -1,-10 -1,-3 -2,-6 -4,-9 -2,-3 -5,-5 -8,-6 -3,-2 -8,-2 -13,-2 -7,0 -13,0 -18,1 -5,1 -9,2 -11,3l-2 -17c3,-1 7,-2 13,-3 6,-1 13,-2 20,-2z"/>
					<path id="11" class="fil6" d="M4121 1463c22,0 33,-8 33,-23 0,-5 -1,-9 -3,-12 -2,-3 -5,-6 -8,-9 -3,-2 -7,-5 -12,-6 -4,-2 -9,-4 -14,-5 -6,-2 -11,-4 -16,-6 -5,-2 -9,-5 -13,-9 -4,-3 -7,-7 -9,-12 -2,-5 -3,-10 -3,-16 0,-13 5,-24 14,-31 9,-7 22,-11 38,-11 9,0 18,1 25,3 8,2 13,4 17,6l-7 17c-3,-2 -8,-4 -14,-6 -6,-2 -13,-3 -21,-3 -4,0 -8,0 -11,1 -4,1 -7,2 -9,4 -3,2 -5,4 -6,7 -2,3 -2,6 -2,10 0,4 1,8 2,10 2,3 4,5 7,7 3,2 6,4 10,6 4,2 8,4 13,5 7,3 13,5 18,8 5,3 10,6 14,9 4,4 7,8 9,13 2,5 3,11 3,18 0,13 -5,24 -15,31 -10,7 -23,11 -41,11 -6,0 -12,0 -17,-1 -5,-1 -10,-2 -14,-3 -4,-1 -7,-2 -10,-4 -3,-1 -5,-2 -7,-3l6 -18c3,2 9,4 15,6 7,2 15,4 25,4z"/>
					<path id="12" class="fil6" d="M4242 1415c4,3 9,8 14,13 5,5 10,10 15,16 5,6 9,12 14,18 4,6 8,11 11,17l-24 0c-3,-5 -7,-10 -11,-16 -4,-5 -8,-10 -13,-15 -4,-5 -9,-9 -13,-14 -5,-4 -9,-8 -13,-10l0 55 -20 0 0 -167 20 -4 0 104c4,-4 7,-7 12,-12 4,-4 8,-9 13,-13 4,-4 8,-9 12,-13 4,-4 7,-8 9,-11l24 0c-3,4 -7,8 -11,12 -4,4 -8,9 -12,13 -4,4 -9,9 -13,13 -4,4 -8,9 -12,13z"/>
					<path id="13" class="fil6" d="M4303 1499c2,1 4,1 6,2 3,1 5,1 8,1 8,0 14,-2 19,-5 5,-4 9,-9 12,-17 -9,-18 -18,-36 -26,-56 -8,-20 -15,-40 -20,-60l22 0c2,7 4,14 6,21 2,8 5,15 8,24 3,8 6,16 9,24 3,8 7,16 10,23 6,-15 10,-31 15,-46 4,-15 8,-31 12,-47l21 0c-5,22 -11,42 -18,62 -6,20 -13,38 -21,56 -3,7 -6,12 -9,17 -3,5 -7,9 -10,12 -4,3 -8,5 -13,7 -5,1 -10,2 -16,2 -2,0 -3,0 -5,0 -2,0 -3,-1 -5,-1 -2,0 -3,-1 -5,-1 -1,0 -2,-1 -3,-1l4 -16z"/>
					<path id="14" class="fil6" d="M4519 1478c-4,-11 -8,-23 -13,-36 -5,-14 -9,-28 -13,-42 -4,15 -8,29 -13,42 -5,14 -9,26 -13,36l-18 0c-7,-15 -13,-32 -20,-52 -6,-19 -13,-40 -18,-63l22 0c1,7 3,14 5,22 2,8 4,16 6,24 2,8 5,16 7,23 2,7 5,14 7,20 2,-7 5,-14 7,-22 2,-8 5,-15 7,-23 2,-8 4,-16 6,-23 2,-8 4,-15 5,-21l17 0c1,7 3,14 5,21 2,8 4,15 6,23 2,8 5,16 7,23 2,8 5,15 7,22 2,-6 5,-12 7,-20 2,-7 5,-15 7,-23 2,-8 5,-16 7,-24 2,-8 4,-16 5,-22l21 0c-6,22 -12,43 -18,63 -6,19 -13,37 -20,52l-18 0z"/>
					<path id="15" class="fil6" d="M4635 1463c5,0 9,0 13,0 4,0 7,-1 9,-1l0 -34c-1,-1 -4,-1 -7,-2 -3,-1 -7,-1 -12,-1 -3,0 -6,0 -10,1 -3,0 -7,1 -9,3 -3,1 -5,3 -7,6 -2,2 -3,6 -3,10 0,7 2,12 7,15 5,3 11,4 19,4zm-2 -102c8,0 15,1 21,3 6,2 10,5 14,9 3,4 6,9 7,14 1,5 2,11 2,18l0 71c-2,0 -4,1 -7,1 -3,1 -7,1 -11,1 -4,0 -8,1 -13,1 -5,0 -9,1 -14,1 -6,0 -12,-1 -18,-2 -5,-1 -10,-3 -14,-6 -4,-3 -7,-7 -9,-11 -2,-5 -3,-10 -3,-17 0,-6 1,-12 4,-16 3,-5 6,-8 10,-11 4,-3 10,-5 15,-6 6,-1 12,-2 18,-2 2,0 4,0 6,0 2,0 4,1 6,1 2,0 4,1 5,1 1,0 2,1 3,1l0 -6c0,-3 0,-7 -1,-10 -1,-3 -2,-6 -4,-9 -2,-3 -5,-5 -8,-6 -3,-2 -8,-2 -13,-2 -7,0 -13,0 -18,1 -5,1 -9,2 -11,3l-2 -17c3,-1 7,-2 13,-3 6,-1 13,-2 20,-2z"/>
					<path id="16" class="fil6" d="M4694 1499c2,1 4,1 6,2 3,1 5,1 8,1 8,0 14,-2 19,-5 5,-4 9,-9 12,-17 -9,-18 -18,-36 -26,-56 -8,-20 -15,-40 -20,-60l22 0c2,7 4,14 6,21 2,8 5,15 8,24 3,8 6,16 9,24 3,8 7,16 10,23 6,-15 10,-31 15,-46 4,-15 8,-31 12,-47l21 0c-5,22 -11,42 -18,62 -6,20 -13,38 -21,56 -3,7 -6,12 -9,17 -3,5 -7,9 -10,12 -4,3 -8,5 -13,7 -5,1 -10,2 -16,2 -2,0 -3,0 -5,0 -2,0 -3,-1 -5,-1 -2,0 -3,-1 -5,-1 -1,0 -2,-1 -3,-1l4 -16z"/>
			</g>
			<g>
					<path class="fil7" d="M2159 3159c-2,-7 -5,-13 -7,-19 -2,-6 -4,-13 -7,-19l-69 0 -14 39 -22 0c6,-16 11,-31 16,-45 5,-14 10,-27 15,-39 5,-12 10,-24 15,-35 5,-11 10,-22 15,-33l20 0c5,11 10,22 15,33 5,11 10,23 15,35 5,12 10,25 15,39 5,14 11,29 16,45l-23 0zm-20 -57c-5,-13 -9,-25 -14,-37 -5,-12 -9,-23 -14,-34 -5,11 -10,22 -15,34 -5,12 -9,24 -14,37l57 0z"/>
					<path id="1" class="fil7" d="M2236 3161c-13,0 -22,-3 -27,-8 -5,-5 -8,-13 -8,-24l0 -137 20 -4 0 137c0,3 0,6 1,8 1,2 2,4 3,5 1,1 3,2 5,3 2,1 5,1 8,2l-3 17z"/>
					<path id="2" class="fil7" d="M2300 3144c5,0 9,0 13,0 4,0 7,-1 9,-1l0 -34c-1,-1 -4,-1 -7,-2 -3,-1 -7,-1 -12,-1 -3,0 -6,0 -10,1 -3,0 -7,1 -9,3 -3,1 -5,3 -7,6 -2,2 -3,6 -3,10 0,7 2,12 7,15 5,3 11,4 19,4zm-2 -102c8,0 15,1 21,3 6,2 10,5 14,9 3,4 6,9 7,14 1,5 2,11 2,18l0 71c-2,0 -4,1 -7,1 -3,1 -7,1 -11,1 -4,0 -8,1 -13,1 -5,0 -9,1 -14,1 -6,0 -12,-1 -18,-2 -5,-1 -10,-3 -14,-6 -4,-3 -7,-7 -9,-11 -2,-5 -3,-10 -3,-17 0,-6 1,-12 4,-16 3,-5 6,-8 10,-11 4,-3 10,-5 15,-6 6,-1 12,-2 18,-2 2,0 4,0 6,0 2,0 4,1 6,1 2,0 4,1 5,1 1,0 2,1 3,1l0 -6c0,-3 0,-7 -1,-10 -1,-3 -2,-6 -4,-9 -2,-3 -5,-5 -8,-6 -3,-2 -8,-2 -13,-2 -7,0 -13,0 -18,1 -5,1 -9,2 -11,3l-2 -17c3,-1 7,-2 13,-3 6,-1 13,-2 20,-2z"/>
					<path id="3" class="fil7" d="M2397 3050c2,-2 6,-3 11,-5 5,-2 11,-3 17,-3 8,0 16,1 22,4 6,3 12,7 16,12 4,5 8,12 10,19 2,7 3,15 3,24 0,9 -1,18 -4,25 -3,7 -7,14 -12,19 -5,5 -11,9 -18,12 -7,3 -15,4 -24,4 -10,0 -18,-1 -25,-2 -7,-1 -13,-3 -18,-4l0 -164 20 -4 0 61zm0 92c2,1 5,1 9,2 4,1 8,1 14,1 11,0 20,-4 26,-11 7,-7 10,-18 10,-31 0,-6 -1,-11 -2,-16 -1,-5 -3,-10 -6,-13 -3,-4 -6,-7 -10,-9 -4,-2 -9,-3 -15,-3 -6,0 -11,1 -15,3 -5,2 -8,4 -11,6l0 72z"/>
					<path id="4" class="fil7" d="M2545 3144c5,0 9,0 13,0 4,0 7,-1 9,-1l0 -34c-1,-1 -4,-1 -7,-2 -3,-1 -7,-1 -12,-1 -3,0 -6,0 -10,1 -3,0 -7,1 -9,3 -3,1 -5,3 -7,6 -2,2 -3,6 -3,10 0,7 2,12 7,15 5,3 11,4 19,4zm-2 -102c8,0 15,1 21,3 6,2 10,5 14,9 3,4 6,9 7,14 1,5 2,11 2,18l0 71c-2,0 -4,1 -7,1 -3,1 -7,1 -11,1 -4,0 -8,1 -13,1 -5,0 -9,1 -14,1 -6,0 -12,-1 -18,-2 -5,-1 -10,-3 -14,-6 -4,-3 -7,-7 -9,-11 -2,-5 -3,-10 -3,-17 0,-6 1,-12 4,-16 3,-5 6,-8 10,-11 4,-3 10,-5 15,-6 6,-1 12,-2 18,-2 2,0 4,0 6,0 2,0 4,1 6,1 2,0 4,1 5,1 1,0 2,1 3,1l0 -6c0,-3 0,-7 -1,-10 -1,-3 -2,-6 -4,-9 -2,-3 -5,-5 -8,-6 -3,-2 -8,-2 -13,-2 -7,0 -13,0 -18,1 -5,1 -9,2 -11,3l-2 -17c3,-1 7,-2 13,-3 6,-1 13,-2 20,-2z"/>
					<path id="5" class="fil7" d="M2621 3048c5,-1 11,-2 19,-4 8,-1 17,-2 27,-2 9,0 17,1 23,4 6,3 11,6 14,11 4,5 6,10 8,17 1,6 2,14 2,21l0 64 -20 0 0 -60c0,-7 0,-13 -1,-18 -1,-5 -3,-9 -5,-12 -2,-3 -5,-5 -9,-7 -4,-1 -8,-2 -14,-2 -2,0 -4,0 -7,0 -2,0 -5,0 -7,1 -2,0 -4,0 -6,1 -2,0 -3,1 -4,1l0 97 -20 0 0 -111z"/>
					<path id="6" class="fil7" d="M2819 3148c-2,1 -5,3 -10,5 -5,2 -11,3 -18,3 -7,0 -13,-1 -19,-3 -6,-2 -11,-6 -16,-10 -5,-5 -8,-10 -11,-17 -3,-7 -4,-15 -4,-25 0,-8 1,-16 4,-23 2,-7 6,-13 11,-18 5,-5 11,-9 17,-12 7,-3 15,-4 23,-4 10,0 18,1 25,2 7,1 13,3 18,4l0 102c0,18 -5,30 -14,38 -9,8 -23,12 -41,12 -7,0 -14,-1 -20,-2 -6,-1 -12,-3 -17,-4l4 -18c4,2 9,3 15,4 6,1 12,2 19,2 12,0 21,-2 26,-7 5,-5 8,-13 8,-23l0 -5zm0 -85c-2,-1 -5,-1 -8,-2 -3,-1 -8,-1 -14,-1 -11,0 -19,4 -25,11 -6,7 -9,17 -9,29 0,7 1,12 3,17 2,5 4,9 7,12 3,3 6,5 10,7 4,1 8,2 12,2 5,0 10,-1 15,-2 5,-2 8,-3 11,-5l0 -67z"/>
					<polygon id="7" class="fil7" points="2862,3084 2917,3084 2917,3103 2862,3103 "/>
					<path id="8" class="fil7" d="M2154 3270c-3,4 -7,8 -12,14 -4,5 -9,11 -14,18 -5,7 -10,13 -15,21 -5,7 -10,15 -16,22 -5,7 -10,15 -14,22 -5,7 -9,14 -12,21l86 0 0 18 -111 0 0 -14c3,-6 7,-12 11,-19 4,-7 9,-14 13,-22 5,-7 10,-15 15,-22 5,-7 10,-15 15,-22 5,-7 10,-13 15,-19 5,-6 9,-11 13,-16l-78 0 0 -18 104 0 0 17z"/>
					<path id="9" class="fil7" d="M2220 3391c5,0 9,0 13,0 4,0 7,-1 9,-1l0 -34c-1,-1 -4,-1 -7,-2 -3,-1 -7,-1 -12,-1 -3,0 -6,0 -10,1 -3,0 -7,1 -9,3 -3,1 -5,3 -7,6 -2,2 -3,6 -3,10 0,7 2,12 7,15 5,3 11,4 19,4zm-2 -102c8,0 15,1 21,3 6,2 10,5 14,9 3,4 6,9 7,14 1,5 2,11 2,18l0 71c-2,0 -4,1 -7,1 -3,1 -7,1 -11,1 -4,0 -8,1 -13,1 -5,0 -9,1 -14,1 -6,0 -12,-1 -18,-2 -5,-1 -10,-3 -14,-6 -4,-3 -7,-7 -9,-11 -2,-5 -3,-10 -3,-17 0,-6 1,-12 4,-16 3,-5 6,-8 10,-11 4,-3 10,-5 15,-6 6,-1 12,-2 18,-2 2,0 4,0 6,0 2,0 4,1 6,1 2,0 4,1 5,1 1,0 2,1 3,1l0 -6c0,-3 0,-7 -1,-10 -1,-3 -2,-6 -4,-9 -2,-3 -5,-5 -8,-6 -3,-2 -8,-2 -13,-2 -7,0 -13,0 -18,1 -5,1 -9,2 -11,3l-2 -17c3,-1 7,-2 13,-3 6,-1 13,-2 20,-2z"/>
					<path id="10" class="fil7" d="M2376 3349c0,-13 -3,-24 -10,-31 -7,-7 -15,-11 -26,-11 -6,0 -11,0 -14,1 -3,0 -6,1 -8,2l0 72c2,2 6,4 11,6 5,2 10,3 15,3 6,0 11,-1 15,-3 4,-2 8,-5 10,-9 3,-4 5,-8 6,-13 1,-5 2,-11 2,-16zm21 0c0,9 -1,17 -3,24 -2,7 -6,14 -10,19 -4,5 -10,9 -16,12 -6,3 -14,4 -22,4 -7,0 -12,-1 -17,-3 -5,-2 -9,-3 -11,-5l0 46 -20 0 0 -152c5,-1 11,-2 18,-4 7,-1 16,-2 25,-2 9,0 17,1 24,4 7,3 13,7 18,12 5,5 9,11 12,19 3,7 4,16 4,25z"/>
					<path id="11" class="fil7" d="M2527 3349c0,9 -1,17 -4,25 -3,7 -6,14 -11,19 -5,5 -10,9 -17,12 -7,3 -14,4 -22,4 -8,0 -15,-1 -22,-4 -7,-3 -12,-7 -17,-12 -5,-5 -8,-12 -11,-19 -3,-7 -4,-16 -4,-25 0,-9 1,-17 4,-25 3,-7 6,-14 11,-19 5,-5 10,-9 17,-12 7,-3 14,-4 22,-4 8,0 15,1 22,4 7,3 12,7 17,12 5,5 8,12 11,19 3,7 4,16 4,25zm-21 0c0,-13 -3,-23 -9,-31 -6,-8 -14,-11 -24,-11 -10,0 -18,4 -24,11 -6,8 -9,18 -9,31 0,13 3,23 9,31 6,8 14,11 24,11 10,0 18,-4 24,-11 6,-8 9,-18 9,-31z"/>
					<path id="12" class="fil7" d="M2575 3291l43 0 0 17 -43 0 0 53c0,6 0,10 1,14 1,4 2,7 4,9 2,2 4,4 7,5 3,1 6,1 9,1 6,0 11,-1 15,-2 4,-1 6,-2 8,-3l4 17c-2,1 -6,2 -11,4 -5,2 -11,2 -18,2 -8,0 -14,-1 -19,-3 -5,-2 -9,-5 -12,-9 -3,-4 -5,-9 -6,-15 -1,-6 -2,-13 -2,-20l0 -102 20 -4 0 35z"/>
					<path id="13" class="fil7" d="M2636 3349c0,-10 1,-19 4,-27 3,-8 7,-14 12,-19 5,-5 10,-9 17,-11 6,-2 13,-4 19,-4 15,0 27,5 35,14 8,10 12,24 12,44 0,1 0,2 0,3 0,1 0,3 0,4l-78 0c1,12 4,21 10,27 6,6 15,9 28,9 7,0 13,-1 18,-2 5,-1 9,-2 11,-4l3 17c-2,1 -7,3 -13,4 -6,1 -13,2 -21,2 -10,0 -19,-2 -26,-5 -7,-3 -13,-7 -18,-12 -5,-5 -8,-12 -10,-19 -2,-7 -3,-15 -3,-24zm79 -11c0,-9 -2,-17 -7,-23 -5,-6 -11,-9 -20,-9 -5,0 -9,1 -12,3 -4,2 -7,4 -9,7 -2,3 -4,6 -6,10 -1,4 -2,8 -3,12l57 0z"/>
					<path id="14" class="fil7" d="M2892 3342c2,3 5,7 9,12 4,5 7,10 11,16 4,6 8,12 11,18 4,6 7,12 10,18l-23 0c-3,-6 -6,-11 -10,-17 -3,-6 -7,-11 -10,-16 -4,-5 -7,-10 -10,-15 -3,-5 -7,-9 -9,-12 -2,0 -4,0 -6,0 -2,0 -4,0 -6,0l-19 0 0 60 -21 0 0 -150c6,-1 13,-2 20,-3 7,-1 14,-1 20,-1 21,0 38,4 49,12 11,8 17,20 17,36 0,10 -3,19 -8,26 -5,7 -13,13 -24,16zm-32 -71c-9,0 -16,0 -21,1l0 57 15 0c7,0 14,0 20,-1 6,-1 11,-2 15,-4 4,-2 7,-5 9,-9 2,-4 3,-9 3,-15 0,-6 -1,-10 -3,-14 -2,-4 -5,-7 -9,-9 -4,-2 -8,-4 -13,-5 -5,-1 -10,-1 -16,-1z"/>
					<path id="15" class="fil7" d="M3055 3349c0,9 -1,17 -4,25 -3,7 -6,14 -11,19 -5,5 -10,9 -17,12 -7,3 -14,4 -22,4 -8,0 -15,-1 -22,-4 -7,-3 -12,-7 -17,-12 -5,-5 -8,-12 -11,-19 -3,-7 -4,-16 -4,-25 0,-9 1,-17 4,-25 3,-7 6,-14 11,-19 5,-5 10,-9 17,-12 7,-3 14,-4 22,-4 8,0 15,1 22,4 7,3 12,7 17,12 5,5 8,12 11,19 3,7 4,16 4,25zm-21 0c0,-13 -3,-23 -9,-31 -6,-8 -14,-11 -24,-11 -10,0 -18,4 -24,11 -6,8 -9,18 -9,31 0,13 3,23 9,31 6,8 14,11 24,11 10,0 18,-4 24,-11 6,-8 9,-18 9,-31z"/>
					<path id="16" class="fil7" d="M3123 3391c5,0 9,0 13,0 4,0 7,-1 9,-1l0 -34c-1,-1 -4,-1 -7,-2 -3,-1 -7,-1 -12,-1 -3,0 -6,0 -10,1 -3,0 -7,1 -9,3 -3,1 -5,3 -7,6 -2,2 -3,6 -3,10 0,7 2,12 7,15 5,3 11,4 19,4zm-2 -102c8,0 15,1 21,3 6,2 10,5 14,9 3,4 6,9 7,14 1,5 2,11 2,18l0 71c-2,0 -4,1 -7,1 -3,1 -7,1 -11,1 -4,0 -8,1 -13,1 -5,0 -9,1 -14,1 -6,0 -12,-1 -18,-2 -5,-1 -10,-3 -14,-6 -4,-3 -7,-7 -9,-11 -2,-5 -3,-10 -3,-17 0,-6 1,-12 4,-16 3,-5 6,-8 10,-11 4,-3 10,-5 15,-6 6,-1 12,-2 18,-2 2,0 4,0 6,0 2,0 4,1 6,1 2,0 4,1 5,1 1,0 2,1 3,1l0 -6c0,-3 0,-7 -1,-10 -1,-3 -2,-6 -4,-9 -2,-3 -5,-5 -8,-6 -3,-2 -8,-2 -13,-2 -7,0 -13,0 -18,1 -5,1 -9,2 -11,3l-2 -17c3,-1 7,-2 13,-3 6,-1 13,-2 20,-2z"/>
					<path id="17" class="fil7" d="M3273 3316c-2,-2 -6,-4 -11,-6 -5,-2 -10,-3 -15,-3 -6,0 -11,1 -15,3 -4,2 -8,5 -10,9 -3,4 -5,8 -6,13 -1,5 -2,11 -2,16 0,13 3,24 10,31 7,7 15,11 26,11 6,0 10,0 14,-1 4,-1 7,-1 9,-2l0 -72zm0 -77l20 -4 0 167c-5,1 -11,3 -18,4 -7,1 -16,2 -25,2 -9,0 -17,-1 -24,-4 -7,-3 -13,-7 -18,-12 -5,-5 -9,-11 -12,-19 -3,-7 -4,-16 -4,-25 0,-9 1,-17 3,-24 2,-7 6,-14 10,-19 4,-5 10,-9 16,-12 6,-3 14,-4 22,-4 7,0 12,1 17,3 5,2 9,3 11,5l0 -58z"/>
			</g>
			<g>
					<path class="fil8" d="M2581 4662c0,13 -2,25 -6,34 -4,10 -10,18 -17,24 -7,6 -16,11 -27,14 -10,3 -22,5 -34,5 -6,0 -13,0 -20,-1 -7,-1 -14,-1 -20,-3l0 -148c6,-1 13,-2 20,-3 7,-1 14,-1 20,-1 12,0 24,2 34,5 10,3 19,8 27,14 7,6 13,14 17,24 4,10 6,21 6,34zm-83 59c20,0 35,-5 45,-16 10,-10 15,-25 15,-43 0,-19 -5,-33 -15,-43 -10,-10 -25,-16 -45,-16 -6,0 -11,0 -14,0 -3,0 -6,0 -7,0l0 117c1,0 4,0 7,0 3,0 8,0 14,0z"/>
					<path id="1" class="fil8" d="M2647 4724c5,0 9,0 13,0 4,0 7,-1 9,-1l0 -34c-1,-1 -4,-1 -7,-2 -3,-1 -7,-1 -12,-1 -3,0 -6,0 -10,1 -3,0 -7,1 -9,3 -3,1 -5,3 -7,6 -2,2 -3,6 -3,10 0,7 2,12 7,15 5,3 11,4 19,4zm-2 -102c8,0 15,1 21,3 6,2 10,5 14,9 3,4 6,9 7,14 1,5 2,11 2,18l0 71c-2,0 -4,1 -7,1 -3,1 -7,1 -11,1 -4,0 -8,1 -13,1 -5,0 -9,1 -14,1 -6,0 -12,-1 -18,-2 -5,-1 -10,-3 -14,-6 -4,-3 -7,-7 -9,-11 -2,-5 -3,-10 -3,-17 0,-6 1,-12 4,-16 3,-5 6,-8 10,-11 4,-3 10,-5 15,-6 6,-1 12,-2 18,-2 2,0 4,0 6,0 2,0 4,1 6,1 2,0 4,1 5,1 1,0 2,1 3,1l0 -6c0,-3 0,-7 -1,-10 -1,-3 -2,-6 -4,-9 -2,-3 -5,-5 -8,-6 -3,-2 -8,-2 -13,-2 -7,0 -13,0 -18,1 -5,1 -9,2 -11,3l-2 -17c3,-1 7,-2 13,-3 6,-1 13,-2 20,-2z"/>
					<path id="2" class="fil8" d="M2762 4724c5,0 9,0 13,0 4,0 7,-1 9,-1l0 -34c-1,-1 -4,-1 -7,-2 -3,-1 -7,-1 -12,-1 -3,0 -6,0 -10,1 -3,0 -7,1 -9,3 -3,1 -5,3 -7,6 -2,2 -3,6 -3,10 0,7 2,12 7,15 5,3 11,4 19,4zm-2 -102c8,0 15,1 21,3 6,2 10,5 14,9 3,4 6,9 7,14 1,5 2,11 2,18l0 71c-2,0 -4,1 -7,1 -3,1 -7,1 -11,1 -4,0 -8,1 -13,1 -5,0 -9,1 -14,1 -6,0 -12,-1 -18,-2 -5,-1 -10,-3 -14,-6 -4,-3 -7,-7 -9,-11 -2,-5 -3,-10 -3,-17 0,-6 1,-12 4,-16 3,-5 6,-8 10,-11 4,-3 10,-5 15,-6 6,-1 12,-2 18,-2 2,0 4,0 6,0 2,0 4,1 6,1 2,0 4,1 5,1 1,0 2,1 3,1l0 -6c0,-3 0,-7 -1,-10 -1,-3 -2,-6 -4,-9 -2,-3 -5,-5 -8,-6 -3,-2 -8,-2 -13,-2 -7,0 -13,0 -18,1 -5,1 -9,2 -11,3l-2 -17c3,-1 7,-2 13,-3 6,-1 13,-2 20,-2z"/>
					<path id="3" class="fil8" d="M2838 4627c5,-1 11,-2 19,-4 8,-1 17,-2 27,-2 9,0 17,1 23,4 6,3 11,6 14,11 4,5 6,10 8,17 1,6 2,14 2,21l0 64 -20 0 0 -60c0,-7 0,-13 -1,-18 -1,-5 -3,-9 -5,-12 -2,-3 -5,-5 -9,-7 -4,-1 -8,-2 -14,-2 -2,0 -4,0 -7,0 -2,0 -5,0 -7,1 -2,0 -4,0 -6,1 -2,0 -3,1 -4,1l0 97 -20 0 0 -111z"/>
					<path id="4" class="fil8" d="M3036 4727c-2,1 -5,3 -10,5 -5,2 -11,3 -18,3 -7,0 -13,-1 -19,-3 -6,-2 -11,-6 -16,-10 -5,-5 -8,-10 -11,-17 -3,-7 -4,-15 -4,-25 0,-8 1,-16 4,-23 2,-7 6,-13 11,-18 5,-5 11,-9 17,-12 7,-3 15,-4 23,-4 10,0 18,1 25,2 7,1 13,3 18,4l0 102c0,18 -5,30 -14,38 -9,8 -23,12 -41,12 -7,0 -14,-1 -20,-2 -6,-1 -12,-3 -17,-4l4 -18c4,2 9,3 15,4 6,1 12,2 19,2 12,0 21,-2 26,-7 5,-5 8,-13 8,-23l0 -5zm0 -85c-2,-1 -5,-1 -8,-2 -3,-1 -8,-1 -14,-1 -11,0 -19,4 -25,11 -6,7 -9,17 -9,29 0,7 1,12 3,17 2,5 4,9 7,12 3,3 6,5 10,7 4,1 8,2 12,2 5,0 10,-1 15,-2 5,-2 8,-3 11,-5l0 -67z"/>
					<polygon id="5" class="fil8" points="2552,4833 2573,4833 2573,4985 2552,4985 2552,4915 2477,4915 2477,4985 2456,4985 2456,4833 2477,4833 2477,4896 2552,4896 "/>
					<path id="6" class="fil8" d="M2648 4970c5,0 9,0 13,0 4,0 7,-1 9,-1l0 -34c-1,-1 -4,-1 -7,-2 -3,-1 -7,-1 -12,-1 -3,0 -6,0 -10,1 -3,0 -7,1 -9,3 -3,1 -5,3 -7,6 -2,2 -3,6 -3,10 0,7 2,12 7,15 5,3 11,4 19,4zm-2 -102c8,0 15,1 21,3 6,2 10,5 14,9 3,4 6,9 7,14 1,5 2,11 2,18l0 71c-2,0 -4,1 -7,1 -3,1 -7,1 -11,1 -4,0 -8,1 -13,1 -5,0 -9,1 -14,1 -6,0 -12,-1 -18,-2 -5,-1 -10,-3 -14,-6 -4,-3 -7,-7 -9,-11 -2,-5 -3,-10 -3,-17 0,-6 1,-12 4,-16 3,-5 6,-8 10,-11 4,-3 10,-5 15,-6 6,-1 12,-2 18,-2 2,0 4,0 6,0 2,0 4,1 6,1 2,0 4,1 5,1 1,0 2,1 3,1l0 -6c0,-3 0,-7 -1,-10 -1,-3 -2,-6 -4,-9 -2,-3 -5,-5 -8,-6 -3,-2 -8,-2 -13,-2 -7,0 -13,0 -18,1 -5,1 -9,2 -11,3l-2 -17c3,-1 7,-2 13,-3 6,-1 13,-2 20,-2z"/>
					<path id="7" class="fil8" d="M2766 4868c2,0 4,0 6,0 2,0 5,1 7,1 2,0 4,1 6,1 2,0 3,1 4,1l-4 18c-2,-1 -4,-1 -8,-2 -4,-1 -9,-1 -14,-1 -4,0 -8,0 -11,1 -4,1 -6,1 -7,2l0 96 -20 0 0 -110c5,-2 11,-3 18,-5 7,-2 15,-2 24,-2z"/>
					<path id="8" class="fil8" d="M2830 4985l-20 0 0 -114 20 0 0 114zm-10 -135c-4,0 -7,-1 -9,-4 -3,-2 -4,-6 -4,-10 0,-4 1,-7 4,-10 3,-2 6,-4 9,-4 4,0 7,1 9,4 3,2 4,6 4,10 0,4 -1,7 -4,10 -3,2 -6,4 -9,4z"/>
					<path id="9" class="fil8" d="M2991 4921c2,3 5,7 9,12 4,5 7,10 11,16 4,6 8,12 11,18 4,6 7,12 10,18l-23 0c-3,-6 -6,-11 -10,-17 -3,-6 -7,-11 -10,-16 -4,-5 -7,-10 -10,-15 -3,-5 -7,-9 -9,-12 -2,0 -4,0 -6,0 -2,0 -4,0 -6,0l-19 0 0 60 -21 0 0 -150c6,-1 13,-2 20,-3 7,-1 14,-1 20,-1 21,0 38,4 49,12 11,8 17,20 17,36 0,10 -3,19 -8,26 -5,7 -13,13 -24,16zm-32 -71c-9,0 -16,0 -21,1l0 57 15 0c7,0 14,0 20,-1 6,-1 11,-2 15,-4 4,-2 7,-5 9,-9 2,-4 3,-9 3,-15 0,-6 -1,-10 -3,-14 -2,-4 -5,-7 -9,-9 -4,-2 -8,-4 -13,-5 -5,-1 -10,-1 -16,-1z"/>
					<path id="10" class="fil8" d="M3155 4928c0,9 -1,17 -4,25 -3,7 -6,14 -11,19 -5,5 -10,9 -17,12 -7,3 -14,4 -22,4 -8,0 -15,-1 -22,-4 -7,-3 -12,-7 -17,-12 -5,-5 -8,-12 -11,-19 -3,-7 -4,-16 -4,-25 0,-9 1,-17 4,-25 3,-7 6,-14 11,-19 5,-5 10,-9 17,-12 7,-3 14,-4 22,-4 8,0 15,1 22,4 7,3 12,7 17,12 5,5 8,12 11,19 3,7 4,16 4,25zm-21 0c0,-13 -3,-23 -9,-31 -6,-8 -14,-11 -24,-11 -10,0 -18,4 -24,11 -6,8 -9,18 -9,31 0,13 3,23 9,31 6,8 14,11 24,11 10,0 18,-4 24,-11 6,-8 9,-18 9,-31z"/>
					<path id="11" class="fil8" d="M3222 4970c5,0 9,0 13,0 4,0 7,-1 9,-1l0 -34c-1,-1 -4,-1 -7,-2 -3,-1 -7,-1 -12,-1 -3,0 -6,0 -10,1 -3,0 -7,1 -9,3 -3,1 -5,3 -7,6 -2,2 -3,6 -3,10 0,7 2,12 7,15 5,3 11,4 19,4zm-2 -102c8,0 15,1 21,3 6,2 10,5 14,9 3,4 6,9 7,14 1,5 2,11 2,18l0 71c-2,0 -4,1 -7,1 -3,1 -7,1 -11,1 -4,0 -8,1 -13,1 -5,0 -9,1 -14,1 -6,0 -12,-1 -18,-2 -5,-1 -10,-3 -14,-6 -4,-3 -7,-7 -9,-11 -2,-5 -3,-10 -3,-17 0,-6 1,-12 4,-16 3,-5 6,-8 10,-11 4,-3 10,-5 15,-6 6,-1 12,-2 18,-2 2,0 4,0 6,0 2,0 4,1 6,1 2,0 4,1 5,1 1,0 2,1 3,1l0 -6c0,-3 0,-7 -1,-10 -1,-3 -2,-6 -4,-9 -2,-3 -5,-5 -8,-6 -3,-2 -8,-2 -13,-2 -7,0 -13,0 -18,1 -5,1 -9,2 -11,3l-2 -17c3,-1 7,-2 13,-3 6,-1 13,-2 20,-2z"/>
					<path id="12" class="fil8" d="M3372 4895c-2,-2 -6,-4 -11,-6 -5,-2 -10,-3 -15,-3 -6,0 -11,1 -15,3 -4,2 -8,5 -10,9 -3,4 -5,8 -6,13 -1,5 -2,11 -2,16 0,13 3,24 10,31 7,7 15,11 26,11 6,0 10,0 14,-1 4,-1 7,-1 9,-2l0 -72zm0 -77l20 -4 0 167c-5,1 -11,3 -18,4 -7,1 -16,2 -25,2 -9,0 -17,-1 -24,-4 -7,-3 -13,-7 -18,-12 -5,-5 -9,-11 -12,-19 -3,-7 -4,-16 -4,-25 0,-9 1,-17 3,-24 2,-7 6,-14 10,-19 4,-5 10,-9 16,-12 6,-3 14,-4 22,-4 7,0 12,1 17,3 5,2 9,3 11,5l0 -58z"/>
			</g>
			<g>
					<path class="fil9" d="M5777 5014c0,-13 2,-25 6,-35 4,-10 9,-18 16,-25 7,-7 14,-12 23,-15 9,-3 18,-5 28,-5 10,0 19,2 28,5 9,3 16,8 23,15 7,7 12,15 16,25 4,10 6,21 6,35 0,13 -2,25 -6,35 -4,10 -9,18 -16,25 -7,7 -14,12 -23,15 -9,3 -18,5 -28,5 -10,0 -19,-2 -28,-5 -9,-3 -17,-8 -23,-15 -7,-7 -12,-15 -16,-25 -4,-10 -6,-21 -6,-35zm22 0c0,9 1,18 4,25 2,8 6,14 10,19 4,5 10,9 16,12 6,3 13,4 21,4 8,0 15,-1 21,-4 6,-3 11,-7 16,-12 4,-5 8,-12 10,-19 2,-8 4,-16 4,-25 0,-9 -1,-18 -4,-25 -2,-8 -6,-14 -10,-19 -4,-5 -10,-9 -16,-12 -6,-3 -13,-4 -21,-4 -8,0 -15,1 -21,4 -6,3 -12,7 -16,12 -4,5 -8,12 -10,19 -2,8 -4,16 -4,25z"/>
					<path id="1" class="fil9" d="M5988 5093c-13,0 -22,-3 -27,-8 -5,-5 -8,-13 -8,-24l0 -137 20 -4 0 137c0,3 0,6 1,8 1,2 2,4 3,5 1,1 3,2 5,3 2,1 5,1 8,2l-3 17z"/>
					<path id="2" class="fil9" d="M6087 5000c-2,-2 -6,-4 -11,-6 -5,-2 -10,-3 -15,-3 -6,0 -11,1 -15,3 -4,2 -8,5 -10,9 -3,4 -5,8 -6,13 -1,5 -2,11 -2,16 0,13 3,24 10,31 7,7 15,11 26,11 6,0 10,0 14,-1 4,-1 7,-1 9,-2l0 -72zm0 -77l20 -4 0 167c-5,1 -11,3 -18,4 -7,1 -16,2 -25,2 -9,0 -17,-1 -24,-4 -7,-3 -13,-7 -18,-12 -5,-5 -9,-11 -12,-19 -3,-7 -4,-16 -4,-25 0,-9 1,-17 3,-24 2,-7 6,-14 10,-19 4,-5 10,-9 16,-12 6,-3 14,-4 22,-4 7,0 12,1 17,3 5,2 9,3 11,5l0 -58z"/>
					<path id="3" class="fil9" d="M5888 5337c-3,-5 -7,-12 -11,-18 -4,-7 -9,-14 -14,-21 -5,-7 -10,-15 -15,-22 -5,-7 -10,-15 -16,-22 -5,-7 -10,-14 -15,-20 -5,-6 -9,-12 -13,-16l0 119 -21 0 0 -152 17 0c7,7 14,16 22,26 8,10 16,20 23,30 8,10 15,20 22,30 7,10 13,19 17,27l0 -113 21 0 0 152 -18 0z"/>
					<path id="4" class="fil9" d="M5981 5322c5,0 9,0 13,0 4,0 7,-1 9,-1l0 -34c-1,-1 -4,-1 -7,-2 -3,-1 -7,-1 -12,-1 -3,0 -6,0 -10,1 -3,0 -7,1 -9,3 -3,1 -5,3 -7,6 -2,2 -3,6 -3,10 0,7 2,12 7,15 5,3 11,4 19,4zm-2 -102c8,0 15,1 21,3 6,2 10,5 14,9 3,4 6,9 7,14 1,5 2,11 2,18l0 71c-2,0 -4,1 -7,1 -3,1 -7,1 -11,1 -4,0 -8,1 -13,1 -5,0 -9,1 -14,1 -6,0 -12,-1 -18,-2 -5,-1 -10,-3 -14,-6 -4,-3 -7,-7 -9,-11 -2,-5 -3,-10 -3,-17 0,-6 1,-12 4,-16 3,-5 6,-8 10,-11 4,-3 10,-5 15,-6 6,-1 12,-2 18,-2 2,0 4,0 6,0 2,0 4,1 6,1 2,0 4,1 5,1 1,0 2,1 3,1l0 -6c0,-3 0,-7 -1,-10 -1,-3 -2,-6 -4,-9 -2,-3 -5,-5 -8,-6 -3,-2 -8,-2 -13,-2 -7,0 -13,0 -18,1 -5,1 -9,2 -11,3l-2 -17c3,-1 7,-2 13,-3 6,-1 13,-2 20,-2z"/>
					<path id="5" class="fil9" d="M6076 5223l43 0 0 17 -43 0 0 53c0,6 0,10 1,14 1,4 2,7 4,9 2,2 4,4 7,5 3,1 6,1 9,1 6,0 11,-1 15,-2 4,-1 6,-2 8,-3l4 17c-2,1 -6,2 -11,4 -5,2 -11,2 -18,2 -8,0 -14,-1 -19,-3 -5,-2 -9,-5 -12,-9 -3,-4 -5,-9 -6,-15 -1,-6 -2,-13 -2,-20l0 -102 20 -4 0 35z"/>
					<path id="6" class="fil9" d="M6166 5337l-20 0 0 -114 20 0 0 114zm-10 -135c-4,0 -7,-1 -9,-4 -3,-2 -4,-6 -4,-10 0,-4 1,-7 4,-10 3,-2 6,-4 9,-4 4,0 7,1 9,4 3,2 4,6 4,10 0,4 -1,7 -4,10 -3,2 -6,4 -9,4z"/>
					<path id="7" class="fil9" d="M6302 5280c0,9 -1,17 -4,25 -3,7 -6,14 -11,19 -5,5 -10,9 -17,12 -7,3 -14,4 -22,4 -8,0 -15,-1 -22,-4 -7,-3 -12,-7 -17,-12 -5,-5 -8,-12 -11,-19 -3,-7 -4,-16 -4,-25 0,-9 1,-17 4,-25 3,-7 6,-14 11,-19 5,-5 10,-9 17,-12 7,-3 14,-4 22,-4 8,0 15,1 22,4 7,3 12,7 17,12 5,5 8,12 11,19 3,7 4,16 4,25zm-21 0c0,-13 -3,-23 -9,-31 -6,-8 -14,-11 -24,-11 -10,0 -18,4 -24,11 -6,8 -9,18 -9,31 0,13 3,23 9,31 6,8 14,11 24,11 10,0 18,-4 24,-11 6,-8 9,-18 9,-31z"/>
					<path id="8" class="fil9" d="M6331 5226c5,-1 11,-2 19,-4 8,-1 17,-2 27,-2 9,0 17,1 23,4 6,3 11,6 14,11 4,5 6,10 8,17 1,6 2,14 2,21l0 64 -20 0 0 -60c0,-7 0,-13 -1,-18 -1,-5 -3,-9 -5,-12 -2,-3 -5,-5 -9,-7 -4,-1 -8,-2 -14,-2 -2,0 -4,0 -7,0 -2,0 -5,0 -7,1 -2,0 -4,0 -6,1 -2,0 -3,1 -4,1l0 97 -20 0 0 -111z"/>
					<path id="9" class="fil9" d="M6496 5322c5,0 9,0 13,0 4,0 7,-1 9,-1l0 -34c-1,-1 -4,-1 -7,-2 -3,-1 -7,-1 -12,-1 -3,0 -6,0 -10,1 -3,0 -7,1 -9,3 -3,1 -5,3 -7,6 -2,2 -3,6 -3,10 0,7 2,12 7,15 5,3 11,4 19,4zm-2 -102c8,0 15,1 21,3 6,2 10,5 14,9 3,4 6,9 7,14 1,5 2,11 2,18l0 71c-2,0 -4,1 -7,1 -3,1 -7,1 -11,1 -4,0 -8,1 -13,1 -5,0 -9,1 -14,1 -6,0 -12,-1 -18,-2 -5,-1 -10,-3 -14,-6 -4,-3 -7,-7 -9,-11 -2,-5 -3,-10 -3,-17 0,-6 1,-12 4,-16 3,-5 6,-8 10,-11 4,-3 10,-5 15,-6 6,-1 12,-2 18,-2 2,0 4,0 6,0 2,0 4,1 6,1 2,0 4,1 5,1 1,0 2,1 3,1l0 -6c0,-3 0,-7 -1,-10 -1,-3 -2,-6 -4,-9 -2,-3 -5,-5 -8,-6 -3,-2 -8,-2 -13,-2 -7,0 -13,0 -18,1 -5,1 -9,2 -11,3l-2 -17c3,-1 7,-2 13,-3 6,-1 13,-2 20,-2z"/>
					<path id="10" class="fil9" d="M6606 5339c-13,0 -22,-3 -27,-8 -5,-5 -8,-13 -8,-24l0 -137 20 -4 0 137c0,3 0,6 1,8 1,2 2,4 3,5 1,1 3,2 5,3 2,1 5,1 8,2l-3 17z"/>
					<polygon id="11" class="fil9" points="5879,5431 5901,5431 5901,5584 5879,5584 5879,5513 5805,5513 5805,5584 5783,5584 5783,5431 5805,5431 5805,5495 5879,5495 "/>
					<path id="12" class="fil9" d="M5958 5584l-20 0 0 -114 20 0 0 114zm-10 -135c-4,0 -7,-1 -9,-4 -3,-2 -4,-6 -4,-10 0,-4 1,-7 4,-10 3,-2 6,-4 9,-4 4,0 7,1 9,4 3,2 4,6 4,10 0,4 -1,7 -4,10 -3,2 -6,4 -9,4z"/>
					<path id="13" class="fil9" d="M6065 5572c-2,1 -5,3 -10,5 -5,2 -11,3 -18,3 -7,0 -13,-1 -19,-3 -6,-2 -11,-6 -16,-10 -5,-5 -8,-10 -11,-17 -3,-7 -4,-15 -4,-25 0,-8 1,-16 4,-23 2,-7 6,-13 11,-18 5,-5 11,-9 17,-12 7,-3 15,-4 23,-4 10,0 18,1 25,2 7,1 13,3 18,4l0 102c0,18 -5,30 -14,38 -9,8 -23,12 -41,12 -7,0 -14,-1 -20,-2 -6,-1 -12,-3 -17,-4l4 -18c4,2 9,3 15,4 6,1 12,2 19,2 12,0 21,-2 26,-7 5,-5 8,-13 8,-23l0 -5zm0 -85c-2,-1 -5,-1 -8,-2 -3,-1 -8,-1 -14,-1 -11,0 -19,4 -25,11 -6,7 -9,17 -9,29 0,7 1,12 3,17 2,5 4,9 7,12 3,3 6,5 10,7 4,1 8,2 12,2 5,0 10,-1 15,-2 5,-2 8,-3 11,-5l0 -67z"/>
					<path id="14" class="fil9" d="M6120 5584l0 -167 20 -4 0 59c4,-1 8,-3 12,-3 4,-1 9,-1 13,-1 9,0 17,1 23,4 6,3 11,6 14,11 4,5 6,10 8,17 1,6 2,14 2,21l0 64 -20 0 0 -60c0,-7 0,-13 -1,-18 -1,-5 -3,-9 -5,-12 -2,-3 -5,-5 -9,-7 -4,-1 -8,-2 -14,-2 -2,0 -4,0 -7,0 -2,0 -5,1 -7,1 -2,0 -4,1 -6,1 -2,0 -3,1 -4,1l0 95 -20 0z"/>
					<path id="15" class="fil9" d="M6336 5584c-4,-11 -8,-23 -13,-36 -5,-14 -9,-28 -13,-42 -4,15 -8,29 -13,42 -5,14 -9,26 -13,36l-18 0c-7,-15 -13,-32 -20,-52 -6,-19 -13,-40 -18,-63l22 0c1,7 3,14 5,22 2,8 4,16 6,24 2,8 5,16 7,23 2,7 5,14 7,20 2,-7 5,-14 7,-22 2,-8 5,-15 7,-23 2,-8 4,-16 6,-23 2,-8 4,-15 5,-21l17 0c1,7 3,14 5,21 2,8 4,15 6,23 2,8 5,16 7,23 2,8 5,15 7,22 2,-6 5,-12 7,-20 2,-7 5,-15 7,-23 2,-8 5,-16 7,-24 2,-8 4,-16 5,-22l21 0c-6,22 -12,43 -18,63 -6,19 -13,37 -20,52l-18 0z"/>
					<path id="16" class="fil9" d="M6452 5569c5,0 9,0 13,0 4,0 7,-1 9,-1l0 -34c-1,-1 -4,-1 -7,-2 -3,-1 -7,-1 -12,-1 -3,0 -6,0 -10,1 -3,0 -7,1 -9,3 -3,1 -5,3 -7,6 -2,2 -3,6 -3,10 0,7 2,12 7,15 5,3 11,4 19,4zm-2 -102c8,0 15,1 21,3 6,2 10,5 14,9 3,4 6,9 7,14 1,5 2,11 2,18l0 71c-2,0 -4,1 -7,1 -3,1 -7,1 -11,1 -4,0 -8,1 -13,1 -5,0 -9,1 -14,1 -6,0 -12,-1 -18,-2 -5,-1 -10,-3 -14,-6 -4,-3 -7,-7 -9,-11 -2,-5 -3,-10 -3,-17 0,-6 1,-12 4,-16 3,-5 6,-8 10,-11 4,-3 10,-5 15,-6 6,-1 12,-2 18,-2 2,0 4,0 6,0 2,0 4,1 6,1 2,0 4,1 5,1 1,0 2,1 3,1l0 -6c0,-3 0,-7 -1,-10 -1,-3 -2,-6 -4,-9 -2,-3 -5,-5 -8,-6 -3,-2 -8,-2 -13,-2 -7,0 -13,0 -18,1 -5,1 -9,2 -11,3l-2 -17c3,-1 7,-2 13,-3 6,-1 13,-2 20,-2z"/>
					<path id="17" class="fil9" d="M6512 5605c2,1 4,1 6,2 3,1 5,1 8,1 8,0 14,-2 19,-5 5,-4 9,-9 12,-17 -9,-18 -18,-36 -26,-56 -8,-20 -15,-40 -20,-60l22 0c2,7 4,14 6,21 2,8 5,15 8,24 3,8 6,16 9,24 3,8 7,16 10,23 6,-15 10,-31 15,-46 4,-15 8,-31 12,-47l21 0c-5,22 -11,42 -18,62 -6,20 -13,38 -21,56 -3,7 -6,12 -9,17 -3,5 -7,9 -10,12 -4,3 -8,5 -13,7 -5,1 -10,2 -16,2 -2,0 -3,0 -5,0 -2,0 -3,-1 -5,-1 -2,0 -3,-1 -5,-1 -1,0 -2,-1 -3,-1l4 -16z"/>
			</g>
		</g>
  </g>
 </g>
</svg>
