<?xml version="1.0" encoding="UTF-8"?>
<!DOCTYPE svg PUBLIC "-//W3C//DTD SVG 1.1//EN" "http://www.w3.org/Graphics/SVG/1.1/DTD/svg11.dtd">
<!-- Creator: CorelDRAW X6 -->
<svg xmlns="http://www.w3.org/2000/svg" xml:space="preserve" width="16.7975in" height="28.0445in" version="1.1" style="shape-rendering:geometricPrecision; text-rendering:geometricPrecision; image-rendering:optimizeQuality; fill-rule:evenodd; clip-rule:evenodd"
viewBox="0 0 16599 27714"
 xmlns:xlink="http://www.w3.org/1999/xlink">
 <defs>
  <style type="text/css">
   <![CDATA[
    .fil2 {fill:#696A7C;fill-rule:nonzero}
    .fil0 {fill:#979690;fill-rule:nonzero}
    .fil1 {fill:white;fill-rule:nonzero} 

    .fil3 {fill:#8abe25;fill-rule:nonzero}
    .fil4 {fill:#5ba9e7;fill-rule:nonzero} 
    .fil5 {fill:#d99f4d;fill-rule:nonzero} 
    .fil6 {fill:#e87f32;fill-rule:nonzero}
    .fil7 {fill:#ebb847;fill-rule:nonzero} 
    .fil8 {fill:#ba84db;fill-rule:nonzero} 
    .fil9 {fill:#52cf71;fill-rule:nonzero}
    .fil10 {fill:#F892A1;fill-rule:nonzero} 
    .fil11 {fill:#f3784d;fill-rule:nonzero} 
    .ufill {fill-opacity: 0.5;fill-rule:nonzero}
   ]]>
  </style>
 </defs>
 <g class = "district center" data-target="cityCenter">
    <g id="_18citycentermap">
        <metadata id="CorelCorpID_0Corel-Layer"/>
        <path class="fil11" d="M11934 12412c148,155 1245,1278 1871,2746 676,1584 404,3479 -599,4557 -844,906 -1811,491 -2174,276 -363,-215 -808,-438 -1286,-458 -478,-20 -788,74 -929,114 -141,40 -289,27 -357,-141 -67,-168 -162,-606 -317,-835 -155,-229 -895,-983 -895,-2538 0,-868 564,-2430 1750,-2975 1228,-564 1898,-586 2147,-680 249,-94 188,-67 289,-114 101,-47 350,-108 498,47z"/>
    </g>

    <g id="_17citycentertitle">
    <metadata id="CorelCorpID_1Corel-Layer"/>
    <path class="fil1" d="M10044 16383c-12,5 -31,9 -49,9 -52,0 -83,-32 -83,-84 0,-58 36,-86 82,-86 21,0 37,4 49,9l12 -47c-10,-5 -33,-11 -64,-11 -78,0 -141,50 -141,138 0,74 47,129 136,129 32,0 56,-6 66,-11l-9 -46zm66 -206l1 259 59 0 -1 -259 -59 0zm180 258l59 0 -1 -210 71 0 0 -49 -199 1 0 49 70 0 1 210zm301 -1l0 -108 85 -151 -66 0 -26 62c-8,18 -14,33 -19,50l-1 0c-7,-17 -12,-31 -20,-50l-27 -62 -67 0 82 153 0 106 58 0z"/>
    <path class="fil1" d="M11001 16379c-12,5 -31,9 -49,9 -52,0 -83,-32 -83,-84 0,-58 36,-86 82,-86 21,0 37,4 49,9l12 -47c-10,-5 -33,-11 -64,-11 -78,0 -141,50 -141,138 0,74 47,129 136,129 32,0 56,-6 66,-11l-9 -46zm220 -105l-95 0 0 -54 101 0 0 -48 -160 1 1 259 165 -1 0 -48 -106 0 0 -61 95 0 0 -48zm125 157l0 -78c0,-42 -1,-79 -3,-113l1 0c13,30 30,64 45,91l56 100 61 0 -1 -259 -54 0 0 76c0,39 1,74 5,108l-1 0c-12,-29 -27,-61 -43,-89l-54 -95 -68 0 1 259 54 0z"/>
    <path class="fil1" d="M11626 16430l59 0 -1 -210 71 0 0 -49 -199 1 0 49 70 0 1 210zm314 -158l-95 0 0 -54 101 0 0 -48 -160 1 1 259 165 -1 0 -48 -106 0 0 -61 95 0 0 -48zm71 157l58 0 0 -102 18 0c24,0 35,9 42,41 8,32 14,53 18,60l60 0c-5,-10 -13,-44 -21,-73 -7,-24 -17,-41 -35,-48l0 -1c22,-8 46,-31 46,-64 0,-24 -9,-42 -24,-54 -18,-15 -45,-20 -84,-20 -31,0 -59,3 -78,6l1 256zm57 -216c4,-1 12,-2 27,-2 27,0 43,12 43,36 0,23 -17,37 -46,37l-23 0 0 -71z"/>
    </g>
</g>

<g class = "district spec" data-target="specDistrict">
    <g id="_16spectrummap">
    <metadata id="CorelCorpID_2Corel-Layer"/>
    <path class="fil7" d="M7532 18691c87,96 357,480 457,1119 34,128 -61,249 -61,438l0 868c0,155 -33,599 -175,835 -54,101 -81,135 -175,155 -94,20 -1124,222 -1340,256 -262,40 -1579,158 -2592,-942 -137,-149 -63,-245 0,-289 884,-616 3319,-2302 3541,-2457 222,-155 256,-78 343,18z"/>
    <path class="fil7" d="M2297 16541c67,0 139,45 139,144 0,1346 592,2939 1153,3792 52,79 45,148 -9,193 -54,45 -139,103 -207,148 -67,45 -171,27 -247,-67 -624,-772 -1261,-2652 -1261,-3927 0,-202 99,-265 166,-265 67,0 197,-18 265,-18z"/>
    <path class="fil7" d="M3584 16492c138,-4 205,60 212,198 40,788 343,2057 865,2952 73,125 16,259 -60,311 -76,52 -533,375 -600,422 -67,47 -130,42 -191,-20 -464,-690 -1100,-2248 -1149,-3671 -3,-96 58,-156 149,-159 91,-4 636,-30 774,-34z"/>
    <path class="fil7" d="M5262 16413c54,-2 123,32 128,108 4,76 152,1405 628,2282 42,74 56,130 -7,170 -63,40 -641,452 -687,480 -83,51 -173,57 -227,-34 -390,-655 -792,-1867 -819,-2778 -3,-88 38,-186 144,-191 106,-5 785,-36 839,-38z"/>
    <path class="fil7" d="M6753 16582c7,412 153,977 371,1408 56,110 16,204 -63,254 -78,49 -610,438 -664,464 -54,27 -105,67 -157,-20 -202,-338 -604,-1351 -604,-2156 0,-85 29,-135 117,-139 87,-5 640,-27 756,-29 116,-2 241,22 244,219z"/>
    <path class="fil7" d="M6513 13614c53,28 618,361 696,411 79,49 67,192 -10,330 -236,421 -394,992 -442,1400 -16,131 -87,175 -204,178 -120,3 -717,44 -805,39 -87,-5 -112,-53 -108,-171 27,-685 399,-1720 673,-2151 55,-86 113,-82 199,-37z"/>
    <path class="fil7" d="M3224 11729c101,51 168,98 206,121 37,24 94,81 20,205 -74,124 -1023,1673 -1023,3945 0,61 -64,108 -101,111 -37,4 -138,17 -239,17 -101,0 -237,-78 -237,-209 0,-1311 493,-3066 1052,-4072 84,-141 222,-168 323,-118z"/>
    <path class="fil7" d="M8358 11606c70,179 132,339 143,369 20,56 18,97 -57,141 -311,183 -618,417 -908,697 -60,57 -101,43 -168,0 -20,-13 -132,-95 -266,-194 -22,-16 -56,-85 -5,-141l2 -2c367,-376 781,-686 1144,-902 1,-1 3,-2 5,-2 28,-13 89,-21 110,34z"/>
    <path class="fil7" d="M8892 11336c1,2 1,4 1,6 63,350 136,715 216,998 25,89 8,157 -124,226 -565,297 -928,607 -1254,985 -89,104 -247,126 -364,67 -51,-25 -371,-208 -722,-411 -50,-29 -69,-94 -23,-160 91,-132 191,-259 298,-380l0 0c16,-18 71,-43 113,-13l0 0c155,118 294,223 329,246 55,35 126,58 184,2 315,-303 645,-562 983,-761 82,-48 76,-101 55,-162 -11,-32 -77,-197 -153,-383 -15,-36 -24,-114 28,-144 1,-1 2,-2 4,-2 118,-61 227,-110 324,-146 43,-16 92,-20 105,31z"/>
    <path class="fil7" d="M8135 11043c7,14 57,139 118,294l0 1c23,59 -1,116 -62,153 -406,241 -803,554 -1158,928 -1,2 -3,3 -5,5 -39,38 -100,69 -158,25 -132,-98 -244,-182 -267,-200 -59,-48 -129,-86 -27,-209 409,-491 1072,-901 1363,-1040 65,-31 153,-43 195,44z"/>
    <path class="fil7" d="M8706 10182c15,68 67,444 142,894l0 1c7,43 -45,107 -84,124 -104,43 -208,92 -312,145 -2,1 -4,2 -6,3 -44,20 -106,21 -136,-52 -68,-166 -124,-301 -131,-316 -45,-94 -146,-108 -217,-75 -479,227 -1074,647 -1478,1138 -90,110 -24,166 40,218 26,21 165,129 322,250 31,24 33,73 19,90 -104,120 -204,246 -299,378 -64,89 -130,107 -194,70 -368,-212 -705,-408 -741,-428 -81,-45 -190,-116 -85,-287 373,-610 1674,-1854 2930,-2226 124,-37 201,-59 229,72z"/>
    <path class="fil7" d="M6938 9406c166,18 623,76 682,85 58,9 99,36 126,90 27,54 41,88 51,110 35,75 16,161 -80,210 -1002,516 -1834,1162 -2558,2138 -91,123 -192,199 -373,91 -182,-108 -629,-357 -680,-387 -51,-30 -89,-108 -45,-178 148,-232 973,-1263 1975,-1925 418,-277 638,-262 902,-233z"/>
    <path class="fil7" d="M5705 8323c533,122 1722,302 2583,365 209,15 319,157 328,283 9,126 22,332 22,417 0,85 -14,166 -108,198 -94,31 -215,81 -283,99 -67,18 -189,13 -233,-112 -45,-126 -18,-72 -45,-126 -27,-54 -108,-180 -341,-207 -233,-27 -668,-90 -826,-99 -157,-9 -503,-2 -1010,377 -817,610 -1378,1180 -1898,1840 -123,156 -157,180 -234,135 -76,-45 -134,-77 -189,-117 -112,-81 -155,-207 -91,-296 107,-148 733,-911 1195,-1326 455,-408 801,-1101 841,-1212 40,-111 150,-250 286,-219z"/>
    <path class="fil7" d="M3846 12101c6,2 12,4 18,7 25,10 49,24 71,40 85,58 597,323 718,395 121,72 72,148 27,220 -8,14 -17,29 -25,44 -3,5 -6,10 -8,15 -358,660 -865,2312 -852,3098 -9,125 -67,144 -139,144 -72,0 -830,38 -880,38 -49,0 -130,-23 -134,-121 -66,-1500 626,-3118 928,-3667 2,-4 5,-8 7,-12l2 -3c29,-53 54,-94 75,-124 60,-85 129,-94 193,-73z"/>
    <path class="fil7" d="M5265 12919c3,1 6,1 9,2 4,1 8,2 12,3 21,6 42,16 63,29 46,28 657,370 720,411 63,40 54,105 12,179 -10,18 -21,37 -31,56 -244,453 -494,1111 -616,1739 -5,27 -10,54 -15,80 -28,158 -47,313 -56,461 -4,67 -27,89 -128,94 -54,3 -751,43 -856,38 -106,-5 -126,-72 -123,-193 22,-973 452,-2172 865,-2829 37,-59 88,-78 143,-70z"/>
    </g>
    <g id="_15spectrumtitle">
    <metadata id="CorelCorpID_3Corel-Layer"/>
    <path class="fil1" d="M5141 20836c15,8 44,16 73,15 71,0 104,-37 104,-81 0,-37 -22,-60 -68,-77 -33,-13 -48,-20 -48,-36 0,-13 12,-25 38,-25 25,0 44,7 54,12l13 -47c-15,-7 -37,-13 -66,-13 -61,0 -98,34 -98,78 0,38 28,61 71,76 31,11 43,20 44,36 0,17 -14,28 -41,28 -25,0 -49,-8 -65,-16l-12 48zm237 11l58 0 0 -93c5,1 12,1 20,1 35,0 64,-9 84,-28 15,-15 24,-36 24,-62 0,-25 -11,-47 -28,-60 -17,-14 -43,-21 -79,-20 -36,0 -61,3 -79,6l1 256zm57 -215c4,-1 12,-2 24,-2 29,0 46,14 46,38 0,27 -19,42 -50,42 -8,0 -15,0 -20,-1l0 -76zm320 56l-95 0 0 -54 101 0 0 -48 -160 1 1 259 165 -1 0 -48 -106 0 0 -61 95 0 0 -48zm252 103c-12,5 -31,9 -49,9 -52,0 -83,-32 -83,-84 0,-58 36,-86 82,-86 21,0 37,4 49,9l12 -47c-10,-5 -33,-11 -64,-11 -78,0 -141,50 -141,138 0,74 47,129 136,129 32,0 56,-6 66,-11l-9 -46zm122 53l59 0 -1 -210 71 0 0 -49 -199 1 0 49 70 0 1 210zm180 -1l58 0 0 -102 18 0c24,0 35,9 42,41 8,32 14,53 18,60l60 0c-5,-10 -13,-44 -21,-73 -7,-24 -17,-41 -35,-48l0 -1c22,-8 46,-31 46,-64 0,-24 -9,-42 -24,-54 -18,-15 -45,-20 -84,-20 -31,0 -59,3 -78,6l1 256zm57 -216c4,-1 12,-2 27,-2 27,0 43,12 43,36 0,23 -17,37 -46,37l-23 0 0 -71zm187 -44l1 144c0,83 39,119 104,118 68,0 108,-38 108,-118l-1 -145 -58 0 1 149c0,46 -17,67 -47,67 -30,0 -47,-23 -47,-67l-1 -149 -59 0zm505 257l57 0 -15 -259 -76 0 -27 86c-8,29 -17,63 -24,93l-1 0c-6,-30 -14,-63 -22,-93l-26 -86 -78 0 -16 259 54 0 4 -98c2,-32 3,-72 4,-107l1 0c6,34 15,71 24,101l28 100 46 0 31 -101c10,-30 21,-67 28,-100l1 0c0,38 1,75 3,106l4 99z"/>
    </g>
</g>

<g class = "district ss" data-target="southStation">
    <g id="_14southstationmap">
    <metadata id="CorelCorpID_4Corel-Layer"/>
    <g id="_637026264">
    <path class="fil8" d="M9380 9912c111,6 817,64 1360,310 498,226 1114,635 1319,774 141,95 105,183 51,271 -130,210 -390,484 -1074,715 -319,107 -549,144 -723,166 -168,21 -408,86 -492,103 -84,17 -195,-17 -236,-118 -40,-101 -313,-1393 -380,-2033 -10,-87 44,-195 175,-188z"/>
    <path class="fil8" d="M12143 8673c108,0 162,37 162,168l0 1434c0,101 -74,249 -242,145 -168,-104 -1397,-996 -2736,-996 -121,0 -182,-44 -182,-118 0,-74 -10,-276 -10,-326 0,-138 115,-253 270,-253 192,0 2632,-54 2740,-54z"/>
    <path class="fil8" d="M15845 8603c330,0 478,162 478,363 0,202 -13,525 -13,633 0,108 128,754 128,1003l0 1817c0,182 -84,387 -355,387 -271,0 -937,-37 -1045,-37 -108,0 -155,-61 -209,-114 -54,-54 -1146,-1109 -1892,-1609 -87,-58 -128,-155 -128,-209l0 -2033c0,-81 67,-148 155,-148 88,0 2551,-54 2881,-54z"/>
    </g>

    </g>
    <g id="_13southstationtitle">
    <metadata id="CorelCorpID_5Corel-Layer"/>
    <path class="fil1" d="M13324 10729c15,8 44,16 73,15 71,0 104,-37 104,-81 0,-37 -22,-60 -68,-77 -33,-13 -48,-20 -48,-36 0,-13 12,-25 38,-25 25,0 44,7 54,12l13 -47c-15,-7 -37,-13 -66,-13 -61,0 -98,34 -98,78 0,38 28,61 71,76 31,11 44,20 44,36 0,17 -14,28 -41,28 -25,0 -49,-8 -65,-16l-12 48zm331 -252c-76,0 -126,58 -126,136 0,74 45,132 122,131 76,0 127,-52 127,-137 0,-71 -44,-131 -123,-131zm-1 47c40,0 63,40 63,86 0,50 -22,88 -62,88 -39,0 -63,-36 -63,-86 0,-50 23,-88 62,-88zm182 -43l1 144c0,83 39,119 104,118 68,0 108,-38 108,-118l-1 -145 -58 0 1 149c0,46 -17,67 -47,67 -30,0 -47,-23 -47,-67l-1 -149 -59 0zm333 258l59 0 -1 -210 71 0 0 -49 -199 1 0 49 70 0 1 210zm179 -260l1 259 59 0 0 -108 96 0 0 108 58 0 -1 -259 -58 0 0 100 -96 0 0 -100 -59 0zm372 246c15,8 44,16 73,15 71,0 104,-37 104,-81 0,-37 -22,-60 -68,-77 -33,-13 -48,-20 -48,-36 0,-13 12,-25 38,-25 25,0 44,7 54,12l13 -47c-15,-7 -37,-13 -66,-13 -61,0 -98,34 -98,78 0,38 28,61 71,76 31,11 44,20 44,36 0,17 -14,28 -41,28 -25,0 -49,-8 -65,-16l-12 48zm287 11l59 0 -1 -210 71 0 0 -49 -199 1 0 49 70 0 1 210zm286 -67l20 66 63 0 -81 -259 -77 0 -78 259 61 0 18 -67 74 0zm-66 -44l15 -55c4,-15 8,-35 12,-50l1 0c4,15 9,35 13,50l16 55 -57 0zm221 110l59 0 -1 -210 71 0 0 -49 -199 1 0 49 70 0 1 210zm179 -260l1 259 59 0 -1 -259 -59 0zm243 -5c-76,0 -126,58 -126,136 0,74 45,132 122,131 76,0 127,-52 127,-137 0,-71 -44,-131 -123,-131zm-1 47c40,0 63,40 63,86 0,50 -22,88 -62,88 -39,0 -63,-36 -63,-86 0,-50 23,-88 62,-88zm218 216l0 -78c0,-42 -1,-79 -3,-113l1 0c13,30 30,64 45,91l56 100 61 0 -1 -259 -54 0 0 76c0,39 1,74 5,108l-1 0c-12,-29 -27,-61 -43,-89l-54 -95 -68 0 1 259 54 0z"/>
    </g>
</g>

<g class = "district civic" data-target="civicDistrict">
    <g id="_12civicplazamap">
    <metadata id="CorelCorpID_6Corel-Layer"/>
    <path class="fil9" d="M15287 13026l781 0c135,0 532,208 532,767 0,559 0,384 0,559 0,175 -215,283 -337,141 -121,-141 -976,-1104 -1050,-1185 -74,-81 -101,-282 74,-282z"/>
    <path class="fil9" d="M14674 13065c52,64 1414,1649 1515,1764 101,114 451,505 370,1548 -81,1043 -195,2457 -606,3251 -411,794 -1407,2342 -1737,2793 -330,451 -545,491 -680,532 -135,40 -188,74 -242,114 -54,40 -236,108 -377,54 -48,-18 -86,-27 -118,-33l285 -2651 0 0c315,-185 619,-454 836,-823 536,-913 714,-1602 714,-2693 0,-424 -215,-1844 -902,-3009 -49,-83 -74,-121 0,-195 74,-74 720,-613 767,-653 47,-40 123,-64 175,0z"/>
    <path class="fil9" d="M12771 11510c94,76 1302,1081 1382,1167 81,85 139,184 -13,301 -153,117 -516,426 -570,471 -54,45 -98,39 -166,-50 -207,-270 -754,-987 -1059,-1293 -124,-124 -67,-233 -22,-292 45,-58 165,-202 210,-269 46,-67 144,-112 239,-36z"/>
    <path class="fil9" d="M15765 21220l-166 3413 -265 153 5 161 -575 341c0,0 -215,225 -359,503 -296,117 -530,117 -530,117l-63 -350c0,0 -377,-146 -707,396 -320,525 -595,977 -595,977l-99 0c260,-418 690,-1107 760,-1206 101,-141 276,-293 616,-246 340,47 643,135 899,-209 256,-343 54,-868 -219,-1094 -165,-131 -236,-145 -236,-145 0,0 -17,-135 27,-205 78,-124 549,-898 692,-1159 144,-260 574,-1063 754,-1346 18,-27 37,-61 58,-101z"/>
    <path class="fil9" d="M13700 19924c36,-42 94,-19 145,8 51,27 154,93 189,120 34,27 230,86 323,-96 93,-182 837,-1527 837,-2731 0,-1204 -263,-2055 -571,-2769 -54,-127 -194,-154 -284,-120 -89,34 -189,86 -226,106 -38,21 -85,46 -125,-39 0,0 121,276 142,331 -29,-72 24,-148 75,-172 51,-24 103,-45 137,-58 34,-14 131,-63 176,58 195,522 549,1304 534,2656 -15,1343 -765,2563 -813,2639 -48,76 -86,76 -141,48 -55,-27 -127,-69 -165,-93 -38,-24 -89,-72 -47,-144 0,0 -170,124 -188,255z"/>
    <path class="fil9" d="M14632 17134c1,-37 41,-68 101,-71 59,-2 192,2 231,2 39,0 91,37 91,94 13,-48 30,-183 30,-183 0,0 -9,-138 -38,-166 2,50 -26,111 -104,121 -78,9 -199,5 -231,5 -32,0 -79,-27 -79,-75l-28 190 27 84z"/>
    </g>
    <g id="_11civicplazatitle">
    <metadata id="CorelCorpID_7Corel-Layer"/>
    <path class="fil1" d="M15464 15642c-12,5 -31,9 -49,9 -52,0 -83,-32 -83,-84 0,-58 36,-86 82,-86 21,0 37,4 49,9l12 -47c-10,-5 -33,-11 -64,-11 -78,0 -141,50 -141,138 0,74 47,129 136,129 32,0 56,-6 66,-11l-9 -46zm66 -206l1 259 59 0 -1 -259 -59 0z"/>
    <path class="fil1" d="M15789 15694l86 -259 -62 0 -33 111c-9,30 -17,60 -23,92l-1 0c-6,-32 -14,-62 -23,-93l-32 -109 -64 0 84 259 68 0z"/>
    <polygon class="fil1" points="15922,15435 15923,15694 15982,15693 15981,15434 "/>
    <path class="fil1" d="M16233 15640c-12,5 -31,9 -49,9 -52,0 -83,-32 -83,-84 0,-58 36,-86 82,-86 21,0 37,4 49,9l12 -47c-10,-5 -33,-11 -64,-11 -78,0 -141,50 -141,138 0,74 47,129 136,129 32,0 56,-6 66,-11l-9 -46z"/>
    <path class="fil1" d="M15223 16115l58 0 0 -93c5,1 12,1 20,1 35,0 64,-9 84,-28 15,-15 24,-36 24,-62 0,-25 -11,-47 -28,-60 -17,-14 -43,-21 -79,-20 -36,0 -61,3 -79,6l1 256zm57 -215c4,-1 12,-2 24,-2 29,0 46,14 46,38 0,27 -19,42 -50,42 -8,0 -15,0 -20,-1l0 -76zm185 214l162 -1 0 -49 -103 0 -1 -210 -59 0 1 259zm352 -68l20 66 63 0 -81 -259 -77 0 -78 259 61 0 18 -67 74 0zm-66 -44l15 -55c4,-15 8,-35 12,-50l1 0c4,15 9,35 13,50l16 55 -57 0zm189 110l201 -1 0 -48 -123 0 0 -2 120 -176 0 -34 -188 1 0 48 112 0 0 2 -123 178 0 32zm395 -68l20 66 63 0 -81 -259 -77 0 -78 259 61 0 18 -67 74 0zm-66 -44l15 -55c4,-15 8,-35 12,-50l1 0c4,15 9,35 13,50l16 55 -57 0z"/>
    </g>
</g>

<g class = "district sg" data-target="southGate">
    <g id="_10southgatemap">
    <metadata id="CorelCorpID_8Corel-Layer"/>
    <path class="fil10" d="M12898 23115l-6 -2c2,1 4,1 6,2zm-98 -26c-63,-11 -105,-8 -158,-35 -81,-40 -868,-424 -1333,-646 -464,-222 -1198,-491 -1912,-491 -714,0 -593,-7 -680,-7 -87,0 -222,-54 -222,-202l0 -1111c0,-236 47,-357 242,-404 195,-47 612,-155 902,-155 289,0 677,105 1164,404 425,261 969,337 1158,337 285,0 714,-101 1123,-341l-285 2651zm286 -2652c18,-11 33,-19 0,0z"/>
    <path class="fil10" d="M8540 23631c108,0 1072,18 1265,18 471,0 1328,260 1687,583 219,197 202,449 135,597 -67,148 -547,1046 -601,1149 -54,103 -90,139 -225,139 -134,0 -2181,-13 -2275,-13 -94,0 -148,-40 -148,-139l0 -2181c0,-76 54,-153 162,-153z"/>
    <path class="fil10" d="M8707 22553c195,0 1278,15 1745,234 206,94 215,85 292,94 172,15 300,35 411,65 111,30 741,330 1108,676 367,347 555,1124 323,1589 -197,394 -633,1249 -854,1718l-3516 0c3,-211 5,-372 5,-398 0,-84 44,-121 118,-124 74,-3 2322,3 2460,3 138,0 350,-23 468,-229 118,-205 525,-979 636,-1225 111,-246 104,-774 -279,-1016 -383,-242 -993,-575 -1689,-592 -697,-17 -1252,-20 -1353,-20 -101,0 -158,-50 -158,-131l0 -350c0,-98 91,-293 286,-293z"/>
    </g>
    <g id="_09southgatetitle">
    <metadata id="CorelCorpID_9Corel-Layer"/>
    <path class="fil1" d="M9367 21471c15,8 44,16 73,15 71,0 104,-37 104,-81 0,-37 -22,-60 -68,-77 -33,-13 -48,-20 -48,-36 0,-13 12,-25 38,-25 25,0 44,7 54,12l13 -47c-15,-7 -37,-13 -66,-13 -61,0 -98,34 -98,78 0,38 28,61 71,76 31,11 43,20 44,36 0,17 -14,28 -41,28 -25,0 -49,-8 -65,-16l-12 48zm331 -252c-76,0 -126,58 -126,136 0,74 45,132 122,131 76,0 127,-52 127,-137 0,-71 -44,-131 -123,-131zm-1 47c40,0 63,40 63,86 0,50 -22,88 -62,88 -39,0 -63,-36 -63,-86 0,-50 23,-88 62,-88zm182 -43l1 144c0,83 39,119 104,118 68,0 108,-38 108,-118l-1 -145 -58 0 1 149c0,46 -17,67 -47,67 -30,0 -47,-23 -47,-67l-1 -149 -59 0zm333 258l59 0 -1 -210 71 0 0 -49 -199 1 0 49 70 0 1 210zm160 -260l1 259 59 0 0 -108 96 0 0 108 58 0 -1 -259 -58 0 0 100 -96 0 0 -100 -59 0z"/>
    <path class="fil1" d="M10910 21330l-96 0 0 46 40 0 0 54c-5,2 -15,4 -29,4 -48,0 -82,-31 -82,-85 0,-56 37,-84 85,-84 28,0 46,5 60,11l12 -47c-13,-6 -38,-13 -72,-12 -85,0 -147,50 -147,136 0,38 13,72 37,94 24,23 58,35 105,35 34,0 68,-9 86,-15l0 -136zm200 81l20 66 63 0 -81 -259 -77 0 -78 259 61 0 18 -67 74 0zm-66 -44l15 -55c4,-15 8,-35 12,-50l1 0c4,15 9,35 13,50l16 55 -57 0zm221 110l59 0 -1 -210 71 0 0 -49 -199 1 0 49 70 0 1 210zm333 -158l-95 0 0 -54 101 0 0 -48 -160 1 1 259 165 -1 0 -48 -106 0 0 -61 95 0 0 -48z"/>
    </g>
</g>

<g class = "district woods" data-target="woodsDistrict">
    <g id="_08woodsmap">
    <metadata id="CorelCorpID_10Corel-Layer"/>
    <path class="fil6" d="M2778 26432c3,-2 6,-5 8,-7 -3,2 -6,5 -8,7zm11 -9l8 -7c-3,2 -6,5 -8,7zm9 -8c3,-3 6,-5 9,-8 -3,3 -6,6 -9,8zm94 -87c12,-11 24,-22 36,-34 -12,12 -24,23 -36,34zm398 -386c14,-14 28,-27 42,-40 -14,13 -28,27 -42,40zm103 -99c103,-97 194,-178 252,-219 251,-175 672,-314 888,-553 102,-113 232,-326 288,-504 56,-177 162,-485 182,-547 20,-63 72,-119 166,-106 94,13 417,45 592,20 175,-24 637,-182 826,-200 189,-18 1277,-85 1369,-90 92,-4 130,32 128,135 -1,67 -7,1885 -10,3150l-4702 0 237 -306 -215 -781z"/>
    <path class="fil6" d="M8077 25974c-1,-31 -19,-73 -61,-74 -41,-1 -226,16 -315,-116 49,-45 93,-82 102,-90 44,41 87,70 216,66 21,0 57,-23 57,-54 30,31 50,154 50,154l-51 116z"/>
    <path class="fil6" d="M5617 22878c112,9 227,15 347,15 370,0 1521,-249 1669,-276 148,-27 418,-28 418,263 0,290 0,249 0,330 0,81 -61,128 -155,135 -94,7 -814,47 -1023,61 -209,13 -411,40 -612,94 -202,54 -532,148 -788,141l145 -762 0 0z"/>
    </g>
    <g id="_07woodstitle">
    <metadata id="CorelCorpID_11Corel-Layer"/>
    <path class="fil1" d="M5489 25545l24 -112c6,-26 10,-51 15,-80l1 0c3,30 7,54 13,80l22 111 63 0 66 -259 -60 0 -21 106c-5,31 -11,61 -15,90l-1 0c-4,-29 -8,-56 -14,-87l-21 -109 -62 0 -22 106c-6,32 -12,63 -17,91l-1 0c-4,-26 -10,-60 -16,-90l-20 -107 -63 0 62 259 64 0zm365 -265c-76,0 -126,58 -126,136 0,74 45,132 122,131 76,0 127,-52 127,-137 0,-71 -44,-131 -123,-131zm-1 47c40,0 63,40 63,86 0,50 -22,88 -62,88 -39,0 -63,-36 -63,-86 0,-50 23,-88 62,-88zm296 -48c-76,0 -126,58 -126,136 0,74 45,132 122,131 76,0 127,-52 127,-137 0,-71 -44,-131 -123,-131zm-1 47c40,0 63,40 63,86 0,50 -22,88 -62,88 -39,0 -63,-36 -63,-86 0,-50 23,-88 62,-88zm183 215c15,2 36,4 66,4 51,0 92,-11 119,-34 25,-21 43,-55 43,-105 0,-46 -17,-78 -44,-97 -25,-19 -57,-27 -106,-27 -30,0 -58,2 -79,6l1 254zm58 -213c5,-1 13,-2 27,-2 50,0 82,28 82,82 0,62 -34,91 -87,91 -7,0 -15,0 -20,-1l-1 -169zm219 201c15,8 44,16 73,15 71,0 104,-37 104,-81 0,-37 -22,-60 -68,-77 -33,-13 -48,-20 -48,-36 0,-13 12,-25 38,-25 25,0 44,7 54,12l13 -47c-15,-7 -37,-13 -66,-13 -61,0 -98,34 -98,78 0,38 28,61 71,76 31,11 43,20 44,36 0,17 -14,28 -41,28 -25,0 -49,-8 -65,-16l-12 48z"/>
    </g>
</g>

<g class="district palms" data-target="palmsDistrict">
    <g id="_06palmsmap">
    <metadata id="CorelCorpID_12Corel-Layer"/>
    <path class="fil5" d="M1524 22718c71,81 492,596 939,710 447,114 1131,-67 1420,0 289,67 626,279 744,333 118,54 135,121 101,236 -33,114 -148,454 -195,575 -48,121 -161,387 -754,663 -390,182 -878,701 -1225,1040 -218,213 -593,240 -845,152 -227,-80 -545,-391 -528,-811 10,-252 144,-508 81,-1040 -51,-424 -306,-942 -306,-1319 0,-300 242,-505 333,-572 91,-67 168,-44 235,34z"/>
    <path class="fil5" d="M2381 22065c81,86 168,165 262,244 94,79 438,343 501,397 64,54 101,84 110,183 8,99 10,136 8,168 -2,32 -37,96 -125,101 -87,5 -367,54 -596,-19 -229,-72 -380,-190 -534,-350 -153,-160 -220,-247 -247,-279 -27,-32 -35,-126 34,-173 69,-47 333,-231 370,-257 35,-26 134,-101 215,-15z"/>
    <path class="fil5" d="M3186 21724c138,113 938,1028 2432,1154l0 0 0 0 -145 762c-256,-7 -548,-39 -1032,-318 -323,-187 -644,-199 -757,-202 -87,-2 -148,-54 -163,-187 -20,-175 -20,-263 -209,-424 -189,-162 -471,-364 -579,-458 -108,-94 -136,-177 -40,-242 95,-66 106,-73 148,-103 70,-51 197,-103 345,18zm2491 1159c10,1 19,1 29,2 -10,-1 -20,-1 -29,-2zm67 4c17,1 35,2 52,2 -17,-1 -35,-2 -52,-2zm69 3c23,1 45,1 68,2 -23,0 -46,-1 -68,-2zm74 2c26,0 51,1 77,1 -26,0 -52,0 -77,-1z"/>
    <path class="fil5" d="M1171 16590c99,-3 161,112 168,193 179,1994 653,3068 1326,4236 94,175 58,247 9,278 -49,31 -161,107 -224,157 -63,50 -117,54 -161,-9 -494,-723 -1506,-2816 -1506,-4717 0,-69 59,-119 144,-126 0,0 146,-11 245,-13z"/>
    <path class="fil5" d="M1858 11016c91,34 407,162 542,246 135,84 91,263 27,387 -256,471 -1087,2349 -1087,4268 0,158 -98,249 -215,253 -37,3 -222,10 -273,10 -50,0 -89,-28 -89,-109 0,-2320 740,-4602 855,-4925 44,-131 149,-163 240,-129z"/>
    <path class="fil5" d="M0 10410c532,147 1119,309 1171,323 97,27 229,138 195,263 -34,125 -888,2770 -888,5133 0,2363 798,4224 1572,5476 67,111 73,174 -8,235 -69,52 -896,620 -985,690 -89,71 -501,421 -315,1112 52,170 269,828 269,1154 0,327 -90,614 -90,859 0,401 297,1088 1115,1088 279,0 542,-140 742,-312 135,-116 402,-387 616,-589l215 781 -237 306c0,0 -94,238 -87,272 7,34 -579,464 -680,471 -101,7 -357,61 -390,34 -34,-27 -417,-404 -713,-505 -296,-101 -458,54 -579,-61 -121,-114 -727,-193 -922,-211l0 -16520z"/>
    </g>
    <g id="_05palmstitle">
    <metadata id="CorelCorpID_13Corel-Layer"/>
    <path class="fil1" d="M1867 24670l58 0 0 -93c5,1 12,1 20,1 35,0 64,-9 84,-28 15,-15 24,-36 24,-62 0,-25 -11,-47 -28,-60 -17,-14 -43,-21 -79,-20 -36,0 -61,3 -79,6l1 256zm57 -215c4,-1 12,-2 24,-2 29,0 46,14 46,38 0,27 -19,42 -50,42 -8,0 -15,0 -20,-1l0 -76zm296 147l20 66 63 0 -81 -259 -77 0 -78 259 61 0 18 -67 74 0zm-66 -44l15 -55c4,-15 8,-35 12,-50l1 0c4,15 9,35 13,50l16 55 -57 0zm203 110l162 -1 0 -49 -103 0 -1 -210 -59 0 1 259zm438 -2l57 0 -15 -259 -76 0 -27 86c-8,29 -17,63 -24,93l-1 0c-6,-30 -14,-63 -22,-93l-26 -86 -78 0 -16 259 54 0 4 -98c2,-32 3,-72 4,-107l1 0c6,34 15,71 24,101l28 100 46 0 31 -101c10,-30 21,-67 28,-100l1 0c0,38 1,75 3,106l4 99zm111 -12c15,8 44,16 73,15 71,0 104,-37 104,-81 0,-37 -22,-60 -68,-77 -33,-13 -48,-20 -48,-36 0,-13 12,-25 38,-25 25,0 44,7 54,12l13 -47c-15,-7 -37,-13 -66,-13 -61,0 -98,34 -98,78 0,38 28,61 71,76 31,11 43,20 44,36 0,17 -14,28 -41,28 -25,0 -49,-8 -65,-16l-12 48z"/>
    </g>
</g>

<g class = "district west" data-target="westDistrict">
    <g id="_04westgatemap">
    <metadata id="CorelCorpID_14Corel-Layer"/>
    <path class="fil4" d="M337 6612c1598,543 4223,1434 4381,1485 229,74 242,209 182,343 -61,135 -337,633 -640,909 -303,276 -1070,1084 -1252,1400 -108,202 -283,209 -404,148 -121,-61 -680,-350 -1212,-485 -276,-70 -878,-226 -1393,-366l0 -3233 314 -123 23 -78z"/>
    <path class="fil4" d="M5274 6755c-31,299 -54,518 -61,568 -23,175 -67,279 -303,216 -159,-43 -2750,-908 -4411,-1464l66 -219 -197 -269c0,0 -108,-233 72,-260 179,-27 386,-9 485,-72 99,-63 199,-121 248,-149 49,-29 120,-197 192,-275 72,-78 99,-87 215,-61 117,27 521,-21 610,-24 90,-3 242,87 144,141 -99,54 -359,377 -126,583 234,206 530,503 628,538 66,24 220,8 333,-37l-3 1 0 0 2108 783zm-2056 -807c2,-1 3,-2 4,-3 -1,1 -3,2 -4,3zm6 -4c2,-1 3,-2 5,-3 -2,1 -3,2 -5,3zm6 -4c2,-1 3,-2 5,-3 -2,1 -3,2 -5,3zm6 -4c2,-1 3,-2 5,-3 -2,1 -3,2 -5,3zm6 -4c2,-1 3,-2 5,-3 -2,1 -3,2 -5,3zm6 -4c2,-1 3,-2 5,-4 -2,1 -3,2 -5,4zm6 -4c2,-1 3,-3 5,-4 -2,1 -3,3 -5,4zm5 -4c2,-1 3,-3 5,-4 -2,1 -3,3 -5,4zm5 -5c2,-1 3,-3 4,-4 -1,1 -3,3 -4,4zm5 -5c1,-1 3,-3 4,-4 -1,1 -3,3 -4,4zm5 -5c1,-1 3,-3 4,-4 -1,1 -3,3 -4,4zm4 -5c1,-2 3,-3 4,-5 -1,2 -3,3 -4,5zm4 -5c1,-2 3,-3 4,-5 -1,2 -2,3 -4,5zm4 -5c1,-2 2,-3 3,-5 -1,2 -2,3 -3,5zm3 -5c1,-2 2,-3 3,-5 -1,2 -2,3 -3,5z"/>
    <path class="fil4" d="M1106 5745c0,0 2659,902 2690,913 31,10 86,24 131,27 45,3 1232,120 1256,120 24,0 87,13 79,91 -8,78 34,-334 34,-334 0,0 -3,103 -100,99 -96,-5 -1187,-122 -1237,-125 -50,-3 -112,-10 -182,-38 -70,-27 -2623,-894 -2623,-894l-48 141z"/>
    <path class="fil4" d="M1720 6483c-36,-12 -61,-53 -42,-114 20,-61 101,-299 112,-329 12,-31 56,-44 90,-32 17,6 -65,-22 -148,-50 -84,-28 -167,-57 -147,-50 40,13 79,51 65,94 -14,43 -99,303 -111,335 -11,32 -60,66 -113,49 -53,-17 294,98 294,98z"/>
    </g>
    <g id="_03westgatetitle">
    <metadata id="CorelCorpID_15Corel-Layer"/>
    <path class="fil1" d="M703 8912l24 -112c6,-26 10,-51 15,-80l1 0c3,30 7,54 13,80l22 111 63 0 66 -259 -60 0 -21 106c-5,31 -11,61 -15,90l-1 0c-4,-29 -8,-56 -14,-87l-21 -109 -62 0 -22 106c-6,32 -12,63 -17,91l-1 0c-4,-26 -10,-60 -16,-90l-20 -107 -63 0 62 259 64 0zm408 -159l-95 0 0 -54 101 0 0 -48 -160 1 1 259 165 -1 0 -48 -106 0 0 -61 95 0 0 -48zm61 145c15,8 44,16 73,15 71,0 104,-37 104,-81 0,-37 -22,-60 -68,-77 -33,-13 -48,-20 -48,-36 0,-13 12,-25 38,-25 25,0 44,7 54,12l13 -47c-15,-7 -37,-13 -66,-13 -61,0 -98,34 -98,78 0,38 28,61 71,76 31,11 43,20 44,36 0,17 -14,28 -41,28 -25,0 -49,-8 -65,-16l-12 48zm287 11l59 0 -1 -210 71 0 0 -49 -199 1 0 49 70 0 1 210zm385 -150l-96 0 0 46 40 0 0 54c-5,2 -15,4 -29,4 -48,0 -82,-31 -82,-85 0,-56 37,-84 85,-84 28,0 46,5 60,11l12 -47c-13,-6 -38,-13 -72,-12 -85,0 -147,50 -147,136 0,38 13,72 37,94 24,23 58,35 105,35 34,0 68,-9 86,-15l0 -136zm200 81l20 66 63 0 -81 -259 -77 0 -78 259 61 0 18 -67 74 0zm-66 -44l15 -55c4,-15 8,-35 12,-50l1 0c4,15 9,35 13,50l16 55 -57 0zm221 110l59 0 -1 -210 71 0 0 -49 -199 1 0 49 70 0 1 210zm333 -158l-95 0 0 -54 101 0 0 -48 -160 1 1 259 165 -1 0 -48 -106 0 0 -61 95 0 0 -48z"/>
    </g>
</g>

<g class = "district north" data-target ="northDistrict">
    <g id="_02Northgatemap">
    <metadata id="CorelCorpID_16Corel-Layer"/>
    <path class="fil3" d="M5805 7118l1198 0c71,0 128,3 128,114l0 680c0,47 -12,81 -86,71 -43,-6 -656,-103 -1104,-197 -166,-35 -359,-135 -319,-408 0,-2 21,-163 22,-172 8,-47 63,-87 160,-87z"/>
    <path class="fil3" d="M9969 6110l219 0c39,0 93,38 93,97l0 1148c0,74 -57,130 -106,130 -49,0 -142,3 -178,3 -71,0 -148,-77 -148,-149l0 -1094c0,-71 57,-134 121,-134z"/>
    <path class="fil3" d="M8013 5530l529 0c27,0 74,17 74,74l0 2223c0,144 -126,307 -318,292 -483,-40 -678,-66 -942,-95 -48,-8 -86,-55 -86,-100 0,-47 -7,-663 -7,-714 0,-50 37,-77 121,-77l418 0c40,0 104,-27 104,-125 0,-98 10,-1390 10,-1431 0,-40 47,-47 97,-47z"/>
    <path class="fil3" d="M9316 5467l798 0c104,0 167,49 167,127l0 202c0,98 -63,158 -224,158 -162,0 -356,57 -356,316l0 1047c0,202 117,306 275,306 158,0 93,5 149,5 56,0 154,15 154,102 0,87 2,260 2,260 0,94 -39,165 -170,165 -131,0 -684,7 -781,7 -98,0 -209,-71 -209,-212l0 -2279c0,-138 84,-204 195,-204z"/>
    <path class="fil3" d="M5981 5035c30,0 1696,10 1767,10 70,0 83,82 83,117l0 1c-4,753 -9,1709 -9,1743 0,57 -34,104 -128,104 -94,0 -1888,-24 -1918,-24 -30,0 -100,-38 -94,-91 0,-3 191,-1760 192,-1774 6,-61 77,-87 107,-87z"/>
    <path class="fil3" d="M6675 4190c47,2 63,45 63,81l0 589c0,40 -50,67 -81,67l-662 0c-38,0 -99,-10 -99,-58 0,-2 0,-3 0,-5 18,-283 134,-669 642,-673 16,0 137,-1 137,-1z"/>
    <path class="fil3" d="M7774 4182c42,2 61,43 61,76 0,10 -1,260 -3,603l0 1c-1,46 -48,66 -91,66l-791 0c-20,0 -64,-17 -64,-54l0 -606c0,-47 18,-76 48,-79 2,0 4,0 6,0 14,0 126,-1 263,-2 245,-2 571,-4 571,-4z"/>
    <path class="fil3" d="M8409 4178c144,0 207,90 207,188l0 897c0,37 -44,51 -87,51l-532 0c-44,0 -81,-7 -81,-44l0 -1000c0,-50 35,-90 70,-90 94,-1 178,-1 246,-2 21,0 40,0 58,0 58,0 99,-1 119,-1z"/>
    <path class="fil3" d="M9316 4178l798 0c104,0 167,50 167,127l0 697c0,94 -39,165 -170,165 -131,0 -684,7 -781,7 -98,0 -209,-71 -209,-212l0 -579c0,-138 84,-204 195,-204z"/>
    <path class="fil3" d="M8894 2360l431 0c588,0 956,521 956,947l0 377c0,130 -63,189 -170,189 -108,0 -1894,13 -2038,13 -108,0 -184,-90 -184,-180 0,-90 5,-296 5,-395 0,-628 597,-952 1001,-952z"/>
    <path class="fil3" d="M15275 7077c45,-18 126,-9 188,63 63,72 431,117 592,171 162,54 382,72 382,72l-16 321c-85,185 -287,327 -590,334 -413,9 -4963,99 -5080,99 -116,0 -161,-72 -161,-162l0 -4658c0,-350 -305,-1239 -1113,-1239 -485,0 -530,-9 -763,-9 -234,0 -1122,323 -1122,1346l0 317c0,49 -16,151 -156,151 -140,0 -1099,10 -1301,10 -202,0 -577,126 -626,561 -35,311 -160,1554 -237,2302l-2108 -783 0 0c58,-23 106,-53 128,-90 63,-108 126,-296 296,-296 171,0 234,-27 242,-99 9,-72 0,-368 0,-467 0,-99 81,-117 179,-162 99,-45 117,-77 131,-101 8,-14 5,-103 2,-190 -2,-59 -4,-117 -2,-149 3,-81 -329,-332 -374,-395 -45,-63 -99,-296 81,-287 179,9 426,9 478,-18 52,-27 240,-108 204,-152 -36,-45 -305,-198 -314,-242 -9,-45 -7,-49 49,-146 56,-97 40,-159 202,-204 162,-45 278,-81 332,-162 54,-81 287,-449 431,-610 144,-162 260,-332 449,-260 143,-63 437,-215 551,-278 113,-63 128,-27 219,45 91,72 262,350 423,341 162,-9 476,-54 530,-90 54,-36 142,-144 152,-242 10,-99 91,-126 279,-153 188,-27 386,-27 574,-188 189,-162 341,-682 476,-745 134,-63 323,-108 386,-99 63,9 521,-90 655,-108 134,-18 386,0 619,-27 233,-27 364,-70 386,-99 22,-29 61,-289 242,-300 0,337 36,7947 36,7947 0,0 198,-18 314,18 126,-9 195,-6 255,-83 59,-78 158,-258 221,-258 63,0 108,144 170,99 63,-45 155,-167 251,-188 97,-21 233,-9 431,72 198,81 288,162 369,179 80,18 296,45 403,0 108,-45 278,-162 422,-215 143,-54 170,-54 215,-135 45,-81 152,-162 233,-144 81,18 144,54 251,-18 108,-71 108,-36 206,36 99,72 171,152 233,9 63,-143 45,-224 90,-242z"/>
    <path class="fil3" d="M10588 5508c0,-51 33,-107 97,-107 64,0 510,0 510,0l0 -109c0,0 -426,0 -503,0 -78,0 -104,-32 -104,-92 0,-59 0,308 0,308z"/>
    </g>
    <g id="_01Northgatetitle">
    <metadata id="CorelCorpID_17Corel-Layer"/>
    <path class="fil1" d="M4947 3345l0 -78c0,-42 -1,-79 -3,-113l1 0c13,30 30,64 45,91l56 100 61 0 -1 -259 -54 0 0 76c0,39 1,74 5,108l-1 0c-12,-29 -27,-61 -43,-89l-54 -95 -68 0 1 259 54 0zm344 -264c-76,0 -126,58 -126,136 0,74 45,132 122,131 76,0 127,-52 127,-137 0,-71 -44,-131 -123,-131zm-1 47c40,0 63,40 63,86 0,50 -22,88 -62,88 -39,0 -63,-36 -63,-86 0,-50 23,-88 62,-88zm183 216l58 0 0 -102 18 0c24,0 35,9 42,41 8,32 14,53 18,60l60 0c-5,-10 -13,-44 -21,-73 -7,-24 -17,-41 -35,-48l0 -1c22,-8 46,-31 46,-64 0,-24 -9,-42 -24,-54 -18,-15 -45,-20 -84,-20 -31,0 -59,3 -78,6l1 256zm57 -216c4,-1 12,-2 27,-2 27,0 43,12 43,36 0,23 -17,37 -46,37l-23 0 0 -71zm240 215l59 0 -1 -210 71 0 0 -49 -199 1 0 49 70 0 1 210zm179 -260l1 259 59 0 0 -108 96 0 0 108 58 0 -1 -259 -58 0 0 100 -96 0 0 -100 -59 0zm501 109l-96 0 0 46 40 0 0 54c-5,2 -15,4 -29,4 -48,0 -82,-31 -82,-85 0,-56 37,-84 85,-84 28,0 46,5 60,11l12 -47c-13,-6 -38,-13 -72,-12 -85,0 -147,50 -147,136 0,38 13,72 37,94 24,23 58,35 105,35 34,0 68,-9 86,-15l0 -136zm200 81l20 66 63 0 -81 -259 -77 0 -78 259 61 0 18 -67 74 0zm-66 -44l15 -55c4,-15 8,-35 12,-50l1 0c4,15 9,35 13,50l16 55 -57 0zm221 110l59 0 -1 -210 71 0 0 -49 -199 1 0 49 70 0 1 210zm333 -158l-95 0 0 -54 101 0 0 -48 -160 1 1 259 165 -1 0 -48 -106 0 0 -61 95 0 0 -48z"/>
    </g>
</g>
</svg>
