<?xml version="1.0" encoding="UTF-8"?>
<!DOCTYPE svg PUBLIC "-//W3C//DTD SVG 1.1//EN" "http://www.w3.org/Graphics/SVG/1.1/DTD/svg11.dtd">
<!-- Creator: CorelDRAW X6 -->
<svg xmlns="http://www.w3.org/2000/svg" xml:space="preserve" width="0.877098in" height="0.804976in" version="1.1" style="shape-rendering:geometricPrecision; text-rendering:geometricPrecision; image-rendering:optimizeQuality; fill-rule:evenodd; clip-rule:evenodd"
viewBox="0 0 1148 1053"
 xmlns:xlink="http://www.w3.org/1999/xlink">
 <defs>
  <style type="text/css">
   <![CDATA[
    .fil0 {fill:#00AB98}
   ]]>
  </style>
 </defs>
 <g id="Layer_x0020_1">
  <metadata id="CorelCorpID_0Corel-Layer"/>
  <rect class="fil0" transform="matrix(1 -0 -0.323072 1 96.4829 754.662)" width="127" height="299"/>
  <rect class="fil0" transform="matrix(1 -0 -0.0927339 1 397.435 754.662)" width="127" height="299"/>
  <rect class="fil0" transform="matrix(1 -0 0.0574265 1 672.217 754.662)" width="127" height="299"/>
  <rect class="fil0" transform="matrix(1 -0 0.290243 1 933.915 754.662)" width="127" height="299"/>
  <circle class="fil0" cx="473" cy="98" r="98"/>
  <circle class="fil0" cx="826" cy="246" r="60"/>
  <rect class="fil0" x="373" y="232" width="165" height="315" rx="63" ry="63"/>
  <path class="fil0" d="M402 250c-25,9 -68,33 -100,50 -32,18 -54,29 -66,43 -12,15 -13,33 -10,55 2,21 8,46 14,65 6,19 11,32 21,40 10,7 23,8 34,5 11,-3 18,-10 20,-20 1,-10 -4,-24 -10,-42 -5,-18 -11,-40 -5,-55 6,-15 23,-22 49,-36 26,-14 61,-36 79,-54 17,-18 17,-31 13,-42 -4,-10 -12,-18 -38,-9z"/>
  <path class="fil0" d="M534 500c16,21 42,57 59,85 17,29 26,50 32,79 6,29 10,66 11,102 1,37 0,73 -6,94 -6,21 -18,26 -32,27 -14,1 -30,-2 -39,-9 -9,-7 -10,-19 -12,-40 -2,-21 -6,-52 -9,-81 -3,-29 -6,-55 -9,-74 -3,-19 -7,-32 -11,-46 -4,-14 -10,-28 -16,-42 -6,-14 -13,-27 -25,-41 -12,-14 -28,-28 -32,-41 -4,-13 5,-24 17,-31 12,-7 29,-10 39,-9 11,1 16,6 32,27z"/>
  <path class="fil0" d="M535 374c7,2 16,14 26,23 10,9 20,13 31,15 11,3 23,3 31,7 8,4 13,11 14,18 1,7 -2,14 -8,21 -6,6 -15,12 -27,13 -11,1 -25,-2 -39,-6 -13,-5 -26,-11 -34,-24 -8,-13 -11,-32 -10,-46 1,-14 7,-23 14,-22z"/>
  <path class="fil0" d="M372 493c-6,29 -13,80 -22,116 -8,36 -17,58 -31,82 -14,24 -32,51 -50,76 -18,25 -34,49 -37,66 -3,18 8,29 22,36 13,7 29,9 47,-3 19,-12 41,-38 62,-69 22,-31 43,-67 54,-98 11,-32 12,-59 15,-93 3,-33 9,-72 10,-99 1,-27 -5,-41 -14,-49 -10,-8 -25,-9 -35,-6 -10,3 -15,11 -21,40z"/>
  <path class="fil0" d="M790 194c0,-9 -5,-20 -14,-26 -9,-6 -23,-9 -35,-2 -12,7 -22,22 -25,38 -4,16 -2,33 -2,49 0,16 -3,32 -8,42 -6,11 -15,16 -23,18 -8,2 -15,-1 -16,2 -1,3 6,11 14,17 8,6 19,8 31,6 12,-3 25,-12 34,-21 9,-10 14,-21 19,-37 5,-16 11,-38 16,-53 5,-15 10,-23 10,-32z"/>
  <rect class="fil0" x="785" y="325" width="78" height="149" rx="30" ry="30"/>
  <path class="fil0" d="M780 452c-8,11 -22,30 -35,48 -13,18 -24,36 -26,49 -2,12 6,19 15,24 9,6 19,10 32,14 14,3 31,6 51,6 20,0 42,-1 61,-3 19,-2 34,-5 41,-9 7,-5 6,-11 -1,-27 -6,-16 -17,-41 -28,-61 -10,-20 -19,-34 -25,-43 -6,-9 -9,-13 -16,-15 -7,-2 -19,-3 -29,-3 -10,0 -18,1 -24,3 -6,2 -9,6 -18,17z"/>
  <path class="fil0" d="M891 539c8,13 20,34 29,50 9,16 16,28 25,43 9,15 19,33 27,52 8,19 14,40 14,52 0,13 -5,18 -13,21 -7,3 -17,4 -23,2 -6,-2 -9,-9 -14,-20 -5,-11 -13,-28 -19,-43 -7,-15 -13,-29 -17,-40 -4,-11 -7,-18 -11,-26 -4,-8 -10,-17 -16,-28 -6,-11 -13,-25 -19,-38 -6,-13 -11,-26 -12,-33 0,-7 4,-10 10,-11 6,-1 14,-2 20,0 6,2 11,6 19,19z"/>
  <path class="fil0" d="M781 536c-4,17 -8,46 -12,67 -5,21 -10,34 -18,48 -8,14 -19,29 -29,44 -10,15 -20,28 -22,38 -2,10 5,17 13,21 8,4 17,5 27,-2 11,-7 23,-22 36,-40 13,-18 25,-39 31,-57 6,-18 7,-34 9,-54 2,-19 5,-42 6,-57 0,-15 -3,-24 -8,-28 -6,-5 -14,-5 -20,-3 -6,2 -9,6 -12,23z"/>
  <path class="fil0" d="M857 347c6,4 12,11 17,16 5,5 9,8 9,14 1,6 -2,14 -6,20 -4,6 -11,10 -14,12 -4,3 -5,5 -4,7 1,2 5,4 11,5 6,1 14,3 21,2 7,0 13,-2 18,-4 5,-2 9,-4 11,-2 3,2 4,8 4,12 -1,5 -3,8 -8,10 -5,2 -12,3 -19,4 -8,1 -16,1 -23,0 -7,0 -13,-2 -19,-5 -6,-3 -13,-8 -20,-13 -7,-5 -14,-10 -20,-15 -6,-5 -11,-10 -17,-9 -6,0 -14,6 -21,12 -7,6 -13,13 -17,21 -4,9 -6,19 -8,27 -2,8 -3,13 -6,15 -3,2 -9,1 -12,-1 -4,-2 -6,-6 -7,-12 0,-6 1,-13 4,-23 3,-10 8,-22 13,-33 5,-10 10,-19 18,-28 7,-9 16,-17 24,-24 9,-7 18,-12 27,-15 9,-3 18,-3 25,-2 8,1 14,2 20,6z"/>
 </g>
</svg>
