<?xml version="1.0" encoding="UTF-8"?>
<!DOCTYPE svg PUBLIC "-//W3C//DTD SVG 1.1//EN" "http://www.w3.org/Graphics/SVG/1.1/DTD/svg11.dtd">
<!-- Creator: CorelDRAW X6 -->
<svg xmlns="http://www.w3.org/2000/svg" xml:space="preserve" width="1.26195in" height="0.889213in" version="1.1" style="shape-rendering:geometricPrecision; text-rendering:geometricPrecision; image-rendering:optimizeQuality; fill-rule:evenodd; clip-rule:evenodd"
viewBox="0 0 882 622"
 xmlns:xlink="http://www.w3.org/1999/xlink">
 <defs>
  <style type="text/css">
   <![CDATA[
    .fil0 {fill:#00AB98;fill-rule:nonzero}
   ]]>
  </style>
 </defs>
 <g id="Layer_x0020_1">
  <metadata id="CorelCorpID_0Corel-Layer"/>
  <path class="fil0" d="M677 211c-14,0 -28,1 -41,4l-64 -200c-2,-7 -7,-12 -14,-14 -6,-2 -14,-2 -20,2l-49 31c-10,7 -13,20 -7,31 7,10 20,13 31,7l25 -16 37 116 -197 0 -23 -52 33 0c16,0 30,-13 30,-30 0,-16 -13,-30 -30,-30l-110 0c-23,0 -42,19 -42,42 0,15 8,30 22,37 13,7 30,7 43,-1l11 -7 27 60 -33 46c-30,-17 -64,-26 -100,-26 -113,0 -205,92 -205,205 0,113 92,205 205,205 106,0 193,-80 204,-183l64 0c11,103 98,183 204,183 113,0 205,-92 205,-205 0,-113 -92,-205 -205,-205zm-302 6l215 0 4 12c-65,29 -113,91 -121,165l-64 0c-6,-52 -31,-98 -67,-131l33 -47zm271 177l-113 0c7,-47 37,-87 79,-108l35 108zm-298 0l-100 0 59 -82c22,22 37,50 42,82zm-144 168c-80,0 -146,-65 -146,-146 0,-80 65,-146 146,-146 24,0 46,6 65,16l-65 91c0,0 0,0 0,0 -21,0 -38,17 -38,38 0,21 17,38 38,38 13,0 24,-7 30,-16l113 0c-11,70 -71,124 -144,124zm472 0c-73,0 -133,-54 -144,-124l113 0c7,10 18,16 31,16 21,0 38,-17 38,-38 0,-17 -11,-31 -27,-36l-34 -108c7,-1 15,-2 23,-2 80,0 146,65 146,146 0,80 -65,146 -146,146z"/>
 </g>
</svg>
