<?xml version="1.0" encoding="UTF-8"?>
<!DOCTYPE svg PUBLIC "-//W3C//DTD SVG 1.1//EN" "http://www.w3.org/Graphics/SVG/1.1/DTD/svg11.dtd">
<!-- Creator: CorelDRAW X6 -->
<svg xmlns="http://www.w3.org/2000/svg" xml:space="preserve" width="0.825969in" height="0.898406in" version="1.1" style="shape-rendering:geometricPrecision; text-rendering:geometricPrecision; image-rendering:optimizeQuality; fill-rule:evenodd; clip-rule:evenodd"
viewBox="0 0 126 137"
 xmlns:xlink="http://www.w3.org/1999/xlink">
 <defs>
  <style type="text/css">
   <![CDATA[
    .fil0 {fill:#00AB98}
   ]]>
  </style>
 </defs>
 <g id="Layer_x0020_1">
  <metadata id="CorelCorpID_0Corel-Layer"/>
  <path class="fil0" d="M23 35c0,0 1,0 1,0l0 0 0 0 0 0 0 0 0 0 0 0 0 0 0 0 0 0 0 0 0 0 0 0 0 0 0 0 0 0 0 0 0 0 0 0 0 0 0 0 0 0 0 0 0 0 0 0 0 0 0 0 0 0 0 0 0 0 0 0 0 0c0,0 0,0 0,0 0,-10 8,-18 18,-18 2,0 3,0 5,1 2,-8 9,-14 18,-14 10,0 18,8 18,18 0,0 0,1 0,1 3,-3 8,-5 12,-5 10,0 18,8 18,18 0,2 0,4 -1,6 2,2 3,4 3,7 0,1 0,2 0,2 6,4 10,10 10,18 0,12 -10,21 -22,22 -4,7 -11,11 -20,11 -3,0 -6,-1 -9,-2 0,-1 1,-2 1,-3 1,-2 2,-3 3,-5 1,-1 3,-3 4,-4 1,-1 3,-2 3,-3 1,-1 1,-3 1,-4 0,-1 -2,-2 -3,-3 -1,-1 -3,-1 -4,0 -1,0 -3,1 -4,2 -1,1 -2,1 -2,2 -1,1 -1,1 -1,0 0,-1 0,-2 0,-5 0,-2 -1,-5 -1,-6 -1,-2 -1,-3 -2,-3 -1,-1 -2,-1 -3,-1 -1,0 -2,0 -3,1 -1,0 -1,1 -2,2 -1,1 -1,2 -2,4 0,2 -1,4 -1,6 0,2 0,3 0,4 0,1 -1,1 -1,0 -1,-1 -2,-2 -3,-3 -1,-1 -3,-2 -4,-2 -1,0 -3,-1 -4,0 -1,0 -2,1 -3,2 -1,1 -2,2 -2,3 0,1 0,2 0,3 0,1 1,2 2,3 1,1 2,3 4,4 1,1 2,3 3,4 1,1 1,2 1,3 0,1 0,2 0,3 -2,1 -4,1 -7,1 -9,0 -17,-5 -20,-12 -1,0 -2,0 -3,0 -12,0 -22,-10 -22,-22 0,-5 2,-9 5,-13 0,-9 9,-17 18,-17z"/>
  <path class="fil0" d="M71 83c0,-2 -1,-5 -1,-9 0,-3 0,-5 -1,-7 -1,-1 -1,-2 -2,-2 -1,0 -2,1 -3,2 -1,2 -1,4 -1,7 0,3 0,7 -1,9 0,2 -1,3 -2,2 -1,0 -2,-2 -2,-3 -1,-1 -2,-3 -3,-4 -1,-1 -2,-2 -3,-2 -1,0 -2,-1 -3,-1 -1,0 -2,0 -3,0 -1,0 -1,1 -1,2 0,1 1,2 2,3 1,1 2,2 3,3 1,1 2,4 3,7 1,3 2,7 2,12 0,5 0,11 -1,16 -1,5 -2,9 -3,11 -1,2 -2,3 -3,4 -1,1 -3,2 -4,3 13,0 26,0 39,0 -1,-1 -2,-2 -3,-3 -1,-1 -2,-2 -3,-3 -1,-1 -1,-1 -2,-3 -1,-2 -2,-6 -2,-11 -1,-5 -1,-12 0,-16 0,-5 1,-7 3,-10 1,-2 2,-4 4,-5 2,-1 4,-3 5,-4 1,-1 1,-2 1,-3 -1,-1 -2,-1 -4,-1 -1,0 -3,1 -4,2 -1,1 -3,3 -4,4 -1,1 -1,2 -2,0z"/>
 </g>
</svg>
