<?xml version="1.0" encoding="UTF-8"?>
<!DOCTYPE svg PUBLIC "-//W3C//DTD SVG 1.1//EN" "http://www.w3.org/Graphics/SVG/1.1/DTD/svg11.dtd">
<!-- Creator: CorelDRAW X6 -->
<svg xmlns="http://www.w3.org/2000/svg" xml:space="preserve" width="0.768453in" height="0.68826in" version="1.1" style="shape-rendering:geometricPrecision; text-rendering:geometricPrecision; image-rendering:optimizeQuality; fill-rule:evenodd; clip-rule:evenodd"
viewBox="0 0 1003 898"
 xmlns:xlink="http://www.w3.org/1999/xlink">
 <defs>
  <style type="text/css">
   <![CDATA[
    .fil0 {fill:#00AB98}
    .fil1 {fill:white}
   ]]>
  </style>
 </defs>
 <g id="Layer_x0020_1">
  <metadata id="CorelCorpID_0Corel-Layer"/>
  <path class="fil0" d="M458 856c-35,-18 -60,-42 -80,-68 -20,-27 -35,-57 -44,-87 -9,-31 -13,-62 -12,-92 1,-30 5,-60 10,-89 22,10 43,20 60,31 17,10 28,21 40,31 5,-17 11,-34 17,-48 6,-14 13,-25 19,-35 7,-10 13,-18 19,-27 10,12 19,24 29,35 10,12 19,23 26,32 7,9 11,15 15,20 15,-15 30,-30 45,-42 15,-12 30,-21 45,-29 10,19 20,38 27,57 7,19 10,38 13,57 16,-7 33,-15 48,-21 15,-6 28,-10 39,-13 10,-3 18,-3 26,-4 -1,19 -2,38 -3,56 -2,17 -4,32 -6,42 -2,11 -3,17 -4,23 13,-3 25,-7 38,-8 13,-1 26,0 39,3 14,3 28,7 41,11 -14,28 -28,56 -51,83 -24,27 -57,52 -90,73 -33,21 -64,37 -94,46 -30,8 -58,9 -94,3 -36,-6 -81,-20 -116,-38z"/>
  <path class="fil1" d="M428 589c-3,16 -5,46 -4,71 1,25 4,45 6,58 2,13 3,17 5,20 2,2 4,2 5,-1 0,-2 -1,-6 -3,-13 -2,-8 -4,-19 -5,-34 -1,-15 -2,-35 -1,-52 1,-17 2,-32 3,-44 1,-11 2,-19 1,-22 -1,-2 -4,1 -7,18z"/>
  <path class="fil1" d="M445 773c5,13 17,37 27,54 10,17 16,27 21,31 5,4 8,3 8,0 0,-3 -3,-9 -10,-20 -7,-12 -19,-30 -27,-43 -8,-13 -12,-22 -15,-28 -3,-6 -4,-8 -5,-8 -2,0 -4,1 1,14z"/>
  <path class="fil1" d="M524 866c1,-4 0,-11 -3,-21 -3,-10 -9,-24 -11,-51 -2,-27 -1,-68 4,-101 5,-33 13,-59 20,-77 7,-19 14,-31 18,-39 4,-8 7,-13 7,-16 0,-3 -3,-5 -9,3 -6,8 -15,26 -24,48 -9,22 -18,48 -22,81 -5,32 -5,71 -3,99 2,28 6,44 9,56 4,11 7,18 9,21 2,3 4,2 5,-2z"/>
  <path class="fil1" d="M557 865c9,-7 25,-19 40,-34 15,-15 28,-33 40,-53 11,-20 20,-42 27,-65 7,-24 12,-49 14,-67 3,-18 4,-29 5,-36 1,-6 2,-8 4,-8 2,0 4,2 3,15 -1,13 -5,37 -10,61 -5,24 -11,48 -18,67 -7,20 -14,36 -26,52 -11,16 -27,32 -42,46 -15,14 -29,25 -37,30 -8,5 -11,4 -11,2 0,-2 2,-4 11,-11z"/>
  <path class="fil1" d="M600 869c14,-9 40,-24 62,-40 22,-16 41,-31 53,-44 12,-13 18,-23 23,-31 5,-8 10,-13 13,-15 3,-2 4,0 3,4 -1,4 -2,11 -12,24 -9,13 -25,33 -47,51 -21,18 -47,35 -67,46 -20,11 -33,15 -39,16 -6,1 -5,-2 9,-11z"/>
  <path class="fil1" d="M774 692c-4,5 -8,15 -10,21 -2,6 -1,8 0,9 1,0 4,-1 6,-4 2,-3 5,-8 7,-14 2,-6 5,-12 4,-15 -1,-3 -4,-2 -8,4z"/>
  <rect class="fil0" transform="matrix(0.889651 -1.0162 1.0162 0.889651 -22.1052 339.627)" width="107" height="136" rx="73" ry="73"/>
  <rect class="fil0" transform="matrix(1.17531 0.665419 -0.665419 1.17531 191.829 210.394)" width="107" height="136" rx="73" ry="73"/>
  <rect class="fil0" transform="matrix(-0.269341 1.32348 -1.32348 -0.269341 359.111 372.026)" width="107" height="136" rx="73" ry="73"/>
  <rect class="fil0" transform="matrix(-1.33379 0.21245 -0.21245 -1.33379 264.785 576.804)" width="107" height="136" rx="73" ry="73"/>
  <rect class="fil0" transform="matrix(-0.769181 -1.11018 1.11018 -0.769181 54.144 570.837)" width="107" height="136" rx="73" ry="73"/>
  <circle class="fil1" transform="matrix(1.09068 -1.24582 1.24582 1.09068 166.428 410.199)" r="26"/>
  <path class="fil0" d="M886 416c-22,-54 -68,-159 -93,-212 -25,-53 -28,-55 -32,-56 -4,-1 -8,0 -11,2 -3,2 -6,5 -21,36 -14,32 -41,92 -55,127 -15,35 -18,45 -18,55 0,11 2,23 10,38 8,16 21,36 36,51 15,16 31,27 48,34 17,8 35,11 53,11 18,0 37,-5 54,-10 18,-5 34,-12 43,-16 9,-5 9,-7 -13,-61z"/>
  <path class="fil0" d="M871 277c21,-8 61,-21 83,-28 22,-7 27,-8 31,-7 4,1 8,3 10,7 2,4 3,8 -10,44 -13,35 -41,101 -56,133 -14,33 -15,33 -27,5 -12,-28 -34,-85 -44,-114 -10,-29 -8,-32 13,-39z"/>
  <path class="fil0" d="M921 223c-4,-14 -11,-39 -15,-53 -4,-14 -6,-16 -9,-18 -3,-2 -6,-3 -10,-4 -4,0 -8,1 -22,6 -14,5 -38,14 -50,19 -12,5 -13,8 -8,23 5,16 17,46 24,61 7,16 11,17 16,16 5,-1 13,-4 26,-10 14,-6 34,-14 43,-19 9,-6 8,-8 4,-22z"/>
  <path class="fil0" d="M491 369c-21,-1 -42,-6 -54,-16 -13,-11 -18,-28 -16,-51 1,-24 9,-54 19,-76 10,-22 22,-37 34,-47 12,-10 25,-15 40,-20 15,-5 32,-9 47,-13 15,-4 28,-9 37,-15 9,-6 15,-14 17,-21 2,-8 1,-16 -4,-26 -5,-10 -14,-23 -14,-28 0,-5 9,-1 18,9 9,10 17,28 20,57 3,29 2,70 -2,103 -3,34 -8,60 -22,82 -14,22 -36,41 -58,51 -22,10 -42,12 -63,11z"/>
  <path class="fil0" d="M456 150c-10,-3 -26,-7 -42,-11 -16,-4 -32,-7 -42,-14 -10,-6 -14,-16 -14,-25 0,-9 4,-18 7,-26 3,-7 6,-13 2,-11 -4,2 -14,12 -21,27 -7,15 -11,35 -12,65 -1,31 0,72 5,100 5,28 14,44 25,58 11,14 26,27 34,33 8,6 10,6 9,-2 -1,-8 -6,-23 -5,-44 1,-21 8,-49 15,-71 7,-21 15,-37 25,-48 10,-11 21,-19 25,-23 4,-4 1,-5 -9,-7z"/>
  <path class="fil0" d="M525 121c2,-9 0,-22 -7,-32 -7,-10 -19,-18 -32,-21 -13,-3 -26,-3 -38,-3 -11,0 -21,-2 -28,-6 -7,-4 -12,-11 -13,-18 -2,-6 0,-12 -3,-9 -3,3 -9,15 -11,29 -2,14 0,30 5,41 6,11 15,18 27,23 12,4 25,6 40,8 15,2 31,4 41,3 11,-1 16,-6 18,-15z"/>
  <path class="fil0" d="M576 96c0,-11 0,-28 -4,-43 -4,-15 -12,-28 -29,-37 -17,-9 -43,-14 -62,-16 -19,-1 -30,1 -39,3 -9,2 -15,4 -17,9 -2,5 0,13 3,19 3,6 6,10 13,12 7,2 17,2 30,4 12,2 26,5 37,10 11,5 18,10 24,19 6,9 10,20 12,30 2,10 2,17 7,18 5,1 14,-4 20,-8 5,-5 6,-8 6,-19z"/>
  <path class="fil0" d="M238 633c-17,-4 -37,-9 -52,-9 -15,0 -25,4 -38,10 -13,6 -29,14 -42,20 -13,6 -22,10 -20,14 2,4 15,8 28,15 13,6 26,15 40,19 14,4 29,5 45,-3 17,-8 35,-24 49,-34 14,-10 24,-15 21,-19 -2,-4 -16,-9 -33,-13z"/>
  <path class="fil0" d="M834 627c4,-9 18,-23 34,-33 16,-10 33,-16 52,-20 18,-4 37,-5 52,-7 15,-2 28,-6 31,-2 3,4 -3,17 -12,30 -9,12 -20,25 -37,32 -17,8 -38,11 -58,13 -19,2 -37,3 -48,2 -12,-1 -18,-5 -14,-14z"/>
  <path class="fil0" d="M565 474c-3,-13 -9,-32 -9,-48 0,-17 7,-31 15,-43 8,-12 18,-21 26,-30 8,-9 14,-18 19,-19 4,-1 7,5 11,16 4,11 10,27 9,45 -1,18 -8,38 -16,53 -8,15 -18,26 -26,34 -8,8 -16,13 -20,12 -4,-1 -5,-8 -8,-21z"/>
  <path class="fil0" d="M441 491c3,-13 8,-29 7,-45 0,-16 -5,-31 -12,-42 -7,-11 -15,-18 -25,-25 -10,-7 -22,-13 -32,-19 -10,-6 -19,-11 -23,-11 -3,1 0,7 2,19 3,12 5,29 7,45 2,16 4,32 9,45 5,13 14,25 24,35 10,10 22,20 29,20 7,0 10,-10 14,-23z"/>
 </g>
</svg>
