<?xml version="1.0" encoding="UTF-8"?>
<!DOCTYPE svg PUBLIC "-//W3C//DTD SVG 1.1//EN" "http://www.w3.org/Graphics/SVG/1.1/DTD/svg11.dtd">
<!-- Creator: CorelDRAW X6 -->
<svg xmlns="http://www.w3.org/2000/svg" xml:space="preserve" width="0.883161in" height="0.823594in" version="1.1" style="shape-rendering:geometricPrecision; text-rendering:geometricPrecision; image-rendering:optimizeQuality; fill-rule:evenodd; clip-rule:evenodd"
viewBox="0 0 422 394"
 xmlns:xlink="http://www.w3.org/1999/xlink">
 <defs>
  <style type="text/css">
   <![CDATA[
    .fil0 {fill:#00AB98}
   ]]>
  </style>
 </defs>
 <g id="Layer_x0020_1">
  <metadata id="CorelCorpID_0Corel-Layer"/>
  <path class="fil0" d="M6 349c-5,-9 -8,-20 -3,-31 5,-11 16,-22 35,-32 19,-10 46,-19 90,-21 44,-3 106,1 150,7 44,6 71,16 93,26 22,11 38,23 46,34 8,11 8,21 0,26 -8,6 -23,7 -42,8 -19,0 -41,0 -67,2 -26,3 -55,8 -85,14 -29,6 -59,12 -92,11 -33,-2 -69,-11 -90,-20 -22,-8 -29,-16 -35,-25zm101 -50c24,0 43,9 43,19 0,11 -19,19 -43,19 -24,0 -43,-9 -43,-19 0,-11 19,-19 43,-19z"/>
  <path class="fil0" d="M107 0l0 0c6,0 11,5 11,11l0 309 -22 0 0 -309c0,-6 5,-11 11,-11z"/>
  <path class="fil0" d="M114 32c7,-12 21,-13 39,-13 18,0 39,2 53,6 14,3 21,8 23,13 2,5 -1,10 -2,15 -1,4 -1,8 2,9 3,1 10,-1 18,-2 8,-1 16,0 21,2 5,2 7,6 6,10 -1,4 -3,8 -1,10 2,2 10,2 16,1 6,-1 11,-3 16,-7 5,-4 11,-9 14,-8 2,1 1,8 -2,16 -3,8 -8,18 -16,23 -7,6 -17,7 -25,7 -8,0 -13,-1 -16,0 -3,1 -3,4 -6,6 -3,2 -9,2 -15,1 -6,-1 -12,-3 -17,-2 -4,0 -7,3 -11,5 -4,2 -8,5 -17,3 -8,-1 -21,-7 -31,-11 -10,-4 -18,-7 -27,-7 -9,0 -19,2 -24,-1 -5,-3 -6,-12 -6,-28 0,-15 0,-37 7,-48z"/>
 </g>
</svg>
