<?xml version="1.0" encoding="UTF-8"?>
<!DOCTYPE svg PUBLIC "-//W3C//DTD SVG 1.1//EN" "http://www.w3.org/Graphics/SVG/1.1/DTD/svg11.dtd">
<!-- Creator: CorelDRAW X6 -->
<svg xmlns="http://www.w3.org/2000/svg" xml:space="preserve" width="1.15431in" height="0.537543in" version="1.1" style="shape-rendering:geometricPrecision; text-rendering:geometricPrecision; image-rendering:optimizeQuality; fill-rule:evenodd; clip-rule:evenodd"
viewBox="0 0 757 353"
 xmlns:xlink="http://www.w3.org/1999/xlink">
 <defs>
  <style type="text/css">
   <![CDATA[
    .fil0 {fill:#00AB98}
   ]]>
  </style>
 </defs>
 <g id="Layer_x0020_1">
  <metadata id="CorelCorpID_0Corel-Layer"/>
  <path class="fil0" d="M25 0l24 0c14,0 25,11 25,25l0 322c0,3 -2,5 -5,5l-64 0c-3,0 -5,-2 -5,-5l0 -322c0,-14 11,-25 25,-25z"/>
  <rect class="fil0" y="202" width="757" height="67" rx="5" ry="5"/>
  <rect class="fil0" x="685" y="202" width="72" height="148" rx="5" ry="5"/>
  <path class="fil0" d="M269 165c-1,-23 -1,-47 -1,-66 0,-19 2,-33 5,-44 3,-11 8,-19 15,-24 7,-5 16,-8 46,-7 31,0 83,3 132,7 50,5 97,11 138,24 41,12 75,31 96,48 20,17 26,33 28,43 2,10 2,16 1,21 -153,-1 -307,-1 -460,-2z"/>
  <path class="fil0" d="M188 12c37,0 66,29 66,65 0,16 -6,30 -15,42 -1,-1 -3,-2 -5,-4 -8,-6 -18,-14 -32,-19 -15,-5 -34,-7 -50,-7 -12,0 -21,1 -29,3 -1,-5 -2,-10 -2,-15 0,-36 30,-65 66,-65z"/>
  <path class="fil0" d="M94 167c1,-18 2,-35 5,-46 3,-11 7,-16 17,-19 10,-3 24,-5 42,-4 18,2 38,7 53,14 15,7 24,14 31,23 7,9 10,19 14,29 -54,1 -107,1 -161,2z"/>
  <rect class="fil0" x="86" y="177" width="672" height="17" rx="8" ry="8"/>
 </g>
</svg>
