<?xml version="1.0" encoding="UTF-8"?>
<!DOCTYPE svg PUBLIC "-//W3C//DTD SVG 1.1//EN" "http://www.w3.org/Graphics/SVG/1.1/DTD/svg11.dtd">
<!-- Creator: CorelDRAW X6 -->
<svg xmlns="http://www.w3.org/2000/svg" xml:space="preserve" width="0.878378in" height="0.705823in" version="1.1" style="shape-rendering:geometricPrecision; text-rendering:geometricPrecision; image-rendering:optimizeQuality; fill-rule:evenodd; clip-rule:evenodd"
viewBox="0 0 147 118"
 xmlns:xlink="http://www.w3.org/1999/xlink">
 <defs>
  <style type="text/css">
   <![CDATA[
    .fil0 {fill:#00AB98}
    .fil1 {fill:white}
   ]]>
  </style>
 </defs>
 <g id="Layer_x0020_1">
  <metadata id="CorelCorpID_0Corel-Layer"/>
  <rect class="fil0" x="50" y="48" width="47" height="70"/>
  <rect class="fil0" y="18" width="47" height="100"/>
  <rect class="fil0" x="100" y="31" width="47" height="87"/>
  <rect class="fil0" x="108" y="17" width="31" height="16"/>
  <rect class="fil0" x="115" width="17" height="18"/>
  <rect class="fil1" x="5" y="24" width="5" height="85"/>
  <rect class="fil1" x="15" y="24" width="5" height="85"/>
  <rect class="fil1" x="25" y="24" width="5" height="85"/>
  <rect class="fil1" x="35" y="24" width="5" height="85"/>
  <rect class="fil1" x="68" y="60" width="11" height="10"/>
  <rect class="fil1" x="82" y="53" width="11" height="10"/>
  <rect class="fil1" x="55" y="53" width="11" height="10"/>
  <rect class="fil1" x="82" y="67" width="11" height="10"/>
  <rect class="fil1" x="82" y="80" width="11" height="10"/>
  <rect class="fil1" x="68" y="93" width="11" height="10"/>
  <rect class="fil1" x="68" y="107" width="11" height="10"/>
  <rect class="fil1" x="57" y="107" width="11" height="10"/>
  <rect class="fil1" x="80" y="107" width="11" height="10"/>
  <rect class="fil1" x="55" y="67" width="11" height="10"/>
  <rect class="fil1" x="55" y="80" width="11" height="10"/>
  <rect class="fil1" x="112" y="107" width="11" height="10"/>
  <rect class="fil1" x="123" y="107" width="11" height="10"/>
  <rect class="fil1" x="118" y="37" width="10" height="65"/>
  <rect class="fil1" x="104" y="37" width="11" height="65"/>
  <rect class="fil1" x="132" y="37" width="11" height="65"/>
 </g>
</svg>
