<?xml version="1.0" encoding="UTF-8"?>
<!DOCTYPE svg PUBLIC "-//W3C//DTD SVG 1.1//EN" "http://www.w3.org/Graphics/SVG/1.1/DTD/svg11.dtd">
<!-- Creator: CorelDRAW X6 -->
<svg xmlns="http://www.w3.org/2000/svg" xml:space="preserve" width="0.894217in" height="0.95437in" version="1.1" style="shape-rendering:geometricPrecision; text-rendering:geometricPrecision; image-rendering:optimizeQuality; fill-rule:evenodd; clip-rule:evenodd"
viewBox="0 0 139 148"
 xmlns:xlink="http://www.w3.org/1999/xlink">
 <defs>
  <style type="text/css">
   <![CDATA[
    .str0 {stroke:white;stroke-width:2.16089}
    .fil2 {fill:none;fill-rule:nonzero}
    .fil0 {fill:#00AB98}
    .fil1 {fill:white;fill-rule:nonzero}
   ]]>
  </style>
 </defs>
 <g id="Layer_x0020_1">
  <metadata id="CorelCorpID_0Corel-Layer"/>
  <path class="fil0" d="M12 35l113 0c4,0 8,3 8,8l0 8 -129 0 0 -8c0,-4 3,-8 8,-8z"/>
  <path class="fil0" d="M3 55l133 0c2,0 3,1 3,3l0 87c0,2 -1,3 -3,3l-133 0c-2,0 -3,-1 -3,-3l0 -87c0,-2 1,-3 3,-3zm13 12l107 0c3,0 5,2 5,5l0 61c0,3 -2,5 -5,5l-107 0c-3,0 -5,-2 -5,-5l0 -61c0,-3 2,-5 5,-5z"/>
  <rect class="fil0" x="51" y="116" width="36" height="25" rx="3" ry="3"/>
  <rect class="fil0" x="61" y="75" width="18" height="34" rx="3" ry="3"/>
  <rect class="fil0" x="42" y="76" width="12" height="12" rx="2" ry="2"/>
  <rect class="fil0" x="20" y="76" width="12" height="12" rx="2" ry="2"/>
  <rect class="fil0" x="42" y="97" width="12" height="12" rx="2" ry="2"/>
  <rect class="fil0" x="20" y="97" width="12" height="12" rx="2" ry="2"/>
  <rect class="fil0" x="109" y="76" width="12" height="12" rx="2" ry="2"/>
  <rect class="fil0" x="87" y="76" width="12" height="12" rx="2" ry="2"/>
  <rect class="fil0" x="109" y="97" width="12" height="12" rx="2" ry="2"/>
  <rect class="fil0" x="87" y="97" width="12" height="12" rx="2" ry="2"/>
  <path class="fil0" d="M29 0l80 0c8,0 15,7 15,15l0 15 -110 0 0 -15c0,-8 7,-15 15,-15z"/>
  <path class="fil1" d="M28 21c-1,0 -2,0 -2,0 -1,0 -1,-1 -2,-1 0,0 0,0 0,-1 0,0 0,0 0,-1 0,0 0,0 1,0 0,0 0,0 0,0 0,0 1,1 1,1 0,0 1,0 2,0 1,0 1,0 2,0 0,0 1,-1 1,-1 0,-1 0,-1 -1,-1 0,0 -1,-1 -2,-1 -1,0 -2,-1 -3,-1 -1,-1 -1,-1 -1,-2 0,-1 0,-1 1,-2 0,-1 1,-1 1,-1 1,0 1,0 2,0 1,0 1,0 2,0 1,0 1,1 2,1 0,0 0,0 0,1 0,0 0,0 0,1 0,0 0,0 -1,0 0,0 0,0 0,0 0,0 -1,-1 -1,-1 -1,0 -1,0 -1,0 -1,0 -1,0 -2,0 0,0 -1,1 -1,1 0,1 0,1 1,1 0,0 1,1 2,1 1,0 2,0 2,1 1,0 1,1 1,1 0,0 0,1 0,2 0,1 0,1 -1,2 0,1 -1,1 -2,1 -1,0 -1,0 -2,0z"/>
  <path id="1" class="fil1" d="M47 10c0,0 0,0 0,1 0,0 0,0 0,1 0,0 0,0 -1,0 0,0 0,0 0,0 -1,0 -1,-1 -2,-1 -1,0 -2,0 -2,1 -1,0 -1,1 -2,2 0,1 -1,1 -1,2 0,1 0,2 1,2 0,1 1,1 2,2 1,0 1,1 2,1 1,0 2,0 2,-1 0,0 0,0 0,0 0,0 0,0 1,0 0,0 0,0 0,1 0,0 0,0 0,0 0,0 0,0 0,0 0,0 -1,0 -1,1 -1,0 -1,0 -2,0 -1,0 -2,0 -3,-1 -1,0 -2,-1 -2,-2 -1,-1 -1,-2 -1,-3 0,-1 0,-2 1,-3 1,-1 1,-2 2,-2 1,-1 2,-1 3,-1 1,0 2,0 3,1z"/>
  <path id="2" class="fil1" d="M63 9c0,0 0,0 1,0 0,0 0,0 0,1l0 10c0,0 0,0 0,1 0,0 0,0 -1,0 0,0 0,0 -1,0 0,0 0,0 0,-1l0 -4 -6 0 0 4c0,0 0,0 0,1 0,0 0,0 -1,0 0,0 0,0 -1,0 0,0 0,0 0,-1l0 -10c0,0 0,0 0,-1 0,0 0,0 1,0 0,0 0,0 1,0 0,0 0,0 0,1l0 4 6 0 0 -4c0,0 0,0 0,-1 0,0 0,0 1,0z"/>
  <path id="3" class="fil1" d="M82 15c0,1 0,2 -1,3 0,1 -1,2 -2,2 -1,1 -2,1 -3,1 -1,0 -2,0 -3,-1 -1,-1 -2,-1 -2,-2 0,-1 -1,-2 -1,-3 0,-1 0,-2 1,-3 0,-1 1,-2 2,-2 1,-1 2,-1 3,-1 1,0 2,0 3,1 1,1 2,1 2,2 0,1 1,2 1,3zm-2 0c0,-1 0,-2 -1,-2 0,-1 -1,-1 -1,-2 -1,0 -1,-1 -2,-1 -1,0 -1,0 -2,1 -1,0 -1,1 -1,2 0,1 -1,1 -1,2 0,1 0,2 1,2 0,1 1,1 1,2 1,0 1,1 2,1 1,0 1,0 2,-1 1,0 1,-1 1,-2 0,-1 1,-1 1,-2z"/>
  <path id="4" class="fil1" d="M100 15c0,1 0,2 -1,3 0,1 -1,2 -2,2 -1,1 -2,1 -3,1 -1,0 -2,0 -3,-1 -1,-1 -2,-1 -2,-2 0,-1 -1,-2 -1,-3 0,-1 0,-2 1,-3 0,-1 1,-2 2,-2 1,-1 2,-1 3,-1 1,0 2,0 3,1 1,1 2,1 2,2 0,1 1,2 1,3zm-2 0c0,-1 0,-2 -1,-2 0,-1 -1,-1 -1,-2 -1,0 -1,-1 -2,-1 -1,0 -1,0 -2,1 -1,0 -1,1 -1,2 0,1 -1,1 -1,2 0,1 0,2 1,2 0,1 1,1 1,2 1,0 1,1 2,1 1,0 1,0 2,-1 1,0 1,-1 1,-2 0,-1 1,-1 1,-2z"/>
  <path id="5" class="fil1" d="M113 19c0,0 0,0 1,0 0,0 0,0 0,1 0,0 0,0 0,1 0,0 0,0 -1,0l-6 0c0,0 0,0 -1,0 0,0 0,0 0,-1l0 -10c0,0 0,0 0,-1 0,0 0,0 1,0 0,0 0,0 1,0 0,0 0,0 0,1l0 10 5 0z"/>
  <path id="6" class="fil2 str0" d="M28 21c-1,0 -2,0 -2,0 -1,0 -1,-1 -2,-1 0,0 0,0 0,-1 0,0 0,0 0,-1 0,0 0,0 1,0 0,0 0,0 0,0 0,0 1,1 1,1 0,0 1,0 2,0 1,0 1,0 2,0 0,0 1,-1 1,-1 0,-1 0,-1 -1,-1 0,0 -1,-1 -2,-1 -1,0 -2,-1 -3,-1 -1,-1 -1,-1 -1,-2 0,-1 0,-1 1,-2 0,-1 1,-1 1,-1 1,0 1,0 2,0 1,0 1,0 2,0 1,0 1,1 2,1 0,0 0,0 0,1 0,0 0,0 0,1 0,0 0,0 -1,0 0,0 0,0 0,0 0,0 -1,-1 -1,-1 -1,0 -1,0 -1,0 -1,0 -1,0 -2,0 0,0 -1,1 -1,1 0,1 0,1 1,1 0,0 1,1 2,1 1,0 2,0 2,1 1,0 1,1 1,1 0,0 0,1 0,2 0,1 0,1 -1,2 0,1 -1,1 -2,1 -1,0 -1,0 -2,0z"/>
  <path id="7" class="fil2 str0" d="M47 10c0,0 0,0 0,1 0,0 0,0 0,1 0,0 0,0 -1,0 0,0 0,0 0,0 -1,0 -1,-1 -2,-1 -1,0 -2,0 -2,1 -1,0 -1,1 -2,2 0,1 -1,1 -1,2 0,1 0,2 1,2 0,1 1,1 2,2 1,0 1,1 2,1 1,0 2,0 2,-1 0,0 0,0 0,0 0,0 0,0 1,0 0,0 0,0 0,1 0,0 0,0 0,0 0,0 0,0 0,0 0,0 -1,0 -1,1 -1,0 -1,0 -2,0 -1,0 -2,0 -3,-1 -1,0 -2,-1 -2,-2 -1,-1 -1,-2 -1,-3 0,-1 0,-2 1,-3 1,-1 1,-2 2,-2 1,-1 2,-1 3,-1 1,0 2,0 3,1z"/>
  <path id="8" class="fil2 str0" d="M63 9c0,0 0,0 1,0 0,0 0,0 0,1l0 10c0,0 0,0 0,1 0,0 0,0 -1,0 0,0 0,0 -1,0 0,0 0,0 0,-1l0 -4 -6 0 0 4c0,0 0,0 0,1 0,0 0,0 -1,0 0,0 0,0 -1,0 0,0 0,0 0,-1l0 -10c0,0 0,0 0,-1 0,0 0,0 1,0 0,0 0,0 1,0 0,0 0,0 0,1l0 4 6 0 0 -4c0,0 0,0 0,-1 0,0 0,0 1,0z"/>
  <path id="9" class="fil2 str0" d="M82 15c0,1 0,2 -1,3 0,1 -1,2 -2,2 -1,1 -2,1 -3,1 -1,0 -2,0 -3,-1 -1,-1 -2,-1 -2,-2 0,-1 -1,-2 -1,-3 0,-1 0,-2 1,-3 0,-1 1,-2 2,-2 1,-1 2,-1 3,-1 1,0 2,0 3,1 1,1 2,1 2,2 0,1 1,2 1,3zm-2 0c0,-1 0,-2 -1,-2 0,-1 -1,-1 -1,-2 -1,0 -1,-1 -2,-1 -1,0 -1,0 -2,1 -1,0 -1,1 -1,2 0,1 -1,1 -1,2 0,1 0,2 1,2 0,1 1,1 1,2 1,0 1,1 2,1 1,0 1,0 2,-1 1,0 1,-1 1,-2 0,-1 1,-1 1,-2z"/>
  <path id="10" class="fil2 str0" d="M100 15c0,1 0,2 -1,3 0,1 -1,2 -2,2 -1,1 -2,1 -3,1 -1,0 -2,0 -3,-1 -1,-1 -2,-1 -2,-2 0,-1 -1,-2 -1,-3 0,-1 0,-2 1,-3 0,-1 1,-2 2,-2 1,-1 2,-1 3,-1 1,0 2,0 3,1 1,1 2,1 2,2 0,1 1,2 1,3zm-2 0c0,-1 0,-2 -1,-2 0,-1 -1,-1 -1,-2 -1,0 -1,-1 -2,-1 -1,0 -1,0 -2,1 -1,0 -1,1 -1,2 0,1 -1,1 -1,2 0,1 0,2 1,2 0,1 1,1 1,2 1,0 1,1 2,1 1,0 1,0 2,-1 1,0 1,-1 1,-2 0,-1 1,-1 1,-2z"/>
  <path id="11" class="fil2 str0" d="M113 19c0,0 0,0 1,0 0,0 0,0 0,1 0,0 0,0 0,1 0,0 0,0 -1,0l-6 0c0,0 0,0 -1,0 0,0 0,0 0,-1l0 -10c0,0 0,0 0,-1 0,0 0,0 1,0 0,0 0,0 1,0 0,0 0,0 0,1l0 10 5 0z"/>
 </g>
</svg>
