<?xml version="1.0" encoding="UTF-8"?>
<!DOCTYPE svg PUBLIC "-//W3C//DTD SVG 1.1//EN" "http://www.w3.org/Graphics/SVG/1.1/DTD/svg11.dtd">
<!-- Creator: CorelDRAW X6 -->
<svg xmlns="http://www.w3.org/2000/svg" xml:space="preserve" width="1.75731in" height="1.28242in" version="1.1" style="shape-rendering:geometricPrecision; text-rendering:geometricPrecision; image-rendering:optimizeQuality; fill-rule:evenodd; clip-rule:evenodd"
viewBox="0 0 389 284"
 xmlns:xlink="http://www.w3.org/1999/xlink">
 <g id="Layer_x0020_1">
  <metadata id="CorelCorpID_0Corel-Layer"/>
  <path class="fill-teal" d="M127 180c-19,-22 -39,-43 -60,-57 -21,-14 -44,-19 -67,-25 18,20 36,40 52,62 16,22 30,46 43,67 13,21 25,38 37,56 20,-36 39,-71 65,-106 25,-35 56,-68 89,-97 33,-29 68,-55 103,-80 -47,15 -93,31 -130,52 -37,21 -64,47 -84,70 -20,22 -34,41 -47,59z"/>
 </g>
</svg>
