<?xml version="1.0" encoding="UTF-8"?>
<!DOCTYPE svg PUBLIC "-//W3C//DTD SVG 1.1//EN" "http://www.w3.org/Graphics/SVG/1.1/DTD/svg11.dtd">
<!-- Creator: CorelDRAW X6 -->
<svg xmlns="http://www.w3.org/2000/svg" xml:space="preserve" width="6.46514in" height="6.79786in" version="1.1" style="shape-rendering:geometricPrecision; text-rendering:geometricPrecision; image-rendering:optimizeQuality; fill-rule:evenodd; clip-rule:evenodd"
viewBox="0 0 7035 7397"
 xmlns:xlink="http://www.w3.org/1999/xlink">
 <defs>
  <style type="text/css">
   <![CDATA[
    .str2 {stroke:#666666;stroke-width:22.6707}
    .str3 {stroke:#921328;stroke-width:22.6707}
    .str1 {stroke:#BE955F;stroke-width:22.6707}
    .str0 {stroke:#DFDABA;stroke-width:22.6707}
    .str5 {stroke:#0C85FD;stroke-width:30.2276}
    .str4 {stroke:#13B78A;stroke-width:30.2276}
    .str9 {stroke:#333333;stroke-width:30.2276}
    .str6 {stroke:#523E2A;stroke-width:30.2276}
    .str8 {stroke:#AA55FE;stroke-width:30.2276}
    .str7 {stroke:#FE602A;stroke-width:30.2276}
    .fil3 {fill:none}
    .fil2 {fill:#333333}
    .fil1 {fill:#FD9903}
   ]]>
  </style>
 </defs>
 <g id="Layer_x0020_1" class="map">
  <metadata id="CorelCorpID_0Corel-Layer"/>
  <g class="static">
  <path class="fil3 str0" d="M4131 3579c0,38 0,75 -2,102 -2,27 -6,44 -29,83 -22,40 -63,102 -119,193 -56,91 -128,210 -178,293 -50,83 -79,130 -99,163 -19,33 -29,51 -35,66 -6,14 -7,25 -4,55 2,30 9,79 11,117 2,38 1,65 -11,112 -12,48 -33,116 -50,171 -17,54 -29,94 -37,125 -8,30 -12,51 -12,82 0,31 2,72 6,114 4,42 9,85 7,119 -2,34 -11,59 -30,97 -19,38 -48,88 -64,122 -16,34 -18,50 -16,88 3,38 10,96 27,177 17,82 44,186 60,256 15,69 19,104 19,142 0,38 -5,80 -12,142 -6,62 -14,145 -21,225 -7,80 -12,156 -14,234 -2,77 -1,155 0,219 1,64 2,115 3,165"/>
  <path class="fil3 str0" d="M2890 33c-12,38 -24,75 -36,107 -12,32 -24,58 -39,78 -15,20 -34,34 -60,88 -26,54 -59,149 -96,245 -37,96 -78,193 -124,284 -46,92 -98,179 -147,247 -49,68 -95,118 -128,154 -33,35 -53,56 -63,71 -10,14 -11,22 -9,43 2,20 8,53 10,78 2,24 0,40 -18,58 -18,18 -52,38 -93,59 -41,21 -90,44 -131,74 -41,30 -74,67 -100,99 -26,32 -45,59 -52,81 -7,22 -3,40 8,94 11,54 30,144 46,205 15,61 27,93 66,133 39,40 105,89 187,144 82,54 180,114 262,158 82,44 149,72 228,98 79,26 170,51 253,95 83,43 159,105 252,170 93,64 204,131 300,186 96,54 177,96 231,130 54,34 82,60 110,92 27,32 54,71 77,99 22,27 40,43 66,56 26,12 60,21 92,32 32,11 62,24 97,33 35,9 75,14 117,16 42,2 87,1 127,8 40,7 75,22 126,47 51,25 118,61 169,90 51,29 87,51 123,73"/>
  <path class="fil3 str0" d="M4746 3831c-62,-40 -124,-80 -187,-113 -63,-33 -127,-59 -190,-79 -63,-20 -126,-35 -182,-47 -55,-12 -103,-21 -156,-32 -53,-11 -111,-25 -151,-48 -40,-23 -63,-55 -105,-98 -41,-43 -101,-97 -161,-142 -60,-45 -120,-82 -201,-128 -81,-46 -183,-101 -282,-156 -100,-55 -198,-111 -276,-159 -79,-48 -139,-88 -214,-126 -75,-38 -166,-74 -254,-116 -88,-42 -174,-90 -259,-138 -85,-48 -169,-97 -220,-146 -52,-49 -72,-98 -92,-157 -20,-59 -40,-128 -54,-170 -14,-42 -22,-58 -27,-70 -5,-11 -8,-18 -9,-21 -1,-2 0,-1 -23,14 -23,14 -70,41 -117,71 -47,30 -95,63 -125,82 -29,19 -40,24 -46,27 -6,3 -7,4 -1,77 6,73 19,217 33,301 14,84 30,107 49,130 19,23 41,47 61,69 20,22 39,42 60,78 21,36 44,88 65,141 21,53 41,107 56,145 15,38 25,61 30,73 5,11 5,11 -27,81 -32,70 -96,210 -128,279 -32,70 -33,70 -28,96 5,26 17,79 39,137 21,57 52,120 70,159 19,40 26,57 28,85 2,28 -1,66 -3,112 -2,46 -3,99 -3,127 0,27 0,29 14,50 15,21 44,62 76,99 32,37 68,69 105,90 38,22 78,33 113,43 35,10 65,20 92,31 27,11 51,24 64,30 12,6 12,6 11,96 -1,90 -3,270 -3,397 1,127 4,203 6,314 2,111 3,258 21,382 18,124 51,225 78,325 27,100 47,199 59,295 13,96 18,189 19,267 1,77 -3,139 -11,191 -8,53 -22,97 -27,152 -5,55 -2,120 2,168 4,49 10,81 16,113"/>
  <path class="fil3 str0" d="M2281 7208c-4,-93 -8,-187 -6,-269 1,-83 8,-155 15,-222 7,-66 15,-127 16,-192 1,-65 -3,-135 -31,-261 -28,-126 -79,-308 -109,-450 -31,-143 -41,-246 -46,-432 -5,-186 -4,-455 -5,-609 -1,-154 -4,-194 -6,-214 -2,-20 -3,-21 -26,-27 -24,-6 -70,-16 -102,-24 -33,-8 -51,-12 -81,-31 -29,-19 -69,-52 -110,-92 -41,-41 -85,-89 -108,-159 -23,-71 -26,-164 -30,-226 -4,-62 -8,-93 -26,-149 -18,-56 -49,-137 -66,-203 -17,-66 -20,-117 -16,-158 4,-41 14,-72 41,-129 26,-57 69,-140 88,-199 19,-59 14,-95 6,-134 -8,-39 -21,-80 -42,-130 -21,-50 -51,-108 -85,-153 -33,-44 -70,-74 -96,-102 -25,-28 -40,-53 -51,-114 -11,-60 -20,-155 -26,-222 -6,-66 -10,-104 -12,-123 -2,-19 -3,-20 -127,248 -124,269 -371,807 -495,1075 -124,268 -126,266 -138,430 -12,163 -33,492 -51,790 -18,297 -32,563 -42,779 -10,216 -16,382 -28,589 -13,208 -33,457 -43,649 -10,191 -11,324 -12,424 0,99 0,165 0,231"/>
  <path class="fil3 str0" d="M367 7383c9,-290 19,-580 30,-823 11,-243 23,-438 36,-666 13,-228 27,-490 40,-750 13,-260 24,-517 30,-723 6,-206 7,-362 11,-457 4,-95 10,-129 41,-205 31,-76 85,-195 162,-357 76,-162 174,-367 228,-484 54,-116 63,-144 66,-156 3,-13 0,-11 -132,-36 -133,-25 -396,-77 -563,-114 -167,-37 -239,-60 -311,-82"/>
  <path class="fil3 str0" d="M4 2447c205,57 409,115 562,155 153,41 254,64 327,79 73,15 118,20 140,24 22,3 21,4 61,-87 40,-91 121,-274 167,-382 46,-108 57,-141 65,-175 8,-34 11,-69 21,-104 10,-35 26,-70 45,-103 19,-33 42,-65 54,-91 12,-25 14,-44 10,-64 -4,-20 -13,-41 -23,-62"/>
  <path class="fil3 str0" d="M1518 1605c10,32 20,64 33,80 13,16 29,16 50,14 21,-2 48,-6 66,-2 18,4 29,15 41,33 12,17 26,41 34,53 8,12 10,12 21,-20 11,-32 31,-95 53,-135 23,-40 48,-57 91,-79 43,-22 105,-48 145,-67 41,-19 60,-30 71,-46 10,-16 11,-37 7,-60 -5,-23 -15,-49 -16,-65 0,-16 9,-24 44,-62 35,-38 95,-106 148,-173 53,-67 99,-134 149,-224 50,-90 104,-202 151,-310 47,-108 88,-213 115,-272 28,-59 43,-72 56,-87 13,-15 24,-32 34,-57 9,-25 17,-59 24,-93"/>
  <path class="fil3 str0" d="M1413 2040c9,-10 22,-27 48,-46 25,-19 62,-40 94,-58 31,-18 57,-34 76,-47 20,-13 33,-24 42,-37 8,-13 11,-28 13,-41 1,-14 0,-26 -5,-32 -5,-6 -14,-6 -30,-6 -17,0 -41,0 -62,1 -21,1 -38,4 -52,9 -14,5 -25,11 -38,24 -13,13 -27,32 -43,56 -15,24 -32,53 -41,78 -9,25 -12,47 -14,66 -2,18 -3,33 -2,39 1,6 5,3 14,-7z"/>
  <path class="fil3 str1" d="M4641 33c99,175 198,350 270,476 72,126 115,202 141,257 26,56 33,91 37,238 4,147 5,406 6,660 1,254 3,502 7,716 4,214 12,395 18,572 6,178 9,353 11,473 2,120 2,185 1,224 -1,39 -3,53 -4,59 -1,7 -1,7 -19,10 -18,3 -53,10 -88,17"/>
  <path class="fil3 str2" d="M6201 33c-93,237 -186,474 -233,593 -48,119 -50,119 -52,191 -2,73 -5,218 -6,291 -1,73 -1,73 -44,172 -42,100 -127,299 -170,399 -43,100 -44,101 -46,128 -2,27 -4,80 -2,106 2,26 7,26 -17,76 -24,49 -78,148 -105,197 -27,49 -27,49 -33,121 -6,72 -17,215 -23,287 -6,72 -7,73 2,46 9,-27 29,-82 38,-109 9,-27 8,-26 9,30 1,56 3,166 3,221 1,55 -1,55 -13,62 -13,7 -37,22 -49,29 -12,7 -12,6 -22,37 -10,31 -29,94 -39,125 -10,31 -10,31 -1,44 9,13 27,38 37,50 9,13 9,13 2,81 -7,68 -22,204 -29,273 -7,68 -6,68 7,85 13,17 37,50 48,66 11,16 10,15 9,126 -1,111 -2,334 -3,448 -1,113 -1,117 -11,134 -11,17 -33,48 -44,65 -11,17 -11,21 -9,64 2,43 5,125 7,167 2,41 2,41 -2,55 -3,14 -10,41 -14,56 -3,14 -3,15 1,57 5,42 14,124 18,166 5,41 5,41 17,58 12,17 36,52 48,68 11,17 10,15 9,55 -1,40 -2,120 -3,160 -1,40 -2,40 8,41 10,1 32,3 42,4 10,1 7,-1 10,32 2,33 9,99 11,132 2,33 0,33 23,53 23,19 73,58 98,78 25,19 26,19 31,40 5,21 13,62 17,82 4,21 4,21 36,60 31,40 95,119 127,158 33,40 35,40 76,37 41,-3 120,-9 159,-12 40,-3 40,-5 59,8 19,13 58,39 78,52 19,13 19,13 -10,26 -29,13 -88,38 -117,50 -29,13 -29,13 -44,80 -15,67 -45,201 -58,268 -14,67 -11,67 -10,67 1,0 1,0 21,20 20,20 60,60 80,80 20,20 20,20 168,64 148,44 445,131 593,174 148,44 148,44 148,44"/>
  <path class="fil3 str0" d="M5166 4142c11,141 22,281 33,377 11,96 22,147 28,183 6,35 7,54 -5,81 -13,27 -39,63 -58,91 -19,27 -31,46 -39,89 -8,43 -11,111 -13,164 -2,53 -3,91 3,122 7,30 21,52 28,70 8,18 9,32 3,59 -5,27 -18,66 -22,100 -5,33 -3,61 37,171 39,111 116,304 167,428 51,124 76,177 111,222 34,45 78,81 117,111 38,30 71,54 93,75 21,21 31,38 51,76 20,38 51,96 78,140 27,44 50,73 73,103"/>
  <path class="fil3 str0" d="M5745 6804c-46,-92 -92,-184 -147,-255 -55,-71 -120,-122 -166,-160 -47,-38 -75,-65 -102,-126 -27,-61 -54,-158 -92,-253 -39,-95 -90,-189 -127,-265 -37,-76 -59,-132 -67,-171 -9,-39 -4,-60 5,-84 9,-25 24,-53 32,-78 9,-25 12,-45 7,-76 -5,-30 -20,-70 -28,-126 -8,-56 -10,-130 -3,-188 7,-59 24,-102 44,-144 20,-42 44,-81 57,-114 13,-33 15,-61 13,-117 -3,-56 -10,-140 -19,-215 -9,-75 -18,-140 -28,-206"/>
  <path class="fil3 str1" d="M4763 33c105,196 210,392 274,519 64,127 87,185 105,230 18,45 30,78 36,143 6,65 6,161 6,323 0,162 1,388 3,588 2,200 6,373 7,583 1,210 0,457 0,665 0,208 2,377 4,497 2,121 4,193 6,268 2,75 4,152 1,197 -4,45 -14,57 -28,79 -14,22 -32,54 -56,102 -23,48 -51,112 -86,184 -34,73 -75,154 -100,223 -25,69 -33,124 -38,193 -4,69 -5,152 2,257 7,105 22,233 40,360 17,126 37,251 55,355 18,104 34,186 50,276 16,90 33,188 52,309 19,122 39,267 59,384 20,117 38,206 54,262 15,57 27,81 38,104 11,23 23,45 28,55 5,11 5,10 -12,10 -17,0 -51,0 -68,0 -17,0 -18,0 -24,-34 -7,-34 -20,-102 -47,-263 -27,-161 -68,-416 -95,-585 -27,-169 -41,-253 -56,-343 -15,-90 -31,-186 -44,-259 -13,-73 -22,-122 -28,-154 -6,-32 -10,-47 -12,-55 -2,-8 -2,-8 -39,13 -37,21 -112,65 -176,112 -64,47 -118,99 -151,134 -33,35 -46,55 -52,64 -6,9 -5,9 -78,12 -73,3 -219,10 -307,15 -88,6 -116,10 -146,20 -30,10 -61,24 -89,40 -27,16 -51,34 -63,43 -12,9 -12,9 -22,-12 -10,-21 -30,-62 -39,-83 -10,-21 -10,-21 8,-25 18,-4 53,-13 101,-23 49,-10 111,-20 187,-27 76,-7 168,-9 233,-9 66,0 107,4 127,5 20,1 20,0 59,-33 39,-33 118,-99 183,-147 65,-48 115,-78 150,-98 35,-20 55,-29 65,-34 10,-5 10,-5 8,-23 -2,-18 -5,-53 -11,-111 -6,-57 -16,-137 -19,-232 -3,-95 0,-206 14,-308 14,-103 38,-197 69,-280 32,-83 72,-154 110,-227 38,-73 73,-147 93,-218 19,-72 22,-141 23,-184 1,-44 1,-62 1,-71 0,-9 0,-9 -19,-9 -19,0 -56,0 -94,0"/>
  <path class="fil3 str1" d="M2687 33c-44,157 -88,314 -116,410 -28,96 -39,131 -59,160 -20,29 -50,52 -85,83 -35,30 -77,68 -112,113 -35,46 -64,100 -92,148 -29,48 -57,88 -110,142 -53,53 -130,119 -187,168 -57,49 -94,81 -144,114 -50,33 -112,67 -186,105 -74,38 -158,80 -261,118 -103,37 -224,69 -371,107 -147,38 -320,81 -451,117 -131,36 -220,66 -298,94 -78,28 -143,55 -209,82"/>
  <path class="fil3 str1" d="M4 2076c90,-33 180,-66 314,-106 134,-40 311,-88 479,-136 167,-48 325,-97 450,-135 125,-39 216,-67 301,-107 85,-40 163,-91 247,-148 84,-58 174,-122 251,-192 77,-71 142,-148 222,-248 79,-100 173,-223 232,-313 60,-90 86,-148 118,-228 32,-79 70,-180 95,-255 25,-75 36,-125 47,-175"/>
  <path id="Filinvest_x0020_Zone" class="fil1" d="M5017 3810c0,-55 -1,-111 -1,-139 0,-28 0,-29 -8,-28 -8,1 -23,3 -32,8 -9,5 -12,12 -21,15 -9,4 -25,4 -37,4 -13,0 -22,1 -29,6 -7,4 -12,12 -17,19 -5,6 -11,11 -15,16 -4,4 -7,8 -8,17 -1,9 0,23 0,33 0,10 -1,14 -1,17 0,2 0,2 -7,3 -7,0 -20,1 -27,1 -7,0 -7,0 -7,-9 0,-8 -1,-24 -1,-32 0,-8 0,-7 -6,-4 -5,2 -16,6 -22,11 -6,6 -8,13 -10,19 -2,6 -6,11 -9,16 -4,4 -8,8 -8,89 -1,80 2,237 3,315 1,78 1,79 11,80 9,1 28,4 60,5 32,1 78,2 115,1 36,0 62,-1 81,-5 19,-4 30,-11 43,-27 13,-16 28,-40 40,-61 12,-21 21,-37 26,-61 5,-24 6,-55 8,-107 1,-52 3,-125 3,-162 1,-37 1,-37 -6,-37 -7,0 -21,0 -41,0 -21,0 -48,0 -76,-1z"/>
  </g>
  <g class="dynamic">
  <path id="Muntinlupa_x0020_Zone" class="fil3 str3 location landarea areanearby active" d="M4922 2808c-38,-51 -76,-102 -94,-133 -18,-32 -14,-44 33,-101 48,-57 141,-158 190,-215 49,-58 56,-72 67,-81 11,-8 27,-10 34,-23 7,-13 6,-37 4,-80 -2,-43 -5,-104 7,-167 12,-62 39,-126 55,-177 16,-51 20,-90 24,-114 4,-25 8,-36 21,-37 13,-1 35,10 65,22 30,12 67,25 93,35 25,9 39,15 69,17 30,2 75,1 106,1 30,-1 45,-1 54,8 9,9 14,27 14,56 1,29 -3,70 -11,105 -8,35 -22,64 -48,111 -26,47 -65,113 -87,157 -23,44 -30,66 -34,111 -4,45 -4,114 -7,173 -3,59 -9,108 -13,140 -4,32 -5,48 -5,56 -1,8 -1,8 9,-27 9,-35 28,-105 37,-139 9,-35 8,-35 11,23 3,58 10,175 11,236 1,61 -4,66 -12,73 -8,7 -20,15 -32,21 -12,6 -24,9 -38,37 -14,28 -28,81 -38,115 -10,34 -15,48 -14,59 2,10 10,17 18,28 8,11 17,28 18,72 1,44 -5,116 -10,185 -5,69 -9,134 -11,171 -2,36 -2,44 7,56 9,12 27,29 38,46 11,18 17,36 19,149 2,112 1,318 -1,428 -2,109 -4,122 -14,137 -10,16 -28,34 -39,52 -11,17 -15,33 -12,75 3,42 14,111 15,152 2,42 -6,56 -12,73 -6,17 -11,35 -11,71 0,36 5,89 7,131 2,42 -1,72 6,95 6,23 21,39 34,55 13,16 24,33 32,47 7,14 10,25 9,51 -1,25 -6,65 -8,101 -2,36 -1,70 6,88 7,19 21,23 33,24 12,2 24,1 31,24 7,23 9,71 11,153 2,82 4,197 4,260 -1,63 -4,73 -14,91 -10,17 -27,41 -42,65 -16,23 -30,46 -33,70 -3,23 5,47 8,70 3,22 -1,43 -10,61 -10,18 -27,32 -55,51 -29,19 -69,42 -99,54 -30,12 -50,13 -76,14 -26,1 -58,1 -81,-11 -23,-12 -36,-36 -54,-56 -17,-20 -38,-35 -68,-32 -30,3 -70,25 -113,50 -44,25 -92,55 -132,74 -41,19 -74,29 -116,34 -42,6 -92,8 -132,11 -40,4 -70,9 -92,20 -22,11 -35,28 -50,49 -15,22 -32,49 -42,73 -10,24 -13,45 -15,66 -2,21 -3,42 -11,60 -8,19 -24,35 -70,81 -46,46 -123,121 -168,166 -45,45 -57,61 -72,70 -15,9 -31,12 -48,14 -17,2 -33,2 -49,8 -16,6 -32,19 -49,34 -18,15 -37,33 -52,47 -15,14 -24,24 -28,34 -4,9 -3,18 1,29 4,11 10,24 15,35 5,10 9,18 6,28 -4,10 -15,24 -25,35 -10,11 -18,21 -33,20 -15,-1 -35,-12 -69,-29 -34,-16 -81,-37 -110,-51 -29,-14 -41,-21 -49,-34 -8,-12 -14,-30 -9,-139 5,-109 19,-310 32,-446 12,-136 23,-208 27,-252 4,-44 2,-59 -11,-103 -14,-43 -39,-114 -56,-183 -17,-69 -27,-137 -34,-190 -7,-53 -12,-92 -14,-116 -2,-24 1,-35 7,-50 7,-15 18,-35 34,-62 16,-28 37,-63 53,-89 16,-26 26,-43 27,-76 1,-33 -9,-83 -16,-129 -7,-45 -11,-86 -8,-123 3,-37 12,-70 29,-123 17,-53 41,-126 58,-177 17,-52 28,-82 31,-115 3,-33 -1,-70 -6,-106 -5,-36 -11,-71 -12,-95 -1,-23 3,-35 18,-61 15,-27 41,-68 75,-123 34,-55 75,-124 129,-212 53,-88 118,-197 160,-262 43,-66 63,-88 75,-114 12,-26 15,-55 15,-101 -1,-46 -5,-110 -2,-160 3,-50 12,-88 24,-140 12,-52 28,-119 37,-162 9,-44 12,-65 32,-90 19,-25 55,-54 103,-85 48,-31 108,-65 152,-86 44,-21 71,-31 93,-32 22,-2 39,5 66,19 27,14 65,36 84,50 19,15 20,22 51,-4 31,-26 91,-84 151,-142z"/>
  <path id="AlabangZ_x0020_Curve" class="fil3 str4 major_roads" d="M1760 1852c30,103 59,205 82,273 22,67 37,100 74,138 37,38 95,83 184,139 89,56 210,123 325,179 115,56 225,101 321,147 96,46 179,92 292,159 112,67 254,155 364,222 110,67 187,112 236,146 50,34 71,58 107,99 36,41 86,99 130,129 44,30 81,32 134,41 53,9 122,26 179,38 57,12 102,18 157,34 55,16 120,41 187,75 67,34 136,78 205,122"/>
  <path id="MMSkyway_x0020_Curve" class="fil3 str5 major_roads" d="M4584 53c101,172 202,344 274,474 72,129 116,216 141,286 25,70 32,124 37,291 5,167 8,448 14,777 5,329 13,706 21,1009 8,303 15,531 19,649 3,117 2,123 -8,128 -10,4 -30,7 -49,10"/>
  <path id="DaangH_x0020_Curve" class="fil3 str6 major_roads" d="M4131 3566c0,42 0,84 -2,113 -2,29 -6,46 -29,86 -22,40 -63,102 -119,193 -56,91 -128,210 -178,293 -50,83 -79,130 -99,163 -19,33 -29,51 -35,66 -6,14 -7,25 -4,55 2,30 9,79 11,117 2,38 1,65 -11,112 -12,48 -33,116 -50,171 -17,54 -29,94 -37,125 -8,30 -12,51 -12,82 0,31 2,72 6,114 4,42 9,85 7,119 -2,34 -11,59 -30,97 -19,38 -48,88 -64,122 -16,34 -18,50 -16,88 3,38 10,96 27,177 17,82 44,186 60,256 15,69 19,104 19,142 0,38 -5,80 -12,142 -6,62 -14,145 -21,225 -7,80 -12,156 -14,234 -2,77 -1,155 0,219 1,64 2,115 3,165"/>
  <path id="NatlH_x0020_Curve" class="fil3 str7 major_roads" d="M5130 4209c23,168 46,336 57,430 11,94 9,114 -4,145 -13,31 -36,75 -56,112 -20,37 -36,69 -44,124 -8,54 -8,132 0,191 8,59 24,100 29,134 4,34 -3,62 -9,95 -7,34 -13,74 -12,116 1,43 9,87 32,144 24,56 63,124 107,223 43,99 91,229 126,307 35,78 58,105 92,136 34,31 80,66 115,97 36,31 61,59 102,122 40,64 95,164 151,264"/>
  <path id="SLEX_x0020_Curve" class="fil3 str8 major_roads" d="M4811 8c116,194 232,388 298,519 66,131 83,198 97,269 15,71 27,144 34,256 7,112 7,261 8,492 2,231 4,543 8,982 4,440 8,1008 6,1303 -3,295 -12,317 -45,377 -32,61 -87,160 -132,256 -45,96 -80,189 -102,275 -22,86 -29,164 -26,275 4,111 19,254 41,397 22,143 51,285 79,426 28,141 54,280 78,420 24,140 45,282 74,420 28,138 64,273 85,360 21,86 27,124 34,162"/>
  <path id="MCX_x0020_Curve" class="fil3 str9 major_roads" d="M3663 5948c71,-33 143,-67 219,-88 76,-21 157,-31 231,-34 74,-4 142,-1 194,-2 52,-1 87,-5 112,-13 25,-8 40,-18 65,-41 25,-23 59,-57 109,-97 50,-40 117,-87 166,-119 49,-33 79,-52 99,-63 20,-10 29,-12 39,-14"/>
  <path id="arrow" class="fil2 location active" d="M4246 3278c26,65 52,129 80,183 27,54 55,96 93,138 37,41 84,82 118,107 35,25 58,34 81,43 13,-34 26,-68 39,-103 12,69 24,138 36,207 -74,-12 -148,-23 -223,-35 34,-13 68,-25 102,-38 -30,-12 -60,-24 -95,-48 -35,-24 -75,-60 -108,-94 -33,-34 -59,-65 -78,-110 -18,-45 -29,-105 -35,-149 -6,-44 -8,-73 -10,-101z"/>
  </g>
 </g>
</svg>
