<?xml version="1.0" encoding="UTF-8"?>
<!DOCTYPE svg PUBLIC "-//W3C//DTD SVG 1.1//EN" "http://www.w3.org/Graphics/SVG/1.1/DTD/svg11.dtd">
<!-- Creator: CorelDRAW X6 -->
<svg xmlns="http://www.w3.org/2000/svg" xml:space="preserve" width="1.37983in" height="1.09126in" version="1.1" style="shape-rendering:geometricPrecision; text-rendering:geometricPrecision; image-rendering:optimizeQuality; fill-rule:evenodd; clip-rule:evenodd"
viewBox="0 0 431 341"
 xmlns:xlink="http://www.w3.org/1999/xlink">
 <defs>
  <style type="text/css">
   <![CDATA[
    .fil0 {fill:#00AB98}
   ]]>
  </style>
 </defs>
 <g id="Layer_x0020_1">
  <metadata id="CorelCorpID_0Corel-Layer"/>
  <path class="fil0" d="M209 84c0,-6 1,-14 0,-21 -1,-6 -3,-10 -5,-13 0,5 1,11 1,16 -2,-2 -4,-4 -5,-8 -1,-4 -1,-9 -2,-13 -1,-4 -2,-7 -4,-9 -2,-2 -4,-5 -7,-7 1,3 2,6 3,9 0,3 0,5 0,8 -2,-3 -4,-6 -5,-10 -1,-3 -2,-7 -4,-10 -2,-3 -4,-6 -7,-8 -2,-2 -4,-4 -6,-5 2,3 4,6 5,9 1,3 1,5 0,5 -1,0 -4,-3 -5,-6 -2,-3 -3,-6 -5,-9 -2,-3 -5,-5 -8,-6 -3,-2 -6,-3 -9,-4 3,3 5,6 7,9 2,3 2,5 3,6 -3,-2 -5,-3 -8,-5 -2,-2 -5,-5 -7,-7 -2,-2 -4,-3 -7,-4 -3,-1 -6,-1 -10,-2 3,2 5,4 7,6 2,2 2,4 3,6 -2,-1 -4,-1 -7,-3 -3,-2 -6,-4 -9,-6 -3,-1 -7,-2 -9,-2 -2,0 -4,0 -6,1 3,1 6,3 7,4 2,1 2,3 3,4 -2,0 -5,0 -7,-1 -2,-1 -5,-2 -8,-3 -3,-1 -5,-1 -8,0 -2,1 -4,2 -7,3 2,0 4,1 5,2 1,1 1,2 1,3 -4,0 -8,0 -11,1 -3,1 -6,2 -8,3 -2,1 -4,3 -5,4 4,0 8,1 12,0 3,-1 6,-2 8,-3 2,-1 4,-1 5,-2 -1,1 -3,3 -4,4 -1,1 -2,2 -3,3 4,0 8,1 11,0 3,-1 6,-2 9,-3 3,-1 5,-1 8,-1 -1,2 -3,3 -4,4 -2,1 -4,2 -7,3 4,1 7,2 11,2 3,0 6,0 9,-1 3,-1 5,-2 7,-1 2,0 3,1 4,2 -2,1 -5,2 -7,3 -2,1 -5,1 -7,2 3,1 5,2 8,3 3,1 6,1 9,1 3,0 6,0 8,1 2,1 2,2 3,3 -3,0 -6,1 -8,1 -3,0 -5,0 -8,0 2,2 4,3 7,4 2,1 4,2 7,2 3,0 6,0 8,0 2,0 4,1 5,2 1,1 1,2 1,3 -2,0 -5,0 -7,-1 -3,0 -6,-1 -8,-1 2,2 5,3 8,5 3,2 6,4 9,5 3,1 5,1 6,2 1,0 2,1 2,2 0,1 -2,1 -4,1 -2,0 -5,0 -6,0 -1,0 1,2 3,3 2,1 4,3 6,4 2,1 4,2 6,3 2,1 3,1 4,2 1,1 1,2 2,3 0,0 -1,1 -2,1 -1,0 -3,0 -4,-1 -2,-1 -4,-1 -5,-2 2,2 4,5 7,7 2,2 5,4 7,6 2,2 4,4 6,6 2,2 3,3 7,3 4,0 9,-1 12,-3 3,-2 3,-5 3,-11z"/>
  <path class="fil0" d="M183 89c-2,-1 -4,-1 -7,-2 -2,-1 -5,-3 -7,-4 -3,-2 -5,-4 -7,-5 -2,-1 -4,-2 -5,-2 1,1 3,3 4,4 1,1 2,2 2,3 0,1 0,1 0,2 -3,-2 -6,-4 -9,-6 -2,-2 -4,-4 -6,-6 -2,-2 -4,-4 -6,-5 -2,-1 -4,-2 -6,-2 -2,0 -4,-1 -6,-1 2,2 4,4 5,6 1,2 3,3 4,5 -3,-1 -5,-1 -8,-3 -3,-2 -7,-5 -10,-7 -3,-2 -6,-3 -9,-3 -3,-1 -7,-1 -9,-1 -3,0 -4,0 -6,0 3,1 5,3 7,4 2,1 3,2 4,3 1,1 2,3 3,5 -3,0 -6,-1 -9,-1 -3,0 -6,-1 -8,-2 -3,0 -5,-1 -7,-1 -2,0 -5,-1 -8,-1 -3,-1 -6,-1 -10,-2 2,2 3,3 5,4 2,1 4,3 6,4 2,1 4,2 6,2 -4,0 -7,1 -11,1 -4,0 -7,0 -10,0 -3,0 -6,0 -9,1 -3,1 -5,2 -7,2 -2,1 -5,1 -8,1 3,1 6,1 10,2 3,0 6,0 9,0 3,0 4,0 6,0 -10,1 -20,3 -26,3 -6,1 -8,1 -10,2 -2,1 -4,4 -5,6 -2,1 -4,1 -5,2 -1,1 -2,2 -4,4 -1,1 -3,3 -4,4 2,0 4,-1 7,-2 2,-1 4,-1 7,-2 -2,2 -5,4 -7,6 -2,2 -4,3 -6,5 -2,2 -4,4 -6,6 -1,2 -2,3 -3,5 2,-1 4,-1 6,-2 2,-1 3,-2 5,-3 -2,2 -4,5 -5,7 -1,3 0,6 -1,9 0,3 -1,6 -1,9 2,-2 3,-5 5,-7 1,-2 3,-4 4,-6 1,-2 2,-5 2,-7 1,-2 1,-4 1,-5 0,2 1,4 1,6 1,2 1,3 2,4 0,1 0,2 0,3 1,-2 2,-4 3,-6 1,-2 1,-4 1,-6 0,-2 0,-4 2,-5 1,-2 4,-3 6,-4 -1,2 -2,4 -2,6 0,2 0,4 0,5 2,-2 5,-4 6,-5 2,-1 3,-2 5,-4 1,-1 2,-3 4,-5 1,-2 3,-3 5,-4 -1,3 -3,6 -4,10 3,-2 6,-4 8,-5 3,-1 5,-2 8,-3 2,-1 4,-3 6,-5 2,-2 4,-2 6,-3 -1,2 -2,5 -4,6 -1,1 -3,2 -5,3 3,-1 6,-1 9,-1 3,0 5,0 7,-1 2,-1 3,-2 5,-3 1,-1 3,-2 4,-2 -1,2 -2,4 -3,5 -1,1 -2,2 -3,3 3,0 6,0 9,0 3,0 5,0 7,-1 2,-1 4,-2 6,-3 2,-1 4,-1 6,-1 -3,2 -6,3 -9,5 2,0 5,0 7,1 2,0 5,1 7,1 2,0 4,-1 6,-2 2,-1 4,-1 6,-1 2,0 4,1 6,2 -3,1 -6,2 -8,3 -3,1 -5,1 -7,2 3,1 7,1 10,2 3,1 6,1 9,1 3,0 5,-1 8,-2 3,2 7,4 10,5 4,1 7,3 12,3 5,1 10,1 14,0 4,-1 7,-3 9,-6 2,-2 3,-5 2,-8 -1,-3 -3,-7 -5,-9 -2,-3 -3,-4 -4,-5z"/>
  <path class="fil0" d="M155 113c-3,0 -6,1 -8,2 -2,1 -3,2 -4,3 -3,-1 -7,-1 -10,-2 -3,0 -5,0 -7,1 -2,0 -3,1 -4,1 2,0 4,0 5,1 2,0 3,1 4,2 1,1 2,2 2,3 -3,0 -5,-1 -8,-1 -2,0 -5,-1 -7,0 -2,0 -4,1 -6,2 -2,1 -5,1 -7,2 2,0 5,1 6,1 2,0 3,1 4,1 -2,1 -5,2 -8,2 -3,0 -7,0 -10,0 -3,0 -6,0 -9,0 1,1 2,2 4,3 2,1 4,2 5,3 -3,1 -6,2 -8,3 -2,1 -4,2 -6,3 -2,1 -4,2 -5,4 -1,1 -3,3 -4,4 2,0 5,-1 6,-2 2,-1 3,-1 5,-2 -2,2 -5,4 -7,5 -2,2 -5,3 -7,5 -2,2 -4,4 -6,6 -1,2 -2,5 -3,7 1,-1 3,-2 4,-3 1,-1 2,-1 3,-1 -2,2 -5,5 -6,7 -2,2 -3,5 -4,7 0,2 0,4 -1,6 -1,2 -3,4 -4,6 -1,2 -2,3 -3,6 -1,3 -2,7 -3,11 1,-1 2,-3 4,-4 1,-1 3,-2 5,-3 -2,3 -3,5 -4,8 -1,2 -1,5 0,7 0,2 1,4 2,6 2,-3 4,-5 5,-8 1,-3 2,-5 2,-7 0,-2 1,-3 1,-5 1,3 1,6 2,9 2,-3 3,-7 5,-10 2,-4 3,-8 4,-12 1,2 1,4 2,6 0,2 0,4 0,6 1,-3 2,-6 3,-9 1,-3 2,-5 2,-7 1,-2 1,-4 1,-7 1,1 1,2 2,4 0,2 0,4 0,6 0,2 0,4 -1,5 1,-3 3,-5 4,-7 1,-2 2,-4 3,-6 1,-2 1,-5 2,-7 1,-2 2,-3 3,-5 1,2 1,5 1,7 0,2 -1,5 -2,7 2,-2 4,-4 6,-7 2,-2 3,-5 4,-7 1,-2 2,-4 3,-6 0,2 0,4 0,6 0,2 0,4 0,6 2,-1 3,-3 4,-5 1,-2 2,-4 3,-7 1,-2 1,-4 3,-6 1,-1 3,-2 5,-3 -1,3 -2,6 -3,8 -1,2 0,4 0,5 0,1 0,2 0,3 1,-3 3,-6 4,-8 1,-2 3,-3 4,-4 1,-1 3,-2 4,-4 1,-2 2,-4 3,-6 -1,3 -1,6 -2,8 -1,2 -2,4 -3,5 2,-1 3,-2 5,-3 2,-1 3,-2 5,-4 2,-2 3,-4 5,-6 0,3 0,5 -1,7 -1,2 -1,3 -2,4 3,-2 6,-3 8,-5 2,-2 4,-3 6,-4 2,-1 3,-1 5,-1 -1,2 -3,5 -4,6 -1,2 -2,2 -2,3 2,-1 4,-2 5,-3 2,-1 4,-1 5,-1 2,0 3,0 4,0 1,0 3,0 4,-1 -2,2 -3,3 -4,4 -1,1 -2,2 -4,3 3,-1 6,-2 8,-3 2,-1 4,-2 6,-3 2,-1 4,-2 5,-2 2,0 3,0 2,-5 0,-5 -2,-13 -4,-19 -2,-6 -5,-8 -8,-11 -4,-3 -8,-6 -12,-8 -3,-1 -6,-1 -9,0z"/>
  <path class="fil0" d="M221 89c0,-6 -1,-14 0,-21 1,-6 3,-10 5,-13 0,5 -1,11 -1,16 2,-2 4,-4 5,-8 1,-4 1,-9 2,-13 1,-4 2,-7 4,-9 2,-2 4,-5 7,-7 -1,3 -2,6 -3,9 0,3 0,5 0,8 2,-3 4,-6 5,-10 1,-3 2,-7 4,-10 2,-3 4,-6 7,-8 2,-2 4,-4 6,-5 -2,3 -4,6 -5,9 -1,3 -1,5 0,5 1,0 4,-3 5,-6 2,-3 3,-6 5,-9 2,-3 5,-5 8,-6 3,-2 6,-3 9,-4 -3,3 -5,6 -7,9 -2,3 -2,5 -3,6 3,-2 5,-3 8,-5 2,-2 5,-5 7,-7 2,-2 4,-3 7,-4 3,-1 6,-1 10,-2 -3,2 -5,4 -7,6 -2,2 -2,4 -3,6 2,-1 4,-1 7,-3 3,-2 6,-4 9,-6 3,-1 7,-2 9,-2 2,0 4,0 6,1 -3,1 -6,3 -7,4 -2,1 -2,3 -3,4 2,0 5,0 7,-1 2,-1 5,-2 8,-3 3,-1 5,-1 8,0 2,1 4,2 7,3 -2,0 -4,1 -5,2 -1,1 -1,2 -1,3 4,0 8,0 11,1 3,1 6,2 8,3 2,1 4,3 5,4 -4,0 -8,1 -12,0 -3,-1 -6,-2 -8,-3 -2,-1 -4,-1 -5,-2 1,1 3,3 4,4 1,1 2,2 3,3 -4,0 -8,1 -11,0 -3,-1 -6,-2 -9,-3 -3,-1 -5,-1 -8,-1 1,2 3,3 4,4 2,1 4,2 7,3 -4,1 -7,2 -11,2 -3,0 -6,0 -9,-1 -3,-1 -5,-2 -7,-1 -2,0 -3,1 -4,2 2,1 5,2 7,3 2,1 5,1 7,2 -3,1 -5,2 -8,3 -3,1 -6,1 -9,1 -3,0 -6,0 -8,1 -2,1 -2,2 -3,3 3,0 6,1 8,1 3,0 5,0 8,0 -2,2 -4,3 -7,4 -2,1 -4,2 -7,2 -3,0 -6,0 -8,0 -2,0 -4,1 -5,2 -1,1 -1,2 -1,3 2,0 5,0 7,-1 3,0 6,-1 8,-1 -2,2 -5,3 -8,5 -3,2 -6,4 -9,5 -3,1 -5,1 -6,2 -1,0 -2,1 -2,2 0,1 2,1 4,1 2,0 5,0 6,0 1,0 -1,2 -3,3 -2,1 -4,3 -6,4 -2,1 -4,2 -6,3 -2,1 -3,1 -4,2 -1,1 -1,2 -2,3 0,0 1,1 2,1 1,0 3,0 4,-1 2,-1 4,-1 5,-2 -2,2 -4,5 -7,7 -2,2 -5,4 -7,6 -2,2 -4,4 -6,6 -2,2 -3,3 -7,3 -4,0 -9,-1 -12,-3 -3,-2 -3,-5 -3,-11z"/>
  <path class="fil0" d="M247 93c2,-1 4,-1 7,-2 2,-1 5,-3 7,-4 3,-2 5,-4 7,-5 2,-1 4,-2 5,-2 -1,1 -3,3 -4,4 -1,1 -2,2 -2,3 0,1 0,1 0,2 3,-2 6,-4 9,-6 2,-2 4,-4 6,-6 2,-2 4,-4 6,-5 2,-1 4,-2 6,-2 2,0 4,-1 6,-1 -2,2 -4,4 -5,6 -1,2 -3,3 -4,5 3,-1 5,-1 8,-3 3,-2 7,-5 10,-7 3,-2 6,-3 9,-3 3,-1 7,-1 9,-1 3,0 4,0 6,0 -3,1 -5,3 -7,4 -2,1 -3,2 -4,3 -1,1 -2,3 -3,5 3,0 6,-1 9,-1 3,0 6,-1 8,-2 3,0 5,-1 7,-1 2,0 5,-1 8,-1 3,-1 6,-1 10,-2 -2,2 -3,3 -5,4 -2,1 -4,3 -6,4 -2,1 -4,2 -6,2 4,0 7,1 11,1 4,0 7,0 10,0 3,0 7,0 9,1 3,1 5,2 7,2 2,1 5,1 8,1 -3,1 -6,1 -10,2 -3,0 -6,0 -9,0 -3,0 -4,0 -6,0 10,1 20,3 26,3 6,1 8,1 10,2 2,1 4,4 5,6 2,1 4,1 5,2 1,1 2,2 4,4 1,1 3,3 4,4 -2,0 -4,-1 -7,-2 -2,-1 -4,-1 -7,-2 2,2 5,4 7,6 2,2 4,3 6,5 2,2 4,4 6,6 1,2 2,3 3,5 -2,-1 -4,-1 -6,-2 -2,-1 -3,-2 -5,-3 2,2 4,5 5,7 1,3 0,6 1,9 0,3 1,6 1,9 -2,-2 -3,-5 -5,-7 -1,-2 -3,-4 -4,-6 -1,-2 -2,-5 -2,-7 -1,-2 -1,-4 -1,-5 0,2 -1,4 -1,6 -1,2 -1,3 -2,4 0,1 0,2 0,3 -1,-2 -2,-4 -3,-6 -1,-2 -1,-4 -1,-6 0,-2 0,-4 -2,-5 -1,-2 -4,-3 -6,-4 1,2 2,4 2,6 0,2 0,4 0,5 -2,-2 -5,-4 -6,-5 -2,-1 -3,-2 -5,-4 -1,-1 -2,-3 -4,-5 -1,-2 -3,-3 -5,-4 1,3 3,6 4,10 -3,-2 -6,-4 -8,-5 -3,-1 -5,-2 -8,-3 -2,-1 -4,-3 -6,-5 -2,-2 -4,-2 -6,-3 1,2 2,5 4,6 1,1 3,2 5,3 -3,-1 -6,-1 -9,-1 -3,0 -5,0 -7,-1 -2,-1 -3,-2 -5,-3 -1,-1 -3,-2 -4,-2 1,2 2,4 3,5 1,1 2,2 3,3 -3,0 -6,0 -9,0 -3,0 -5,0 -7,-1 -2,-1 -4,-2 -6,-3 -2,-1 -4,-1 -6,-1 3,2 6,3 9,5 -2,0 -5,0 -7,1 -2,0 -5,1 -7,1 -2,0 -4,-1 -6,-2 -2,-1 -4,-1 -6,-1 -2,0 -4,1 -6,2 3,1 6,2 8,3 3,1 5,1 7,2 -3,1 -7,1 -10,2 -3,1 -6,1 -9,1 -3,0 -5,-1 -8,-2 -3,2 -7,4 -10,5 -4,1 -7,3 -12,3 -5,1 -10,1 -14,0 -4,-1 -7,-3 -9,-6 -2,-2 -3,-5 -2,-8 1,-3 3,-7 5,-9 2,-3 3,-4 4,-5z"/>
  <path class="fil0" d="M269 116c3,0 6,1 8,2 2,1 3,2 4,3 3,-1 7,-1 10,-2 3,0 5,0 7,1 2,0 3,1 4,1 -2,0 -4,0 -5,1 -2,0 -3,1 -4,2 -1,1 -2,2 -2,3 3,0 5,-1 8,-1 2,0 5,-1 7,0 2,0 4,1 6,2 2,1 5,1 7,2 -2,0 -5,1 -6,1 -2,0 -3,1 -4,1 2,1 5,2 8,2 3,0 7,0 10,0 3,0 6,0 9,0 -1,1 -2,2 -4,3 -2,1 -4,2 -5,3 3,1 6,2 8,3 2,1 4,2 6,3 2,1 4,2 5,4 1,1 3,3 4,4 -2,0 -5,-1 -6,-2 -2,-1 -3,-1 -5,-2 2,2 5,4 7,5 2,2 5,3 7,5 2,2 4,4 6,6 1,2 2,5 3,7 -1,-1 -3,-2 -4,-3 -1,-1 -2,-1 -3,-1 2,2 5,5 6,7 2,2 3,5 4,7 0,2 0,4 1,6 1,2 3,4 4,6 1,2 2,3 3,6 1,3 2,7 3,11 -1,-1 -2,-3 -4,-4 -1,-1 -3,-2 -5,-3 2,3 3,5 4,8 1,2 1,5 0,7 0,2 -1,4 -2,6 -2,-3 -4,-5 -5,-8 -1,-3 -2,-5 -2,-7 0,-2 -1,-3 -1,-5 -1,3 -1,6 -2,9 -2,-3 -3,-7 -5,-10 -2,-4 -3,-8 -4,-12 -1,2 -1,4 -2,6 0,2 0,4 0,6 -1,-3 -2,-6 -3,-9 -1,-3 -2,-5 -2,-7 -1,-2 -1,-4 -1,-7 -1,1 -1,2 -2,4 0,2 0,4 0,6 0,2 0,4 1,5 -1,-3 -3,-5 -4,-7 -1,-2 -2,-4 -3,-6 -1,-2 -1,-5 -2,-7 -1,-2 -2,-3 -3,-5 -1,2 -1,5 -1,7 0,2 1,5 2,7 -2,-2 -4,-4 -6,-7 -2,-2 -3,-5 -4,-7 -1,-2 -2,-4 -3,-6 0,2 0,4 0,6 0,2 0,4 0,6 -2,-1 -3,-3 -4,-5 -1,-2 -2,-4 -3,-7 -1,-2 -1,-4 -3,-6 -1,-1 -3,-2 -5,-3 1,3 2,6 3,8 1,2 0,4 0,5 0,1 0,2 0,3 -1,-3 -3,-6 -4,-8 -1,-2 -3,-3 -4,-4 -1,-1 -3,-2 -4,-4 -1,-2 -2,-4 -3,-6 1,3 1,6 2,8 1,2 2,4 3,5 -2,-1 -3,-2 -5,-3 -2,-1 -3,-2 -5,-4 -2,-2 -3,-4 -5,-6 0,3 0,5 1,7 1,2 1,3 2,4 -3,-2 -6,-3 -8,-5 -2,-2 -4,-3 -6,-4 -2,-1 -3,-1 -5,-1 1,2 3,5 4,6 1,2 2,2 2,3 -2,-1 -4,-2 -5,-3 -2,-1 -4,-1 -5,-1 -2,0 -3,0 -4,0 -1,0 -3,0 -4,-1 2,2 3,3 4,4 1,1 2,2 4,3 -3,-1 -6,-2 -8,-3 -2,-1 -4,-2 -6,-3 -2,-1 -4,-2 -5,-2 -2,0 -3,0 -2,-5 0,-5 2,-13 4,-19 2,-6 5,-8 8,-11 4,-3 8,-6 12,-8 3,-1 6,-1 9,0z"/>
  <path class="fil0" d="M180 101c3,-5 6,-10 10,-13 4,-4 9,-6 14,-7 5,-1 10,-2 14,-2 4,0 8,1 12,3 3,2 6,4 8,6 2,2 5,4 7,7 2,3 5,6 7,10 2,3 3,6 4,9 1,3 2,6 4,9 1,4 2,8 1,13 -1,5 -5,12 -8,16 -3,5 -6,8 -8,10 -2,3 -2,5 -2,6 1,1 2,1 4,1 2,0 4,1 6,1 -2,1 -5,2 -7,4 -2,1 -3,3 -5,5 -18,-1 -35,-1 -53,-2 -1,-1 -1,-3 -3,-4 -2,-1 -4,-2 -7,-3 2,-1 4,-2 5,-2 2,0 3,-1 4,-2 0,-1 0,-3 -1,-5 -1,-2 -3,-4 -6,-9 -3,-5 -7,-12 -9,-18 -2,-6 -3,-12 -2,-18 2,-6 6,-11 9,-17z"/>
  <path class="fil0" d="M242 177c2,5 2,9 2,14 0,5 -1,9 -1,16 -1,6 -2,14 -2,23 0,9 1,18 1,25 0,7 0,12 1,17 0,5 0,9 1,14 0,5 0,11 1,17 0,6 1,12 3,17 1,4 3,7 4,10 1,3 2,5 3,7 1,2 3,4 2,4 -2,0 -8,-1 -16,-1 -8,0 -19,1 -30,1 -11,0 -22,0 -29,0 -7,0 -9,1 -9,0 0,-1 2,-3 4,-6 2,-3 3,-6 4,-9 1,-3 0,-6 1,-9 0,-3 1,-6 1,-11 1,-4 1,-10 1,-15 0,-5 -1,-10 -1,-15 0,-5 0,-9 0,-12 1,-3 2,-5 5,-6 2,-1 5,-2 9,-2 3,0 7,0 8,0 1,0 1,-1 -1,-2 -2,0 -5,0 -8,0 -3,0 -7,1 -9,0 -2,0 -3,-1 -3,-3 0,-2 1,-4 1,-6 0,-2 1,-4 1,-7 0,-2 0,-4 1,-7 0,-2 0,-5 0,-7 0,-2 0,-4 0,-6 0,-2 1,-3 3,-4 2,-1 5,0 9,0 4,0 8,-1 12,-1 4,0 7,0 7,-1 0,-1 -3,-2 -7,-2 -4,0 -9,0 -13,0 -4,0 -7,0 -8,0 -1,0 -2,-1 -2,-2 0,-1 0,-2 0,-3 0,-1 0,-3 1,-5 0,-2 0,-5 0,-8 0,-3 -1,-7 -1,-10 0,-3 1,-5 4,-7 3,-2 6,-4 14,-7 7,-2 18,-4 25,-3 7,1 11,6 13,11z"/>
 </g>
</svg>
