<?xml version="1.0" encoding="utf-8"?>
<!-- Generator: Adobe Illustrator 17.0.0, SVG Export Plug-In . SVG Version: 6.00 Build 0)  -->
<!DOCTYPE svg PUBLIC "-//W3C//DTD SVG 1.1//EN" "http://www.w3.org/Graphics/SVG/1.1/DTD/svg11.dtd">
<svg version="1.1" id="Layer_1" xmlns="http://www.w3.org/2000/svg" xmlns:xlink="http://www.w3.org/1999/xlink" x="0px" y="0px"
	 width="800px" height="800px" viewBox="0 0 800 800" enable-background="new 0 0 800 800" xml:space="preserve">
<g>
	<g id="background">
		<path fill="#905623" d="M627.21,383.65c-26.738,3.342-61.432,55.074-87.258,100.99c-30.19-51.193-71.56-104.2-109.232-99.491
			c-28.063,3.508-64.889,60.317-91.029,107.765c-21.878-25.477-45.573-43.066-67.962-40.268c-7.039,0.88-14.629,5.118-22.463,11.715
			c-29.152-46.271-66.36-89.483-100.53-85.212C100.089,385.23,25.11,551.475,25.11,551.475
			c31.446,80.86,81.147,97.673,129.485,88.725c65.569,140.805,195.011,49.884,244.867,7.158c45.39,6.445,94.09-19.26,129.255-44.235
			c88.312,119.356,246.466-43.4,246.466-43.4C756.452,514.767,687.148,376.158,627.21,383.65z"/>
		<g>
			<rect x="24.278" y="559.554" fill="#388E84" width="752.982" height="51.207"/>
		</g>
		<g>
			<path fill="#005769" d="M637.217,561.333c0.055-0.898,0.087-1.802,0.087-2.715c0-23.24-18.384-42.078-41.061-42.078
				c-22.679,0-41.062,18.838-41.062,42.078c0,0.913,0.032,1.817,0.088,2.715H637.217z"/>
		</g>
		<g>
			<path fill="#005769" d="M229.438,561.333c0.056-0.898,0.087-1.802,0.087-2.715c0-23.24-18.383-42.078-41.06-42.078
				c-22.678,0-41.063,18.838-41.063,42.078c0,0.913,0.032,1.817,0.088,2.715H229.438z"/>
		</g>
		<g>
			<path fill="#005769" d="M172.318,561.333c0.036-0.589,0.058-1.182,0.058-1.779c0-15.226-12.045-27.568-26.902-27.568
				c-14.858,0-26.902,12.343-26.902,27.568c0,0.598,0.021,1.19,0.057,1.779H172.318z"/>
		</g>
		<g>
			<path fill="#005769" d="M130.487,561.333c0.072-0.589,0.113-1.182,0.113-1.779c0-15.226-23.801-27.568-53.161-27.568
				s-53.161,12.343-53.161,27.568c0,0.598,0.04,1.19,0.114,1.779H130.487z"/>
		</g>
		<g>
			<path fill="#005769" d="M776.748,561.333c0.071-0.589,0.111-1.182,0.111-1.779c0-15.226-22.868-27.568-52.228-27.568
				c-29.359,0-53.161,12.343-53.161,27.568c0,0.598,0.042,1.19,0.114,1.779H776.748z"/>
		</g>
		<g>
			<path fill="#005769" d="M683.56,561.333c0.036-0.589,0.057-1.182,0.057-1.779c0-15.226-12.044-27.568-26.901-27.568
				c-14.858,0-26.903,12.343-26.903,27.568c0,0.598,0.021,1.19,0.058,1.779H683.56z"/>
		</g>
		<g>
			<rect x="23.652" y="675.03" fill="#388E84" width="753.695" height="35.523"/>
		</g>
		<g>
			<g>
				<rect x="24.278" y="610.761" fill="#FFFFFF" width="752.982" height="64.693"/>
			</g>
			<g>
				<rect x="24.421" y="616.94" fill="#B3BEC6" width="752.849" height="50.972"/>
			</g>
			<g>
				<rect x="166.966" y="637.715" fill="#FFFFFF" width="15.081" height="6.169"/>
			</g>
			<g>
				<rect x="191.15" y="637.715" fill="#FFFFFF" width="15.082" height="6.169"/>
			</g>
			<g>
				<rect x="215.335" y="637.715" fill="#FFFFFF" width="15.081" height="6.169"/>
			</g>
			<g>
				<rect x="239.519" y="637.715" fill="#FFFFFF" width="15.082" height="6.169"/>
			</g>
			<g>
				<rect x="263.703" y="637.715" fill="#FFFFFF" width="15.081" height="6.169"/>
			</g>
			<g>
				<rect x="287.888" y="637.715" fill="#FFFFFF" width="15.081" height="6.169"/>
			</g>
			<g>
				<rect x="312.072" y="637.715" fill="#FFFFFF" width="15.081" height="6.169"/>
			</g>
			<g>
				<rect x="23.367" y="637.715" fill="#FFFFFF" width="15.082" height="6.169"/>
			</g>
			<g>
				<rect x="47.552" y="637.715" fill="#FFFFFF" width="15.081" height="6.169"/>
			</g>
			<g>
				<rect x="71.736" y="637.715" fill="#FFFFFF" width="15.081" height="6.169"/>
			</g>
			<g>
				<rect x="95.92" y="637.715" fill="#FFFFFF" width="15.081" height="6.169"/>
			</g>
			<g>
				<rect x="120.104" y="637.715" fill="#FFFFFF" width="15.082" height="6.169"/>
			</g>
			<g>
				<rect x="144.29" y="637.715" fill="#FFFFFF" width="15.08" height="6.169"/>
			</g>
			<g>
				<rect x="336.257" y="637.715" fill="#FFFFFF" width="15.081" height="6.169"/>
			</g>
			<g>
				<rect x="360.44" y="637.715" fill="#FFFFFF" width="15.082" height="6.169"/>
			</g>
			<g>
				<rect x="384.625" y="637.715" fill="#FFFFFF" width="15.081" height="6.169"/>
			</g>
			<g>
				<rect x="408.81" y="637.715" fill="#FFFFFF" width="15.081" height="6.169"/>
			</g>
			<g>
				<rect x="432.995" y="637.715" fill="#FFFFFF" width="15.081" height="6.169"/>
			</g>
			<g>
				<rect x="457.179" y="637.715" fill="#FFFFFF" width="15.082" height="6.169"/>
			</g>
			<g>
				<rect x="481.363" y="637.715" fill="#FFFFFF" width="15.082" height="6.169"/>
			</g>
			<g>
				<rect x="505.548" y="637.715" fill="#FFFFFF" width="15.082" height="6.169"/>
			</g>
			<g>
				<rect x="529.731" y="637.715" fill="#FFFFFF" width="15.082" height="6.169"/>
			</g>
			<g>
				<rect x="553.918" y="637.715" fill="#FFFFFF" width="15.081" height="6.169"/>
			</g>
			<g>
				<rect x="578.102" y="637.715" fill="#FFFFFF" width="15.081" height="6.169"/>
			</g>
			<g>
				<rect x="602.285" y="637.715" fill="#FFFFFF" width="15.081" height="6.169"/>
			</g>
			<g>
				<rect x="626.47" y="637.715" fill="#FFFFFF" width="15.082" height="6.169"/>
			</g>
			<g>
				<rect x="650.654" y="637.715" fill="#FFFFFF" width="15.082" height="6.169"/>
			</g>
			<g>
				<rect x="674.839" y="637.715" fill="#FFFFFF" width="15.082" height="6.169"/>
			</g>
			<g>
				<rect x="699.023" y="637.715" fill="#FFFFFF" width="15.082" height="6.169"/>
			</g>
			<g>
				<rect x="723.208" y="637.715" fill="#FFFFFF" width="15.081" height="6.169"/>
			</g>
			<g>
				<rect x="747.393" y="637.715" fill="#FFFFFF" width="15.081" height="6.169"/>
			</g>
			<g>
				<rect x="771.427" y="637.715" fill="#FFFFFF" width="6.392" height="6.169"/>
			</g>
		</g>
		
			<linearGradient id="SVGID_1_" gradientUnits="userSpaceOnUse" x1="400.147" y1="85.1475" x2="400.147" y2="422.1437" gradientTransform="matrix(1 0 0 -1 0 801)">
			<stop  offset="0" style="stop-color:#FFFFFF;stop-opacity:0"/>
			<stop  offset="0.8587" style="stop-color:#FFFFFF;stop-opacity:0.8587"/>
			<stop  offset="1" style="stop-color:#FFFFFF"/>
		</linearGradient>
		<path opacity="0.1" fill="url(#SVGID_1_)" enable-background="new    " d="M29.395,554.895
			c30.677-7.186,62.448-8.147,93.803-7.456c27.782,0.61,55.561,0.762,83.343,1.32c59.96,1.206,119.89,4.017,179.837,5.728
			c64.804,1.85,129.06,11.621,193.82,14.193c62.663,2.489,125.422-1.813,188.107-2.281c4.438-4.166,6.879-6.677,6.879-6.677
			c-18.732-44.955-88.035-183.563-147.974-176.071c-26.738,3.342-61.432,55.074-87.258,100.99
			c-30.19-51.193-71.56-104.2-109.232-99.491c-28.063,3.508-64.889,60.317-91.029,107.765
			c-21.878-25.477-45.573-43.066-67.962-40.268c-7.039,0.88-14.629,5.118-22.463,11.715c-29.152-46.271-66.36-89.483-100.53-85.212
			C100.089,385.23,25.11,551.475,25.11,551.475c0.542,1.394,1.091,2.765,1.644,4.12C27.623,555.34,28.502,555.104,29.395,554.895z"
			/>
	</g>
	<g id="objects">
		<g>
			<g>
				<polygon fill="#EC3B73" points="87.933,640.912 66.155,640.912 68.644,629.671 84.986,629.671 				"/>
			</g>
			<g>
				<polygon fill="#EC3B73" points="98.472,645.128 54.914,645.128 58.969,637.399 93.717,637.399 				"/>
			</g>
			<g>
				<circle fill="#1A1A1A" cx="67.209" cy="644.775" r="4.566"/>
			</g>
			<g>
				<circle fill="#1A1A1A" cx="85.826" cy="644.775" r="4.567"/>
			</g>
			<g>
				<polygon fill="#FFDE00" points="73.78,636.809 68.023,636.809 70.512,631.051 73.78,631.051 				"/>
			</g>
			<g>
				<polygon fill="#FFDE00" points="85.995,636.809 80.238,636.809 80.238,631.051 83.047,631.051 				"/>
			</g>
			<g>
				<rect x="75.162" y="631.051" fill="#FFDE00" width="3.684" height="5.758"/>
			</g>
		</g>
		<g>
			<g>
				<polygon fill="#EC3B73" points="146.266,640.912 124.488,640.912 126.977,629.671 143.317,629.671 				"/>
			</g>
			<g>
				<polygon fill="#EC3B73" points="156.805,645.128 113.247,645.128 117.302,637.399 152.05,637.399 				"/>
			</g>
			<g>
				<circle fill="#1A1A1A" cx="125.541" cy="644.775" r="4.567"/>
			</g>
			<g>
				<circle fill="#1A1A1A" cx="144.158" cy="644.775" r="4.566"/>
			</g>
			<g>
				<polygon fill="#FFDE00" points="132.112,636.809 126.356,636.809 128.845,631.051 132.112,631.051 				"/>
			</g>
			<g>
				<polygon fill="#FFDE00" points="144.328,636.809 138.571,636.809 138.571,631.051 141.379,631.051 				"/>
			</g>
			<g>
				<rect x="133.494" y="631.051" fill="#FFDE00" width="3.684" height="5.758"/>
			</g>
		</g>
		<g>
			<g>
				<polygon fill="#EC3B73" points="594.204,640.912 572.425,640.912 574.916,629.671 591.256,629.671 				"/>
			</g>
			<g>
				<polygon fill="#EC3B73" points="604.742,645.128 561.185,645.128 565.24,637.399 599.988,637.399 				"/>
			</g>
			<g>
				<circle fill="#1A1A1A" cx="573.479" cy="644.775" r="4.566"/>
			</g>
			<g>
				<circle fill="#1A1A1A" cx="592.096" cy="644.775" r="4.566"/>
			</g>
			<g>
				<polygon fill="#FFDE00" points="580.05,636.809 574.294,636.809 576.783,631.051 580.05,631.051 				"/>
			</g>
			<g>
				<polygon fill="#FFDE00" points="592.265,636.809 586.509,636.809 586.509,631.051 589.316,631.051 				"/>
			</g>
			<g>
				<rect x="581.432" y="631.051" fill="#FFDE00" width="3.684" height="5.758"/>
			</g>
		</g>
		<g>
			<g>
				<polygon fill="#EC3B73" points="710.644,640.912 688.865,640.912 691.355,629.671 707.698,629.671 				"/>
			</g>
			<g>
				<polygon fill="#EC3B73" points="721.184,645.128 677.625,645.128 681.681,637.399 716.429,637.399 				"/>
			</g>
			<g>
				<circle fill="#1A1A1A" cx="689.92" cy="644.775" r="4.567"/>
			</g>
			<g>
				<circle fill="#1A1A1A" cx="708.537" cy="644.775" r="4.566"/>
			</g>
			<g>
				<polygon fill="#FFDE00" points="696.491,636.809 690.735,636.809 693.225,631.051 696.491,631.051 				"/>
			</g>
			<g>
				<polygon fill="#FFDE00" points="708.706,636.809 702.95,636.809 702.95,631.051 705.759,631.051 				"/>
			</g>
			<g>
				<rect x="697.872" y="631.051" fill="#FFDE00" width="3.684" height="5.758"/>
			</g>
		</g>
		<path fill="#AAC911" d="M777.271,704.635c-5.851-7.309-20.527-12.499-37.746-12.499c-12.31,0-23.317,2.653-30.739,6.833
			c-4.501-4.817-16.87-8.278-31.434-8.278c-17.254,0-31.439,4.856-33.093,11.072c-7.038-5.757-20.001-9.627-34.865-9.627
			c-12.307,0-23.314,2.653-30.736,6.833c-4.502-4.817-16.871-8.278-31.435-8.278c-13.564,0-25.225,3.003-30.397,7.308
			c-7.346-3.614-17.561-5.862-28.885-5.862c-12.308,0-23.314,2.653-30.737,6.833c-4.501-4.817-16.87-8.278-31.434-8.278
			c-13.565,0-25.226,3.003-30.399,7.307c-7.345-3.613-17.561-5.861-28.883-5.861c-12.309,0-23.317,2.654-30.739,6.833
			c-4.501-4.817-16.87-8.278-31.433-8.278c-15.743,0-28.921,4.043-32.367,9.474c-7.361-4.864-19.254-8.028-32.698-8.028
			c-12.308,0-23.316,2.654-30.739,6.833c-4.501-4.817-16.87-8.278-31.434-8.278c-13.563,0-25.224,3.002-30.397,7.307
			c-7.345-3.613-17.562-5.861-28.883-5.861c-12.309,0-23.316,2.654-30.739,6.833c-4.5-4.817-16.869-8.278-31.433-8.278
			c-15.67,0-28.801,4.007-32.32,9.398v54.943h753.967v-50.401H777.271z"/>
		
			<linearGradient id="SVGID_2_" gradientUnits="userSpaceOnUse" x1="402.0175" y1="45.9651" x2="402.0175" y2="110.31" gradientTransform="matrix(1 0 0 -1 0 801)">
			<stop  offset="0" style="stop-color:#FFFFFF;stop-opacity:0"/>
			<stop  offset="1" style="stop-color:#000000"/>
		</linearGradient>
		<path opacity="0.14" fill="url(#SVGID_2_)" enable-background="new    " d="M777.694,705.148
			c-5.558-7.581-20.546-13.013-38.17-13.013c-12.31,0-23.317,2.653-30.739,6.833c-4.501-4.817-16.87-8.278-31.434-8.278
			c-17.254,0-31.439,4.856-33.093,11.072c-7.038-5.757-20.001-9.627-34.865-9.627c-12.307,0-23.314,2.653-30.736,6.833
			c-4.502-4.817-16.871-8.278-31.435-8.278c-13.564,0-25.225,3.003-30.397,7.308c-7.346-3.614-17.561-5.862-28.885-5.862
			c-12.308,0-23.314,2.653-30.737,6.833c-4.501-4.817-16.87-8.278-31.434-8.278c-13.565,0-25.226,3.003-30.399,7.307
			c-7.345-3.613-17.561-5.861-28.883-5.861c-12.309,0-23.317,2.654-30.739,6.833c-4.501-4.817-16.87-8.278-31.433-8.278
			c-15.743,0-28.921,4.043-32.367,9.474c-7.361-4.864-19.254-8.028-32.698-8.028c-12.308,0-23.316,2.654-30.739,6.833
			c-4.501-4.817-16.87-8.278-31.434-8.278c-13.563,0-25.224,3.002-30.397,7.307c-7.345-3.613-17.562-5.861-28.883-5.861
			c-12.309,0-23.316,2.654-30.739,6.833c-4.5-4.817-16.869-8.278-31.433-8.278c-15.67,0-28.801,4.007-32.32,9.398v54.943H780.73
			v-49.884h-3.036V705.148z"/>
		<g>
			<g>
				<path fill="#005769" d="M318.628,561.333c-2.732-20.203-25.571-35.971-53.343-35.971c-27.77,0-50.61,15.768-53.342,35.971
					H318.628z"/>
			</g>
			<g>
				<path fill="#005769" d="M556.499,561.333c-2.732-20.203-25.571-35.971-53.344-35.971c-27.77,0-50.609,15.768-53.343,35.971
					H556.499z"/>
			</g>
			<g>
				<path fill="#005769" d="M390.079,561.333c0.055-0.898,0.086-1.802,0.086-2.715c0-23.24-18.384-42.078-41.06-42.078
					c-22.678,0-41.062,18.838-41.062,42.078c0,0.913,0.031,1.817,0.087,2.715H390.079z"/>
			</g>
			<g>
				<path fill="#AAC911" d="M633.399,606.126c0.027-0.433,0.042-0.869,0.042-1.31c0-11.219-8.873-20.314-19.821-20.314
					c-10.947,0-19.824,9.096-19.824,20.314c0,0.44,0.017,0.877,0.044,1.31H633.399z"/>
			</g>
			<g>
				<path fill="#AAC911" d="M651.508,603.856c0.016-0.271,0.027-0.543,0.027-0.818c0-7.012-5.548-12.696-12.391-12.696
					c-6.842,0-12.387,5.685-12.387,12.696c0,0.275,0.008,0.548,0.025,0.818H651.508z"/>
			</g>
			<g>
				<path fill="#005769" d="M457.336,561.333c-0.679-11.681-18.792-21.039-41.04-21.039c-22.248,0-40.361,9.358-41.04,21.039
					H457.336z"/>
			</g>
			<g>
				<g>
					<polygon fill="#FFC3B5" points="229.453,599.595 181.06,599.595 181.06,530.609 204.742,513.104 229.453,530.609 					"/>
				</g>
				<g>
					<rect x="191.871" y="539.36" fill="#DDEEEF" width="25.741" height="13.386"/>
				</g>
				<g>
					<rect x="191.871" y="559.439" fill="#DDEEEF" width="25.741" height="13.386"/>
				</g>
				<g>
					<circle fill="#2E777A" cx="205.555" cy="527.521" r="3.388"/>
				</g>
				<g>
					<g>
						<rect x="191.778" y="539.703" fill="#86C1C5" width="25.724" height="13.179"/>
						<path fill="#DEE0E2" d="M218.017,553.398h-26.754v-14.21h26.754V553.398z M192.292,552.367h24.694v-12.148h-24.694V552.367z"
							/>
					</g>
					<g>
						<rect x="203.081" y="539.708" fill="#DEE0E2" width="1.03" height="13.225"/>
					</g>
					<g>
						<rect x="191.397" y="545.534" fill="#DEE0E2" width="25.559" height="1.03"/>
					</g>
				</g>
				<g>
					<g>
						<rect x="191.778" y="559.801" fill="#86C1C5" width="25.724" height="13.179"/>
						<path fill="#DEE0E2" d="M218.017,573.496h-26.754v-14.209h26.754V573.496z M192.292,572.465h24.694v-12.148h-24.694V572.465z"
							/>
					</g>
					<g>
						<rect x="203.081" y="559.807" fill="#DEE0E2" width="1.03" height="13.226"/>
					</g>
					<g>
						<rect x="191.397" y="565.632" fill="#DEE0E2" width="25.559" height="1.031"/>
					</g>
				</g>
				<g>
					<rect x="195.75" y="584.671" fill="#C67A1F" width="18.019" height="14.416"/>
				</g>
				<g>
					<circle fill="#1D1D1B" cx="211.022" cy="591.708" r="0.858"/>
				</g>
			</g>
			<g>
				<g>
					<polygon fill="#F8D9AD" points="274.279,597.288 244.466,597.288 244.466,552.568 259.373,537.662 274.279,552.568 					"/>
				</g>
				<g>
					<circle fill="#AEA187" cx="259.147" cy="550.535" r="3.388"/>
				</g>
				<g>
					<rect x="252.597" y="561.151" fill="#DEE0E2" width="13.099" height="6.774"/>
				</g>
				<g>
					<rect x="252.597" y="571.991" fill="#DEE0E2" width="13.099" height="6.777"/>
				</g>
				<g>
					<rect x="262.634" y="560.645" fill="#C67A1F" width="7.531" height="8.095"/>
				</g>
				<g>
					<rect x="247.9" y="560.645" fill="#C67A1F" width="7.53" height="8.095"/>
				</g>
				<g>
					<rect x="248.088" y="571.425" fill="#C67A1F" width="7.53" height="8.097"/>
				</g>
				<g>
					<rect x="262.583" y="571.425" fill="#C67A1F" width="7.531" height="8.097"/>
				</g>
				<g>
					<rect x="274.136" y="554.128" fill="#F8D9AD" width="60.234" height="42.729"/>
				</g>
				<g>
					<rect x="244.466" y="585.995" fill="#783833" width="90.047" height="11.293"/>
				</g>
				<g>
					<polygon fill="#FF8E7E" points="259.887,537.662 318.41,537.662 336.167,555.419 274.794,555.419 					"/>
				</g>
				<g>
					<rect x="294.728" y="579.868" fill="#C67A1F" width="18.019" height="17.504"/>
				</g>
				<g>
					<rect x="279.799" y="561.85" fill="#DEE0E2" width="15.444" height="7.208"/>
					<path fill="#D46E34" d="M295.758,569.572h-16.474v-8.237h16.474V569.572z M280.314,568.542h14.414v-6.177h-14.414V568.542z"/>
				</g>
				<g>
					<rect x="311.203" y="561.85" fill="#DEE0E2" width="15.444" height="7.208"/>
					<path fill="#D46E34" d="M327.162,569.572h-16.474v-8.237h16.474V569.572z M311.718,568.542h14.415v-6.177h-14.415V568.542z"/>
				</g>
				<g>
					<circle fill="#1D1D1B" cx="310.002" cy="589.994" r="0.858"/>
				</g>
				<g>
					<rect x="296.365" y="530.238" fill="#FF8E7E" width="10.038" height="10.038"/>
				</g>
				<g>
					<g>
						<line fill="none" x1="318.289" y1="561.402" x2="318.289" y2="568.747"/>
						<rect x="317.775" y="561.402" fill="#C67A1F" width="1.029" height="7.345"/>
					</g>
					<g>
						<line fill="none" x1="310.757" y1="565.169" x2="326.764" y2="565.169"/>
						<rect x="310.757" y="564.654" fill="#C67A1F" width="16.007" height="1.029"/>
					</g>
				</g>
				<g>
					<g>
						<line fill="none" x1="287.048" y1="561.402" x2="287.048" y2="568.747"/>
						<rect x="286.533" y="561.402" fill="#C67A1F" width="1.029" height="7.345"/>
					</g>
					<g>
						<line fill="none" x1="279.515" y1="565.169" x2="295.522" y2="565.169"/>
						<rect x="279.515" y="564.654" fill="#C67A1F" width="16.007" height="1.029"/>
					</g>
				</g>
			</g>
			<g>
				<g>
					<rect x="340.806" y="487.804" fill="#A58D7C" width="60.231" height="88.029"/>
				</g>
				<g>
					<rect x="339.52" y="458.46" fill="#C6818E" width="62.547" height="29.344"/>
				</g>
				<g>
					<g>
						<rect x="346.984" y="493.208" fill="#86C1C5" width="10.809" height="17.761"/>
						<path fill="#DEE0E2" d="M358.309,511.484h-11.84v-18.79h11.84V511.484z M347.499,510.454h9.781v-16.73h-9.781V510.454z"/>
					</g>
					<g>
						<rect x="351.435" y="493.217" fill="#DEE0E2" width="1.03" height="17.82"/>
					</g>
					<g>
						<rect x="346.824" y="501.247" fill="#DEE0E2" width="10.742" height="1.029"/>
					</g>
				</g>
				<g>
					<g>
						<rect x="365.78" y="493.208" fill="#86C1C5" width="10.811" height="17.761"/>
						<path fill="#DEE0E2" d="M377.106,511.484h-11.84v-18.79h11.84V511.484z M366.295,510.454h9.781v-16.73h-9.781V510.454z"/>
					</g>
					<g>
						<rect x="370.232" y="493.217" fill="#DEE0E2" width="1.031" height="17.82"/>
					</g>
					<g>
						<rect x="365.621" y="501.247" fill="#DEE0E2" width="10.742" height="1.029"/>
					</g>
				</g>
				<g>
					<g>
						<rect x="384.333" y="493.208" fill="#86C1C5" width="10.811" height="17.761"/>
						<path fill="#DEE0E2" d="M395.659,511.484h-11.84v-18.79h11.84V511.484z M384.849,510.454h9.781v-16.73h-9.781V510.454z"/>
					</g>
					<g>
						<rect x="388.786" y="493.217" fill="#DEE0E2" width="1.03" height="17.82"/>
					</g>
					<g>
						<rect x="384.174" y="501.247" fill="#DEE0E2" width="10.741" height="1.029"/>
					</g>
				</g>
				<g>
					<g>
						<rect x="346.984" y="515.424" fill="#86C1C5" width="10.809" height="17.76"/>
						<path fill="#DEE0E2" d="M358.309,533.699h-11.84v-18.791h11.84V533.699z M347.499,532.668h9.781V515.94h-9.781V532.668z"/>
					</g>
					<g>
						<rect x="351.435" y="515.432" fill="#DEE0E2" width="1.03" height="17.82"/>
					</g>
					<g>
						<rect x="346.824" y="523.461" fill="#DEE0E2" width="10.742" height="1.029"/>
					</g>
				</g>
				<g>
					<g>
						<rect x="365.78" y="515.424" fill="#86C1C5" width="10.811" height="17.76"/>
						<path fill="#DEE0E2" d="M377.106,533.699h-11.84v-18.791h11.84V533.699z M366.295,532.668h9.781V515.94h-9.781V532.668z"/>
					</g>
					<g>
						<rect x="370.232" y="515.432" fill="#DEE0E2" width="1.031" height="17.82"/>
					</g>
					<g>
						<rect x="365.621" y="523.461" fill="#DEE0E2" width="10.742" height="1.029"/>
					</g>
				</g>
				<g>
					<g>
						<rect x="384.333" y="515.424" fill="#86C1C5" width="10.811" height="17.76"/>
						<path fill="#DEE0E2" d="M395.659,533.699h-11.84v-18.791h11.84V533.699z M384.849,532.668h9.781V515.94h-9.781V532.668z"/>
					</g>
					<g>
						<rect x="388.786" y="515.432" fill="#DEE0E2" width="1.03" height="17.82"/>
					</g>
					<g>
						<rect x="384.174" y="523.461" fill="#DEE0E2" width="10.741" height="1.029"/>
					</g>
				</g>
				<g>
					<g>
						<rect x="346.984" y="537.394" fill="#86C1C5" width="10.809" height="17.76"/>
						<path fill="#DEE0E2" d="M358.309,555.67h-11.84v-18.79h11.84V555.67z M347.499,554.641h9.781V537.91h-9.781V554.641z"/>
					</g>
					<g>
						<rect x="351.435" y="537.403" fill="#DEE0E2" width="1.03" height="17.819"/>
					</g>
					<g>
						<rect x="346.824" y="545.432" fill="#DEE0E2" width="10.742" height="1.03"/>
					</g>
				</g>
				<g>
					<g>
						<rect x="365.78" y="537.394" fill="#86C1C5" width="10.811" height="17.76"/>
						<path fill="#DEE0E2" d="M377.106,555.67h-11.84v-18.79h11.84V555.67z M366.295,554.641h9.781V537.91h-9.781V554.641z"/>
					</g>
					<g>
						<rect x="370.232" y="537.403" fill="#DEE0E2" width="1.031" height="17.819"/>
					</g>
					<g>
						<rect x="365.621" y="545.432" fill="#DEE0E2" width="10.742" height="1.03"/>
					</g>
				</g>
				<g>
					<g>
						<rect x="384.333" y="537.394" fill="#86C1C5" width="10.811" height="17.76"/>
						<path fill="#DEE0E2" d="M395.659,555.67h-11.84v-18.79h11.84V555.67z M384.849,554.641h9.781V537.91h-9.781V554.641z"/>
					</g>
					<g>
						<rect x="388.786" y="537.403" fill="#DEE0E2" width="1.03" height="17.819"/>
					</g>
					<g>
						<rect x="384.174" y="545.432" fill="#DEE0E2" width="10.741" height="1.03"/>
					</g>
				</g>
				<g>
					<rect x="387.138" y="449.966" fill="#C6818E" width="6.949" height="16.215"/>
				</g>
			</g>
			<g>
				<g>
					<polygon fill="#DDEEEF" points="440.65,598.396 410.837,598.396 410.837,553.676 425.744,538.769 440.65,553.676 					"/>
				</g>
				<g>
					<circle fill="#2E777A" cx="425.518" cy="551.644" r="3.388"/>
				</g>
				<g>
					<rect x="418.967" y="562.259" fill="#7C8DAB" width="13.102" height="6.776"/>
				</g>
				<g>
					<rect x="418.967" y="573.101" fill="#7C8DAB" width="13.102" height="6.774"/>
				</g>
				<g>
					<rect x="429.006" y="561.753" fill="#86C1C5" width="7.53" height="8.095"/>
				</g>
				<g>
					<rect x="414.271" y="561.753" fill="#86C1C5" width="7.53" height="8.095"/>
				</g>
				<g>
					<rect x="414.459" y="572.534" fill="#86C1C5" width="7.53" height="8.094"/>
				</g>
				<g>
					<rect x="428.954" y="572.534" fill="#86C1C5" width="7.531" height="8.094"/>
				</g>
				<g>
					<rect x="440.507" y="555.236" fill="#DDEEEF" width="60.234" height="42.729"/>
				</g>
				<g>
					<rect x="410.837" y="587.104" fill="#C45C53" width="90.048" height="11.292"/>
				</g>
				<g>
					<polygon fill="#AB5A54" points="426.259,538.769 484.782,538.769 502.54,556.527 441.165,556.527 					"/>
				</g>
				<g>
					<rect x="461.101" y="580.977" fill="#86C1C5" width="18.018" height="17.504"/>
				</g>
				<g>
					<rect x="446.169" y="562.959" fill="#7C8DAB" width="15.445" height="7.206"/>
					<path fill="#C54940" d="M462.13,570.681h-16.475v-8.237h16.475V570.681z M446.685,569.651H461.1v-6.179h-14.415V569.651z"/>
				</g>
				<g>
					<rect x="477.574" y="562.959" fill="#7C8DAB" width="15.443" height="7.206"/>
					<path fill="#C54940" d="M493.533,570.681H477.06v-8.237h16.474v8.237H493.533z M478.089,569.651h14.416v-6.179h-14.416V569.651
						z"/>
				</g>
				<g>
					<circle fill="#1D1D1B" cx="476.372" cy="591.102" r="0.857"/>
				</g>
				<g>
					<rect x="443.817" y="534.511" fill="#AB5A54" width="10.039" height="11.122"/>
				</g>
				<g>
					<line fill="none" x1="453.269" y1="562.511" x2="453.269" y2="569.856"/>
					<rect x="452.754" y="562.511" fill="#D14044" width="1.031" height="7.345"/>
				</g>
				<g>
					<line fill="none" x1="445.736" y1="566.278" x2="461.743" y2="566.278"/>
					<rect x="445.736" y="565.762" fill="#D14044" width="16.007" height="1.031"/>
				</g>
				<g>
					<g>
						<line fill="none" x1="485.095" y1="562.511" x2="485.095" y2="569.856"/>
						<rect x="484.58" y="562.511" fill="#D14044" width="1.03" height="7.345"/>
					</g>
					<g>
						<line fill="none" x1="477.561" y1="566.278" x2="493.569" y2="566.278"/>
						<rect x="477.561" y="565.762" fill="#D14044" width="16.008" height="1.031"/>
					</g>
				</g>
			</g>
			<g>
				<g>
					<rect x="509.327" y="489.288" fill="#D3C4C0" width="60.231" height="88.029"/>
				</g>
				<g>
					<rect x="508.042" y="459.946" fill="#AB5A54" width="62.548" height="29.342"/>
				</g>
				<line fill="none" x1="336.167" y1="555.419" x2="274.794" y2="555.419"/>
				<g>
					<rect x="339.52" y="458.46" fill="#C6818E" width="62.547" height="29.344"/>
				</g>
				<g>
					<polygon fill="#AB5A54" points="426.259,538.769 484.782,538.769 502.54,556.527 441.165,556.527 					"/>
				</g>
				<g>
					<rect x="508.042" y="459.946" fill="#AB5A54" width="62.548" height="29.342"/>
				</g>
				<g>
					<g>
						<rect x="515.507" y="494.694" fill="#86C1C5" width="10.809" height="17.76"/>
						<path fill="#DEE0E2" d="M526.831,512.969h-11.84v-18.79h11.84V512.969z M516.021,511.94h9.78v-16.73h-9.78V511.94z"/>
					</g>
					<g>
						<rect x="519.959" y="494.702" fill="#DEE0E2" width="1.028" height="17.82"/>
					</g>
					<g>
						<rect x="515.346" y="502.731" fill="#DEE0E2" width="10.741" height="1.029"/>
					</g>
				</g>
				<g>
					<g>
						<rect x="534.304" y="494.694" fill="#86C1C5" width="10.81" height="17.76"/>
						<path fill="#DEE0E2" d="M545.628,512.969h-11.839v-18.79h11.839V512.969z M534.817,511.94h9.782v-16.73h-9.782V511.94z"/>
					</g>
					<g>
						<rect x="538.755" y="494.702" fill="#DEE0E2" width="1.031" height="17.82"/>
					</g>
					<g>
						<rect x="534.144" y="502.731" fill="#DEE0E2" width="10.741" height="1.029"/>
					</g>
				</g>
				<g>
					<g>
						<rect x="552.856" y="494.694" fill="#86C1C5" width="10.811" height="17.76"/>
						<path fill="#DEE0E2" d="M564.182,512.969h-11.84v-18.79h11.84V512.969z M553.371,511.94h9.78v-16.73h-9.78V511.94z"/>
					</g>
					<g>
						<rect x="557.309" y="494.702" fill="#DEE0E2" width="1.029" height="17.82"/>
					</g>
					<g>
						<rect x="552.696" y="502.731" fill="#DEE0E2" width="10.742" height="1.029"/>
					</g>
				</g>
				<g>
					<g>
						<rect x="515.507" y="516.908" fill="#86C1C5" width="10.809" height="17.76"/>
						<path fill="#DEE0E2" d="M526.831,535.184h-11.84v-18.79h11.84V535.184z M516.021,534.154h9.78v-16.73h-9.78V534.154z"/>
					</g>
					<g>
						<rect x="519.959" y="516.916" fill="#DEE0E2" width="1.028" height="17.822"/>
					</g>
					<g>
						<rect x="515.346" y="524.946" fill="#DEE0E2" width="10.741" height="1.029"/>
					</g>
				</g>
				<g>
					<g>
						<rect x="534.304" y="516.908" fill="#86C1C5" width="10.81" height="17.76"/>
						<path fill="#DEE0E2" d="M545.628,535.184h-11.839v-18.79h11.839V535.184z M534.817,534.154h9.782v-16.73h-9.782V534.154z"/>
					</g>
					<g>
						<rect x="538.755" y="516.916" fill="#DEE0E2" width="1.031" height="17.822"/>
					</g>
					<g>
						<rect x="534.144" y="524.946" fill="#DEE0E2" width="10.741" height="1.029"/>
					</g>
				</g>
				<g>
					<g>
						<rect x="552.856" y="516.908" fill="#86C1C5" width="10.811" height="17.76"/>
						<path fill="#DEE0E2" d="M564.182,535.184h-11.84v-18.79h11.84V535.184z M553.371,534.154h9.78v-16.73h-9.78V534.154z"/>
					</g>
					<g>
						<rect x="557.309" y="516.916" fill="#DEE0E2" width="1.029" height="17.822"/>
					</g>
					<g>
						<rect x="552.696" y="524.946" fill="#DEE0E2" width="10.742" height="1.029"/>
					</g>
				</g>
				<g>
					<g>
						<rect x="515.507" y="538.88" fill="#86C1C5" width="10.809" height="17.761"/>
						<path fill="#DEE0E2" d="M526.831,557.154h-11.84v-18.79h11.84V557.154z M516.021,556.124h9.78v-16.73h-9.78V556.124z"/>
					</g>
					<g>
						<rect x="519.959" y="538.888" fill="#DEE0E2" width="1.028" height="17.819"/>
					</g>
					<g>
						<rect x="515.346" y="546.918" fill="#DEE0E2" width="10.741" height="1.028"/>
					</g>
				</g>
				<g>
					<g>
						<rect x="534.304" y="538.88" fill="#86C1C5" width="10.81" height="17.761"/>
						<path fill="#DEE0E2" d="M545.628,557.154h-11.839v-18.79h11.839V557.154z M534.817,556.124h9.782v-16.73h-9.782V556.124z"/>
					</g>
					<g>
						<rect x="538.755" y="538.888" fill="#DEE0E2" width="1.031" height="17.819"/>
					</g>
					<g>
						<rect x="534.144" y="546.918" fill="#DEE0E2" width="10.741" height="1.028"/>
					</g>
				</g>
				<g>
					<g>
						<rect x="552.856" y="538.88" fill="#86C1C5" width="10.811" height="17.761"/>
						<path fill="#DEE0E2" d="M564.182,557.154h-11.84v-18.79h11.84V557.154z M553.371,556.124h9.78v-16.73h-9.78V556.124z"/>
					</g>
					<g>
						<rect x="557.309" y="538.888" fill="#DEE0E2" width="1.029" height="17.819"/>
					</g>
					<g>
						<rect x="552.696" y="546.918" fill="#DEE0E2" width="10.742" height="1.028"/>
					</g>
				</g>
				<g>
					<rect x="555.66" y="451.451" fill="#AB5A54" width="6.948" height="16.215"/>
				</g>
			</g>
			<g>
				<g>
					<polygon fill="#F7DCD0" points="628.26,579.346 579.866,579.346 579.866,510.359 603.549,492.855 628.26,510.359 					"/>
				</g>
				<g>
					<rect x="590.679" y="519.112" fill="#DDEEEF" width="25.739" height="13.385"/>
				</g>
				<g>
					<rect x="590.679" y="539.19" fill="#DDEEEF" width="25.739" height="13.386"/>
				</g>
				<g>
					<circle fill="#A8967E" cx="604.362" cy="507.272" r="3.388"/>
				</g>
				<g>
					<g>
						<rect x="590.584" y="519.454" fill="#86C1C5" width="25.725" height="13.179"/>
						<path fill="#DEE0E2" d="M616.823,533.148H590.07V518.94h26.753V533.148z M591.1,532.119h24.695v-12.15H591.1V532.119z"/>
					</g>
					<g>
						<rect x="601.889" y="519.46" fill="#DEE0E2" width="1.029" height="13.225"/>
					</g>
					<g>
						<rect x="590.203" y="525.286" fill="#DEE0E2" width="25.561" height="1.029"/>
					</g>
				</g>
				<g>
					<g>
						<rect x="590.584" y="539.553" fill="#86C1C5" width="25.725" height="13.18"/>
						<path fill="#DEE0E2" d="M616.823,553.247H590.07v-14.209h26.753V553.247z M591.1,552.217h24.695v-12.149H591.1V552.217z"/>
					</g>
					<g>
						<rect x="601.889" y="539.559" fill="#DEE0E2" width="1.029" height="13.225"/>
					</g>
					<g>
						<rect x="590.203" y="545.385" fill="#DEE0E2" width="25.561" height="1.028"/>
					</g>
				</g>
				<g>
					<rect x="594.558" y="564.423" fill="#C6818E" width="18.018" height="14.417"/>
				</g>
				<g>
					<circle fill="#1D1D1B" cx="609.83" cy="571.459" r="0.858"/>
				</g>
			</g>
			<g>
				<path fill="#AAC911" d="M43.514,603.038c-0.027-0.434-0.042-0.87-0.042-1.311c0-11.219,8.875-20.313,19.822-20.313
					c10.948,0,19.823,9.094,19.823,20.313c0,0.441-0.016,0.878-0.043,1.311H43.514z"/>
			</g>
			<g>
				<path fill="#AAC911" d="M25.406,600.768c-0.017-0.27-0.026-0.545-0.026-0.818c0-7.012,5.546-12.697,12.389-12.697
					c6.842,0,12.389,5.685,12.389,12.697c0,0.273-0.01,0.548-0.027,0.818H25.406z"/>
			</g>
			<g>
				<path fill="#AAC911" d="M746.664,587.586c-0.01-0.244-0.015-0.492-0.015-0.742c0-6.358,3.185-11.515,7.114-11.515
					s7.113,5.156,7.113,11.515c0,0.25-0.006,0.498-0.014,0.742H746.664z"/>
			</g>
			<g>
				<path fill="#AAC911" d="M758.574,587.586c-0.011-0.244-0.015-0.492-0.015-0.742c0-6.358,3.185-11.515,7.113-11.515
					c3.929,0,7.114,5.156,7.114,11.515c0,0.25-0.007,0.498-0.016,0.742H758.574z"/>
			</g>
			<g>
				<g>
					<polygon fill="#DFD7CA" points="156.585,440.116 156.585,433.044 150.692,433.044 150.692,437.38 118.083,422.24 
						118.083,580.763 167.585,580.763 167.585,445.223 					"/>
				</g>
				<g>
					<rect x="124.264" y="456.118" fill="#86C1C5" width="36.868" height="11.786"/>
					<path fill="#FFFFFF" d="M161.427,468.198H123.97v-12.375h37.457V468.198z M124.559,467.609h36.278v-11.196h-36.278
						C124.559,456.413,124.559,467.609,124.559,467.609z"/>
				</g>
				<g>
					<rect x="130.13" y="456.082" fill="#FFFFFF" width="0.589" height="11.497"/>
				</g>
				<g>
					<rect x="136.165" y="456.082" fill="#FFFFFF" width="0.589" height="11.497"/>
				</g>
				<g>
					<rect x="142.201" y="456.082" fill="#FFFFFF" width="0.589" height="11.497"/>
				</g>
				<g>
					<rect x="148.237" y="456.082" fill="#FFFFFF" width="0.589" height="11.497"/>
				</g>
				<g>
					<rect x="154.272" y="456.082" fill="#FFFFFF" width="0.589" height="11.497"/>
				</g>
				<g>
					<rect x="123.813" y="461.853" fill="#FFFFFF" width="37.365" height="0.589"/>
				</g>
				<g>
					<rect x="124.264" y="474.8" fill="#86C1C5" width="36.868" height="11.786"/>
					<path fill="#FFFFFF" d="M161.427,486.881H123.97v-12.375h37.457V486.881z M124.559,486.292h36.278v-11.197h-36.278
						C124.559,475.095,124.559,486.292,124.559,486.292z"/>
				</g>
				<g>
					<rect x="130.13" y="474.765" fill="#FFFFFF" width="0.589" height="11.497"/>
				</g>
				<g>
					<rect x="136.165" y="474.765" fill="#FFFFFF" width="0.589" height="11.497"/>
				</g>
				<g>
					<rect x="142.201" y="474.765" fill="#FFFFFF" width="0.589" height="11.497"/>
				</g>
				<g>
					<rect x="148.237" y="474.765" fill="#FFFFFF" width="0.589" height="11.497"/>
				</g>
				<g>
					<rect x="154.272" y="474.765" fill="#FFFFFF" width="0.589" height="11.497"/>
				</g>
				<g>
					<rect x="123.813" y="480.534" fill="#FFFFFF" width="37.365" height="0.59"/>
				</g>
				<g>
					<rect x="124.264" y="493.482" fill="#86C1C5" width="36.868" height="11.786"/>
					<path fill="#FFFFFF" d="M161.427,505.564H123.97v-12.376h37.457V505.564z M124.559,504.974h36.278v-11.196h-36.278
						C124.559,493.778,124.559,504.974,124.559,504.974z"/>
				</g>
				<g>
					<rect x="130.13" y="493.446" fill="#FFFFFF" width="0.589" height="11.497"/>
				</g>
				<g>
					<rect x="136.165" y="493.446" fill="#FFFFFF" width="0.589" height="11.497"/>
				</g>
				<g>
					<rect x="142.201" y="493.446" fill="#FFFFFF" width="0.589" height="11.497"/>
				</g>
				<g>
					<rect x="148.237" y="493.446" fill="#FFFFFF" width="0.589" height="11.497"/>
				</g>
				<g>
					<rect x="154.272" y="493.446" fill="#FFFFFF" width="0.589" height="11.497"/>
				</g>
				<g>
					<rect x="123.813" y="499.217" fill="#FFFFFF" width="37.365" height="0.589"/>
				</g>
				<g>
					<rect x="124.264" y="512.164" fill="#86C1C5" width="36.868" height="11.786"/>
					<path fill="#FFFFFF" d="M161.427,524.245H123.97V511.87h37.457V524.245z M124.559,523.656h36.278v-11.197h-36.278
						C124.559,512.459,124.559,523.656,124.559,523.656z"/>
				</g>
				<g>
					<rect x="130.13" y="512.129" fill="#FFFFFF" width="0.589" height="11.497"/>
				</g>
				<g>
					<rect x="136.165" y="512.129" fill="#FFFFFF" width="0.589" height="11.497"/>
				</g>
				<g>
					<rect x="142.201" y="512.129" fill="#FFFFFF" width="0.589" height="11.497"/>
				</g>
				<g>
					<rect x="148.237" y="512.129" fill="#FFFFFF" width="0.589" height="11.497"/>
				</g>
				<g>
					<rect x="154.272" y="512.129" fill="#FFFFFF" width="0.589" height="11.497"/>
				</g>
				<g>
					<rect x="123.813" y="517.898" fill="#FFFFFF" width="37.365" height="0.59"/>
				</g>
				<g>
					<rect x="124.264" y="530.847" fill="#86C1C5" width="36.868" height="11.786"/>
					<path fill="#FFFFFF" d="M161.427,542.928H123.97v-12.376h37.457V542.928z M124.559,542.338h36.278v-11.196h-36.278
						C124.559,531.142,124.559,542.338,124.559,542.338z"/>
				</g>
				<g>
					<rect x="130.13" y="530.811" fill="#FFFFFF" width="0.589" height="11.498"/>
				</g>
				<g>
					<rect x="136.165" y="530.811" fill="#FFFFFF" width="0.589" height="11.498"/>
				</g>
				<g>
					<rect x="142.201" y="530.811" fill="#FFFFFF" width="0.589" height="11.498"/>
				</g>
				<g>
					<rect x="148.237" y="530.811" fill="#FFFFFF" width="0.589" height="11.498"/>
				</g>
				<g>
					<rect x="154.272" y="530.811" fill="#FFFFFF" width="0.589" height="11.498"/>
				</g>
				<g>
					<rect x="123.813" y="536.581" fill="#FFFFFF" width="37.365" height="0.589"/>
				</g>
				<g>
					<rect x="124.264" y="549.529" fill="#86C1C5" width="36.868" height="11.785"/>
					<path fill="#FFFFFF" d="M161.427,561.609H123.97v-12.375h37.457V561.609z M124.559,561.021h36.278v-11.197h-36.278
						C124.559,549.824,124.559,561.021,124.559,561.021z"/>
				</g>
				<g>
					<rect x="130.13" y="549.493" fill="#FFFFFF" width="0.589" height="11.497"/>
				</g>
				<g>
					<rect x="136.165" y="549.493" fill="#FFFFFF" width="0.589" height="11.497"/>
				</g>
				<g>
					<rect x="142.201" y="549.493" fill="#FFFFFF" width="0.589" height="11.497"/>
				</g>
				<g>
					<rect x="148.237" y="549.493" fill="#FFFFFF" width="0.589" height="11.497"/>
				</g>
				<g>
					<rect x="154.272" y="549.493" fill="#FFFFFF" width="0.589" height="11.497"/>
				</g>
				<g>
					<rect x="123.813" y="555.263" fill="#FFFFFF" width="37.365" height="0.59"/>
				</g>
				<g>
					<rect x="133.873" y="568.177" fill="#D05A15" width="17.246" height="12.646"/>
					<path fill="#7F4B00" d="M151.413,581.118h-17.835v-13.235h17.835V581.118z M134.167,580.529h16.656v-12.058h-16.656V580.529z"
						/>
				</g>
			</g>
			<g>
				<g>
					<polygon fill="#F8D9AD" points="675.425,448.677 675.425,442.36 670.161,442.36 670.161,446.233 641.033,432.71 
						641.033,574.31 685.25,574.31 685.25,453.238 					"/>
				</g>
				<g>
					<rect x="646.554" y="462.971" fill="#86C1C5" width="32.933" height="10.529"/>
					<path fill="#FFFFFF" d="M679.749,473.762h-33.458v-11.054h33.458V473.762z M646.818,473.235h32.405v-10h-32.405V473.235z"/>
				</g>
				<g>
					<rect x="651.793" y="462.94" fill="#FFFFFF" width="0.527" height="10.27"/>
				</g>
				<g>
					<rect x="657.185" y="462.94" fill="#FFFFFF" width="0.526" height="10.27"/>
				</g>
				<g>
					<rect x="662.577" y="462.94" fill="#FFFFFF" width="0.526" height="10.27"/>
				</g>
				<g>
					<rect x="667.968" y="462.94" fill="#FFFFFF" width="0.527" height="10.27"/>
				</g>
				<g>
					<rect x="673.358" y="462.94" fill="#FFFFFF" width="0.527" height="10.27"/>
				</g>
				<g>
					<rect x="646.15" y="468.094" fill="#FFFFFF" width="33.378" height="0.525"/>
				</g>
				<g>
					<rect x="646.554" y="479.659" fill="#86C1C5" width="32.933" height="10.527"/>
					<path fill="#FFFFFF" d="M679.749,490.45h-33.458v-11.054h33.458V490.45z M646.818,489.924h32.405v-10.002h-32.405V489.924z"/>
				</g>
				<g>
					<rect x="651.793" y="479.628" fill="#FFFFFF" width="0.527" height="10.27"/>
				</g>
				<g>
					<rect x="657.185" y="479.628" fill="#FFFFFF" width="0.526" height="10.27"/>
				</g>
				<g>
					<rect x="662.577" y="479.628" fill="#FFFFFF" width="0.526" height="10.27"/>
				</g>
				<g>
					<rect x="667.968" y="479.628" fill="#FFFFFF" width="0.527" height="10.27"/>
				</g>
				<g>
					<rect x="673.358" y="479.628" fill="#FFFFFF" width="0.527" height="10.27"/>
				</g>
				<g>
					<rect x="646.15" y="484.781" fill="#FFFFFF" width="33.378" height="0.526"/>
				</g>
				<g>
					<rect x="646.554" y="496.348" fill="#86C1C5" width="32.933" height="10.527"/>
					<path fill="#FFFFFF" d="M679.749,507.14h-33.458v-11.056h33.458V507.14z M646.818,506.612h32.405V496.61h-32.405V506.612z"/>
				</g>
				<g>
					<rect x="651.793" y="496.315" fill="#FFFFFF" width="0.527" height="10.27"/>
				</g>
				<g>
					<rect x="657.185" y="496.315" fill="#FFFFFF" width="0.526" height="10.27"/>
				</g>
				<g>
					<rect x="662.577" y="496.315" fill="#FFFFFF" width="0.526" height="10.27"/>
				</g>
				<g>
					<rect x="667.968" y="496.315" fill="#FFFFFF" width="0.527" height="10.27"/>
				</g>
				<g>
					<rect x="673.358" y="496.315" fill="#FFFFFF" width="0.527" height="10.27"/>
				</g>
				<g>
					<rect x="646.15" y="501.47" fill="#FFFFFF" width="33.378" height="0.526"/>
				</g>
				<g>
					<rect x="646.554" y="513.035" fill="#86C1C5" width="32.933" height="10.528"/>
					<path fill="#FFFFFF" d="M679.749,523.826h-33.458v-11.054h33.458V523.826z M646.818,523.301h32.405v-10.002h-32.405V523.301z"
						/>
				</g>
				<g>
					<rect x="651.793" y="513.004" fill="#FFFFFF" width="0.527" height="10.269"/>
				</g>
				<g>
					<rect x="657.185" y="513.004" fill="#FFFFFF" width="0.526" height="10.269"/>
				</g>
				<g>
					<rect x="662.577" y="513.004" fill="#FFFFFF" width="0.526" height="10.269"/>
				</g>
				<g>
					<rect x="667.968" y="513.004" fill="#FFFFFF" width="0.527" height="10.269"/>
				</g>
				<g>
					<rect x="673.358" y="513.004" fill="#FFFFFF" width="0.527" height="10.269"/>
				</g>
				<g>
					<rect x="646.15" y="518.157" fill="#FFFFFF" width="33.378" height="0.526"/>
				</g>
				<g>
					<rect x="646.554" y="529.724" fill="#86C1C5" width="32.933" height="10.528"/>
					<path fill="#FFFFFF" d="M679.749,540.515h-33.458v-11.054h33.458V540.515z M646.818,539.988h32.405v-10.002h-32.405V539.988z"
						/>
				</g>
				<g>
					<rect x="651.793" y="529.691" fill="#FFFFFF" width="0.527" height="10.271"/>
				</g>
				<g>
					<rect x="657.185" y="529.691" fill="#FFFFFF" width="0.526" height="10.271"/>
				</g>
				<g>
					<rect x="662.577" y="529.691" fill="#FFFFFF" width="0.526" height="10.271"/>
				</g>
				<g>
					<rect x="667.968" y="529.691" fill="#FFFFFF" width="0.527" height="10.271"/>
				</g>
				<g>
					<rect x="673.358" y="529.691" fill="#FFFFFF" width="0.527" height="10.271"/>
				</g>
				<g>
					<rect x="646.15" y="534.847" fill="#FFFFFF" width="33.378" height="0.525"/>
				</g>
				<g>
					<rect x="646.554" y="546.412" fill="#86C1C5" width="32.933" height="10.526"/>
					<path fill="#FFFFFF" d="M679.749,557.203h-33.458v-11.055h33.458V557.203z M646.818,556.677h32.405v-10.002h-32.405V556.677z"
						/>
				</g>
				<g>
					<rect x="651.793" y="546.379" fill="#FFFFFF" width="0.527" height="10.271"/>
				</g>
				<g>
					<rect x="657.185" y="546.379" fill="#FFFFFF" width="0.526" height="10.271"/>
				</g>
				<g>
					<rect x="662.577" y="546.379" fill="#FFFFFF" width="0.526" height="10.271"/>
				</g>
				<g>
					<rect x="667.968" y="546.379" fill="#FFFFFF" width="0.527" height="10.271"/>
				</g>
				<g>
					<rect x="673.358" y="546.379" fill="#FFFFFF" width="0.527" height="10.271"/>
				</g>
				<g>
					<rect x="646.15" y="551.533" fill="#FFFFFF" width="33.378" height="0.527"/>
				</g>
				<g>
					<rect x="655.137" y="563.068" fill="#D05A15" width="15.405" height="11.298"/>
					<path fill="#7F4B00" d="M670.805,574.629h-15.931v-11.822h15.931L670.805,574.629L670.805,574.629z M655.4,574.102h14.878
						v-10.769H655.4V574.102z"/>
				</g>
			</g>
			<path fill="#388E84" d="M109.078,581.006c0,0,39.888-7.821,64.556,1.423L109.078,581.006z"/>
			<path fill="#388E84" d="M171.078,599.673c0,0,39.888-7.821,64.556,1.423L171.078,599.673z"/>
			<path fill="#388E84" d="M234.977,598.253c0,0,39.888-7.821,64.556,1.423L234.977,598.253z"/>
			<path fill="#388E84" d="M287.644,598.919c0,0,39.888-7.821,64.556,1.423L287.644,598.919z"/>
			<path fill="#388E84" d="M341.644,576.253c0,0,39.888-7.821,64.556,1.423L341.644,576.253z"/>
			<path fill="#388E84" d="M436.973,598.455c0,0,41.5-7.933,66.167,1.312L436.973,598.455z"/>
			<path fill="#388E84" d="M506.307,577.455c0,0,41.5-7.933,66.167,1.312L506.307,577.455z"/>
			<path fill="#388E84" d="M574.974,580.122c0,0,41.5-7.933,66.167,1.311L574.974,580.122z"/>
			<path fill="#388E84" d="M630.398,575.949c0,0,41.5-7.933,66.167,1.311L630.398,575.949z"/>
			
				<linearGradient id="SVGID_3_" gradientUnits="userSpaceOnUse" x1="141.356" y1="218.571" x2="141.356" y2="223.0839" gradientTransform="matrix(1 0 0 -1 0 801)">
				<stop  offset="0" style="stop-color:#FFFFFF;stop-opacity:0"/>
				<stop  offset="1" style="stop-color:#000000"/>
			</linearGradient>
			<path opacity="0.1" fill="url(#SVGID_3_)" enable-background="new    " d="M109.078,581.006c0,0,39.888-7.821,64.556,1.423
				L109.078,581.006z"/>
			
				<linearGradient id="SVGID_4_" gradientUnits="userSpaceOnUse" x1="203.356" y1="199.9041" x2="203.356" y2="204.4169" gradientTransform="matrix(1 0 0 -1 0 801)">
				<stop  offset="0" style="stop-color:#FFFFFF;stop-opacity:0"/>
				<stop  offset="1" style="stop-color:#000000"/>
			</linearGradient>
			<path opacity="0.1" fill="url(#SVGID_4_)" enable-background="new    " d="M171.078,599.673c0,0,39.888-7.821,64.556,1.423
				L171.078,599.673z"/>
			
				<linearGradient id="SVGID_5_" gradientUnits="userSpaceOnUse" x1="267.255" y1="201.324" x2="267.255" y2="205.8369" gradientTransform="matrix(1 0 0 -1 0 801)">
				<stop  offset="0" style="stop-color:#FFFFFF;stop-opacity:0"/>
				<stop  offset="1" style="stop-color:#000000"/>
			</linearGradient>
			<path opacity="0.1" fill="url(#SVGID_5_)" enable-background="new    " d="M234.977,598.253c0,0,39.888-7.821,64.556,1.423
				L234.977,598.253z"/>
			
				<linearGradient id="SVGID_6_" gradientUnits="userSpaceOnUse" x1="319.922" y1="200.658" x2="319.922" y2="205.1708" gradientTransform="matrix(1 0 0 -1 0 801)">
				<stop  offset="0" style="stop-color:#FFFFFF;stop-opacity:0"/>
				<stop  offset="1" style="stop-color:#000000"/>
			</linearGradient>
			<path opacity="0.1" fill="url(#SVGID_6_)" enable-background="new    " d="M287.644,598.919c0,0,39.888-7.821,64.556,1.423
				L287.644,598.919z"/>
			
				<linearGradient id="SVGID_7_" gradientUnits="userSpaceOnUse" x1="373.922" y1="223.324" x2="373.922" y2="227.8369" gradientTransform="matrix(1 0 0 -1 0 801)">
				<stop  offset="0" style="stop-color:#FFFFFF;stop-opacity:0"/>
				<stop  offset="1" style="stop-color:#000000"/>
			</linearGradient>
			<path opacity="0.1" fill="url(#SVGID_7_)" enable-background="new    " d="M341.644,576.253c0,0,39.888-7.821,64.556,1.423
				L341.644,576.253z"/>
			
				<linearGradient id="SVGID_8_" gradientUnits="userSpaceOnUse" x1="470.0565" y1="201.233" x2="470.0565" y2="205.7119" gradientTransform="matrix(1 0 0 -1 0 801)">
				<stop  offset="0" style="stop-color:#FFFFFF;stop-opacity:0"/>
				<stop  offset="1" style="stop-color:#000000"/>
			</linearGradient>
			<path opacity="0.1" fill="url(#SVGID_8_)" enable-background="new    " d="M436.973,598.455c0,0,41.5-7.933,66.167,1.312
				L436.973,598.455z"/>
			
				<linearGradient id="SVGID_9_" gradientUnits="userSpaceOnUse" x1="539.3905" y1="222.233" x2="539.3905" y2="226.7119" gradientTransform="matrix(1 0 0 -1 0 801)">
				<stop  offset="0" style="stop-color:#FFFFFF;stop-opacity:0"/>
				<stop  offset="1" style="stop-color:#000000"/>
			</linearGradient>
			<path opacity="0.1" fill="url(#SVGID_9_)" enable-background="new    " d="M506.307,577.455c0,0,41.5-7.933,66.167,1.312
				L506.307,577.455z"/>
			
				<linearGradient id="SVGID_10_" gradientUnits="userSpaceOnUse" x1="608.0575" y1="219.567" x2="608.0575" y2="224.0452" gradientTransform="matrix(1 0 0 -1 0 801)">
				<stop  offset="0" style="stop-color:#FFFFFF;stop-opacity:0"/>
				<stop  offset="1" style="stop-color:#000000"/>
			</linearGradient>
			<path opacity="0.1" fill="url(#SVGID_10_)" enable-background="new    " d="M574.974,580.122c0,0,41.5-7.933,66.167,1.311
				L574.974,580.122z"/>
			
				<linearGradient id="SVGID_11_" gradientUnits="userSpaceOnUse" x1="663.4815" y1="223.7401" x2="663.4815" y2="228.2182" gradientTransform="matrix(1 0 0 -1 0 801)">
				<stop  offset="0" style="stop-color:#FFFFFF;stop-opacity:0"/>
				<stop  offset="1" style="stop-color:#000000"/>
			</linearGradient>
			<path opacity="0.1" fill="url(#SVGID_11_)" enable-background="new    " d="M630.398,575.949c0,0,41.5-7.933,66.167,1.311
				L630.398,575.949z"/>
			<path fill="#388E84" d="M385.644,600.253c0,0,39.889-7.821,64.556,1.423L385.644,600.253z"/>
			<g>
				<path fill="#AAC911" d="M163.994,610.761c-0.027-0.434-0.042-0.87-0.042-1.31c0-11.219,8.875-20.313,19.823-20.313
					c10.947,0,19.822,9.095,19.822,20.313c0,0.44-0.016,0.877-0.043,1.31H163.994z"/>
			</g>
			<g>
				<path fill="#AAC911" d="M145.886,608.49c-0.017-0.272-0.026-0.543-0.026-0.817c0-7.012,5.546-12.697,12.39-12.697
					c6.842,0,12.388,5.686,12.388,12.697c0,0.274-0.01,0.546-0.027,0.817H145.886z"/>
			</g>
			<g>
				<path fill="#AAC911" d="M235.598,599.95c-0.008-0.232-0.014-0.468-0.014-0.706c0-6.039,3.025-10.935,6.757-10.935
					c3.73,0,6.756,4.896,6.756,10.935c0,0.238-0.005,0.474-0.014,0.706H235.598z"/>
			</g>
			<g>
				<path fill="#AAC911" d="M245.466,602.329c-0.008-0.232-0.014-0.468-0.014-0.706c0-6.039,3.025-10.935,6.757-10.935
					c3.73,0,6.756,4.896,6.756,10.935c0,0.238-0.005,0.474-0.014,0.706H245.466z"/>
			</g>
			<g>
				<path fill="#AAC911" d="M329.044,598.373c-0.006-0.183-0.011-0.368-0.011-0.556c0-4.753,2.381-8.607,5.318-8.607
					c2.936,0,5.317,3.854,5.317,8.607c0,0.188-0.004,0.373-0.011,0.556H329.044z"/>
			</g>
			<g>
				<path fill="#AAC911" d="M335.044,601.856c-0.006-0.183-0.011-0.368-0.011-0.556c0-4.753,2.381-8.607,5.318-8.607
					c2.936,0,5.317,3.854,5.317,8.607c0,0.188-0.004,0.373-0.011,0.556H335.044z"/>
			</g>
			<g>
				<path fill="#AAC911" d="M112.378,581.706c-0.006-0.183-0.011-0.368-0.011-0.556c0-4.753,2.381-8.607,5.318-8.607
					c2.936,0,5.317,3.854,5.317,8.607c0,0.188-0.004,0.373-0.011,0.556H112.378z"/>
			</g>
			<g>
				<path fill="#AAC911" d="M338.157,578.872c-0.009-0.22-0.014-0.441-0.014-0.664c0-5.694,2.852-10.31,6.369-10.31
					s6.369,4.615,6.369,10.31c0,0.224-0.005,0.444-0.013,0.664H338.157z"/>
			</g>
			<g>
				<path fill="#AAC911" d="M351.188,578.872c-0.009-0.22-0.014-0.441-0.014-0.664c0-5.694,2.852-10.31,6.37-10.31
					c3.516,0,6.368,4.615,6.368,10.31c0,0.224-0.005,0.444-0.013,0.664H351.188z"/>
			</g>
			<g>
				<path fill="#AAC911" d="M404.657,601.866c-0.008-0.195-0.013-0.391-0.013-0.589c0-5.037,2.522-9.12,5.635-9.12
					c3.111,0,5.635,4.083,5.635,9.12c0,0.198-0.005,0.394-0.013,0.589H404.657z"/>
			</g>
			<g>
				<path fill="#AAC911" d="M414.09,601.866c-0.009-0.195-0.013-0.391-0.013-0.589c0-5.037,2.523-9.12,5.636-9.12
					c3.11,0,5.633,4.083,5.633,9.12c0,0.198-0.004,0.394-0.011,0.589H414.09z"/>
			</g>
			<g>
				<path fill="#AAC911" d="M489.324,601.199c-0.008-0.195-0.013-0.391-0.013-0.589c0-5.037,2.523-9.12,5.635-9.12
					c3.111,0,5.635,4.083,5.635,9.12c0,0.198-0.005,0.393-0.013,0.589H489.324z"/>
			</g>
			<g>
				<path fill="#AAC911" d="M498.757,601.199c-0.009-0.195-0.013-0.391-0.013-0.589c0-5.037,2.523-9.12,5.636-9.12
					c3.11,0,5.633,4.083,5.633,9.12c0,0.198-0.004,0.393-0.011,0.589H498.757z"/>
			</g>
			<g>
				<path fill="#AAC911" d="M549.749,580.539c-0.012-0.287-0.017-0.574-0.017-0.866c0-7.424,3.717-13.442,8.303-13.442
					s8.305,6.018,8.305,13.442c0,0.292-0.007,0.579-0.019,0.866H549.749z"/>
			</g>
			<g>
				<path fill="#AAC911" d="M504.382,582.566c-0.012-0.287-0.017-0.574-0.017-0.866c0-7.424,3.718-13.441,8.305-13.441
					c4.586,0,8.303,6.018,8.303,13.441c0,0.292-0.006,0.579-0.018,0.866H504.382z"/>
			</g>
			<g>
				<path fill="#AAC911" d="M561.822,581.556c-0.009-0.216-0.014-0.432-0.014-0.65c0-5.578,2.793-10.099,6.238-10.099
					c3.444,0,6.238,4.521,6.238,10.099c0,0.219-0.004,0.434-0.014,0.65H561.822z"/>
			</g>
			<g>
				<path fill="#AAC911" d="M622.822,582.89c-0.009-0.216-0.014-0.432-0.014-0.65c0-5.578,2.793-10.099,6.238-10.099
					c3.444,0,6.238,4.521,6.238,10.099c0,0.219-0.004,0.435-0.014,0.65H622.822z"/>
			</g>
			<g>
				<g>
					<rect x="683.015" y="566.299" fill="#C67A1F" width="4.461" height="15.445"/>
				</g>
				<g>
					<circle fill="#80B23F" cx="685.76" cy="553.944" r="14.415"/>
				</g>
			</g>
			<g>
				<path fill="#AAC911" d="M637.567,575.582c-0.007-0.18-0.012-0.362-0.012-0.545c0-4.656,2.333-8.431,5.21-8.431
					c2.876,0,5.209,3.775,5.209,8.431c0,0.183-0.004,0.365-0.012,0.545H637.567z"/>
			</g>
			<g>
				<path fill="#AAC911" d="M683.07,591.881c-0.011-0.287-0.017-0.575-0.017-0.866c0-7.424,3.717-13.441,8.303-13.441
					c4.587,0,8.305,6.018,8.305,13.441c0,0.291-0.007,0.579-0.018,0.866H683.07z"/>
			</g>
			<g>
				<g>
					
						<linearGradient id="SVGID_12_" gradientUnits="userSpaceOnUse" x1="613.6185" y1="194.874" x2="613.6185" y2="216.498" gradientTransform="matrix(1 0 0 -1 0 801)">
						<stop  offset="0" style="stop-color:#FFFFFF;stop-opacity:0"/>
						<stop  offset="1" style="stop-color:#000000"/>
					</linearGradient>
					<path opacity="0.14" fill="url(#SVGID_12_)" enable-background="new    " d="M633.399,606.126
						c0.027-0.433,0.042-0.869,0.042-1.31c0-11.219-8.873-20.314-19.821-20.314c-10.947,0-19.824,9.096-19.824,20.314
						c0,0.44,0.017,0.877,0.044,1.31H633.399z"/>
				</g>
				<g>
					
						<linearGradient id="SVGID_13_" gradientUnits="userSpaceOnUse" x1="639.1459" y1="197.144" x2="639.146" y2="210.658" gradientTransform="matrix(1 0 0 -1 0 801)">
						<stop  offset="0" style="stop-color:#FFFFFF;stop-opacity:0"/>
						<stop  offset="1" style="stop-color:#000000"/>
					</linearGradient>
					<path opacity="0.14" fill="url(#SVGID_13_)" enable-background="new    " d="M651.508,603.856
						c0.016-0.271,0.027-0.543,0.027-0.818c0-7.012-5.548-12.696-12.391-12.696c-6.842,0-12.387,5.685-12.387,12.696
						c0,0.275,0.008,0.548,0.025,0.818H651.508z"/>
				</g>
				<g opacity="0.14">
					
						<linearGradient id="SVGID_14_" gradientUnits="userSpaceOnUse" x1="63.2945" y1="197.962" x2="63.2945" y2="219.5859" gradientTransform="matrix(1 0 0 -1 0 801)">
						<stop  offset="0" style="stop-color:#FFFFFF;stop-opacity:0"/>
						<stop  offset="1" style="stop-color:#000000"/>
					</linearGradient>
					<path fill="url(#SVGID_14_)" d="M43.514,603.038c-0.027-0.434-0.042-0.87-0.042-1.311c0-11.219,8.875-20.313,19.822-20.313
						c10.948,0,19.823,9.094,19.823,20.313c0,0.441-0.016,0.878-0.043,1.311H43.514z"/>
				</g>
				<g>
					
						<linearGradient id="SVGID_15_" gradientUnits="userSpaceOnUse" x1="37.769" y1="200.232" x2="37.769" y2="213.747" gradientTransform="matrix(1 0 0 -1 0 801)">
						<stop  offset="0" style="stop-color:#FFFFFF;stop-opacity:0"/>
						<stop  offset="1" style="stop-color:#000000"/>
					</linearGradient>
					<path opacity="0.14" fill="url(#SVGID_15_)" enable-background="new    " d="M25.406,600.768
						c-0.017-0.27-0.026-0.545-0.026-0.818c0-7.012,5.546-12.697,12.389-12.697c6.842,0,12.389,5.685,12.389,12.697
						c0,0.273-0.01,0.548-0.027,0.818H25.406z"/>
				</g>
				<g>
					
						<linearGradient id="SVGID_16_" gradientUnits="userSpaceOnUse" x1="753.7625" y1="213.414" x2="753.7625" y2="225.671" gradientTransform="matrix(1 0 0 -1 0 801)">
						<stop  offset="0" style="stop-color:#FFFFFF;stop-opacity:0"/>
						<stop  offset="1" style="stop-color:#000000"/>
					</linearGradient>
					<path opacity="0.14" fill="url(#SVGID_16_)" enable-background="new    " d="M746.664,587.586
						c-0.01-0.244-0.015-0.492-0.015-0.742c0-6.358,3.185-11.515,7.114-11.515s7.113,5.156,7.113,11.515
						c0,0.25-0.006,0.498-0.014,0.742H746.664z"/>
				</g>
				<g>
					
						<linearGradient id="SVGID_17_" gradientUnits="userSpaceOnUse" x1="765.6724" y1="213.414" x2="765.6725" y2="225.671" gradientTransform="matrix(1 0 0 -1 0 801)">
						<stop  offset="0" style="stop-color:#FFFFFF;stop-opacity:0"/>
						<stop  offset="1" style="stop-color:#000000"/>
					</linearGradient>
					<path opacity="0.14" fill="url(#SVGID_17_)" enable-background="new    " d="M758.574,587.586
						c-0.011-0.244-0.015-0.492-0.015-0.742c0-6.358,3.185-11.515,7.113-11.515c3.929,0,7.114,5.156,7.114,11.515
						c0,0.25-0.007,0.498-0.016,0.742H758.574z"/>
				</g>
				<g>
					
						<linearGradient id="SVGID_18_" gradientUnits="userSpaceOnUse" x1="183.7745" y1="190.239" x2="183.7745" y2="211.862" gradientTransform="matrix(1 0 0 -1 0 801)">
						<stop  offset="0" style="stop-color:#FFFFFF;stop-opacity:0"/>
						<stop  offset="1" style="stop-color:#000000"/>
					</linearGradient>
					<path opacity="0.14" fill="url(#SVGID_18_)" enable-background="new    " d="M163.994,610.761
						c-0.027-0.434-0.042-0.87-0.042-1.31c0-11.219,8.875-20.313,19.823-20.313c10.947,0,19.822,9.095,19.822,20.313
						c0,0.44-0.016,0.877-0.043,1.31H163.994z"/>
				</g>
				<g>
					
						<linearGradient id="SVGID_19_" gradientUnits="userSpaceOnUse" x1="158.249" y1="192.51" x2="158.249" y2="206.024" gradientTransform="matrix(1 0 0 -1 0 801)">
						<stop  offset="0" style="stop-color:#FFFFFF;stop-opacity:0"/>
						<stop  offset="1" style="stop-color:#000000"/>
					</linearGradient>
					<path opacity="0.14" fill="url(#SVGID_19_)" enable-background="new    " d="M145.886,608.49
						c-0.017-0.272-0.026-0.543-0.026-0.817c0-7.012,5.546-12.697,12.39-12.697c6.842,0,12.388,5.686,12.388,12.697
						c0,0.274-0.01,0.546-0.027,0.817H145.886z"/>
				</g>
				<g>
					
						<linearGradient id="SVGID_20_" gradientUnits="userSpaceOnUse" x1="242.3405" y1="201.05" x2="242.3405" y2="212.691" gradientTransform="matrix(1 0 0 -1 0 801)">
						<stop  offset="0" style="stop-color:#FFFFFF;stop-opacity:0"/>
						<stop  offset="1" style="stop-color:#000000"/>
					</linearGradient>
					<path opacity="0.14" fill="url(#SVGID_20_)" enable-background="new    " d="M235.598,599.95
						c-0.008-0.232-0.014-0.468-0.014-0.706c0-6.039,3.025-10.935,6.757-10.935c3.73,0,6.756,4.896,6.756,10.935
						c0,0.238-0.005,0.474-0.014,0.706H235.598z"/>
				</g>
				<g>
					
						<linearGradient id="SVGID_21_" gradientUnits="userSpaceOnUse" x1="252.2085" y1="198.671" x2="252.2085" y2="210.312" gradientTransform="matrix(1 0 0 -1 0 801)">
						<stop  offset="0" style="stop-color:#FFFFFF;stop-opacity:0"/>
						<stop  offset="1" style="stop-color:#000000"/>
					</linearGradient>
					<path opacity="0.14" fill="url(#SVGID_21_)" enable-background="new    " d="M245.466,602.329
						c-0.008-0.232-0.014-0.468-0.014-0.706c0-6.039,3.025-10.935,6.757-10.935c3.73,0,6.756,4.896,6.756,10.935
						c0,0.238-0.005,0.474-0.014,0.706H245.466z"/>
				</g>
				<g>
					
						<linearGradient id="SVGID_22_" gradientUnits="userSpaceOnUse" x1="334.3505" y1="202.627" x2="334.3505" y2="211.79" gradientTransform="matrix(1 0 0 -1 0 801)">
						<stop  offset="0" style="stop-color:#FFFFFF;stop-opacity:0"/>
						<stop  offset="1" style="stop-color:#000000"/>
					</linearGradient>
					<path opacity="0.14" fill="url(#SVGID_22_)" enable-background="new    " d="M329.044,598.373
						c-0.006-0.183-0.011-0.368-0.011-0.556c0-4.753,2.381-8.607,5.318-8.607c2.936,0,5.317,3.854,5.317,8.607
						c0,0.188-0.004,0.373-0.011,0.556H329.044z"/>
				</g>
				<g>
					
						<linearGradient id="SVGID_23_" gradientUnits="userSpaceOnUse" x1="340.3505" y1="199.144" x2="340.3505" y2="208.307" gradientTransform="matrix(1 0 0 -1 0 801)">
						<stop  offset="0" style="stop-color:#FFFFFF;stop-opacity:0"/>
						<stop  offset="1" style="stop-color:#000000"/>
					</linearGradient>
					<path opacity="0.14" fill="url(#SVGID_23_)" enable-background="new    " d="M335.044,601.856
						c-0.006-0.183-0.011-0.368-0.011-0.556c0-4.753,2.381-8.607,5.318-8.607c2.936,0,5.317,3.854,5.317,8.607
						c0,0.188-0.004,0.373-0.011,0.556H335.044z"/>
				</g>
				<g>
					
						<linearGradient id="SVGID_24_" gradientUnits="userSpaceOnUse" x1="117.6845" y1="219.294" x2="117.6845" y2="228.457" gradientTransform="matrix(1 0 0 -1 0 801)">
						<stop  offset="0" style="stop-color:#FFFFFF;stop-opacity:0"/>
						<stop  offset="1" style="stop-color:#000000"/>
					</linearGradient>
					<path opacity="0.14" fill="url(#SVGID_24_)" enable-background="new    " d="M112.378,581.706
						c-0.006-0.183-0.011-0.368-0.011-0.556c0-4.753,2.381-8.607,5.318-8.607c2.936,0,5.317,3.854,5.317,8.607
						c0,0.188-0.004,0.373-0.011,0.556H112.378z"/>
				</g>
				<g>
					
						<linearGradient id="SVGID_25_" gradientUnits="userSpaceOnUse" x1="344.512" y1="222.128" x2="344.512" y2="233.102" gradientTransform="matrix(1 0 0 -1 0 801)">
						<stop  offset="0" style="stop-color:#FFFFFF;stop-opacity:0"/>
						<stop  offset="1" style="stop-color:#000000"/>
					</linearGradient>
					<path opacity="0.14" fill="url(#SVGID_25_)" enable-background="new    " d="M338.157,578.872
						c-0.009-0.22-0.014-0.441-0.014-0.664c0-5.694,2.852-10.31,6.369-10.31s6.369,4.615,6.369,10.31
						c0,0.224-0.005,0.444-0.013,0.664H338.157z"/>
				</g>
				<g>
					
						<linearGradient id="SVGID_26_" gradientUnits="userSpaceOnUse" x1="357.543" y1="222.128" x2="357.543" y2="233.102" gradientTransform="matrix(1 0 0 -1 0 801)">
						<stop  offset="0" style="stop-color:#FFFFFF;stop-opacity:0"/>
						<stop  offset="1" style="stop-color:#000000"/>
					</linearGradient>
					<path opacity="0.14" fill="url(#SVGID_26_)" enable-background="new    " d="M351.188,578.872
						c-0.009-0.22-0.014-0.441-0.014-0.664c0-5.694,2.852-10.31,6.37-10.31c3.516,0,6.368,4.615,6.368,10.31
						c0,0.224-0.005,0.444-0.013,0.664H351.188z"/>
				</g>
				<g>
					
						<linearGradient id="SVGID_27_" gradientUnits="userSpaceOnUse" x1="410.279" y1="199.134" x2="410.279" y2="208.843" gradientTransform="matrix(1 0 0 -1 0 801)">
						<stop  offset="0" style="stop-color:#FFFFFF;stop-opacity:0"/>
						<stop  offset="1" style="stop-color:#000000"/>
					</linearGradient>
					<path opacity="0.14" fill="url(#SVGID_27_)" enable-background="new    " d="M404.657,601.866
						c-0.008-0.195-0.013-0.391-0.013-0.589c0-5.037,2.522-9.12,5.635-9.12c3.111,0,5.635,4.083,5.635,9.12
						c0,0.198-0.005,0.394-0.013,0.589H404.657z"/>
				</g>
				<g>
					
						<linearGradient id="SVGID_28_" gradientUnits="userSpaceOnUse" x1="419.7115" y1="199.134" x2="419.7115" y2="208.843" gradientTransform="matrix(1 0 0 -1 0 801)">
						<stop  offset="0" style="stop-color:#FFFFFF;stop-opacity:0"/>
						<stop  offset="1" style="stop-color:#000000"/>
					</linearGradient>
					<path opacity="0.14" fill="url(#SVGID_28_)" enable-background="new    " d="M414.09,601.866
						c-0.009-0.195-0.013-0.391-0.013-0.589c0-5.037,2.523-9.12,5.636-9.12c3.11,0,5.633,4.083,5.633,9.12
						c0,0.198-0.004,0.394-0.011,0.589H414.09z"/>
				</g>
				<g>
					
						<linearGradient id="SVGID_29_" gradientUnits="userSpaceOnUse" x1="494.946" y1="199.801" x2="494.946" y2="209.51" gradientTransform="matrix(1 0 0 -1 0 801)">
						<stop  offset="0" style="stop-color:#FFFFFF;stop-opacity:0"/>
						<stop  offset="1" style="stop-color:#000000"/>
					</linearGradient>
					<path opacity="0.14" fill="url(#SVGID_29_)" enable-background="new    " d="M489.324,601.199
						c-0.008-0.195-0.013-0.391-0.013-0.589c0-5.037,2.523-9.12,5.635-9.12c3.111,0,5.635,4.083,5.635,9.12
						c0,0.198-0.005,0.393-0.013,0.589H489.324z"/>
				</g>
				<g>
					
						<linearGradient id="SVGID_30_" gradientUnits="userSpaceOnUse" x1="504.3785" y1="199.801" x2="504.3785" y2="209.51" gradientTransform="matrix(1 0 0 -1 0 801)">
						<stop  offset="0" style="stop-color:#FFFFFF;stop-opacity:0"/>
						<stop  offset="1" style="stop-color:#000000"/>
					</linearGradient>
					<path opacity="0.14" fill="url(#SVGID_30_)" enable-background="new    " d="M498.757,601.199
						c-0.009-0.195-0.013-0.391-0.013-0.589c0-5.037,2.523-9.12,5.636-9.12c3.11,0,5.633,4.083,5.633,9.12
						c0,0.198-0.004,0.393-0.011,0.589H498.757z"/>
				</g>
				<g>
					
						<linearGradient id="SVGID_31_" gradientUnits="userSpaceOnUse" x1="558.0359" y1="220.461" x2="558.036" y2="234.769" gradientTransform="matrix(1 0 0 -1 0 801)">
						<stop  offset="0" style="stop-color:#FFFFFF;stop-opacity:0"/>
						<stop  offset="1" style="stop-color:#000000"/>
					</linearGradient>
					<path opacity="0.14" fill="url(#SVGID_31_)" enable-background="new    " d="M549.749,580.539
						c-0.012-0.287-0.017-0.574-0.017-0.866c0-7.424,3.717-13.442,8.303-13.442s8.305,6.018,8.305,13.442
						c0,0.292-0.007,0.579-0.019,0.866H549.749z"/>
				</g>
				<g>
					
						<linearGradient id="SVGID_32_" gradientUnits="userSpaceOnUse" x1="512.6689" y1="218.434" x2="512.669" y2="232.741" gradientTransform="matrix(1 0 0 -1 0 801)">
						<stop  offset="0" style="stop-color:#FFFFFF;stop-opacity:0"/>
						<stop  offset="1" style="stop-color:#000000"/>
					</linearGradient>
					<path opacity="0.14" fill="url(#SVGID_32_)" enable-background="new    " d="M504.382,582.566
						c-0.012-0.287-0.017-0.574-0.017-0.866c0-7.424,3.718-13.441,8.305-13.441c4.586,0,8.303,6.018,8.303,13.441
						c0,0.292-0.006,0.579-0.018,0.866H504.382z"/>
				</g>
				<g>
					
						<linearGradient id="SVGID_33_" gradientUnits="userSpaceOnUse" x1="568.046" y1="219.444" x2="568.046" y2="230.193" gradientTransform="matrix(1 0 0 -1 0 801)">
						<stop  offset="0" style="stop-color:#FFFFFF;stop-opacity:0"/>
						<stop  offset="1" style="stop-color:#000000"/>
					</linearGradient>
					<path opacity="0.14" fill="url(#SVGID_33_)" enable-background="new    " d="M561.822,581.556
						c-0.009-0.216-0.014-0.432-0.014-0.65c0-5.578,2.793-10.099,6.238-10.099c3.444,0,6.238,4.521,6.238,10.099
						c0,0.219-0.004,0.434-0.014,0.65H561.822z"/>
				</g>
				<g>
					
						<linearGradient id="SVGID_34_" gradientUnits="userSpaceOnUse" x1="629.046" y1="218.11" x2="629.046" y2="228.859" gradientTransform="matrix(1 0 0 -1 0 801)">
						<stop  offset="0" style="stop-color:#FFFFFF;stop-opacity:0"/>
						<stop  offset="1" style="stop-color:#000000"/>
					</linearGradient>
					<path opacity="0.14" fill="url(#SVGID_34_)" enable-background="new    " d="M622.822,582.89
						c-0.009-0.216-0.014-0.432-0.014-0.65c0-5.578,2.793-10.099,6.238-10.099c3.444,0,6.238,4.521,6.238,10.099
						c0,0.219-0.004,0.435-0.014,0.65H622.822z"/>
				</g>
				<g>
					
						<linearGradient id="SVGID_35_" gradientUnits="userSpaceOnUse" x1="642.7645" y1="225.418" x2="642.7645" y2="234.394" gradientTransform="matrix(1 0 0 -1 0 801)">
						<stop  offset="0" style="stop-color:#FFFFFF;stop-opacity:0"/>
						<stop  offset="1" style="stop-color:#000000"/>
					</linearGradient>
					<path opacity="0.14" fill="url(#SVGID_35_)" enable-background="new    " d="M637.567,575.582
						c-0.007-0.18-0.012-0.362-0.012-0.545c0-4.656,2.333-8.431,5.21-8.431c2.876,0,5.209,3.775,5.209,8.431
						c0,0.183-0.004,0.365-0.012,0.545H637.567z"/>
				</g>
				<g>
					
						<linearGradient id="SVGID_36_" gradientUnits="userSpaceOnUse" x1="691.3569" y1="209.119" x2="691.357" y2="223.426" gradientTransform="matrix(1 0 0 -1 0 801)">
						<stop  offset="0" style="stop-color:#FFFFFF;stop-opacity:0"/>
						<stop  offset="1" style="stop-color:#000000"/>
					</linearGradient>
					<path opacity="0.14" fill="url(#SVGID_36_)" enable-background="new    " d="M683.07,591.881
						c-0.011-0.287-0.017-0.575-0.017-0.866c0-7.424,3.717-13.441,8.303-13.441c4.587,0,8.305,6.018,8.305,13.441
						c0,0.291-0.007,0.579-0.018,0.866H683.07z"/>
				</g>
			</g>
			<g opacity="0.1">
				
					<linearGradient id="SVGID_37_" gradientUnits="userSpaceOnUse" x1="370.7935" y1="313.196" x2="370.7935" y2="342.54" gradientTransform="matrix(1 0 0 -1 0 801)">
					<stop  offset="0" style="stop-color:#FFFFFF;stop-opacity:0"/>
					<stop  offset="1" style="stop-color:#000000"/>
				</linearGradient>
				<rect x="339.52" y="458.46" fill="url(#SVGID_37_)" width="62.547" height="29.344"/>
			</g>
			<g opacity="0.1">
				
					<linearGradient id="SVGID_38_" gradientUnits="userSpaceOnUse" x1="464.3995" y1="244.473" x2="464.3995" y2="262.231" gradientTransform="matrix(1 0 0 -1 0 801)">
					<stop  offset="0" style="stop-color:#FFFFFF;stop-opacity:0"/>
					<stop  offset="1" style="stop-color:#000000"/>
				</linearGradient>
				<polygon fill="url(#SVGID_38_)" points="426.259,538.769 484.782,538.769 502.54,556.527 441.165,556.527 				"/>
			</g>
			<line fill="none" x1="336.167" y1="555.419" x2="274.794" y2="555.419"/>
			<g opacity="0.07">
				
					<linearGradient id="SVGID_39_" gradientUnits="userSpaceOnUse" x1="370.7935" y1="313.196" x2="370.7935" y2="342.54" gradientTransform="matrix(1 0 0 -1 0 801)">
					<stop  offset="0" style="stop-color:#FFFFFF;stop-opacity:0"/>
					<stop  offset="1" style="stop-color:#000000"/>
				</linearGradient>
				<rect x="339.52" y="458.46" fill="url(#SVGID_39_)" width="62.547" height="29.344"/>
			</g>
			<g opacity="0.1">
				
					<linearGradient id="SVGID_40_" gradientUnits="userSpaceOnUse" x1="464.3995" y1="244.473" x2="464.3995" y2="262.231" gradientTransform="matrix(1 0 0 -1 0 801)">
					<stop  offset="0" style="stop-color:#FFFFFF;stop-opacity:0"/>
					<stop  offset="1" style="stop-color:#000000"/>
				</linearGradient>
				<polygon fill="url(#SVGID_40_)" points="426.259,538.769 484.782,538.769 502.54,556.527 441.165,556.527 				"/>
			</g>
			<g opacity="0.1">
				
					<linearGradient id="SVGID_41_" gradientUnits="userSpaceOnUse" x1="539.316" y1="311.712" x2="539.316" y2="341.054" gradientTransform="matrix(1 0 0 -1 0 801)">
					<stop  offset="0" style="stop-color:#FFFFFF;stop-opacity:0"/>
					<stop  offset="1" style="stop-color:#000000"/>
				</linearGradient>
				<rect x="508.042" y="459.946" fill="url(#SVGID_41_)" width="62.548" height="29.342"/>
			</g>
			<g>
				
					<linearGradient id="SVGID_42_" gradientUnits="userSpaceOnUse" x1="298.027" y1="245.581" x2="298.027" y2="263.338" gradientTransform="matrix(1 0 0 -1 0 801)">
					<stop  offset="0" style="stop-color:#FFFFFF;stop-opacity:0"/>
					<stop  offset="1" style="stop-color:#000000"/>
				</linearGradient>
				<polygon opacity="0.1" fill="url(#SVGID_42_)" enable-background="new    " points="259.887,537.662 318.41,537.662 
					336.167,555.419 274.794,555.419 				"/>
			</g>
			<g>
				<g>
					<rect x="750.733" y="565.966" fill="#C67A1F" width="4.462" height="15.445"/>
				</g>
				<g>
					<circle fill="#80B23F" cx="753.479" cy="553.611" r="14.415"/>
				</g>
				<g>
					<rect x="713.662" y="565.966" fill="#C67A1F" width="4.461" height="15.445"/>
				</g>
				<g>
					<circle fill="#80B23F" cx="716.408" cy="553.611" r="14.414"/>
				</g>
			</g>
			<g>
				<g>
					<rect x="92.728" y="565.966" fill="#C67A1F" width="4.462" height="15.445"/>
				</g>
				<g>
					<circle fill="#80B23F" cx="95.474" cy="553.611" r="14.415"/>
				</g>
				<g>
					<rect x="58.746" y="565.966" fill="#C67A1F" width="4.462" height="15.445"/>
				</g>
				<g>
					<circle fill="#80B23F" cx="61.492" cy="553.611" r="14.415"/>
				</g>
			</g>
		</g>
	</g>
</g>
</svg>
