<?xml version="1.0" encoding="UTF-8"?>
<!DOCTYPE svg PUBLIC "-//W3C//DTD SVG 1.1//EN" "http://www.w3.org/Graphics/SVG/1.1/DTD/svg11.dtd">
<!-- Creator: CorelDRAW X6 -->
<svg xmlns="http://www.w3.org/2000/svg" xml:space="preserve" width="0.82937in" height="1.05422in" version="1.1" style="shape-rendering:geometricPrecision; text-rendering:geometricPrecision; image-rendering:optimizeQuality; fill-rule:evenodd; clip-rule:evenodd"
viewBox="0 0 232 295"
 xmlns:xlink="http://www.w3.org/1999/xlink">
 <defs>
  <style type="text/css">
   <![CDATA[
    .fil0 {fill:#00AB98}
   ]]>
  </style>
 </defs>
 <g id="Layer_x0020_1">
  <metadata id="CorelCorpID_0Corel-Layer"/>
  <path class="fil0" d="M63 216c0,-3 -2,-5 -5,-5l-11 0c-3,0 -5,2 -5,5l0 10c0,3 2,5 5,5l11 0c3,0 5,-2 5,-5l0 -10zm0 -42c0,-3 -2,-5 -5,-5l-11 0c-3,0 -5,2 -5,5l0 10c0,3 2,5 5,5l11 0c3,0 5,-2 5,-5l0 -10zm42 0c0,-3 -2,-5 -5,-5l-11 0c-3,0 -5,2 -5,5l0 10c0,3 2,5 5,5l11 0c3,0 5,-2 5,-5l0 -10zm-42 -42c0,-3 -2,-5 -5,-5l-11 0c-3,0 -5,2 -5,5l0 10c0,3 2,5 5,5l11 0c3,0 5,-2 5,-5l0 -10zm127 84c0,-3 -2,-5 -5,-5l-11 0c-3,0 -5,2 -5,5l0 10c0,3 2,5 5,5l11 0c3,0 5,-2 5,-5l0 -10zm-42 -42c0,-3 -2,-5 -5,-5l-11 0c-3,0 -5,2 -5,5l0 10c0,3 2,5 5,5l11 0c3,0 5,-2 5,-5l0 -10zm-42 -42c0,-3 -2,-5 -5,-5l-11 0c-3,0 -5,2 -5,5l0 10c0,3 2,5 5,5l11 0c3,0 5,-2 5,-5l0 -10zm84 42c0,-3 -2,-5 -5,-5l-11 0c-3,0 -5,2 -5,5l0 10c0,3 2,5 5,5l11 0c3,0 5,-2 5,-5l0 -10zm-42 -42c0,-3 -2,-5 -5,-5l-11 0c-3,0 -5,2 -5,5l0 10c0,3 2,5 5,5l11 0c3,0 5,-2 5,-5l0 -10zm42 0c0,-3 -2,-5 -5,-5l-11 0c-3,0 -5,2 -5,5l0 10c0,3 2,5 5,5l11 0c3,0 5,-3 5,-5l0 -10zm-42 142l0 -37c0,-3 -2,-5 -5,-5l-53 0c-3,0 -5,2 -5,5l0 37 -63 0 0 -190 42 0 0 5c0,9 7,16 16,16l74 0c9,0 16,-7 16,-16l0 -6 42 0 0 190 -63 0zm0 -196c0,3 -2,5 -5,5l-11 0c-3,0 -5,-2 -5,-5l0 -16 -21 0 0 16c0,3 -2,5 -5,5l-11 0c-3,0 -5,-2 -5,-5l0 -53c0,-3 2,-5 5,-5l11 0c3,0 5,2 5,5l0 16 21 0 0 -16c0,-3 2,-5 5,-5l11 0c3,0 5,2 5,5l0 53 0 0zm84 -5c0,-6 -5,-10 -11,-10l-53 0 0 -48c0,-8 -7,-16 -16,-16l-74 0c-9,0 -16,7 -16,16l0 48 -53 0c-6,0 -11,5 -11,11l0 211c0,6 5,11 11,11l211 0c6,0 11,-5 11,-11l0 -211z"/>
 </g>
</svg>
