<?xml version="1.0" encoding="UTF-8"?>
<!DOCTYPE svg PUBLIC "-//W3C//DTD SVG 1.1//EN" "http://www.w3.org/Graphics/SVG/1.1/DTD/svg11.dtd">
<!-- Creator: CorelDRAW X6 -->
<svg xmlns="http://www.w3.org/2000/svg" xml:space="preserve" width="0.683697in" height="0.718476in" version="1.1" style="shape-rendering:geometricPrecision; text-rendering:geometricPrecision; image-rendering:optimizeQuality; fill-rule:evenodd; clip-rule:evenodd"
viewBox="0 0 95 100"
 xmlns:xlink="http://www.w3.org/1999/xlink">
 <defs>
  <style type="text/css">
   <![CDATA[
    .str0 {stroke:#00AB98;stroke-width:0.966045}
    .fil0 {fill:#00AB98}
    .fil1 {fill:white}
   ]]>
  </style>
 </defs>
 <g id="Layer_x0020_1">
  <metadata id="CorelCorpID_0Corel-Layer"/>
  <path class="fil0" d="M14 28l76 0c3,0 6,3 6,6l0 67 -87 0 0 -67c0,-3 3,-6 6,-6z"/>
  <path class="fil0 str0" d="M42 2l19 0c6,0 11,5 11,11l0 11 -6 0 0 -10c0,-3 -3,-6 -6,-6l-18 0c-3,0 -6,3 -6,6l0 10 -6 0 0 -11c0,-6 5,-11 11,-11z"/>
  <circle class="fil1" cx="35" cy="35" r="3"/>
  <circle class="fil1" cx="68" cy="35" r="3"/>
  <rect class="fil1" x="21" y="28" width="2" height="26"/>
  <path class="fil1" d="M27 73l-10 0c0,-5 -2,-17 5,-17 7,-1 5,14 5,17z"/>
  <path class="fil0" d="M22 20c0,-2 1,-5 1,-8 0,-3 0,-5 -1,-7 -1,-2 -2,-4 -2,-5 -1,-1 -1,0 -2,1 -1,1 -1,2 -3,2 -1,0 -3,0 -5,0 -1,0 -2,1 -2,2 -1,1 -1,2 -1,3 0,1 1,2 3,3 1,1 2,2 3,3 1,1 2,2 3,3 1,1 1,2 0,2 -1,0 -3,-2 -5,-3 -2,-1 -3,-1 -5,-2 -1,-1 -2,-2 -3,-2 -1,0 -1,1 -1,3 0,1 0,3 -1,4 -1,1 -2,2 -2,3 0,1 1,2 2,3 1,0 3,-1 5,-2 2,-1 5,-1 7,-2 2,0 3,0 5,1 1,0 2,1 2,0 0,0 1,-2 1,-4z"/>
 </g>
</svg>
