<?xml version="1.0" encoding="UTF-8"?>
<!DOCTYPE svg PUBLIC "-//W3C//DTD SVG 1.1//EN" "http://www.w3.org/Graphics/SVG/1.1/DTD/svg11.dtd">
<!-- Creator: CorelDRAW X6 -->
<svg xmlns="http://www.w3.org/2000/svg" xml:space="preserve" width="0.884713in" height="0.745854in" version="1.1" style="shape-rendering:geometricPrecision; text-rendering:geometricPrecision; image-rendering:optimizeQuality; fill-rule:evenodd; clip-rule:evenodd"
viewBox="0 0 407 343"
 xmlns:xlink="http://www.w3.org/1999/xlink">
 <defs>
  <style type="text/css">
   <![CDATA[
    .str0 {stroke:#00AB98;stroke-width:3.19553}
    .fil0 {fill:#00AB98}
    .fil1 {fill:white}
   ]]>
  </style>
 </defs>
 <g id="Layer_x0020_1">
  <metadata id="CorelCorpID_0Corel-Layer"/>
  <path class="fil0" d="M407 171c-2,75 -64,137 -140,137l-126 0c-76,0 -138,-61 -140,-137l407 0z"/>
  <rect class="fil0" x="117" y="315" width="176" height="28"/>
  <path class="fil0" d="M24 155c0,-4 1,-11 4,-16 2,-5 6,-7 8,-11 2,-3 2,-7 3,-12 2,-5 5,-10 9,-13 4,-4 10,-6 15,-9 5,-3 10,-6 15,-9 5,-3 10,-5 16,-5 6,-1 12,0 17,2 5,1 9,3 14,4 5,0 11,-1 16,-2 5,-1 10,-2 14,-1 4,1 8,3 12,4 4,2 7,3 13,2 5,0 13,-2 19,-1 6,1 12,4 16,6 5,2 9,3 12,5 4,2 7,5 10,8 3,3 5,7 6,11 2,4 2,8 3,12 1,4 1,9 2,13 0,4 1,7 1,10 0,3 0,6 -2,8 -3,2 -8,2 -39,2 -31,0 -88,0 -123,0 -35,0 -48,0 -54,-1 -7,-1 -7,-2 -7,-6z"/>
  <path class="fil1" d="M155 110c2,-2 7,-4 12,-4 5,0 9,2 12,4 3,2 5,5 3,6 -2,1 -6,2 -11,2 -5,0 -9,0 -12,-1 -3,-1 -5,-3 -4,-6z"/>
  <path class="fil1" d="M108 101c-2,-2 -10,-4 -15,-3 -5,1 -6,4 -4,7 2,2 7,3 12,2 5,-1 9,-4 7,-6z"/>
  <path class="fil1" d="M98 142c-2,-2 -9,-4 -14,-3 -5,1 -6,4 -4,6 2,2 6,3 10,2 5,-1 9,-3 8,-5z"/>
  <path class="fil1" d="M137 126c-1,-3 -5,-6 -9,-6 -4,-1 -7,1 -7,3 1,3 5,6 9,7 4,1 8,-1 7,-4z"/>
  <path class="fil1" d="M173 136c3,-2 10,-5 15,-6 5,0 7,1 6,4 -1,2 -5,5 -9,7 -5,2 -9,2 -12,0 -3,-1 -3,-3 0,-5z"/>
  <path class="fil1" d="M69 119c-4,-2 -9,-2 -12,-1 -3,1 -4,5 -2,7 2,2 8,3 13,3 5,0 8,-1 8,-3 0,-2 -3,-4 -8,-5z"/>
  <path class="fil1" d="M218 138c2,-3 4,-7 7,-8 3,-2 6,-1 6,2 0,2 -2,6 -6,9 -3,3 -7,4 -9,3 -2,0 -1,-3 1,-6z"/>
  <path class="fil0" d="M191 82c3,-1 6,-1 11,-1 4,0 9,2 12,4 3,2 4,3 7,4 3,1 6,2 11,4 4,2 8,4 12,6 3,3 5,6 7,9 2,4 4,8 6,11 2,4 3,6 4,9 1,3 3,6 3,11 0,5 -1,11 0,15 0,3 2,4 4,3 2,0 4,-1 6,-6 2,-5 2,-16 2,-24 -1,-8 -3,-15 -7,-21 -4,-6 -9,-12 -15,-16 -6,-4 -12,-7 -17,-10 -5,-2 -10,-4 -15,-6 -5,-1 -10,-3 -14,-3 -5,-1 -9,-1 -12,-1 -3,0 -6,0 -8,2 -2,1 -2,3 -3,5 0,2 0,3 1,5 1,1 1,2 2,3 1,0 2,0 5,-1z"/>
  <path class="fil0" d="M211 61c4,-2 12,-5 20,-5 8,-1 16,1 24,4 7,3 14,7 18,11 4,4 6,8 8,12 2,4 3,9 4,15 2,5 4,11 6,16 2,5 3,8 3,12 0,4 0,8 -1,13 -1,5 -1,10 -2,13 -1,3 -1,4 -3,5 -2,0 -5,0 -6,-2 -1,-2 1,-6 2,-12 1,-5 0,-12 -1,-17 0,-5 -1,-10 -2,-14 -1,-4 -3,-8 -5,-12 -2,-3 -4,-5 -5,-8 -1,-3 -3,-6 -4,-9 -2,-3 -4,-6 -8,-8 -4,-2 -10,-3 -15,-4 -5,-1 -11,-2 -15,-3 -4,-1 -8,-1 -10,-3 -2,-1 -1,-3 -3,-4 -2,0 -6,1 -8,1 -2,0 -2,-1 2,-3z"/>
  <path class="fil0" d="M285 76c2,-1 7,0 11,2 4,2 6,7 7,11 2,4 3,8 4,12 2,4 3,7 5,11 1,4 2,7 2,12 0,4 -1,9 -1,13 0,4 0,7 -1,11 0,3 0,7 -1,9 0,2 -1,3 -2,3 -1,0 -4,-1 -5,-2 -1,-1 0,-4 0,-8 0,-5 0,-13 0,-19 0,-6 0,-10 0,-14 -1,-4 -2,-8 -3,-12 -1,-4 -2,-7 -4,-10 -1,-3 -3,-5 -4,-7 -2,-2 -3,-3 -5,-4 -2,-1 -3,-2 -4,-3 -1,-2 -2,-4 0,-5z"/>
  <path class="fil0 str0" d="M322 152c-1,-4 -2,-10 -1,-14 1,-4 4,-7 5,-10 1,-3 1,-5 1,-9 0,-3 1,-7 3,-10 2,-3 6,-6 11,-8 5,-2 10,-4 15,-4 4,0 7,3 9,5 2,3 4,5 7,7 3,2 7,4 10,6 3,2 5,4 7,6 2,3 2,6 3,9 1,3 1,6 2,9 1,3 2,7 2,9 0,3 -3,5 -4,7 -2,2 -2,3 -6,4 -3,1 -9,0 -18,0 -9,0 -20,1 -28,1 -8,0 -13,0 -16,-1 -2,-1 -2,-4 -3,-8z"/>
  <path class="fil0 str0" d="M334 89c0,-4 1,-10 3,-14 3,-5 8,-8 12,-10 4,-2 8,-4 12,-4 4,0 9,2 13,4 4,2 6,6 10,9 4,3 9,6 12,9 3,3 3,6 4,8 1,3 2,6 3,9 1,3 2,7 1,10 -1,3 -3,5 -5,6 -3,1 -6,-1 -8,-3 -3,-2 -6,-6 -9,-8 -3,-3 -6,-4 -10,-6 -3,-2 -6,-4 -9,-5 -3,-1 -6,-2 -9,-2 -3,0 -6,1 -9,1 -3,1 -7,2 -9,2 -2,0 -2,-1 -2,-4z"/>
  <path class="fil0 str0" d="M349 49c0,-5 -3,-15 -10,-23 -7,-8 -18,-15 -28,-19 -11,-4 -21,-5 -31,-4 -10,1 -18,3 -25,7 -6,4 -11,10 -14,16 -3,6 -5,12 -6,17 -1,4 -1,7 1,9 2,2 8,3 13,4 6,2 12,4 17,7 5,3 9,6 12,7 3,2 5,2 8,3 2,0 5,0 9,2 3,1 8,4 11,8 3,4 5,8 6,13 1,4 2,8 3,11 1,3 2,5 4,5 2,0 4,-3 6,-6 2,-3 3,-6 3,-10 1,-4 1,-10 1,-15 1,-4 2,-8 5,-11 3,-3 7,-7 10,-10 3,-2 6,-4 5,-9z"/>
  <path class="fil1" d="M300 51c0,-3 -1,-6 2,-10 3,-4 9,-8 14,-10 5,-2 8,-3 10,-2 2,1 2,4 1,6 -1,3 -4,5 -6,8 -2,3 -5,6 -8,9 -3,2 -7,4 -9,4 -2,0 -3,-2 -4,-4z"/>
  <path class="fil1" d="M288 45c-3,-4 -9,-10 -13,-14 -5,-4 -9,-5 -12,-4 -3,1 -4,4 -2,7 2,3 7,7 11,11 4,4 7,7 10,9 3,2 7,2 8,1 2,-1 1,-5 -2,-9z"/>
  <path class="fil1" d="M302 67c2,-1 4,-1 6,0 2,1 4,3 6,5 2,2 4,5 5,7 1,2 1,5 1,7 0,2 -1,3 -3,2 -1,-1 -3,-4 -7,-7 -3,-3 -8,-6 -10,-9 -2,-2 -1,-4 1,-4z"/>
  <path class="fil1" d="M342 113c2,-1 5,-3 8,-3 2,0 5,2 7,3 2,1 4,0 6,1 2,0 5,1 6,2 2,1 2,4 3,5 1,1 2,2 4,3 2,1 4,2 6,4 2,2 2,5 2,7 0,3 -2,5 -4,6 -2,1 -3,0 -3,-1 0,-2 1,-5 0,-7 -1,-2 -3,-3 -5,-4 -2,-1 -4,-1 -5,-3 -1,-1 -1,-4 -3,-5 -1,-1 -4,-1 -5,0 -2,1 -3,2 -5,1 -1,-1 -3,-3 -5,-4 -2,-1 -5,0 -7,1 -2,1 -4,2 -5,2 -1,-1 -1,-3 0,-5 1,-2 2,-2 5,-3z"/>
  <path class="fil1" d="M344 79c1,-2 4,-5 7,-6 3,-1 6,-1 8,0 2,1 4,3 5,4 2,1 4,1 6,1 2,0 5,1 6,2 2,1 3,2 3,4 1,2 1,4 2,5 1,1 4,1 7,2 3,1 5,2 6,5 1,2 0,5 -1,5 -1,0 -3,-2 -5,-3 -2,-1 -5,-2 -7,-2 -2,-1 -4,-1 -5,-3 -1,-1 -2,-4 -3,-5 -2,-2 -4,-3 -7,-4 -2,-1 -5,0 -6,-1 -2,-1 -3,-2 -5,-3 -2,0 -4,0 -6,2 -2,1 -4,3 -5,3 -1,0 -1,-2 0,-4z"/>
  <path class="fil1" d="M360 136c-3,-1 -6,-2 -9,-2 -2,0 -3,2 -4,2 -1,1 -4,0 -6,0 -2,0 -4,1 -5,1 -1,1 -2,1 -2,2 0,1 0,2 -1,2 -1,1 -3,2 -5,3 -1,1 -2,3 -1,5 1,2 3,4 4,4 1,0 0,-3 1,-5 1,-2 3,-2 4,-3 1,-1 2,-2 2,-3 1,-1 1,-2 3,-2 1,0 3,1 6,2 2,1 5,1 6,0 1,-1 2,-3 3,-3 2,-1 5,0 6,0 1,0 0,-2 -3,-3z"/>
 </g>
</svg>
