<?xml version="1.0" encoding="UTF-8"?>
<!DOCTYPE svg PUBLIC "-//W3C//DTD SVG 1.1//EN" "http://www.w3.org/Graphics/SVG/1.1/DTD/svg11.dtd">
<!-- Creator: CorelDRAW X6 -->
<svg xmlns="http://www.w3.org/2000/svg" xml:space="preserve" width="0.850713in" height="0.808929in" version="1.1" style="shape-rendering:geometricPrecision; text-rendering:geometricPrecision; image-rendering:optimizeQuality; fill-rule:evenodd; clip-rule:evenodd"
viewBox="0 0 165 157"
 xmlns:xlink="http://www.w3.org/1999/xlink">
 <defs>
  <style type="text/css">
   <![CDATA[
    .str0 {stroke:#00AB98;stroke-width:1.34736}
    .fil0 {fill:#00AB98}
    .fil1 {fill:white}
   ]]>
  </style>
 </defs>
 <g id="Layer_x0020_1">
  <metadata id="CorelCorpID_0Corel-Layer"/>
  <path class="fil0 str0" d="M116 137c4,0 31,10 36,12 2,1 3,3 2,5l0 0c-1,2 -3,3 -5,2 -5,-2 -30,-12 -32,-12l-57 0c-1,0 -28,-10 -31,-12l-13 21c-1,1 -3,2 -4,1l0 0c-1,-1 -2,-3 -1,-4l12 -20 -18 -7c-2,-1 -3,-3 -2,-5l0 0c1,-2 3,-3 5,-2l54 20c0,0 1,0 1,0l54 0z"/>
  <circle class="fil0" cx="24" cy="111" r="8"/>
  <rect class="fil0" transform="matrix(0.251891 -0.851497 0.851497 0.251891 33.8597 121.953)" width="15" height="42" rx="4" ry="4"/>
  <rect class="fil0" transform="matrix(0.994311 -0.106516 0.106516 0.994311 64.0697 123.469)" width="36" height="8" rx="3" ry="3"/>
  <rect class="fil0" transform="matrix(0.951841 0.306591 -0.306591 0.951841 95.2986 119.14)" width="36" height="8" rx="3" ry="3"/>
  <path class="fil0" d="M100 1c8,1 14,3 19,5 5,2 11,5 16,10 5,4 10,9 14,16 4,6 8,14 10,21 2,7 4,12 5,16 1,4 1,7 1,10 0,3 -1,5 -2,5 -1,0 -2,-2 -4,-4 -2,-2 -4,-4 -7,-5 -3,-1 -6,-2 -10,-2 -4,0 -8,1 -11,3 -3,2 -4,3 -6,5 -1,1 -2,2 -4,1 -1,-1 -3,-3 -5,-5 -2,-2 -5,-3 -8,-4 -3,-1 -7,-1 -11,0 -3,1 -6,2 -8,3 -2,2 -3,4 -4,5 -1,1 -2,1 -4,0 -1,-1 -3,-4 -5,-5 -3,-2 -6,-2 -10,-2 -4,0 -8,0 -11,1 -3,1 -4,2 -5,4 -2,2 -3,4 -5,5 -2,1 -3,0 -5,-2 -1,-2 -2,-4 -4,-5 -2,-2 -4,-3 -7,-3 -4,0 -9,1 -13,2 -4,1 -6,3 -7,5 -2,2 -3,3 -5,4 -2,1 -3,0 -3,-4 0,-5 1,-14 4,-22 2,-8 6,-16 13,-24 7,-8 17,-17 26,-22 9,-6 18,-8 28,-9 10,-1 21,0 29,1z"/>
  <rect class="fil0" x="79" y="72" width="8" height="48"/>
  <path class="fil1" d="M98 7c4,2 9,7 13,12 4,5 7,11 9,17 2,6 4,13 5,18 1,6 1,10 1,13 0,3 0,5 -1,6 -1,1 -2,2 -3,2 -1,0 -2,-2 -3,-4 -1,-2 -1,-5 -2,-10 -1,-5 -3,-14 -5,-20 -2,-7 -5,-12 -8,-17 -3,-4 -6,-7 -8,-10 -2,-3 -5,-5 -5,-6 0,-1 2,-2 5,0z"/>
  <rect class="fil1" x="79" y="6" width="7" height="66" rx="4" ry="4"/>
  <path class="fil1" d="M67 7c-4,2 -9,7 -13,12 -4,5 -7,11 -9,17 -2,6 -4,13 -5,18 -1,6 -1,10 -1,13 0,3 0,5 1,6 1,1 2,2 3,2 1,0 2,-2 3,-4 1,-2 1,-5 2,-10 1,-5 3,-14 5,-20 2,-7 5,-12 8,-17 3,-4 6,-7 8,-10 2,-3 5,-5 5,-6 0,-1 -2,-2 -5,0z"/>
 </g>
</svg>
