<?xml version="1.0" encoding="UTF-8"?>
<!DOCTYPE svg PUBLIC "-//W3C//DTD SVG 1.1//EN" "http://www.w3.org/Graphics/SVG/1.1/DTD/svg11.dtd">
<!-- Creator: CorelDRAW X6 -->
<svg xmlns="http://www.w3.org/2000/svg" xml:space="preserve" width="7.995in" height="4.78869in" version="1.1" style="shape-rendering:geometricPrecision; text-rendering:geometricPrecision; image-rendering:optimizeQuality; fill-rule:evenodd; clip-rule:evenodd"
viewBox="0 0 7799 4671"
 xmlns:xlink="http://www.w3.org/1999/xlink">
 <defs>
  <style type="text/css">
   <![CDATA[
    .fil0 {fill:#979690;fill-rule:nonzero}
    .fil5 {fill:#52CF71;fill-rule:nonzero}
    .fil9 {fill:#5BA9E7;fill-rule:nonzero}
    .fil10 {fill:#8ABE25;fill-rule:nonzero}
    .fil4 {fill:#BA84DB;fill-rule:nonzero}
    .fil8 {fill:#D99F4D;fill-rule:nonzero}
    .fil7 {fill:#E87F32;fill-rule:nonzero}
    .fil3 {fill:#EBB847;fill-rule:nonzero}
    .fil1 {fill:#F6765A;fill-rule:nonzero}
    .fil6 {fill:#F892A1;fill-rule:nonzero}
    .fil2 {fill:white;fill-rule:nonzero}
    .filz {fill: gray;fill-rule:nonzero}
   ]]>
  </style>
 </defs>
 <g class="district center" data-target="cityCenter">
    <g id="_27citycentermap">
    <metadata id="CorelCorpID_0Corel-Layer"/>
    <path class="fil0" d="M4306 3359c-44,42 -360,350 -773,527 -446,190 -979,114 -1283,-169 -255,-237 -138,-510 -78,-612 61,-102 123,-227 129,-362 6,-134 -21,-222 -32,-261 -11,-40 -8,-81 40,-100 47,-19 170,-45 235,-89 64,-44 277,-252 714,-252 244,0 684,159 837,493 159,346 165,534 191,604 27,70 19,53 32,81 13,28 30,98 -13,140z"/>
    </g>
    <g id="_26citycentercolor">
    <metadata id="CorelCorpID_1Corel-Layer"/>
    <path class="fil1" d="M4306 3359c-44,42 -360,350 -773,527 -446,190 -979,114 -1283,-169 -255,-237 -138,-510 -78,-612 61,-102 123,-227 129,-362 6,-134 -21,-222 -32,-261 -11,-40 -8,-81 40,-100 47,-19 170,-45 235,-89 64,-44 277,-252 714,-252 244,0 684,159 837,493 159,346 165,534 191,604 27,70 19,53 32,81 13,28 30,98 -13,140z"/>
    </g>
    <g id="_25citycentertitle">
    <metadata id="CorelCorpID_2Corel-Layer"/>
    <path class="fil2 title" d="M2934 3105c-3,1 -9,2 -14,2 -15,0 -23,-9 -23,-24 0,-16 10,-24 23,-24 6,0 10,1 14,3l3 -13c-3,-2 -9,-3 -18,-3 -22,0 -40,14 -40,39 0,21 13,36 38,36 9,0 16,-2 19,-3l-3 -13zm19 -58l0 73 17 0 0 -73 -17 0zm51 73l17 0 0 -59 20 0 0 -14 -56 0 0 14 20 0 0 59zm85 0l0 -30 24 -43 -18 0 -7 18c-2,5 -4,9 -5,14l0 0c-2,-5 -3,-9 -6,-14l-8 -17 -19 0 23 43 0 30 16 0z"/>
    <path class="fil2 title" d="M3203 3104c-3,1 -9,2 -14,2 -15,0 -23,-9 -23,-24 0,-16 10,-24 23,-24 6,0 10,1 14,3l3 -13c-3,-2 -9,-3 -18,-3 -22,0 -40,14 -40,39 0,21 13,36 38,36 9,0 16,-2 19,-3l-3 -13zm62 -30l-27 0 0 -15 28 0 0 -14 -45 0 0 73 47 0 0 -14 -30 0 0 -17 27 0 0 -13zm35 44l0 -22c0,-12 0,-22 -1,-32l0 0c4,9 8,18 13,26l16 28 17 0 0 -73 -15 0 0 21c0,11 0,21 2,30l0 0c-3,-8 -8,-17 -12,-25l-15 -27 -19 0 0 73 15 0z"/>
    <path class="fil2 title" d="M3379 3118l17 0 0 -59 20 0 0 -14 -56 0 0 14 20 0 0 59zm88 -45l-27 0 0 -15 28 0 0 -14 -45 0 0 73 47 0 0 -14 -30 0 0 -17 27 0 0 -13zm20 44l16 0 0 -29 5 0c7,0 10,3 12,12 2,9 4,15 5,17l17 0c-1,-3 -4,-12 -6,-21 -2,-7 -5,-12 -10,-14l0 0c6,-2 13,-9 13,-18 0,-7 -2,-12 -7,-15 -5,-4 -13,-6 -24,-6 -9,0 -17,1 -22,2l0 72zm16 -61c1,0 3,-1 7,-1 8,0 12,3 12,10 0,6 -5,11 -13,11l-6 0 0 -20z"/>
    </g>
 </g>
<g class="district spec" data-target="specDistrict">
    <g id="_24spectrummap">
    <metadata id="CorelCorpID_3Corel-Layer"/>
    <path class="fil0" d="M2539 2120c-27,25 -135,100 -315,129 -36,9 -70,-17 -123,-17l-244 0c-44,0 -169,-9 -235,-49 -28,-15 -38,-23 -44,-49 -6,-27 -63,-316 -72,-377 -11,-74 -44,-444 265,-729 42,-39 69,-18 81,0 173,249 648,934 691,996 44,63 22,72 -5,97z"/>
    <path class="fil0" d="M3144 647c0,19 -13,39 -40,39 -379,0 -827,167 -1067,325 -22,15 -42,13 -54,-2 -13,-15 -29,-39 -42,-58 -13,-19 -7,-48 19,-69 217,-176 746,-355 1105,-355 57,0 74,28 74,47 0,19 5,56 5,74z"/>
    <path class="fil0" d="M3158 1009c1,39 -17,58 -56,60 -222,11 -579,97 -831,243 -35,21 -73,4 -88,-17 -15,-21 -106,-150 -119,-169 -13,-19 -12,-37 6,-54 194,-131 633,-310 1033,-323 27,-1 44,16 45,42 1,25 9,179 9,218z"/>
    <path class="fil0" d="M3180 1481c1,15 -9,35 -30,36 -21,1 -395,43 -642,177 -21,12 -37,16 -48,-2 -11,-18 -127,-180 -135,-193 -14,-23 -16,-49 9,-64 184,-110 525,-223 782,-230 25,-1 52,11 54,40 1,30 10,221 11,236z"/>
    <path class="fil0" d="M3133 1901c-116,2 -275,43 -396,104 -31,16 -58,4 -71,-18 -14,-22 -123,-172 -131,-187 -8,-15 -19,-29 6,-44 95,-57 380,-170 607,-170 24,0 38,8 39,33 1,25 8,180 8,213 1,33 -6,68 -62,69z"/>
    <path class="fil0" d="M3968 1833c-8,15 -102,174 -116,196 -14,22 -54,19 -93,-3 -119,-67 -279,-111 -394,-124 -37,-4 -49,-25 -50,-57 -1,-34 -12,-202 -11,-226 1,-25 15,-32 48,-30 193,8 484,112 605,189 24,15 23,32 10,56z"/>
    <path class="fil0" d="M4498 907c-14,28 -28,47 -34,58 -7,10 -23,27 -58,6 -35,-21 -471,-288 -1110,-288 -17,0 -30,-18 -31,-28 -1,-10 -5,-39 -5,-67 0,-28 22,-67 59,-67 369,0 863,139 1146,296 40,24 47,63 33,91z"/>
    <path class="fil0" d="M4533 2352c-50,20 -95,37 -104,40 -16,6 -27,5 -40,-16 -51,-87 -117,-174 -196,-256 -16,-17 -12,-28 0,-47 4,-5 27,-37 54,-75 4,-6 24,-16 40,-1l1 1c106,103 193,220 254,322 0,0 0,1 1,1 4,8 6,25 -10,31z"/>
    <path class="fil0" d="M4609 2503c-1,0 -1,0 -2,0 -98,18 -201,38 -281,61 -25,7 -44,2 -64,-35 -84,-159 -171,-261 -277,-353 -29,-25 -35,-69 -19,-102 7,-14 59,-104 116,-203 8,-14 26,-19 45,-6 37,26 73,54 107,84l0 0c5,5 12,20 4,32l0 0c-33,44 -63,83 -69,93 -10,15 -16,35 -1,52 85,89 158,182 214,277 14,23 29,22 46,16 9,-3 55,-22 108,-43 10,-4 32,-7 41,8 0,0 0,1 1,1 17,33 31,64 41,91 5,12 6,26 -9,29z"/>
    <path class="fil0" d="M4692 2289c-4,2 -39,16 -83,33l0 0c-17,6 -33,0 -43,-17 -68,-114 -156,-226 -261,-326 0,0 -1,-1 -1,-1 -11,-11 -19,-28 -7,-45 28,-37 51,-69 56,-75 14,-17 24,-36 59,-8 138,115 253,302 293,384 9,18 12,43 -12,55z"/>
    <path class="fil0" d="M4934 2450c-19,4 -125,19 -252,40l0 0c-12,2 -30,-13 -35,-24 -12,-29 -26,-58 -41,-88 0,-1 -1,-1 -1,-2 -6,-12 -6,-30 15,-38 47,-19 85,-35 89,-37 26,-13 30,-41 21,-61 -64,-135 -182,-302 -320,-416 -31,-25 -47,-7 -61,11 -6,7 -36,46 -70,91 -7,9 -21,9 -25,5 -34,-29 -69,-57 -106,-84 -25,-18 -30,-36 -20,-55 60,-104 115,-198 120,-209 13,-23 33,-53 81,-24 172,105 522,471 626,825 10,35 17,56 -20,64z"/>
    <path class="fil0" d="M5152 1952c-5,47 -21,175 -24,192 -3,16 -10,28 -25,35 -15,8 -25,12 -31,14 -21,10 -45,5 -59,-22 -145,-282 -327,-516 -602,-720 -35,-26 -56,-54 -26,-105 30,-51 100,-177 109,-191 8,-14 30,-25 50,-13 65,42 355,274 542,556 78,118 74,179 66,254z"/>
    <path class="fil0" d="M5457 1606c-34,150 -85,485 -103,727 -4,59 -44,90 -80,92 -35,2 -94,6 -117,6 -24,0 -47,-4 -56,-30 -9,-27 -23,-61 -28,-80 -5,-19 -4,-53 32,-66 35,-13 20,-5 35,-13 15,-8 51,-30 58,-96 8,-66 25,-188 28,-232 3,-44 1,-142 -106,-284 -172,-230 -332,-388 -518,-534 -44,-35 -51,-44 -38,-66 13,-21 22,-38 33,-53 23,-31 58,-44 83,-26 42,30 256,206 373,336 115,128 310,225 341,237 31,11 70,42 62,81z"/>
    <path class="fil0" d="M4394 1082c-1,2 -1,3 -2,5 -3,7 -7,14 -11,20 -16,24 -91,168 -111,202 -20,34 -42,20 -62,8 -4,-2 -8,-5 -13,-7 -1,-1 -3,-2 -4,-2 -186,-101 -651,-244 -872,-240 -35,-2 -40,-19 -40,-39 0,-20 -11,-234 -11,-248 0,-14 6,-37 34,-38 422,-19 877,176 1032,261 1,1 2,1 3,2l1 0c15,8 27,15 35,21 24,17 26,36 21,54z"/>
    <path class="fil0" d="M4163 1482c0,1 0,2 0,3 0,1 -1,2 -1,3 -2,6 -5,12 -8,18 -8,13 -104,185 -116,203 -11,18 -30,15 -50,3 -5,-3 -10,-6 -16,-9 -127,-69 -313,-139 -489,-173 -8,-1 -15,-3 -23,-4 -44,-8 -88,-13 -130,-16 -19,-1 -25,-8 -26,-36 -1,-15 -12,-211 -11,-241 1,-30 20,-36 54,-35 274,6 611,127 796,244 17,11 22,25 20,40z"/>
    </g>
    <g id="_23spectrumcolor">
    <metadata id="CorelCorpID_4Corel-Layer"/>
    <path class="fil3" d="M2539 2120c-27,25 -135,100 -315,129 -36,9 -70,-17 -123,-17l-244 0c-44,0 -169,-9 -235,-49 -28,-15 -38,-23 -44,-49 -6,-27 -63,-316 -72,-377 -11,-74 -44,-444 265,-729 42,-39 69,-18 81,0 173,249 648,934 691,996 44,63 22,72 -5,97z"/>
    <path class="fil3" d="M3144 647c0,19 -13,39 -40,39 -379,0 -827,167 -1067,325 -22,15 -42,13 -54,-2 -13,-15 -29,-39 -42,-58 -13,-19 -7,-48 19,-69 217,-176 746,-355 1105,-355 57,0 74,28 74,47 0,19 5,56 5,74z"/>
    <path class="fil3" d="M3158 1009c1,39 -17,58 -56,60 -222,11 -579,97 -831,243 -35,21 -73,4 -88,-17 -15,-21 -106,-150 -119,-169 -13,-19 -12,-37 6,-54 194,-131 633,-310 1033,-323 27,-1 44,16 45,42 1,25 9,179 9,218z"/>
    <path class="fil3" d="M3180 1481c1,15 -9,35 -30,36 -21,1 -395,43 -642,177 -21,12 -37,16 -48,-2 -11,-18 -127,-180 -135,-193 -14,-23 -16,-49 9,-64 184,-110 525,-223 782,-230 25,-1 52,11 54,40 1,30 10,221 11,236z"/>
    <path class="fil3" d="M3133 1901c-116,2 -275,43 -396,104 -31,16 -58,4 -71,-18 -14,-22 -123,-172 -131,-187 -8,-15 -19,-29 6,-44 95,-57 380,-170 607,-170 24,0 38,8 39,33 1,25 8,180 8,213 1,33 -6,68 -62,69z"/>
    <path class="fil3" d="M3968 1833c-8,15 -102,174 -116,196 -14,22 -54,19 -93,-3 -119,-67 -279,-111 -394,-124 -37,-4 -49,-25 -50,-57 -1,-34 -12,-202 -11,-226 1,-25 15,-32 48,-30 193,8 484,112 605,189 24,15 23,32 10,56z"/>
    <path class="fil3" d="M4498 907c-14,28 -28,47 -34,58 -7,10 -23,27 -58,6 -35,-21 -471,-288 -1110,-288 -17,0 -30,-18 -31,-28 -1,-10 -5,-39 -5,-67 0,-28 22,-67 59,-67 369,0 863,139 1146,296 40,24 47,63 33,91z"/>
    <path class="fil3" d="M4533 2352c-50,20 -95,37 -104,40 -16,6 -27,5 -40,-16 -51,-87 -117,-174 -196,-256 -16,-17 -12,-28 0,-47 4,-5 27,-37 54,-75 4,-6 24,-16 40,-1l1 1c106,103 193,220 254,322 0,0 0,1 1,1 4,8 6,25 -10,31z"/>
    <path class="fil3" d="M4609 2503c-1,0 -1,0 -2,0 -98,18 -201,38 -281,61 -25,7 -44,2 -64,-35 -84,-159 -171,-261 -277,-353 -29,-25 -35,-69 -19,-102 7,-14 59,-104 116,-203 8,-14 26,-19 45,-6 37,26 73,54 107,84l0 0c5,5 12,20 4,32l0 0c-33,44 -63,83 -69,93 -10,15 -16,35 -1,52 85,89 158,182 214,277 14,23 29,22 46,16 9,-3 55,-22 108,-43 10,-4 32,-7 41,8 0,0 0,1 1,1 17,33 31,64 41,91 5,12 6,26 -9,29z"/>
    <path class="fil3" d="M4692 2289c-4,2 -39,16 -83,33l0 0c-17,6 -33,0 -43,-17 -68,-114 -156,-226 -261,-326 0,0 -1,-1 -1,-1 -11,-11 -19,-28 -7,-45 28,-37 51,-69 56,-75 14,-17 24,-36 59,-8 138,115 253,302 293,384 9,18 12,43 -12,55z"/>
    <path class="fil3" d="M4934 2450c-19,4 -125,19 -252,40l0 0c-12,2 -30,-13 -35,-24 -12,-29 -26,-58 -41,-88 0,-1 -1,-1 -1,-2 -6,-12 -6,-30 15,-38 47,-19 85,-35 89,-37 26,-13 30,-41 21,-61 -64,-135 -182,-302 -320,-416 -31,-25 -47,-7 -61,11 -6,7 -36,46 -70,91 -7,9 -21,9 -25,5 -34,-29 -69,-57 -106,-84 -25,-18 -30,-36 -20,-55 60,-104 115,-198 120,-209 13,-23 33,-53 81,-24 172,105 522,471 626,825 10,35 17,56 -20,64z"/>
    <path class="fil3" d="M5152 1952c-5,47 -21,175 -24,192 -3,16 -10,28 -25,35 -15,8 -25,12 -31,14 -21,10 -45,5 -59,-22 -145,-282 -327,-516 -602,-720 -35,-26 -56,-54 -26,-105 30,-51 100,-177 109,-191 8,-14 30,-25 50,-13 65,42 355,274 542,556 78,118 74,179 66,254z"/>
    <path class="fil3" d="M5457 1606c-34,150 -85,485 -103,727 -4,59 -44,90 -80,92 -35,2 -94,6 -117,6 -24,0 -47,-4 -56,-30 -9,-27 -23,-61 -28,-80 -5,-19 -4,-53 32,-66 35,-13 20,-5 35,-13 15,-8 51,-30 58,-96 8,-66 25,-188 28,-232 3,-44 1,-142 -106,-284 -172,-230 -332,-388 -518,-534 -44,-35 -51,-44 -38,-66 13,-21 22,-38 33,-53 23,-31 58,-44 83,-26 42,30 256,206 373,336 115,128 310,225 341,237 31,11 70,42 62,81z"/>
    <path class="fil3" d="M4394 1082c-1,2 -1,3 -2,5 -3,7 -7,14 -11,20 -16,24 -91,168 -111,202 -20,34 -42,20 -62,8 -4,-2 -8,-5 -13,-7 -1,-1 -3,-2 -4,-2 -186,-101 -651,-244 -872,-240 -35,-2 -40,-19 -40,-39 0,-20 -11,-234 -11,-248 0,-14 6,-37 34,-38 422,-19 877,176 1032,261 1,1 2,1 3,2l1 0c15,8 27,15 35,21 24,17 26,36 21,54z"/>
    <path class="fil3" d="M4163 1482c0,1 0,2 0,3 0,1 -1,2 -1,3 -2,6 -5,12 -8,18 -8,13 -104,185 -116,203 -11,18 -30,15 -50,3 -5,-3 -10,-6 -16,-9 -127,-69 -313,-139 -489,-173 -8,-1 -15,-3 -23,-4 -44,-8 -88,-13 -130,-16 -19,-1 -25,-8 -26,-36 -1,-15 -12,-211 -11,-241 1,-30 20,-36 54,-35 274,6 611,127 796,244 17,11 22,25 20,40z"/>
    </g>
    <g id="_22spectrumtitle">
    <metadata id="CorelCorpID_5Corel-Layer"/>
    <path class="fil2 title" d="M1643 1778c4,2 12,4 21,4 20,0 29,-10 29,-23 0,-10 -6,-17 -19,-22 -9,-4 -14,-6 -14,-10 0,-4 3,-7 11,-7 7,0 12,2 15,3l4 -13c-4,-2 -10,-4 -19,-4 -17,0 -28,10 -27,22 0,11 8,17 20,21 9,3 12,6 12,10 0,5 -4,8 -12,8 -7,0 -14,-2 -18,-4l-3 14zm67 3l16 0 0 -26c2,0 3,0 6,0 10,0 18,-2 24,-8 4,-4 7,-10 7,-17 0,-7 -3,-13 -8,-17 -5,-4 -12,-6 -22,-6 -10,0 -17,1 -22,2l0 72zm16 -60c1,0 3,-1 7,-1 8,0 13,4 13,11 0,7 -5,12 -14,12 -2,0 -4,0 -6,0l0 -22zm90 16l-27 0 0 -15 28 0 0 -14 -45 0 0 73 47 0 0 -14 -30 0 0 -17 27 0 0 -13zm71 29c-3,1 -9,2 -14,2 -15,0 -23,-9 -23,-24 0,-16 10,-24 23,-24 6,0 10,1 14,3l3 -13c-3,-2 -9,-3 -18,-3 -22,0 -40,14 -40,39 0,21 13,36 38,36 9,0 16,-2 19,-3l-3 -13zm34 15l17 0 0 -59 20 0 0 -14 -56 0 0 14 20 0 0 59zm51 0l16 0 0 -29 5 0c7,0 10,3 12,12 2,9 4,15 5,17l17 0c-1,-3 -4,-12 -6,-21 -2,-7 -5,-12 -10,-14l0 0c6,-2 13,-9 13,-18 0,-7 -2,-12 -7,-15 -5,-4 -13,-6 -24,-6 -9,0 -17,1 -22,2l0 72zm16 -61c1,0 3,-1 7,-1 8,0 12,3 12,10 0,6 -5,11 -13,11l-6 0 0 -20zm53 -12l0 41c0,23 11,33 29,33 19,0 30,-11 30,-33l0 -41 -16 0 0 42c0,13 -5,19 -13,19 -8,0 -13,-6 -13,-19l0 -42 -17 0zm142 72l16 0 -4 -73 -22 0 -8 24c-2,8 -5,18 -7,26l0 0c-2,-9 -4,-18 -6,-26l-7 -24 -22 0 -4 73 15 0 1 -28c1,-9 1,-20 1,-30l0 0c2,10 4,20 7,28l8 28 13 0 9 -28c3,-9 6,-19 8,-28l0 0c0,11 0,21 1,30l1 28z"/>
    </g>
 </g>
 <g class="district southstation" data-target="southStationDistrict">
 <g id="_21southstationmap">
  <metadata id="CorelCorpID_6Corel-Layer"/>
  <g id="_641944560">
   <path class="fil0" d="M5010 2640c-2,31 -18,230 -87,383 -63,140 -179,313 -218,371 -27,40 -51,30 -76,14 -59,-36 -136,-110 -201,-302 -30,-90 -40,-154 -47,-204 -6,-47 -24,-115 -29,-138 -5,-24 5,-55 33,-66 28,-11 392,-88 572,-107 25,-3 55,12 53,49z"/>
   <path class="fil0" d="M5359 3417c0,30 -10,45 -47,45l-404 0c-28,0 -70,-21 -41,-68 29,-47 280,-393 280,-770 0,-34 12,-51 33,-51 21,0 78,-3 92,-3 39,0 71,32 71,76 0,54 15,741 15,771z"/>
   <path class="fil0" d="M5378 4459c0,93 -45,134 -102,134 -57,0 -148,-4 -178,-4 -30,0 -212,36 -282,36l-511 0c-51,0 -109,-24 -109,-100 0,-76 10,-264 10,-294 0,-30 17,-44 32,-59 15,-15 312,-322 453,-532 16,-24 44,-36 59,-36l572 0c23,0 42,19 42,44 0,25 15,718 15,811z"/>
  </g>
 </g>
 <g id="_20southstationcolor">
  <metadata id="CorelCorpID_7Corel-Layer"/>
  <g id="_641945040">
   <path class="fil4" d="M5010 2640c-2,31 -18,230 -87,383 -63,140 -179,313 -218,371 -27,40 -51,30 -76,14 -59,-36 -136,-110 -201,-302 -30,-90 -40,-154 -47,-204 -6,-47 -24,-115 -29,-138 -5,-24 5,-55 33,-66 28,-11 392,-88 572,-107 25,-3 55,12 53,49z"/>
   <path class="fil4" d="M5359 3417c0,30 -10,45 -47,45l-404 0c-28,0 -70,-21 -41,-68 29,-47 280,-393 280,-770 0,-34 12,-51 33,-51 21,0 78,-3 92,-3 39,0 71,32 71,76 0,54 15,741 15,771z"/>
   <path class="fil4" d="M5378 4459c0,93 -45,134 -102,134 -57,0 -148,-4 -178,-4 -30,0 -212,36 -282,36l-511 0c-51,0 -109,-24 -109,-100 0,-76 10,-264 10,-294 0,-30 17,-44 32,-59 15,-15 312,-322 453,-532 16,-24 44,-36 59,-36l572 0c23,0 42,19 42,44 0,25 15,718 15,811z"/>
  </g>
 </g>
 <g id="_19southstationtitle">
  <metadata id="CorelCorpID_8Corel-Layer"/>
  <path class="fil2 title" d="M4433 4215c4,2 12,4 21,4 20,0 29,-10 29,-23 0,-10 -6,-17 -19,-22 -9,-4 -14,-6 -14,-10 0,-4 3,-7 11,-7 7,0 12,2 15,3l4 -13c-4,-2 -10,-4 -19,-4 -17,0 -28,10 -27,22 0,11 8,17 20,21 9,3 12,6 12,10 0,5 -4,8 -12,8 -7,0 -14,-2 -18,-4l-3 14zm93 -71c-22,0 -35,16 -35,38 0,21 13,37 34,37 21,0 36,-15 36,-39 0,-20 -12,-37 -35,-37zm0 13c11,0 18,11 18,24 0,14 -6,25 -17,25 -11,0 -18,-10 -18,-24 0,-14 6,-25 18,-25zm51 -12l0 41c0,23 11,33 29,33 19,0 30,-11 30,-33l0 -41 -16 0 0 42c0,13 -5,19 -13,19 -8,0 -13,-6 -13,-19l0 -42 -17 0zm94 73l17 0 0 -59 20 0 0 -14 -56 0 0 14 20 0 0 59zm50 -73l0 73 17 0 0 -30 27 0 0 30 16 0 0 -73 -16 0 0 28 -27 0 0 -28 -17 0zm105 69c4,2 12,4 21,4 20,0 29,-10 29,-23 0,-10 -6,-17 -19,-22 -9,-4 -14,-6 -14,-10 0,-4 3,-7 11,-7 7,0 12,2 15,3l4 -13c-4,-2 -10,-4 -19,-4 -17,0 -28,10 -28,22 0,11 8,17 20,21 9,3 12,6 12,10 0,5 -4,8 -12,8 -7,0 -14,-2 -18,-4l-3 14zm81 3l17 0 0 -59 20 0 0 -14 -56 0 0 14 20 0 0 59zm81 -19l6 19 18 0 -23 -73 -22 0 -22 73 17 0 5 -19 21 0zm-19 -12l4 -15c1,-4 2,-10 3,-14l0 0c1,4 2,10 4,14l5 15 -16 0zm62 31l17 0 0 -59 20 0 0 -14 -56 0 0 14 20 0 0 59zm50 -73l0 73 17 0 0 -73 -17 0zm68 -1c-22,0 -35,16 -35,38 0,21 13,37 34,37 21,0 36,-15 36,-39 0,-20 -12,-37 -35,-37zm0 13c11,0 18,11 18,24 0,14 -6,25 -17,25 -11,0 -18,-10 -18,-24 0,-14 6,-25 18,-25zm61 61l0 -22c0,-12 0,-22 -1,-32l0 0c4,9 8,18 13,26l16 28 17 0 0 -73 -15 0 0 21c0,11 0,21 2,30l0 0c-3,-8 -8,-17 -12,-25l-15 -27 -19 0 0 73 15 0z"/>
 </g>
 </g>
 <g class="district civic" data-target="civicDistrict">
 <g id="_18civicplazamap">
  <metadata id="CorelCorpID_9Corel-Layer"/>
  <path class="fil0" d="M4122 4130c-18,15 -464,398 -496,426 -32,28 -142,127 -436,104 -294,-23 -691,-55 -915,-170 -224,-116 -659,-396 -786,-489 -127,-93 -138,-153 -150,-191 -11,-38 -21,-53 -32,-68 -11,-15 -30,-66 -15,-106 5,-13 8,-24 9,-33l746 80 0 0c52,89 128,174 232,235 257,151 451,201 758,201 119,0 519,-61 847,-254 23,-14 34,-21 55,0 21,21 172,203 184,216 11,13 18,35 0,49z"/>
  <path class="fil0" d="M4560 3594c-21,26 -304,366 -328,389 -24,23 -52,39 -85,-4 -33,-43 -120,-145 -133,-160 -13,-15 -11,-28 14,-47 76,-58 278,-212 364,-298 35,-35 66,-19 82,-6 16,13 57,46 76,59 19,13 32,41 10,67z"/>
  <path class="fil0" d="M1828 4437l-960 -47 -43 -75 -45 1 -96 -162c0,0 -63,-61 -141,-101 -33,-83 -33,-149 -33,-149l99 -18c0,0 41,-106 -111,-199 -148,-90 -275,-167 -275,-167l0 -28c118,73 312,194 339,214 40,28 82,78 69,173 -13,96 -38,181 59,253 97,72 244,15 308,-61 37,-46 41,-66 41,-66 0,0 38,-5 58,8 35,22 253,154 326,195 73,40 299,161 379,212 8,5 17,10 28,16z"/>
  <path class="fil0" d="M4134 4302l0 220c0,38 -59,150 -216,150 -157,0 -108,0 -157,0 -49,0 -80,-61 -40,-95 40,-34 311,-275 333,-296 23,-21 79,-28 79,21z"/>
 </g>
 <g id="_17civicplazacolor">
  <metadata id="CorelCorpID_10Corel-Layer"/>
  <path class="fil5" d="M4122 4130c-18,15 -464,398 -496,426 -32,28 -142,127 -436,104 -294,-23 -691,-55 -915,-170 -224,-116 -659,-396 -786,-489 -127,-93 -138,-153 -150,-191 -11,-38 -21,-53 -32,-68 -11,-15 -30,-66 -15,-106 5,-13 8,-24 9,-33l746 80 0 0c52,89 128,174 232,235 257,151 451,201 758,201 119,0 519,-61 847,-254 23,-14 34,-21 55,0 21,21 172,203 184,216 11,13 18,35 0,49z"/>
  <path class="fil5" d="M4560 3594c-21,26 -304,366 -328,389 -24,23 -52,39 -85,-4 -33,-43 -120,-145 -133,-160 -13,-15 -11,-28 14,-47 76,-58 278,-212 364,-298 35,-35 66,-19 82,-6 16,13 57,46 76,59 19,13 32,41 10,67z"/>
  <path class="fil5" d="M1828 4437l-960 -47 -43 -75 -45 1 -96 -162c0,0 -63,-61 -141,-101 -33,-83 -33,-149 -33,-149l99 -18c0,0 41,-106 -111,-199 -148,-90 -275,-167 -275,-167l0 -28c118,73 312,194 339,214 40,28 82,78 69,173 -13,96 -38,181 59,253 97,72 244,15 308,-61 37,-46 41,-66 41,-66 0,0 38,-5 58,8 35,22 253,154 326,195 73,40 299,161 379,212 8,5 17,10 28,16z"/>
  <path class="fil5" d="M4134 4302l0 220c0,38 -59,150 -216,150 -157,0 -108,0 -157,0 -49,0 -80,-61 -40,-95 40,-34 311,-275 333,-296 23,-21 79,-28 79,21z"/>
 </g>
 <g id="_16civicplazatitle">
  <metadata id="CorelCorpID_11Corel-Layer"/>
  <path class="fil2 title" d="M2729 4305c-3,1 -9,2 -14,2 -15,0 -23,-9 -23,-24 0,-16 10,-24 23,-24 6,0 10,1 14,3l3 -13c-3,-2 -9,-3 -18,-3 -22,0 -40,14 -40,39 0,21 13,36 38,36 9,0 16,-2 19,-3l-3 -13zm19 -58l0 73 17 0 0 -73 -17 0z"/>
  <path class="fil2 title" d="M2820 4319l24 -73 -18 0 -9 31c-2,8 -5,17 -7,26l0 0c-2,-9 -4,-17 -7,-26l-9 -31 -18 0 24 73 19 0z"/>
  <polygon class="fil2 title" points="2857,4246 2858,4319 2874,4319 2874,4246 "/>
  <path class="fil2 title" d="M2945 4304c-3,1 -9,2 -14,2 -15,0 -23,-9 -23,-24 0,-16 10,-24 23,-24 6,0 10,1 14,3l3 -13c-3,-2 -9,-3 -18,-3 -22,0 -40,14 -40,39 0,21 13,36 38,36 9,0 16,-2 19,-3l-3 -13z"/>
  <path class="fil2 title" d="M2661 4438l16 0 0 -26c2,0 3,0 6,0 10,0 18,-2 24,-8 4,-4 7,-10 7,-17 0,-7 -3,-13 -8,-17 -5,-4 -12,-6 -22,-6 -10,0 -17,1 -22,2l0 72zm16 -60c1,0 3,-1 7,-1 8,0 13,4 13,11 0,7 -5,12 -14,12 -2,0 -4,0 -6,0l0 -22zm52 60l46 0 0 -14 -29 0 0 -59 -17 0 0 73zm99 -19l6 19 18 0 -23 -73 -22 0 -22 73 17 0 5 -19 21 0zm-19 -12l4 -15c1,-4 2,-10 3,-14l0 0c1,4 2,10 4,14l5 15 -16 0zm53 31l57 0 0 -14 -35 0 0 0 34 -49 0 -10 -53 0 0 14 31 0 0 0 -35 50 0 9zm111 -19l6 19 18 0 -23 -73 -22 0 -22 73 17 0 5 -19 21 0zm-19 -12l4 -15c1,-4 2,-10 3,-14l0 0c1,4 2,10 4,14l5 15 -16 0z"/>
 </g>
 </g>
 <g class="district southgate" data-target="southGate">
 <g id="_15southgatemap">
  <metadata id="CorelCorpID_12Corel-Layer"/>
  <path class="fil0" d="M1294 3630l1 -2c0,1 0,1 -1,2zm7 -28c3,-18 2,-29 10,-44 11,-23 119,-244 182,-375 63,-131 138,-337 138,-538 0,-201 2,-167 2,-191 0,-25 15,-62 57,-62l313 0c66,0 100,13 114,68 13,55 44,172 44,254 0,81 -30,191 -114,328 -73,120 -95,273 -95,326 0,80 28,201 96,316l-746 -80zm746 80c3,5 5,9 0,0z"/>
  <path class="fil0" d="M1149 2403c0,30 -5,302 -5,356 0,133 -73,374 -164,475 -56,62 -126,57 -168,38 -42,-19 -294,-154 -323,-169 -29,-15 -39,-25 -39,-63 0,-38 4,-614 4,-640 0,-27 11,-42 39,-42l614 0c21,0 43,15 43,45z"/>
  <path class="fil0" d="M1452 2450c0,55 -4,360 -66,491 -27,58 -24,61 -27,82 -4,48 -10,84 -18,116 -8,31 -93,208 -190,312 -98,103 -316,156 -447,91 -111,-55 -351,-178 -483,-240l0 -990c59,1 105,1 112,1 24,0 34,12 35,33 1,21 -1,654 -1,692 0,39 7,99 64,132 58,33 276,148 345,179 69,31 218,29 286,-79 68,-108 162,-279 167,-475 5,-196 6,-352 6,-381 0,-28 14,-44 37,-44l99 0c28,0 82,26 82,81z"/>
 </g>
 <g id="_14southgatecolor">
  <metadata id="CorelCorpID_13Corel-Layer"/>
  <path class="fil6" d="M1294 3630l1 -2c0,1 0,1 -1,2zm7 -28c3,-18 2,-29 10,-44 11,-23 119,-244 182,-375 63,-131 138,-337 138,-538 0,-201 2,-167 2,-191 0,-25 15,-62 57,-62l313 0c66,0 100,13 114,68 13,55 44,172 44,254 0,81 -30,191 -114,328 -73,120 -95,273 -95,326 0,80 28,201 96,316l-746 -80zm746 80c3,5 5,9 0,0z"/>
  <path class="fil6" d="M1149 2403c0,30 -5,302 -5,356 0,133 -73,374 -164,475 -56,62 -126,57 -168,38 -42,-19 -294,-154 -323,-169 -29,-15 -39,-25 -39,-63 0,-38 4,-614 4,-640 0,-27 11,-42 39,-42l614 0c21,0 43,15 43,45z"/>
  <path class="fil6" d="M1452 2450c0,55 -4,360 -66,491 -27,58 -24,61 -27,82 -4,48 -10,84 -18,116 -8,31 -93,208 -190,312 -98,103 -316,156 -447,91 -111,-55 -351,-178 -483,-240l0 -990c59,1 105,1 112,1 24,0 34,12 35,33 1,21 -1,654 -1,692 0,39 7,99 64,132 58,33 276,148 345,179 69,31 218,29 286,-79 68,-108 162,-279 167,-475 5,-196 6,-352 6,-381 0,-28 14,-44 37,-44l99 0c28,0 82,26 82,81z"/>
 </g>
 <g id="_13southgatetitle">
  <metadata id="CorelCorpID_14Corel-Layer"/>
  <path class="fil2 title" d="M480 2771c4,2 12,4 21,4 20,0 29,-10 29,-23 0,-10 -6,-17 -19,-22 -9,-4 -14,-6 -14,-10 0,-4 3,-7 11,-7 7,0 12,2 15,3l4 -13c-4,-2 -10,-4 -19,-4 -17,0 -28,10 -28,22 0,11 8,17 20,21 9,3 12,6 12,10 0,5 -4,8 -12,8 -7,0 -14,-2 -18,-4l-3 14zm93 -71c-22,0 -35,16 -35,38 0,21 13,37 34,37 21,0 36,-15 36,-39 0,-20 -12,-37 -35,-37zm0 13c11,0 18,11 18,24 0,14 -6,25 -17,25 -11,0 -18,-10 -18,-24 0,-14 6,-25 18,-25zm51 -12l0 41c0,23 11,33 29,33 19,0 30,-11 30,-33l0 -41 -16 0 0 42c0,13 -5,19 -13,19 -8,0 -13,-6 -13,-19l0 -42 -17 0zm94 73l17 0 0 -59 20 0 0 -14 -56 0 0 14 20 0 0 59zm45 -73l0 73 17 0 0 -30 27 0 0 30 16 0 0 -73 -16 0 0 28 -27 0 0 -28 -17 0z"/>
  <path class="fil2 title" d="M914 2731l-27 0 0 13 11 0 0 15c-1,1 -4,1 -8,1 -14,0 -23,-9 -23,-24 0,-16 10,-24 24,-24 8,0 13,1 17,3l3 -13c-4,-2 -11,-4 -20,-3 -24,0 -41,14 -42,38 0,11 4,20 10,26 7,6 16,10 30,10 10,0 19,-2 24,-4l0 -38zm56 23l6 19 18 0 -23 -73 -22 0 -22 73 17 0 5 -19 21 0zm-19 -12l4 -15c1,-4 2,-10 3,-14l0 0c1,4 2,10 4,14l5 15 -16 0zm62 31l17 0 0 -59 20 0 0 -14 -56 0 0 14 20 0 0 59zm94 -45l-27 0 0 -15 28 0 0 -14 -45 0 0 73 47 0 0 -14 -30 0 0 -17 27 0 0 -13z"/>
 </g>
 </g>
 <g class="district woods" data-target="woodsDistrict">
 <g id="_12woodsmap">
  <metadata id="CorelCorpID_15Corel-Layer"/>
  <path class="fil0" d="M361 782c1,1 1,2 2,2 -1,-1 -1,-2 -2,-2zm3 3l2 2c-1,-1 -1,-2 -2,-2zm2 3c1,1 2,2 2,3 -1,-1 -2,-2 -2,-3zm24 27c3,3 6,7 10,10 -3,-3 -7,-7 -10,-10zm109 112c4,4 8,8 11,12 -4,-4 -8,-8 -11,-12zm28 29c27,29 50,55 62,71 49,71 88,189 156,250 32,29 92,65 142,81 50,16 136,45 154,51 18,6 33,20 30,47 -4,27 -13,117 -6,167 7,49 51,179 56,232 5,53 24,359 25,385 1,26 -9,37 -38,36 -19,0 -531,-2 -887,-3l0 -1323 86 67 220 -60z"/>
  <path class="fil0" d="M1361 1581c-3,31 -4,64 -4,98 0,104 70,428 78,470 8,42 8,118 -74,118 -82,0 -70,0 -93,0 -23,0 -36,-17 -38,-44 -2,-27 -13,-229 -17,-288 -4,-59 -11,-116 -27,-172 -15,-57 -42,-150 -40,-222l214 41 0 0z"/>
 </g>
 <g id="_11woodscolor">
  <metadata id="CorelCorpID_16Corel-Layer"/>
  <path class="fil7" d="M361 782c1,1 1,2 2,2 -1,-1 -1,-2 -2,-2zm3 3l2 2c-1,-1 -1,-2 -2,-2zm2 3c1,1 2,2 2,3 -1,-1 -2,-2 -2,-3zm24 27c3,3 6,7 10,10 -3,-3 -7,-7 -10,-10zm109 112c4,4 8,8 11,12 -4,-4 -8,-8 -11,-12zm28 29c27,29 50,55 62,71 49,71 88,189 156,250 32,29 92,65 142,81 50,16 136,45 154,51 18,6 33,20 30,47 -4,27 -13,117 -6,167 7,49 51,179 56,232 5,53 24,359 25,385 1,26 -9,37 -38,36 -19,0 -531,-2 -887,-3l0 -1323 86 67 220 -60z"/>
  <path class="fil7" d="M1361 1581c-3,31 -4,64 -4,98 0,104 70,428 78,470 8,42 8,118 -74,118 -82,0 -70,0 -93,0 -23,0 -36,-17 -38,-44 -2,-27 -13,-229 -17,-288 -4,-59 -11,-116 -27,-172 -15,-57 -42,-150 -40,-222l214 41 0 0z"/>
 </g>
 <g id="_10woodstitle">
  <metadata id="CorelCorpID_17Corel-Layer"/>
  <path class="fil2 title" d="M483 1746l7 -31c2,-7 3,-14 4,-23l0 0c1,8 2,15 4,22l6 31 18 0 19 -73 -17 0 -6 30c-1,9 -3,17 -4,25l0 0c-1,-8 -2,-16 -4,-24l-6 -31 -18 0 -6 30c-2,9 -4,18 -5,26l0 0c-1,-7 -3,-17 -4,-25l-6 -30 -18 0 18 73 18 0zm103 -74c-22,0 -35,16 -35,38 0,21 13,37 34,37 21,0 36,-15 36,-39 0,-20 -12,-37 -35,-37zm0 13c11,0 18,11 18,24 0,14 -6,25 -17,25 -11,0 -18,-10 -18,-24 0,-14 6,-25 18,-25zm83 -13c-22,0 -35,16 -35,38 0,21 13,37 34,37 21,0 36,-15 36,-39 0,-20 -12,-37 -35,-37zm0 13c11,0 18,11 18,24 0,14 -6,25 -17,25 -11,0 -18,-10 -18,-24 0,-14 6,-25 18,-25zm51 60c4,1 10,1 19,1 14,0 26,-3 34,-10 7,-6 12,-16 12,-30 0,-13 -5,-22 -12,-27 -7,-5 -16,-8 -30,-8 -8,0 -16,1 -22,2l0 72zm16 -60c1,0 4,-1 7,-1 14,0 23,8 23,23 0,17 -10,26 -25,26 -2,0 -4,0 -6,0l0 -48zm62 57c4,2 12,4 21,4 20,0 29,-10 29,-23 0,-10 -6,-17 -19,-22 -9,-4 -14,-6 -14,-10 0,-4 3,-7 11,-7 7,0 12,2 15,3l4 -13c-4,-2 -10,-4 -19,-4 -17,0 -28,10 -28,22 0,11 8,17 20,21 9,3 12,6 12,10 0,5 -4,8 -12,8 -7,0 -14,-2 -18,-4l-3 14z"/>
 </g>
 </g>
 <g class="district palms" data-target="palmsDistrict">
 <g id="_09palmsmap">
  <metadata id="CorelCorpID_18Corel-Layer"/>
  <path class="fil0" d="M1406 429c-23,20 -168,138 -200,264 -32,126 19,318 0,400 -19,81 -79,176 -94,209 -15,33 -34,38 -66,28 -32,-9 -128,-42 -162,-55 -34,-13 -109,-45 -187,-212 -51,-110 -197,-247 -293,-345 -60,-61 -68,-167 -43,-238 23,-64 110,-153 228,-149 71,3 143,41 293,23 119,-14 265,-86 371,-86 84,0 142,68 161,94 19,26 12,47 -9,66z"/>
  <path class="fil0" d="M1590 670c-24,23 -46,47 -69,74 -22,27 -97,123 -112,141 -15,18 -24,28 -52,31 -28,2 -38,3 -47,2 -9,0 -27,-10 -28,-35 -1,-25 -15,-103 5,-168 20,-64 53,-107 99,-150 45,-43 70,-62 79,-70 9,-8 36,-10 49,9 13,19 65,94 72,104 7,10 28,38 4,61z"/>
  <path class="fil0" d="M1686 897c-32,39 -289,264 -325,684l0 0 0 0 -214 -41c2,-72 11,-154 90,-290 53,-91 56,-181 57,-213 1,-24 15,-42 53,-46 49,-6 74,-6 119,-59 45,-53 102,-133 129,-163 27,-30 50,-38 68,-11 19,27 20,30 29,42 14,20 29,56 -5,97zm-326 701c0,3 0,5 -1,8 0,-3 0,-5 1,-8zm-1 19c0,5 0,10 -1,15 0,-5 0,-10 1,-15zm-1 19c0,6 0,13 -1,19 0,-6 0,-13 1,-19zm-1 21c0,7 0,14 0,22 0,-7 0,-15 0,-22z"/>
  <path class="fil0" d="M3130 330c1,28 -32,45 -54,47 -561,50 -863,184 -1192,373 -49,27 -69,16 -78,2 -9,-14 -30,-45 -44,-63 -14,-18 -15,-33 3,-45 203,-139 793,-424 1327,-424 20,0 33,16 35,40 0,0 3,41 4,69z"/>
  <path class="fil0" d="M4699 523c-10,26 -46,115 -69,152 -24,38 -74,26 -109,8 -133,-72 -661,-306 -1201,-306 -45,0 -70,-27 -71,-61 -1,-10 -3,-62 -3,-77 0,-14 8,-25 31,-25 653,0 1295,208 1386,241 37,13 46,42 36,68z"/>
  <path class="fil0" d="M4870 0c-41,150 -87,315 -91,330 -8,27 -39,64 -74,55 -35,-9 -780,-250 -1445,-250 -665,0 -1189,225 -1541,442 -31,19 -49,20 -66,-2 -15,-20 -174,-252 -194,-277 -20,-25 -118,-141 -313,-89 -48,15 -233,76 -325,76 -92,0 -173,-25 -242,-25 -113,0 -306,84 -306,314 0,79 39,152 88,209 33,38 109,113 166,173l-220 60 -86 -67c0,0 -67,-27 -76,-25 -9,2 -131,-163 -133,-191 -2,-28 -17,-100 -9,-110 8,-9 114,-117 142,-201 28,-83 -15,-129 17,-163 32,-34 54,-205 59,-259l4649 0z"/>
 </g>
 <g id="_08palmscolor">
  <metadata id="CorelCorpID_19Corel-Layer"/>
  <path class="fil8" d="M1406 429c-23,20 -168,138 -200,264 -32,126 19,318 0,400 -19,81 -79,176 -94,209 -15,33 -34,38 -66,28 -32,-9 -128,-42 -162,-55 -34,-13 -109,-45 -187,-212 -51,-110 -197,-247 -293,-345 -60,-61 -68,-167 -43,-238 23,-64 110,-153 228,-149 71,3 143,41 293,23 119,-14 265,-86 371,-86 84,0 142,68 161,94 19,26 12,47 -9,66z"/>
  <path class="fil8" d="M1590 670c-24,23 -46,47 -69,74 -22,27 -97,123 -112,141 -15,18 -24,28 -52,31 -28,2 -38,3 -47,2 -9,0 -27,-10 -28,-35 -1,-25 -15,-103 5,-168 20,-64 53,-107 99,-150 45,-43 70,-62 79,-70 9,-8 36,-10 49,9 13,19 65,94 72,104 7,10 28,38 4,61z"/>
  <path class="fil8" d="M1686 897c-32,39 -289,264 -325,684l0 0 0 0 -214 -41c2,-72 11,-154 90,-290 53,-91 56,-181 57,-213 1,-24 15,-42 53,-46 49,-6 74,-6 119,-59 45,-53 102,-133 129,-163 27,-30 50,-38 68,-11 19,27 20,30 29,42 14,20 29,56 -5,97zm-326 701c0,3 0,5 -1,8 0,-3 0,-5 1,-8zm-1 19c0,5 0,10 -1,15 0,-5 0,-10 1,-15zm-1 19c0,6 0,13 -1,19 0,-6 0,-13 1,-19zm-1 21c0,7 0,14 0,22 0,-7 0,-15 0,-22z"/>
  <path class="fil8" d="M3130 330c1,28 -32,45 -54,47 -561,50 -863,184 -1192,373 -49,27 -69,16 -78,2 -9,-14 -30,-45 -44,-63 -14,-18 -15,-33 3,-45 203,-139 793,-424 1327,-424 20,0 33,16 35,40 0,0 3,41 4,69z"/>
  <path class="fil8" d="M4699 523c-10,26 -46,115 -69,152 -24,38 -74,26 -109,8 -133,-72 -661,-306 -1201,-306 -45,0 -70,-27 -71,-61 -1,-10 -3,-62 -3,-77 0,-14 8,-25 31,-25 653,0 1295,208 1386,241 37,13 46,42 36,68z"/>
  <path class="fil8" d="M4870 0c-41,150 -87,315 -91,330 -8,27 -39,64 -74,55 -35,-9 -780,-250 -1445,-250 -665,0 -1189,225 -1541,442 -31,19 -49,20 -66,-2 -15,-20 -174,-252 -194,-277 -20,-25 -118,-141 -313,-89 -48,15 -233,76 -325,76 -92,0 -173,-25 -242,-25 -113,0 -306,84 -306,314 0,79 39,152 88,209 33,38 109,113 166,173l-220 60 -86 -67c0,0 -67,-27 -76,-25 -9,2 -131,-163 -133,-191 -2,-28 -17,-100 -9,-110 8,-9 114,-117 142,-201 28,-83 -15,-129 17,-163 32,-34 54,-205 59,-259l4649 0z"/>
 </g>
 <g id="_07palmstitle">
  <metadata id="CorelCorpID_20Corel-Layer"/>
  <path class="fil2 title" d="M723 734l16 0 0 -26c2,0 3,0 6,0 10,0 18,-2 24,-8 4,-4 7,-10 7,-17 0,-7 -3,-13 -8,-17 -5,-4 -12,-6 -22,-6 -10,0 -17,1 -22,2l0 72zm16 -60c1,0 3,-1 7,-1 8,0 13,4 13,11 0,7 -5,12 -14,12 -2,0 -4,0 -6,0l0 -22zm83 41l6 19 18 0 -23 -73 -22 0 -22 73 17 0 5 -19 21 0zm-19 -12l4 -15c1,-4 2,-10 3,-14l0 0c1,4 2,10 4,14l5 15 -16 0zm57 31l46 0 0 -14 -29 0 0 -59 -17 0 0 73zm123 0l16 0 -4 -73 -22 0 -8 24c-2,8 -5,18 -7,26l0 0c-2,-9 -4,-18 -6,-26l-7 -24 -22 0 -4 73 15 0 1 -28c1,-9 1,-20 1,-30l0 0c2,10 4,20 7,28l8 28 13 0 9 -28c3,-9 6,-19 8,-28l0 0c0,11 0,21 1,30l1 28zm31 -3c4,2 12,4 21,4 20,0 29,-10 29,-23 0,-10 -6,-17 -19,-22 -9,-4 -14,-6 -14,-10 0,-4 3,-7 11,-7 7,0 12,2 15,3l4 -13c-4,-2 -10,-4 -19,-4 -17,0 -28,10 -28,22 0,11 8,17 20,21 9,3 12,6 12,10 0,5 -4,8 -12,8 -7,0 -14,-2 -18,-4l-3 14z"/>
 </g>
 </g>
 <g class="district west" data-target="westDistrict">
 <g id="_06westgatemap">
  <metadata id="CorelCorpID_21Corel-Layer"/>
  <path class="fil0" d="M5938 95c-153,450 -404,1188 -418,1233 -21,64 -59,68 -97,51 -38,-17 -178,-95 -256,-180 -78,-85 -305,-301 -394,-352 -57,-30 -59,-80 -42,-114 17,-34 99,-191 136,-341 20,-78 64,-247 103,-392l910 0 35 88 22 7z"/>
  <path class="fil0" d="M5898 1484c-84,-9 -146,-15 -160,-17 -49,-7 -79,-19 -61,-85 12,-45 256,-774 412,-1241l62 19 76 -56c0,0 66,-30 73,20 8,51 3,109 20,136 18,28 34,56 42,70 8,14 55,34 77,54 22,20 25,28 17,61 -8,33 6,147 7,172 1,25 -24,68 -40,40 -15,-28 -106,-101 -164,-35 -58,66 -141,149 -152,177 -7,19 -2,62 10,94l0 -1 0 0 -220 593zm227 -579c0,0 0,1 1,1 0,0 0,-1 -1,-1zm1 2c0,0 1,1 1,1 0,0 -1,-1 -1,-1zm1 2c0,0 1,1 1,1 0,0 -1,-1 -1,-1zm1 2c0,0 1,1 1,1 0,0 -1,-1 -1,-1zm1 2c0,0 1,1 1,1 0,0 -1,-1 -1,-1zm1 2c0,0 1,1 1,1 0,0 -1,-1 -1,-1zm1 2c0,0 1,1 1,1 0,0 -1,-1 -1,-1zm1 2c0,0 1,1 1,1 0,0 -1,-1 -1,-1zm1 1c0,0 1,1 1,1 0,0 -1,-1 -1,-1zm1 1c0,0 1,1 1,1 0,0 -1,-1 -1,-1zm1 1c0,0 1,1 1,1 0,0 -1,-1 -1,-1zm1 1c0,0 1,1 1,1 0,0 -1,-1 -1,-1zm1 1c0,0 1,1 1,1 0,0 -1,-1 -1,-1zm1 1c0,0 1,1 1,1 0,0 -1,-1 -1,-1zm1 1c0,0 1,1 1,1 0,0 -1,-1 -1,-1z"/>
 </g>
 <g id="_05westgatecolor">
  <metadata id="CorelCorpID_22Corel-Layer"/>
  <path class="fil9" d="M5938 95c-153,450 -404,1188 -418,1233 -21,64 -59,68 -97,51 -38,-17 -178,-95 -256,-180 -78,-85 -305,-301 -394,-352 -57,-30 -59,-80 -42,-114 17,-34 99,-191 136,-341 20,-78 64,-247 103,-392l910 0 35 88 22 7z"/>
  <path class="fil9" d="M5898 1484c-84,-9 -146,-15 -160,-17 -49,-7 -79,-19 -61,-85 12,-45 256,-774 412,-1241l62 19 76 -56c0,0 66,-30 73,20 8,51 3,109 20,136 18,28 34,56 42,70 8,14 55,34 77,54 22,20 25,28 17,61 -8,33 6,147 7,172 1,25 -24,68 -40,40 -15,-28 -106,-101 -164,-35 -58,66 -141,149 -152,177 -7,19 -2,62 10,94l0 -1 0 0 -220 593zm227 -579c0,0 0,1 1,1 0,0 0,-1 -1,-1zm1 2c0,0 1,1 1,1 0,0 -1,-1 -1,-1zm1 2c0,0 1,1 1,1 0,0 -1,-1 -1,-1zm1 2c0,0 1,1 1,1 0,0 -1,-1 -1,-1zm1 2c0,0 1,1 1,1 0,0 -1,-1 -1,-1zm1 2c0,0 1,1 1,1 0,0 -1,-1 -1,-1zm1 2c0,0 1,1 1,1 0,0 -1,-1 -1,-1zm1 2c0,0 1,1 1,1 0,0 -1,-1 -1,-1zm1 1c0,0 1,1 1,1 0,0 -1,-1 -1,-1zm1 1c0,0 1,1 1,1 0,0 -1,-1 -1,-1zm1 1c0,0 1,1 1,1 0,0 -1,-1 -1,-1zm1 1c0,0 1,1 1,1 0,0 -1,-1 -1,-1zm1 1c0,0 1,1 1,1 0,0 -1,-1 -1,-1zm1 1c0,0 1,1 1,1 0,0 -1,-1 -1,-1zm1 1c0,0 1,1 1,1 0,0 -1,-1 -1,-1z"/>
 </g>
 <g id="_04westgatetitle">
  <metadata id="CorelCorpID_23Corel-Layer"/>
  <path class="fil2 title" d="M5087 476l7 -31c2,-7 3,-14 4,-23l0 0c1,8 2,15 4,22l6 31 18 0 19 -73 -17 0 -6 30c-1,9 -3,17 -4,25l0 0c-1,-8 -2,-16 -4,-24l-6 -31 -18 0 -6 30c-2,9 -4,18 -5,26l0 0c-1,-7 -3,-17 -4,-25l-6 -30 -18 0 18 73 18 0zm115 -45l-27 0 0 -15 28 0 0 -14 -45 0 0 73 47 0 0 -14 -30 0 0 -17 27 0 0 -13zm17 41c4,2 12,4 21,4 20,0 29,-10 29,-23 0,-10 -6,-17 -19,-22 -9,-4 -14,-6 -14,-10 0,-4 3,-7 11,-7 7,0 12,2 15,3l4 -13c-4,-2 -10,-4 -19,-4 -17,0 -28,10 -27,22 0,11 8,17 20,21 9,3 12,6 12,10 0,5 -4,8 -12,8 -7,0 -14,-2 -18,-4l-3 14zm81 3l17 0 0 -59 20 0 0 -14 -56 0 0 14 20 0 0 59zm108 -42l-27 0 0 13 11 0 0 15c-1,1 -4,1 -8,1 -14,0 -23,-9 -23,-24 0,-16 10,-24 24,-24 8,0 13,1 17,3l3 -13c-4,-2 -11,-4 -20,-3 -24,0 -41,14 -42,38 0,11 4,20 10,26 7,6 16,10 30,10 10,0 19,-2 24,-4l0 -38zm56 23l6 19 18 0 -23 -73 -22 0 -22 73 17 0 5 -19 21 0zm-19 -12l4 -15c1,-4 2,-10 3,-14l0 0c1,4 2,10 4,14l5 15 -16 0zm62 31l17 0 0 -59 20 0 0 -14 -56 0 0 14 20 0 0 59zm94 -45l-27 0 0 -15 28 0 0 -14 -45 0 0 73 47 0 0 -14 -30 0 0 -17 27 0 0 -13z"/>
 </g>
 </g>
 <g class="district north" data-target="northDistrict">
 <g id="_03Northgatemap">
  <metadata id="CorelCorpID_24Corel-Layer"/>
  <path class="fil0" d="M5796 1634l0 337c0,20 -1,36 -32,36l-191 0c-13,0 -23,-3 -20,-24 2,-12 29,-185 56,-311 10,-47 38,-101 115,-90 1,0 46,6 48,6 13,2 24,18 24,45z"/>
  <path class="fil0" d="M6080 2806l0 62c0,11 -11,26 -27,26l-323 0c-21,0 -36,-16 -36,-30 0,-14 -1,-40 -1,-50 0,-20 22,-42 42,-42l308 0c20,0 38,16 38,34z"/>
  <path class="fil0" d="M6243 2255l0 149c0,8 -5,21 -21,21l-626 0c-40,0 -86,-36 -82,-90 11,-136 19,-191 27,-265 2,-14 15,-24 28,-24 13,0 187,-2 201,-2 14,0 22,10 22,34l0 118c0,11 8,29 35,29 28,0 391,3 403,3 11,0 13,13 13,27z"/>
  <path class="fil0" d="M6261 2622l0 224c0,29 -14,47 -36,47l-57 0c-27,0 -44,-18 -44,-63 0,-45 -16,-100 -89,-100l-295 0c-57,0 -86,33 -86,77 0,45 -1,26 -1,42 0,16 -4,43 -29,43 -25,0 -73,1 -73,1 -27,0 -46,-11 -46,-48 0,-37 -2,-192 -2,-220 0,-27 20,-59 60,-59l641 0c39,0 57,24 57,55z"/>
  <path class="fil0" d="M6382 1683c0,9 -3,477 -3,497 0,20 -23,23 -33,23l0 0c-212,-1 -481,-2 -491,-2 -16,0 -29,-9 -29,-36 0,-27 7,-531 7,-540 0,-9 11,-28 26,-26 1,0 495,54 499,54 17,2 25,22 25,30z"/>
  <path class="fil0" d="M6620 1879c-1,13 -13,18 -23,18l-166 0c-11,0 -19,-14 -19,-23l0 -186c0,-11 3,-28 16,-28 0,0 1,0 1,0 80,5 188,38 189,181 0,4 0,39 0,39z"/>
  <path class="fil0" d="M6623 2188c-1,12 -12,17 -21,17 -3,0 -73,0 -170,-1l0 0c-13,0 -19,-13 -19,-26l0 -223c0,-6 5,-18 15,-18l170 0c13,0 21,5 22,13 0,1 0,1 0,2 0,4 0,35 1,74 1,69 1,161 1,161z"/>
  <path class="fil0" d="M6624 2367c0,40 -25,58 -53,58l-253 0c-10,0 -14,-12 -14,-25l0 -150c0,-12 2,-23 12,-23l281 0c14,0 25,10 25,20 0,26 0,50 0,69 0,6 0,11 0,16 0,16 0,28 0,34z"/>
  <path class="fil0" d="M6624 2622l0 224c0,29 -14,47 -36,47l-196 0c-27,0 -46,-11 -46,-48 0,-37 -2,-192 -2,-220 0,-27 20,-59 60,-59l163 0c39,0 58,24 58,55z"/>
  <path class="fil0" d="M7135 2503l0 121c0,165 -147,269 -267,269l-106 0c-37,0 -53,-18 -53,-48 0,-30 -4,-533 -4,-573 0,-30 25,-52 51,-52 25,0 83,1 111,1 177,0 268,168 268,282z"/>
  <path class="fil0" d="M5808 4299c5,13 2,35 -18,53 -20,18 -33,121 -48,167 -15,45 -20,107 -20,107l-90 -4c-52,-24 -92,-81 -94,-166 -3,-116 -28,-1397 -28,-1430 0,-33 20,-45 45,-45l1311 0c98,0 349,-86 349,-313 0,-136 3,-149 3,-215 0,-66 -91,-316 -379,-316l-89 0c-14,0 -42,-4 -42,-44 0,-39 -3,-309 -3,-366 0,-57 -35,-162 -158,-176 -88,-10 -437,-45 -648,-67l220 -593 0 0c6,16 15,30 25,36 30,18 83,35 83,83 0,48 8,66 28,68 20,3 104,0 131,0 28,0 33,23 45,51 13,28 22,33 28,37 4,2 29,1 53,1 17,-1 33,-1 42,-1 23,1 93,-93 111,-105 18,-13 83,-28 81,23 -2,51 -2,120 5,134 8,15 30,68 43,57 13,-10 56,-86 68,-88 13,-3 14,-2 41,14 27,16 45,11 57,57 13,45 23,78 45,93 23,15 126,81 172,121 45,40 93,73 73,126 18,40 61,123 78,155 18,32 8,36 -13,62 -20,26 -99,74 -96,119 3,45 15,134 25,149 10,15 40,40 68,43 28,3 35,25 43,79 8,53 8,109 53,162 46,53 192,96 210,134 18,38 30,91 28,109 -3,18 25,147 30,184 5,38 0,109 8,174 8,66 20,102 28,109 8,6 81,17 85,68 -95,0 -2237,10 -2237,10 0,0 5,56 -5,88 2,35 2,55 23,72 22,17 72,44 72,62 0,18 -40,30 -28,48 13,18 47,43 53,71 6,27 3,66 -20,121 -23,56 -45,81 -50,104 -5,23 -13,83 0,113 13,30 45,78 61,119 15,40 15,48 38,61 23,13 46,43 40,66 -5,23 -15,40 5,71 20,30 10,30 -10,58 -20,28 -43,48 -3,66 40,18 63,13 68,25z"/>
 </g>
 <g id="_02Northgatecolor">
  <metadata id="CorelCorpID_25Corel-Layer"/>
  <path class="fil10" d="M5796 1634l0 337c0,20 -1,36 -32,36l-191 0c-13,0 -23,-3 -20,-24 2,-12 29,-185 56,-311 10,-47 38,-101 115,-90 1,0 46,6 48,6 13,2 24,18 24,45z"/>
  <path class="fil10" d="M6080 2806l0 62c0,11 -11,26 -27,26l-323 0c-21,0 -36,-16 -36,-30 0,-14 -1,-40 -1,-50 0,-20 22,-42 42,-42l308 0c20,0 38,16 38,34z"/>
  <path class="fil10" d="M6243 2255l0 149c0,8 -5,21 -21,21l-626 0c-40,0 -86,-36 -82,-90 11,-136 19,-191 27,-265 2,-14 15,-24 28,-24 13,0 187,-2 201,-2 14,0 22,10 22,34l0 118c0,11 8,29 35,29 28,0 391,3 403,3 11,0 13,13 13,27z"/>
  <path class="fil10" d="M6261 2622l0 224c0,29 -14,47 -36,47l-57 0c-27,0 -44,-18 -44,-63 0,-45 -16,-100 -89,-100l-295 0c-57,0 -86,33 -86,77 0,45 -1,26 -1,42 0,16 -4,43 -29,43 -25,0 -73,1 -73,1 -27,0 -46,-11 -46,-48 0,-37 -2,-192 -2,-220 0,-27 20,-59 60,-59l641 0c39,0 57,24 57,55z"/>
  <path class="fil10" d="M6382 1683c0,9 -3,477 -3,497 0,20 -23,23 -33,23l0 0c-212,-1 -481,-2 -491,-2 -16,0 -29,-9 -29,-36 0,-27 7,-531 7,-540 0,-9 11,-28 26,-26 1,0 495,54 499,54 17,2 25,22 25,30z"/>
  <path class="fil10" d="M6620 1879c-1,13 -13,18 -23,18l-166 0c-11,0 -19,-14 -19,-23l0 -186c0,-11 3,-28 16,-28 0,0 1,0 1,0 80,5 188,38 189,181 0,4 0,39 0,39z"/>
  <path class="fil10" d="M6623 2188c-1,12 -12,17 -21,17 -3,0 -73,0 -170,-1l0 0c-13,0 -19,-13 -19,-26l0 -223c0,-6 5,-18 15,-18l170 0c13,0 21,5 22,13 0,1 0,1 0,2 0,4 0,35 1,74 1,69 1,161 1,161z"/>
  <path class="fil10" d="M6624 2367c0,40 -25,58 -53,58l-253 0c-10,0 -14,-12 -14,-25l0 -150c0,-12 2,-23 12,-23l281 0c14,0 25,10 25,20 0,26 0,50 0,69 0,6 0,11 0,16 0,16 0,28 0,34z"/>
  <path class="fil10" d="M6624 2622l0 224c0,29 -14,47 -36,47l-196 0c-27,0 -46,-11 -46,-48 0,-37 -2,-192 -2,-220 0,-27 20,-59 60,-59l163 0c39,0 58,24 58,55z"/>
  <path class="fil10" d="M7135 2503l0 121c0,165 -147,269 -267,269l-106 0c-37,0 -53,-18 -53,-48 0,-30 -4,-533 -4,-573 0,-30 25,-52 51,-52 25,0 83,1 111,1 177,0 268,168 268,282z"/>
  <path class="fil10" d="M5808 4299c5,13 2,35 -18,53 -20,18 -33,121 -48,167 -15,45 -20,107 -20,107l-90 -4c-52,-24 -92,-81 -94,-166 -3,-116 -28,-1397 -28,-1430 0,-33 20,-45 45,-45l1311 0c98,0 349,-86 349,-313 0,-136 3,-149 3,-215 0,-66 -91,-316 -379,-316l-89 0c-14,0 -42,-4 -42,-44 0,-39 -3,-309 -3,-366 0,-57 -35,-162 -158,-176 -88,-10 -437,-45 -648,-67l220 -593 0 0c6,16 15,30 25,36 30,18 83,35 83,83 0,48 8,66 28,68 20,3 104,0 131,0 28,0 33,23 45,51 13,28 22,33 28,37 4,2 29,1 53,1 17,-1 33,-1 42,-1 23,1 93,-93 111,-105 18,-13 83,-28 81,23 -2,51 -2,120 5,134 8,15 30,68 43,57 13,-10 56,-86 68,-88 13,-3 14,-2 41,14 27,16 45,11 57,57 13,45 23,78 45,93 23,15 126,81 172,121 45,40 93,73 73,126 18,40 61,123 78,155 18,32 8,36 -13,62 -20,26 -99,74 -96,119 3,45 15,134 25,149 10,15 40,40 68,43 28,3 35,25 43,79 8,53 8,109 53,162 46,53 192,96 210,134 18,38 30,91 28,109 -3,18 25,147 30,184 5,38 0,109 8,174 8,66 20,102 28,109 8,6 81,17 85,68 -95,0 -2237,10 -2237,10 0,0 5,56 -5,88 2,35 2,55 23,72 22,17 72,44 72,62 0,18 -40,30 -28,48 13,18 47,43 53,71 6,27 3,66 -20,121 -23,56 -45,81 -50,104 -5,23 -13,83 0,113 13,30 45,78 61,119 15,40 15,48 38,61 23,13 46,43 40,66 -5,23 -15,40 5,71 20,30 10,30 -10,58 -20,28 -43,48 -3,66 40,18 63,13 68,25z"/>
 </g>
 <g id="_01Northgatetitle">
  <metadata id="CorelCorpID_26Corel-Layer"/>
  <path class="fil2 title" d="M6128 1421l0 -22c0,-12 0,-22 -1,-32l0 0c4,9 8,18 13,26l16 28 17 0 0 -73 -15 0 0 21c0,11 0,21 2,30l0 0c-3,-8 -8,-17 -12,-25l-15 -27 -19 0 0 73 15 0zm97 -74c-22,0 -35,16 -35,38 0,21 13,37 34,37 21,0 36,-15 36,-39 0,-20 -12,-37 -35,-37zm0 13c11,0 18,11 18,24 0,14 -6,25 -17,25 -11,0 -18,-10 -18,-24 0,-14 6,-25 18,-25zm51 61l16 0 0 -29 5 0c7,0 10,3 12,12 2,9 4,15 5,17l17 0c-1,-3 -4,-12 -6,-21 -2,-7 -5,-12 -10,-14l0 0c6,-2 13,-9 13,-18 0,-7 -2,-12 -7,-15 -5,-4 -13,-6 -24,-6 -9,0 -17,1 -22,2l0 72zm16 -61c1,0 3,-1 7,-1 8,0 12,3 12,10 0,6 -5,11 -13,11l-6 0 0 -20zm67 60l17 0 0 -59 20 0 0 -14 -56 0 0 14 20 0 0 59zm50 -73l0 73 17 0 0 -30 27 0 0 30 16 0 0 -73 -16 0 0 28 -27 0 0 -28 -17 0zm141 31l-27 0 0 13 11 0 0 15c-1,1 -4,1 -8,1 -14,0 -23,-9 -23,-24 0,-16 10,-24 24,-24 8,0 13,1 17,3l3 -13c-4,-2 -11,-4 -20,-3 -24,0 -41,14 -42,38 0,11 4,20 10,26 7,6 16,10 30,10 10,0 19,-2 24,-4l0 -38zm56 23l6 19 18 0 -23 -73 -22 0 -22 73 17 0 5 -19 21 0zm-19 -12l4 -15c1,-4 2,-10 3,-14l0 0c1,4 2,10 4,14l5 15 -16 0zm62 31l17 0 0 -59 20 0 0 -14 -56 0 0 14 20 0 0 59zm94 -45l-27 0 0 -15 28 0 0 -14 -45 0 0 73 47 0 0 -14 -30 0 0 -17 27 0 0 -13z"/>
 </g>
 </g>
</svg>
