<?xml version="1.0" encoding="UTF-8"?>
<!DOCTYPE svg PUBLIC "-//W3C//DTD SVG 1.1//EN" "http://www.w3.org/Graphics/SVG/1.1/DTD/svg11.dtd">
<!-- Creator: CorelDRAW X6 -->
<svg xmlns="http://www.w3.org/2000/svg" xml:space="preserve" width="0.967929in" height="0.905732in" version="1.1" style="shape-rendering:geometricPrecision; text-rendering:geometricPrecision; image-rendering:optimizeQuality; fill-rule:evenodd; clip-rule:evenodd"
viewBox="0 0 166 156"
 xmlns:xlink="http://www.w3.org/1999/xlink">
 <defs>
  <style type="text/css">
   <![CDATA[
    .fil0 {fill:#00AB98}
    .fil1 {fill:white}
   ]]>
  </style>
 </defs>
 <g id="Layer_x0020_1">
  <metadata id="CorelCorpID_0Corel-Layer"/>
  <path class="fil0" d="M84 40c-8,3 -18,10 -26,16 -9,7 -16,14 -20,19 -4,6 -4,10 -2,13 2,3 7,6 13,6 6,1 15,0 22,0 7,0 13,1 17,3 3,2 3,6 -1,11 -4,5 -13,10 -20,14 -7,5 -13,8 -20,13 -7,5 -15,10 -5,15 9,4 37,7 55,2 19,-4 29,-16 36,-27 7,-11 9,-21 9,-28 0,-7 -3,-11 -8,-14 -5,-3 -11,-5 -20,-6 -10,-1 -23,-2 -33,-4 -9,-2 -14,-4 -14,-8 0,-4 5,-9 10,-14 5,-5 11,-10 15,-13 4,-3 6,-4 5,-4 -1,0 -6,0 -14,3z"/>
  <path class="fil0" d="M84 46c4,-3 7,-6 11,-8 4,-2 7,-4 13,-6 6,-2 14,-3 21,-3 7,0 14,1 18,1 4,1 4,2 3,3 0,1 -1,2 -3,2 -2,0 -5,0 -10,0 -6,0 -15,0 -22,1 -7,1 -13,3 -19,6 -6,3 -12,6 -16,8 -4,2 -6,4 -5,3 1,-1 5,-4 9,-7z"/>
  <path class="fil0" d="M77 40c-4,-2 -11,-5 -20,-6 -8,-1 -18,-1 -25,0 -7,1 -12,3 -14,4 -3,2 -3,3 -2,4 1,0 3,0 7,-1 4,-1 9,-2 15,-2 6,0 12,0 17,1 5,1 10,3 14,4 4,1 6,3 8,3 2,0 3,-1 3,-2 0,-1 0,-2 -4,-4z"/>
  <path class="fil0" d="M9 103c-2,-3 -5,-6 -7,-10 -2,-4 -2,-9 -1,-13 1,-4 2,-8 4,-12 2,-3 3,-6 5,-9 2,-3 4,-5 6,-6 2,0 4,1 7,4 2,2 4,5 6,7 2,3 3,6 3,10 1,4 1,8 0,11 0,4 -1,7 -2,10 -1,3 -2,5 -5,7 -3,2 -7,4 -9,4 -3,0 -4,-1 -6,-4z"/>
  <path class="fil0" d="M10 102c0,5 0,13 0,17 1,4 2,5 3,5 2,0 3,0 5,0 1,0 2,-1 3,-4 0,-3 1,-9 0,-13 0,-4 -1,-7 -2,-9 -2,-2 -4,-2 -6,-1 -2,0 -3,1 -3,6z"/>
  <path class="fil1" d="M15 68c0,4 -1,11 -1,16 0,5 1,8 1,9 0,1 1,-1 1,-5 0,-4 0,-10 0,-15 0,-5 0,-9 0,-11 0,-1 -1,0 -1,4z"/>
  <path class="fil1" d="M12 72c-1,-1 -2,-3 -3,-4 -1,-1 -2,0 -2,1 0,1 1,2 3,3 1,1 2,2 3,2 0,0 0,-1 0,-2z"/>
  <path class="fil1" d="M11 82c-1,-1 -3,-3 -4,-3 -1,-1 -2,0 -3,0 0,1 1,2 3,3 2,1 4,2 5,2 1,0 0,-1 -1,-2z"/>
  <path class="fil1" d="M12 90c-1,-1 -4,-3 -6,-4 -2,-1 -2,0 -2,1 0,1 2,2 3,2 2,1 3,2 5,2 1,0 1,-1 0,-2z"/>
  <path class="fil1" d="M22 90c0,0 1,-2 2,-3 1,-1 3,-1 3,-1 0,0 -1,2 -2,3 -1,1 -3,2 -3,2z"/>
  <path class="fil1" d="M20 81c1,-1 2,-2 3,-4 1,-1 2,-2 3,-1 1,0 1,2 -1,3 -1,1 -3,2 -4,3 -1,0 -1,0 0,-1z"/>
  <path class="fil1" d="M19 71c0,-1 1,-3 2,-4 1,-1 2,-1 2,-1 0,1 0,2 -1,3 -1,1 -2,2 -3,3 -1,0 -1,0 0,-1z"/>
  <path class="fil0" d="M145 88c-2,-2 -5,-6 -7,-9 -2,-4 -2,-8 -1,-12 1,-4 2,-8 3,-11 1,-3 3,-6 5,-8 2,-2 4,-5 6,-5 2,0 4,1 6,3 2,2 4,4 6,7 2,3 3,6 3,9 1,3 1,7 0,10 0,3 -1,6 -2,9 -1,3 -2,5 -5,7 -3,2 -6,4 -9,4 -2,0 -4,-1 -6,-4z"/>
  <path class="fil0" d="M146 86c0,4 0,12 0,16 0,4 1,4 3,5 1,0 3,0 5,0 1,0 2,-1 3,-4 0,-3 1,-8 0,-12 0,-4 -1,-7 -2,-8 -1,-1 -4,-2 -5,-1 -2,0 -2,1 -3,5z"/>
  <path class="fil1" d="M151 55c0,4 -1,10 -1,15 0,5 1,8 1,9 0,1 1,-1 1,-4 0,-3 0,-9 0,-14 0,-5 0,-9 0,-10 0,-1 -1,0 -1,4z"/>
  <path class="fil1" d="M149 59c-1,-1 -2,-3 -3,-3 -1,0 -2,0 -2,1 0,1 1,2 2,3 1,1 2,2 3,2 0,0 0,-1 0,-2z"/>
  <path class="fil1" d="M147 68c-1,-1 -3,-3 -4,-3 -1,-1 -2,0 -2,0 0,1 1,1 2,2 2,1 4,2 4,2 1,0 0,-1 -1,-2z"/>
  <path class="fil1" d="M148 76c-1,-1 -4,-3 -5,-3 -2,0 -2,0 -2,1 0,1 1,2 3,2 1,1 3,2 4,2 1,0 1,0 0,-2z"/>
  <path class="fil1" d="M157 75c0,0 1,-2 2,-3 1,-1 2,-1 3,-1 0,0 0,2 -2,3 -1,1 -3,2 -3,1z"/>
  <path class="fil1" d="M156 67c1,-1 2,-2 3,-3 1,-1 2,-1 2,-1 0,0 1,2 0,3 -1,1 -3,2 -4,3 -1,0 -1,0 0,-1z"/>
  <path class="fil1" d="M155 58c0,-1 1,-2 1,-3 1,-1 2,-1 2,-1 0,1 0,2 -1,3 -1,1 -2,2 -3,2 -1,0 -1,0 0,-1z"/>
  <path class="fil0" d="M110 45c-2,-2 -5,-6 -7,-9 -2,-4 -2,-8 -1,-12 1,-4 2,-8 3,-11 1,-3 3,-6 5,-8 2,-2 4,-5 6,-5 2,0 4,1 6,3 2,2 4,4 6,7 2,3 3,6 3,9 1,3 1,7 0,10 0,3 -1,6 -2,9 -1,3 -2,5 -5,7 -3,2 -6,4 -9,4 -2,0 -4,-1 -6,-4z"/>
  <path class="fil0" d="M111 44c0,4 0,12 0,16 0,4 1,4 3,5 1,0 3,0 5,0 1,0 2,-1 3,-4 0,-3 1,-8 0,-12 0,-4 -1,-7 -2,-8 -1,-1 -4,-2 -5,-1 -2,0 -2,1 -3,5z"/>
  <path class="fil1" d="M116 12c0,4 -1,10 -1,15 0,5 1,8 1,9 0,1 1,-1 1,-4 0,-3 0,-9 0,-14 0,-5 0,-9 0,-10 0,-1 -1,0 -1,4z"/>
  <path class="fil1" d="M113 16c-1,-1 -2,-3 -3,-3 -1,0 -2,0 -2,1 0,1 1,2 2,3 1,1 2,2 3,2 0,0 0,-1 0,-2z"/>
  <path class="fil1" d="M112 25c-1,-1 -3,-3 -4,-3 -1,-1 -2,0 -2,0 0,1 1,1 2,2 2,1 4,2 4,2 1,0 0,-1 -1,-2z"/>
  <path class="fil1" d="M113 33c-1,-1 -4,-3 -5,-3 -2,0 -2,0 -2,1 0,1 1,2 3,2 1,1 3,2 4,2 1,0 1,0 0,-2z"/>
  <path class="fil1" d="M122 33c0,0 1,-2 2,-3 1,-1 2,-1 3,-1 0,0 0,2 -2,3 -1,1 -3,2 -3,1z"/>
  <path class="fil1" d="M120 24c1,-1 2,-2 3,-3 1,-1 2,-1 2,-1 0,0 1,2 0,3 -1,1 -3,2 -4,3 -1,0 -1,0 0,-1z"/>
  <path class="fil1" d="M119 16c0,-1 1,-2 1,-3 1,-1 2,-1 2,-1 0,1 0,2 -1,3 -1,1 -2,2 -3,2 -1,0 -1,0 0,-1z"/>
  <path class="fil1" d="M91 119c1,-1 4,-2 6,-4 2,-2 3,-4 5,-4 1,0 3,1 4,2 1,1 3,2 4,2 2,0 4,0 5,-1 2,-1 3,-2 4,-3 1,-1 2,-2 2,-2 1,0 2,2 3,3 1,1 2,2 4,2 2,0 4,1 3,1 -1,0 -3,1 -6,1 -2,0 -4,-2 -5,-2 -1,0 -2,1 -3,2 -1,1 -2,2 -4,2 -1,0 -3,0 -4,-1 -2,-1 -4,-2 -5,-2 -1,0 -3,0 -4,1 -1,1 -3,2 -4,3 -1,1 -3,1 -4,1 -1,0 -3,-1 -2,-1z"/>
  <path class="fil1" d="M59 85c2,-1 5,-2 6,-3 2,-1 2,-3 3,-3 1,0 3,1 4,2 1,1 3,0 4,0 1,0 2,-1 4,-1 1,0 3,1 4,2 1,1 3,0 4,0 1,0 2,-1 3,0 1,1 3,2 5,3 2,1 4,2 4,2 0,1 -3,1 -5,0 -2,-1 -5,-2 -7,-2 -2,0 -4,0 -5,0 -2,0 -3,-1 -4,-1 -2,0 -3,1 -5,1 -1,0 -2,0 -3,0 -1,0 -2,0 -3,0 -1,0 -3,1 -6,1 -2,0 -5,0 -5,0 -1,0 0,-1 2,-2z"/>
  <path class="fil1" d="M49 69c1,-1 4,-2 5,-3 2,0 2,0 3,0 1,0 2,-1 3,-1 1,0 2,1 1,2 0,1 -1,0 -2,1 -1,0 -2,1 -3,1 -1,0 -2,0 -4,0 -2,0 -4,1 -5,1 -1,0 0,-1 1,-2z"/>
 </g>
</svg>
