<?xml version="1.0" encoding="UTF-8"?>
<!DOCTYPE svg PUBLIC "-//W3C//DTD SVG 1.1//EN" "http://www.w3.org/Graphics/SVG/1.1/DTD/svg11.dtd">
<!-- Creator: CorelDRAW X6 -->
<svg xmlns="http://www.w3.org/2000/svg" xml:space="preserve" width="0.976256in" height="0.705772in" version="1.1" style="shape-rendering:geometricPrecision; text-rendering:geometricPrecision; image-rendering:optimizeQuality; fill-rule:evenodd; clip-rule:evenodd"
viewBox="0 0 393 284"
 xmlns:xlink="http://www.w3.org/1999/xlink">
 <defs>
  <style type="text/css">
   <![CDATA[
    .fil0 {fill:#00AB98}
   ]]>
  </style>
 </defs>
 <g id="Layer_x0020_1">
  <metadata id="CorelCorpID_0Corel-Layer"/>
  <path class="fil0" d="M234 43c-3,-6 -10,-15 -18,-21 -8,-6 -16,-9 -25,-11 -9,-1 -17,-1 -25,-2 -8,-1 -15,-2 -21,-4 -6,-2 -12,-3 -18,-5 3,5 5,9 7,12 2,3 3,5 0,6 -3,1 -11,1 -18,-1 -7,-2 -13,-6 -17,-8 -4,-3 -7,-4 -9,-6 3,9 6,18 8,25 2,8 4,14 8,20 4,6 10,11 10,14 0,3 -7,4 -12,4 -5,0 -8,0 -12,-1 4,3 9,6 14,8 5,2 12,2 9,5 -2,3 -13,7 -22,14 -9,7 -17,15 -24,22 -8,7 -15,14 -23,19 -8,5 -17,9 -25,12 -8,2 -15,3 -21,4 6,2 11,5 17,6 6,2 12,2 19,2 7,0 14,0 15,2 1,2 -5,5 -11,8 3,1 7,2 11,1 4,0 10,-2 10,-1 1,2 -4,6 -9,11 -5,4 -10,8 -17,12 -7,4 -16,8 -25,13 11,1 22,1 32,0 10,-2 18,-5 24,-9 7,-4 12,-7 17,-10 5,-3 10,-4 15,-4 5,0 10,2 15,5 5,3 11,6 14,8 4,2 6,2 8,5 2,3 4,8 6,12 2,4 4,7 8,8 4,2 10,2 12,1 2,-1 0,-4 -2,-8 -2,-4 -5,-9 -7,-12 -1,-3 -1,-5 3,-5 4,-1 12,0 17,0 5,0 6,0 9,3 2,3 5,9 8,14 3,4 8,7 11,8 4,1 7,0 9,-1 2,-1 2,-3 1,-6 -2,-3 -6,-9 -8,-14 -2,-5 -3,-10 -2,-13 1,-3 2,-4 8,-9 6,-5 15,-13 21,-20 6,-8 10,-15 12,-23 2,-8 3,-17 3,-25 0,-8 -2,-15 -3,-21 -2,-6 -3,-12 -3,-14 0,-3 2,-2 5,-2 3,0 8,-1 12,-3 4,-2 7,-5 11,-8 -5,-3 -11,-6 -16,-8 -5,-1 -10,-1 -13,-2 -2,-1 -2,-3 -5,-8z"/>
  <path class="fil0" d="M378 205c-11,-9 -30,-12 -43,-14 -13,-2 -22,-2 -28,-3 -6,-1 -11,-2 -16,-4 -4,-2 -8,-3 -12,-3 -3,0 -6,2 -6,4 0,1 3,2 6,3 4,1 8,3 7,4 -2,2 -9,4 -17,5 -8,1 -15,1 -21,2 -7,1 -13,3 -19,6 -7,3 -14,7 -22,9 -8,2 -18,3 -26,2 -8,-1 -15,-3 -22,-5 -7,-2 -14,-5 -22,-6 -8,-2 -16,-3 -24,-3 -8,0 -14,0 -17,1 -3,1 -3,3 -1,4 2,1 5,2 9,4 4,2 9,4 8,6 -1,2 -9,3 -16,4 -8,1 -16,3 -26,8 -10,5 -22,14 -30,20 -7,6 -10,9 -9,12 0,3 4,5 9,4 5,-1 12,-7 21,-12 9,-5 21,-10 31,-13 11,-3 20,-4 30,-4 10,0 20,0 29,1 9,1 17,4 25,6 8,2 16,3 25,1 9,-2 20,-8 30,-12 10,-4 18,-6 26,-7 8,-1 15,-2 14,0 -1,2 -9,6 -16,8 -7,2 -12,3 -14,4 -2,1 0,4 4,5 4,1 9,1 16,-1 7,-2 14,-7 21,-10 7,-3 13,-5 23,-5 10,-1 23,-1 35,0 12,1 24,3 34,6 10,3 18,8 19,3 2,-5 -3,-19 -14,-28z"/>
  <path class="fil0" d="M143 240c-5,0 -10,0 -14,1 -4,1 -8,3 -12,7 -4,4 -8,9 -11,12 -3,4 -6,6 -5,7 2,1 9,0 15,-1 6,-1 12,-1 17,-3 5,-2 10,-7 14,-11 4,-4 7,-7 6,-9 -1,-2 -6,-3 -11,-3z"/>
  <path class="fil0" d="M359 175c-2,-3 -5,-10 -9,-15 -4,-5 -9,-7 -14,-9 -4,-2 -8,-4 -11,-7 -3,-2 -5,-5 -6,-3 -1,2 0,9 0,16 1,7 2,13 8,17 6,4 16,7 22,9 6,2 9,2 10,1 2,-1 3,-3 2,-5 0,-1 -2,-1 -4,-5z"/>
  <path class="fil0" d="M309 171c-3,-4 -5,-9 -9,-12 -4,-3 -9,-4 -14,-6 -5,-2 -9,-5 -11,-8 -3,-3 -4,-5 -4,-3 -1,2 -1,10 3,18 4,8 13,15 21,19 8,4 15,3 17,1 2,-2 0,-5 -2,-9z"/>
  <path class="fil0" d="M224 246c-2,-2 -7,0 -12,2 -5,3 -9,6 -13,10 -4,4 -7,10 -6,11 2,1 8,-1 15,-3 6,-3 11,-5 14,-9 3,-4 3,-9 1,-11z"/>
  <path class="fil0" d="M56 221c-3,-1 -8,-4 -13,-5 -5,-1 -10,-1 -15,0 -5,1 -9,3 -13,3 -4,1 -8,1 -8,2 0,1 4,4 8,7 4,3 7,7 11,9 4,2 8,2 14,0 5,-2 11,-5 15,-8 4,-3 6,-5 6,-6 0,-1 -2,-1 -5,-3z"/>
  <path class="fil0" d="M97 245c2,2 -3,8 -7,12 -5,4 -10,7 -14,10 -5,3 -9,7 -12,10 -3,4 -4,7 -5,6 -1,-2 -2,-8 -2,-14 0,-6 2,-10 6,-13 4,-3 9,-6 16,-8 7,-2 16,-5 18,-3z"/>
  <path class="fil0" d="M260 190c0,-3 -3,-6 -8,-9 -4,-3 -10,-5 -15,-6 -6,-1 -12,-2 -12,0 0,2 5,7 10,11 5,4 10,7 15,8 5,1 10,-2 10,-4z"/>
  <path class="fil0" d="M90 211c0,-2 -4,-4 -8,-5 -4,-1 -9,-1 -13,0 -5,1 -9,2 -9,4 0,2 6,4 11,5 5,2 10,3 14,2 4,-1 7,-4 6,-6z"/>
 </g>
</svg>
