<?xml version="1.0" encoding="UTF-8"?>
<!DOCTYPE svg PUBLIC "-//W3C//DTD SVG 1.1//EN" "http://www.w3.org/Graphics/SVG/1.1/DTD/svg11.dtd">
<!-- Creator: CorelDRAW X6 -->
<svg xmlns="http://www.w3.org/2000/svg" xml:space="preserve" width="1.46868in" height="1.46868in" version="1.1" style="shape-rendering:geometricPrecision; text-rendering:geometricPrecision; image-rendering:optimizeQuality; fill-rule:evenodd; clip-rule:evenodd"
viewBox="0 0 859 859"
 xmlns:xlink="http://www.w3.org/1999/xlink">
 <g id="Layer_x0020_1">
  <metadata id="CorelCorpID_0Corel-Layer"/>
  <g id="_001-clock.eps">
   <path class="fill-navy-blue" d="M430 0c-237,0 -430,193 -430,430 0,237 193,430 430,430 237,0 430,-193 430,-430 0,-237 -193,-430 -430,-430zm0 801c-204,0 -371,-166 -371,-371 0,-204 166,-371 371,-371 204,0 371,166 371,371 0,204 -166,371 -371,371z"/>
   <path class="fill-navy-blue" d="M651 424l-204 0 0 -223c0,-16 -13,-29 -29,-29 -16,0 -29,13 -29,29l0 252c0,16 13,29 29,29l234 0c16,0 29,-13 29,-29 0,-16 -13,-29 -29,-29z"/>
  </g>
 </g>
</svg>
