<?xml version="1.0" encoding="UTF-8"?>
<!DOCTYPE svg PUBLIC "-//W3C//DTD SVG 1.1//EN" "http://www.w3.org/Graphics/SVG/1.1/DTD/svg11.dtd">
<!-- Creator: CorelDRAW X6 -->
<svg xmlns="http://www.w3.org/2000/svg" xml:space="preserve" width="1.79931in" height="1.43225in" version="1.1" style="shape-rendering:geometricPrecision; text-rendering:geometricPrecision; image-rendering:optimizeQuality; fill-rule:evenodd; clip-rule:evenodd"
viewBox="0 0 1238 986"
 xmlns:xlink="http://www.w3.org/1999/xlink">
 <defs>
  <style type="text/css">
   <![CDATA[
    .fil0 {fill:#fff;}
   ]]>
  </style>
 </defs>
 <g id="Layer_x0020_1">
  <metadata id="CorelCorpID_0Corel-Layer"/>
  <path class="fil0" d="M1062 568c0,-1 0,-3 -1,-5l-442 -364 -442 364c0,2 -1,3 -1,5l0 369c0,27 22,49 49,49l295 0 0 -295 197 0 0 295 295 0c27,0 49,-22 49,-49l0 -369zm171 -53c8,-10 7,-26 -3,-34l-168 -140 0 -313c0,-14 -11,-25 -25,-25l-147 0c-14,0 -25,11 -25,25l0 150 -187 -157c-32,-27 -84,-27 -117,0l-552 460c-10,8 -11,25 -3,34l47 57c4,5 10,8 16,8 7,1 13,-2 18,-6l532 -443 532 443c5,4 10,6 16,6 1,0 2,0 2,0 6,-1 12,-4 16,-8l47 -57z"/>
 </g>
</svg>